/* XPM */
static char *result[] = {
/* columns rows colors chars-per-pixel */
"64 64 16 1 ",
"  c #174A27",
". c #1D4A2B",
"X c #1E4C2B",
"o c #1F4E2D",
"O c #274630",
"+ c #234C30",
"@ c #234E31",
"# c #244D30",
"$ c #2C4F37",
"% c #2D4D38",
"& c #275134",
"* c #285636",
"= c #335C40",
"- c #2D7E85",
"; c #33768E",
": c None",
/* pixels */
"::::::::::::::::::::::::::::::::::::::::::::::::::::::::::::::::",
"::::::::::::::::::::::::::::::::::::::::::::::::::::::::::::::::",
"::::::::::::::::::::::::::::::::::::::::::::::::::::::::::::::::",
"::::::::::::::::::::::::::::::::::::::::::::::::::::::::::::::::",
"::::::::::::::::::::::::::::::::::::::::::::::::::::::::::::::::",
"::::::::::::::::::::::::::::::::::::::::::::::::::::::::::::::::",
"::::::::::::::::::::::::::::::::::::::::::::::::::::::::::::::::",
"::::::::::::::::::::::::::::::::::::::::::::::::::::::::::::::::",
"::::::::::::::::::::::::::::::::::::::::::::::::::::::::::::::::",
"::::::::::::::::::::::::::::::::::::::::::::::::::::::::::::::::",
"::::::::::::::::::::::::::::::::::::::::::::::::::::::::::::::::",
"::::::::::::::::::::::::::::::::::::::::::::::::::::::::::::::::",
"::::::::::::::::::::::::::::::::::::::::::::::::::::::::::::::::",
"::::::::::::::::::::::::::::::::::::::::::::::::::::::::::::::::",
"::::::::::::::::::::::::::::::::::::::::::::::::::::::::::::::::",
"::::::::::::::::::::::::::::::::::::::::::::::::::::::::::::::::",
"::::::::::::::::::::::::::::::::::::::::::::::::::::::::::::::::",
"::::::::::::::::::::::::::::::::::::::::::::::::::::::::::::::::",
"::::::::::::::::::::::::::::::::::::::::::::::::::::::::::::::::",
"::::::::::::::::::::::::::::::::::::::::::::::::::::::::::::::::",
"::::::::::::::::::::#################.......::::::::::::::::::::",
"::::::::::::::::::::#################.......::::::::::::::::::::",
"::::::::::::::::::::#################.......::::::::::::::::::::",
"::::::::::::::::::::#################.......::::::::::::::::::::",
"::::::::;;;;;;;;----########            ....--------;;;;::::::::",
"::::::::;;;;;;;;----########            ....--------;;;;::::::::",
"::::::::;;;;;;;;----########            ....--------;;;;::::::::",
"::::::::;;;;;;;;----########            ....--------;;;;::::::::",
"::::::::----;;;;----&&&&                ....----;;;;;;;;::::::::",
"::::::::----;;;;----&&&&                ....----;;;;;;;;::::::::",
"::::::::----;;;;----&&&&                ....----;;;;;;;;::::::::",
"::::::::----;;;;----&&&&                ....----;;;;;;;;::::::::",
"::::::::----;;;;;;;;&&&&        @@@@    @@@@;;;;;;;;----::::::::",
"::::::::----;;;;;;;;&&&&        @@@@    @@@@;;;;;;;;----::::::::",
"::::::::----;;;;;;;;&&&&        @@@@    @@@@;;;;;;;;----::::::::",
"::::::::----;;;;;;;;&&&&        @@@@    @@@@;;;;;;;;----::::::::",
"::::::::--------;;;;&&&&        @@@@@@@@@@@@;;;;;;;;----::::::::",
"::::::::--------;;;;&&&&        @@@@@@@@@@@@;;;;;;;;----::::::::",
"::::::::--------;;;;&&&&        @@@@@@@@@@@@;;;;;;;;----::::::::",
"::::::::--------;;;;&&&&        @@@@@@@@@@@@;;;;;;;;----::::::::",
"::::::::XXXXXXXXXXXX&&&&&&&&%%%%%%%%%%%%@@@@OOOO++++$$$$::::::::",
"::::::::XXXXXXXXXXXX&&&&&&&&%%%%%%%%%%%%@@@@OOOO++++$$$$::::::::",
"::::::::XXXXXXXXXXXX&&&&&&&&%%%%%%%%%%%%@@@@OOOO++++$$$$::::::::",
"::::::::XXXXXXXXXXXX&&&&&&&&%%%%%%%%%%%%@@@@OOOO++++$$$$::::::::",
"::::::::XXXXXXXXXXXX::::::::::::::::::::::::************::::::::",
"::::::::XXXXXXXXXXXX::::::::::::::::::::::::************::::::::",
"::::::::XXXXXXXXXXXX::::::::::::::::::::::::************::::::::",
"::::::::XXXXXXXXXXXX::::::::::::::::::::::::************::::::::",
"::::::::XXXXXXXXoooo::::::::::::::::::::::::************::::::::",
"::::::::XXXXXXXXoooo::::::::::::::::::::::::************::::::::",
"::::::::XXXXXXXXoooo::::::::::::::::::::::::************::::::::",
"::::::::XXXXXXXXoooo::::::::::::::::::::::::************::::::::",
"::::::::....====oooo::::::::::::::::::::::::====********::::::::",
"::::::::....====oooo::::::::::::::::::::::::====********::::::::",
"::::::::....====oooo::::::::::::::::::::::::====********::::::::",
"::::::::....====oooo::::::::::::::::::::::::====********::::::::",
"::::::::::::::::::::::::::::::::::::::::::::::::::::::::::::::::",
"::::::::::::::::::::::::::::::::::::::::::::::::::::::::::::::::",
"::::::::::::::::::::::::::::::::::::::::::::::::::::::::::::::::",
"::::::::::::::::::::::::::::::::::::::::::::::::::::::::::::::::",
"::::::::::::::::::::::::::::::::::::::::::::::::::::::::::::::::",
"::::::::::::::::::::::::::::::::::::::::::::::::::::::::::::::::",
"::::::::::::::::::::::::::::::::::::::::::::::::::::::::::::::::",
"::::::::::::::::::::::::::::::::::::::::::::::::::::::::::::::::"
};
