/* XPM */
static char *result[] = {
/* columns rows colors chars-per-pixel */
"48 48 235 2 ",
"   c #53090E",
".  c #54090E",
"X  c #5E0A0F",
"o  c #5F0A0F",
"O  c #5F0B0F",
"+  c #580E0C",
"@  c #590E0C",
"#  c #630E0E",
"$  c #650E0F",
"%  c #610A10",
"&  c #620A10",
"*  c #620A11",
"=  c #670B12",
"-  c #680B11",
";  c #680B12",
":  c #6B0F10",
">  c #6F0C13",
",  c #5D2507",
"<  c #522308",
"1  c #532409",
"2  c #542409",
"3  c #5D200A",
"4  c #5E210B",
"5  c #582408",
"6  c #592408",
"7  c #582508",
"8  c #5B2709",
"9  c #5A270A",
"0  c #5D2709",
"q  c #6E2704",
"w  c #6F2803",
"e  c #61210B",
"r  c #61220A",
"t  c #64220B",
"y  c #65220B",
"u  c #702403",
"i  c #702304",
"p  c #772107",
"a  c #702404",
"s  c #772406",
"d  c #7A2107",
"f  c #7B2107",
"g  c #7A2405",
"h  c #7B2405",
"j  c #7E2506",
"k  c #7F2506",
"l  c #7D2606",
"z  c #702803",
"x  c #742802",
"c  c #752802",
"v  c #762802",
"b  c #762A04",
"n  c #7F2508",
"m  c #78330C",
"M  c #78340D",
"N  c #7D350C",
"B  c #7E370E",
"V  c #6C341E",
"C  c #763220",
"Z  c #793221",
"A  c #8A0E15",
"S  c #920F16",
"D  c #9B0F16",
"F  c #9C0F16",
"G  c #8E1213",
"H  c #891513",
"J  c #911214",
"K  c #911315",
"L  c #951017",
"P  c #961017",
"I  c #961414",
"U  c #971414",
"Y  c #991315",
"T  c #9B1017",
"R  c #9C1017",
"E  c #991415",
"W  c #9B1416",
"Q  c #9A1417",
"!  c #9F1018",
"~  c #9C101A",
"^  c #A31916",
"/  c #A41817",
"(  c #A01018",
")  c #A31119",
"_  c #A3111B",
"`  c #A1131B",
"'  c #A51019",
"]  c #A41119",
"[  c #A51119",
"{  c #A4121A",
"}  c #A71519",
"|  c #A4151A",
" . c #A6151A",
".. c #A6121C",
"X. c #A7121C",
"o. c #A8111A",
"O. c #A81519",
"+. c #AB161A",
"@. c #AC151A",
"#. c #AF161B",
"$. c #AB121D",
"%. c #AC121C",
"&. c #AE121C",
"*. c #B0171B",
"=. c #B1121C",
"-. c #B1121D",
";. c #B0131D",
":. c #B1131D",
">. c #B3121D",
",. c #B1131E",
"<. c #B3131E",
"1. c #B4111C",
"2. c #B4131E",
"3. c #B5131E",
"4. c #B6131E",
"5. c #B7131E",
"6. c #B5171C",
"7. c #B9131F",
"8. c #BA131F",
"9. c #BA141F",
"0. c #BB141F",
"q. c #832507",
"w. c #842507",
"e. c #832209",
"r. c #86220A",
"t. c #88230A",
"y. c #BE1420",
"u. c #BF1420",
"i. c #A22628",
"p. c #A82128",
"a. c #AA232A",
"s. c #AB232A",
"d. c #B2232B",
"f. c #BA232D",
"g. c #B3282E",
"h. c #BF2530",
"j. c #BE2630",
"k. c #BF2630",
"l. c #C5181F",
"z. c #C9191F",
"x. c #C21420",
"c. c #C31521",
"v. c #C41421",
"b. c #C41521",
"n. c #C51521",
"m. c #C71521",
"M. c #C41622",
"N. c #C91521",
"B. c #CE1622",
"V. c #CF1A20",
"C. c #D21623",
"Z. c #D31623",
"A. c #D41623",
"S. c #D71624",
"D. c #D61724",
"F. c #D71724",
"G. c #D81724",
"H. c #DB1725",
"J. c #DC1725",
"K. c #DD1725",
"L. c #DE1725",
"P. c #DD1F2D",
"I. c #E01726",
"U. c #E11826",
"Y. c #E21826",
"T. c #E41826",
"R. c #E61827",
"E. c #E91927",
"W. c #E91A27",
"Q. c #E61A28",
"!. c #EB1A28",
"~. c #EC1A28",
"^. c #F01A28",
"/. c #F11A29",
"(. c #F21A29",
"). c #F41A29",
"_. c #F51A29",
"`. c #F41B29",
"'. c #F51B29",
"]. c #F61B29",
"[. c #F91B2A",
"{. c #FA1B2A",
"}. c #FB1B2A",
"|. c #FF1B2A",
" X c #FF1B2B",
".X c #FF1C2B",
"XX c #FF1E2C",
"oX c #DA222E",
"OX c #C82631",
"+X c #C8353F",
"@X c #E2212F",
"#X c #F52331",
"$X c #F52533",
"%X c #FB2432",
"&X c #FF2433",
"*X c #FF2534",
"=X c #FF2634",
"-X c #FF2635",
";X c #FF2C3A",
":X c #FF2E3B",
">X c #F94B57",
",X c #FF4C58",
"<X c #FF4D58",
"1X c #FA545F",
"2X c #FF5560",
"3X c #FF5561",
"4X c #F85A65",
"5X c #FD5B66",
"6X c #FF5B66",
"7X c #FF5E69",
"8X c #FF5F6A",
"9X c #FF6671",
"0X c #FF6771",
"qX c #FD6A75",
"wX c #E7737A",
"eX c #E9757C",
"rX c #F27C84",
"tX c #F57D84",
"yX c #F57F87",
"uX c #FF7D86",
"iX c #E78588",
"pX c #E68688",
"aX c #EF838A",
"sX c #E88588",
"dX c #F1838A",
"fX c #F2838A",
"gX c #F4838B",
"hX c #F1848B",
"jX c #F4848B",
"kX c #FF848D",
"lX c #FF8F97",
"zX c #FF9097",
"xX c #FF989F",
"cX c #FF99A0",
"vX c None",
/* pixels */
"vXvXvXvXvXvXvXvXvXvXvXvXvXvXvXvXvXvXvXvXvXvXvXvXvXvXvXvXvXvXvXvXvXvXvXvXvXvXvXvXvXvXvXvXvXvXvXvX",
"vXvXvXvXvXvXvXvXvXvXvXvXvXvXvXvXvXvXvXvXvXvXvXvXvXvXvXvXvXvXvXvXvXvXvXvXvXvXvXvXvXvXvXvXvXvXvXvX",
"vXvXvXvXvXvXvXvXvXvXvXvXvXvXvXvXvXvXvXvXvXvXvXvXvXvXvXvXvXvXvXvXvXvXvXvXvXvXvXvXvXvXvXvXvXvXvXvX",
"vXvXvXvXvXvXvXvXvXvXvXvXvXvXvXvXvXvXvXvXvXvXvXvXvXvXvXc c c vXvXvXvXvXvXvXvXvXvXvXvXvXvXvXvXvXvX",
"vXvXvXvXvXvXvXvXvXvXvXvXvXvXvXvXvXvXvXvXvXvXvXvXvXvXvXc c c vXvXvXvXvXvXvXvXvXvXvXvXvXvXvXvXvXvX",
"vXvXvXvXvXvXvXvXvXvXvXvXvXvXvXvXvXvXvXvXvXvXvXvXvXvXvXz z z vXvXvXvXvXvXvXvXvXvXvXvXvXvXvXvXvXvX",
"vXvXvXvXvXvXvXvXvXvXvXvXvXvXvXvXvXvXvXvXvXvXvXvXB B M 0 5 6 vXvXvXvXvXvXvXvXvXvXvXvXvXvXvXvXvXvX",
"vXvXvXvXvXvXvXvXvXvXvXvXvXvXvXvXvXvXvXvXvXvXvXvXB B M 9 2 2 vXvXvXvXvXvXvXvXvXvXvXvXvXvXvXvXvXvX",
"vXvXvXvXvXvXvXvXvXvXvXvXvXvXvXvXvXvXvXvXvXvXvXvXN N m 8 2 2 vXvXvXvXvXvXvXvXvXvXvXvXvXvXvXvXvXvX",
"vXvXvXvXvXvXvXvXvXvXvXvXvXvXvXvXvXvXvXvXvXvXvXvXb b b vXvXvXvXvXvXvXvXvXvXvXvXvXvXvXvXvXvXvXvXvX",
"vXvXvXvXvXvXvXvXvXvXvXvXvXvXvXvXvXvXvXvXvXvXvXvXc c c vXvXvXvXvXvXvXvXvXvXvXvXvXvXvXvXvXvXvXvXvX",
"vXvXvXvXvXvXvXvXvXvXvXvXvXvXvXvXvXvXvXvXvXvXvXvXz z z vXvXvXvXvXvXvXvXvXvXvXvXvXvXvXvXvXvXvXvXvX",
"vXvXvXvXvXvXvXvXvXvXvXvXvXvXvXR R R R R U g c z , 6 , z c c c c c vXvXvXvXvXvXvXvXvXvXvXvXvXvXvX",
"vXvXvXvXvXvXvXvXvXvXvXvXvXvXvXD D D R R I h c z 7 1 7 w x x x c c vXvXvXvXvXvXvXvXvXvXvXvXvXvXvX",
"vXvXvXvXvXvXvXvXvXvXvXvXvXvXvXa.a.p.` ( E s z q r 4 t n w.q.k j j vXvXvXvXvXvXvXvXvXvXvXvXvXvXvX",
"vXvXvXvXvXvXvXvXvXR R ( ;.>.j.eXhXwXf.=.| y 7 r H K Q l.V.z.*.+./ j c c c c c vXvXvXvXvXvXvXvXvX",
"vXvXvXvXvXvXvXvXvXR R ( ;.>.k.jXcXjXh.1. .e < 3 J F ' A.L.S.8.2.+.j x c c c c vXvXvXvXvXvXvXvXvX",
"vXvXvXvXvXvXvXvXvX( ( ] 9.u.OXtXlXyX+Xh.g.Z V C i.s.d.oX@XP.M.u.6.t.j l v c c vXvXvXvXvXvXvXvXvX",
"vXvXvXvXvXvXR R ( &.;.9.!.).$X5X9XqXyXgXfXsXpXiXaXdXrX4X1X>X#X`.W.6.+.^ l c c c c c vXvXvXvXvXvX",
"vXvXvXvXvXvXR R ( ;.2.u.`..X=X2X7X9XlXxXxXxXxXxXxXxXzX0X8X3X=X.X'.u.2.+.j x c c c c vXvXvXvXvXvX",
"vXvXvXvXvXvXR R ( ;.<.u.`..X&X<X2X6XuXkXkXkXkXkXkXkXuX6X2X,X%X{.(.m.u.6.t.j l v c c vXvXvXvXvXvX",
"vXvXvXvXvXvXR R ( ;.<.u.`..XXX&X*X-X;X:X:X:X:X:X:X:X;X-X=X%XQ.Y.T.(.'.W.6.+.^ l c c vXvXvXvXvXvX",
"vXvXvXvXvXvXR R ( ;.<.u.`..X.X.X X|.|.|.|.|.|.|.|.|.|.|..X{.Y.J.Y.{..X`.u.2.+.j c c vXvXvXvXvXvX",
"vXvXvXvXvXvXR R ( ;.<.y.^.{.}..X.X.X}.{.}..X.X.X}.{.{.{.{.].U.K.Y.{..X'.b.8.#.f u i vXvXvXvXvXvX",
"vXvXvXvXvXvXR R ( ;.2.0.H.Y.R.}..X}.R.Y.R.}..X}.R.Y.Y.Y.Y.U.K.K.Y.{..X[.K.F.n.: + @ vXvXvXvXvXvX",
"vXvXvXvXvXvXR R ( ;.2.8.F.K.Y.{..X{.Y.J.Y.{..X{.Y.K.K.K.K.K.K.K.Y.{..X{.Y.L.N.;   . vXvXvXvXvXvX",
"vXvXvXvXvXvXU I W ;.2.7.C.F.J._.{.].U.K.I./.'.^.H.F.G.J.K.J.G.F.K.[..X{.Y.L.N.;   . vXvXvXvXvXvX",
"vXvXvXvXvXvXg g e.@.2.3.7.8.u.J.Y.U.K.K.G.c.u.y.0.8.u.G.K.G.u.7.b.'..X{.Y.L.N.;   . vXvXvXvXvXvX",
"vXvXvXvXvXvXc x j +.2.2.2.2.8.F.K.K.K.K.F.8.<.<.2.<.7.F.L.F.8.<.u.`..X{.Y.L.N.;   . vXvXvXvXvXvX",
"vXvXvXvXvXvXc c j +.2.2.2.2.7.C.F.F.F.F.C.7.2.3.7.8.y.Z.G.C.7.<.u.`..X[.K.F.v.=   . vXvXvXvXvXvX",
"vXvXvXvXvXvXc c j +.2.2.2.2.3.7.8.8.8.8.7.3.2.7.C.G.Z.y.8.7.3.<.u.`..X'.b.9.$.*   . vXvXvXvXvXvX",
"vXvXvXvXvXvXc c j +.3.2.2.2.2.2.2.2.2.2.2.2.2.8.G.L.G.8.2.2.2.<.u.`..X`.u.2.X.&   . vXvXvXvXvXvX",
"vXvXvXvXvXvXc c j / +.@.<.2.2.2.2.3.7.8.7.3.2.7.C.G.C.7.2.3.7.8.x.~.'.E.,...~ &   . vXvXvXvXvXvX",
"vXvXvXvXvXvXvXvXvXj j r.@.2.2.2.2.7.C.G.C.7.2.3.7.8.7.3.2.7.C.G.A.x.u.,.> % & vXvXvXvXvXvXvXvXvX",
"vXvXvXvXvXvXvXvXvXc x j +.2.2.2.2.8.G.L.G.8.2.2.2.2.2.2.2.8.G.L.G.8.2...%     vXvXvXvXvXvXvXvXvX",
"vXvXvXvXvXvXvXvXvXc c j O.-.:.2.2.7.C.G.C.7.2.3.7.8.8.8.8.y.Z.G.C.4.:._ %   . vXvXvXvXvXvXvXvXvX",
"vXvXvXvXvXvXvXvXvXc c h E ( ) :.2.3.7.8.7.3.2.7.C.F.F.F.F.Z.y.8.4.] ( L o   . vXvXvXvXvXvXvXvXvX",
"vXvXvXvXvXvXvXvXvXc c g I R ( ;.2.2.2.2.2.2.2.8.G.L.K.K.L.G.8.2.;.( R S X   . vXvXvXvXvXvXvXvXvX",
"vXvXvXvXvXvXvXvXvXc c g G S P %.;.:.2.2.2.:.;.3.B.A.A.D.F.C.4.;.%.P S A X   . vXvXvXvXvXvXvXvXvX",
"vXvXvXvXvXvXvXvXvXvXvXvXO X - P ( ) :.2.:.) ( ( ] [ o.5.8.4.] ( P - X X vXvXvXvXvXvXvXvXvXvXvXvX",
"vXvXvXvXvXvXvXvXvXvXvXvX    X S R ( :.3.-.( R R R T ! :.3.:.( R S X     vXvXvXvXvXvXvXvXvXvXvXvX",
"vXvXvXvXvXvXvXvXvXvXvXvX.   X A S L } +.O.E I U U I Y { .._ L S A X   . vXvXvXvXvXvXvXvXvXvXvXvX",
"vXvXvXvXvXvXvXvXvXvXvXvXvXvXvXX X # d j j h g g g h p $ & % o X X vXvXvXvXvXvXvXvXvXvXvXvXvXvXvX",
"vXvXvXvXvXvXvXvXvXvXvXvXvXvXvX    + u c c c c c c c a +           vXvXvXvXvXvXvXvXvXvXvXvXvXvXvX",
"vXvXvXvXvXvXvXvXvXvXvXvXvXvXvX. . @ i c c c c c c c i @ . . . . . vXvXvXvXvXvXvXvXvXvXvXvXvXvXvX",
"vXvXvXvXvXvXvXvXvXvXvXvXvXvXvXvXvXvXvXvXvXvXvXvXvXvXvXvXvXvXvXvXvXvXvXvXvXvXvXvXvXvXvXvXvXvXvXvX",
"vXvXvXvXvXvXvXvXvXvXvXvXvXvXvXvXvXvXvXvXvXvXvXvXvXvXvXvXvXvXvXvXvXvXvXvXvXvXvXvXvXvXvXvXvXvXvXvX",
"vXvXvXvXvXvXvXvXvXvXvXvXvXvXvXvXvXvXvXvXvXvXvXvXvXvXvXvXvXvXvXvXvXvXvXvXvXvXvXvXvXvXvXvXvXvXvXvX"
};
