/* XPM */
static char *result[] = {
/* columns rows colors chars-per-pixel */
"48 48 228 2 ",
"   c #0A362F",
".  c #0B362F",
"X  c #0C362F",
"o  c #0C3630",
"O  c #0C3730",
"+  c #0D3D35",
"@  c #0D3D36",
"#  c #0E3E36",
"$  c #0E3F36",
"%  c #0E3F37",
"&  c #0F433B",
"*  c #0E443B",
"=  c #0F443B",
"-  c #0F453C",
";  c #0F463D",
":  c #11463D",
">  c #11463E",
",  c #104B41",
"<  c #104C42",
"1  c #145349",
"2  c #204741",
"3  c #214741",
"4  c #204841",
"5  c #214842",
"6  c #23554C",
"7  c #24564E",
"8  c #335751",
"9  c #335752",
"0  c #1A7566",
"q  c #1A7768",
"w  c #1B7A6A",
"e  c #1B7A6B",
"r  c #1B7B6B",
"t  c #1B7D6C",
"y  c #1B7D6D",
"u  c #1C7E6D",
"i  c #1C7F6E",
"p  c #1C8171",
"a  c #1C8271",
"s  c #1D8372",
"d  c #1D8473",
"f  c #1F8473",
"g  c #1F8574",
"h  c #1D8674",
"j  c #1F8675",
"k  c #1E8876",
"l  c #1E8B78",
"z  c #1E8C79",
"x  c #1E8D7A",
"c  c #1F917E",
"v  c #1F927F",
"b  c #208A79",
"n  c #238E7C",
"m  c #20937F",
"M  c #1F9480",
"N  c #209480",
"B  c #209481",
"V  c #209581",
"C  c #209681",
"Z  c #219783",
"A  c #219883",
"S  c #219985",
"D  c #219A85",
"F  c #239C87",
"G  c #239C88",
"H  c #229E88",
"J  c #249C88",
"K  c #299D89",
"L  c #24A08B",
"P  c #27A38E",
"I  c #29A18C",
"U  c #2CA48F",
"Y  c #2DA490",
"T  c #28BCA2",
"R  c #29C0A6",
"E  c #29C1A7",
"W  c #2AC1A7",
"Q  c #2AC2A7",
"!  c #2AC2A8",
"~  c #2AC3A8",
"^  c #2BC5AA",
"/  c #2BC6AB",
"(  c #2BC7AC",
")  c #2BC8AC",
"_  c #2BC8AD",
"`  c #2BC9AD",
"'  c #2BC9AE",
"]  c #2ACCB0",
"[  c #2CCCB0",
"{  c #2CCDB1",
"}  c #2DCDB1",
"|  c #2CCEB2",
" . c #2DCEB2",
".. c #2FCEB3",
"X. c #2ECFB3",
"o. c #2FD0B4",
"O. c #2ED3B6",
"+. c #34D0B5",
"@. c #36D2B7",
"#. c #39D1B6",
"$. c #3BD1B7",
"%. c #30D4B8",
"&. c #3BD3B9",
"*. c #30DCBE",
"=. c #32DDBF",
"-. c #41D4BA",
";. c #46D4BC",
":. c #34DDC0",
">. c #3EDEC2",
",. c #3FDFC3",
"<. c #43DCC2",
"1. c #43DDC2",
"2. c #43DDC3",
"3. c #45DEC3",
"4. c #45DFC4",
"5. c #46DFC5",
"6. c #44E2C7",
"7. c #46E3C8",
"8. c #45E4C8",
"9. c #45E5C9",
"0. c #46E4C9",
"q. c #46E5CA",
"w. c #46E6CA",
"e. c #47E6CA",
"r. c #47E6CB",
"t. c #48EACE",
"y. c #48EBCE",
"u. c #49EBCF",
"i. c #52E7CE",
"p. c #48ECD0",
"a. c #49ECD0",
"s. c #48EDD1",
"d. c #49EDD1",
"f. c #4AECD0",
"g. c #4AEDD1",
"h. c #4BEDD1",
"j. c #4AEED1",
"k. c #4AEED2",
"l. c #54EED3",
"z. c #54EED4",
"x. c #55EED4",
"c. c #56EED4",
"v. c #58EDD3",
"b. c #59EED5",
"n. c #59EFD5",
"m. c #63EFD7",
"M. c #7BE5D3",
"N. c #7CEAD7",
"B. c #64F0D7",
"V. c #64F0D8",
"C. c #83ECDA",
"Z. c #88EDDC",
"A. c #84F1DE",
"S. c #85F1DE",
"D. c #8BF4E2",
"F. c #8CF4E2",
"G. c #8DF4E2",
"H. c #8DF5E3",
"J. c #91F4E3",
"K. c #92F5E3",
"L. c #92F5E4",
"P. c #95F5E4",
"I. c #9EF6E7",
"U. c #A1F6E7",
"Y. c #A2F6E7",
"T. c #A3F6E7",
"R. c #A5F6E8",
"E. c #A6F6E8",
"W. c #A8F6E8",
"Q. c #A9F7E9",
"!. c #AAF7E9",
"~. c #AFF6E9",
"^. c #ACF7EA",
"/. c #ADF7EA",
"(. c #AEF7EA",
"). c #B0F7EB",
"_. c #B9F5EB",
"`. c #B9F6EC",
"'. c #BEF6EC",
"]. c #BBF8ED",
"[. c #D9E0DF",
"{. c #DDEEEB",
"}. c #C1F6ED",
"|. c #C3F6ED",
" X c #C3F6EE",
".X c #C4F7EF",
"XX c #C7F7EE",
"oX c #C0F8EE",
"OX c #C3F9F0",
"+X c #C6F9F0",
"@X c #C7F9F0",
"#X c #CAF9F1",
"$X c #CBF9F2",
"%X c #CCFAF2",
"&X c #CDFAF2",
"*X c #CEFAF2",
"=X c #CFFAF2",
"-X c #D1FAF3",
";X c #D2FAF3",
":X c #D7F9F3",
">X c #D4FAF4",
",X c #D5FAF4",
"<X c #D6FBF4",
"1X c #E5EFED",
"2X c #E7EFEE",
"3X c #EAEEED",
"4X c #EBEEED",
"5X c #E9EFEE",
"6X c #EBEFEE",
"7X c #ECEFEE",
"8X c #E9FDF9",
"9X c #EDFDFA",
"0X c #EFFDFB",
"qX c #F0FEFB",
"wX c #F1FEFB",
"eX c #F0FEFC",
"rX c #F2FEFC",
"tX c #F4FEFC",
"yX c #F6FEFD",
"uX c #F7FEFD",
"iX c #F8FEFD",
"pX c #F8FFFE",
"aX c #FAFEFE",
"sX c #FBFFFE",
"dX c #FCFFFE",
"fX c #FCFFFF",
"gX c white",
"hX c None",
/* pixels */
"hXhXhXhXhXhXhXhXhXhXhXhXhXhXhXhXhXhXhXhXhXhXhXhXhXhXhXhXhXhXhXhXhXhXhXhXhXhXhXhXhXhXhXhXhXhXhXhX",
"hXhXhXhXhXhXhXhXhXhXhXhXhXhXhXhXhXhXhXhXhXhXhXhXhXhXhXhXhXhXhXhXhXhXhXhXhXhXhXhXhXhXhXhXhXhXhXhX",
"hXhXhXhXhXhXhXhXhXhXhXhXhXhXhXhXhXhXhXhXhXhXhXhXhXhXhXhXhXhXhXhXhXhXhXhXhXhXhXhXhXhXhXhXhXhXhXhX",
"hXhXhXhXhXhXhXhXhXhXhXhXhXhXhXhXhXhXhXhXhXhXhXhXhXhXhXhXhXhXhXhXhXhXhXhXhXhXhXhXhXhXhXhXhXhXhXhX",
"hXhXhXhXhXhXhXhXhXhXhXhXhXhXhXhXhXhXhXhXhXhXhXhXhXhXhXhXhXhXhXhXhXhXhXhXhXhXhXhXhXhXhXhXhXhXhXhX",
"hXhXhXhXhXhXhXhXhXhXhXhXhXhXhXhXhXhXhXhXhXhXhXhXhXhXhXhXhXhXhXhXhXhXhXhXhXhXhXhXhXhXhXhXhXhXhXhX",
"hXhXhXhXhXhXhXhXhXhXhXhXhXhXhXhXhXhXO O O O O O O O O O O O hXhXhXhXhXhXhXhXhXhXhXhXhXhXhXhXhXhX",
"hXhXhXhXhXhXhXhXhXhXhXhXhXhXhXhXhXhX. . . . . . . . . . . . hXhXhXhXhXhXhXhXhXhXhXhXhXhXhXhXhXhX",
"hXhXhXhXhXhXhXhXhXhXhXhXhXhXhXhXhXhX4 5 5 5 5 5 5 5 5 5 5 4 hXhXhXhXhXhXhXhXhXhXhXhXhXhXhXhXhXhX",
"hXhXhXhXhXhXhXhXhXhXhXhXhXhXhXO . 4 [.6X3X3X3X3X3X3X3X3X6X[.4 . O hXhXhXhXhXhXhXhXhXhXhXhXhXhXhX",
"hXhXhXhXhXhXhXhXhXhXhXhXhXhXhX.   2 6XgXgXgXgXgXgXgXgXgXgX6X3 . o hXhXhXhXhXhXhXhXhXhXhXhXhXhXhX",
"hXhXhXhXhXhXhXhXhXhXhXhXhXhXhX4 2 8 1XpXuXuXuXuXuXuXuXsXfX2X6 * - hXhXhXhXhXhXhXhXhXhXhXhXhXhXhX",
"hXhXhXhXhXhXhXhXhXhXhXhXO . 4 [.6X1X~.!.!.!.!.!.!.!.(.-X<XXX$.{ W - o O hXhXhXhXhXhXhXhXhXhXhXhX",
"hXhXhXhXhXhXhXhXhXhXhXhX.   2 6XgXpX!.U.Y.Y.Y.Y.U.U.R.&X;X.X>.*.} - o O hXhXhXhXhXhXhXhXhXhXhXhX",
"hXhXhXhXhXhXhXhXhXhXhXhX4 2 9 5XfXtX!.Y.Y.Y.Y.T.Q.!.^.OX+X`.,.=...- o O hXhXhXhXhXhXhXhXhXhXhXhX",
"hXhXhXhXhXhXhXhXhXO . 4 [.6X5X:X,X-XE.Y.Y.Y.Y.Q.qXiX8Xm.x.l.a.p.<.> X O hXhXhXhXhXhXhXhXhXhXhXhX",
"hXhXhXhXhXhXhXhXhXO . 5 6XgXfX,X-X&XE.Y.Y.Y.Y.!.iXgXqXb.s.d.g.k.3.: X o hXhXhXhXhXhXhXhXhXhXhXhX",
"hXhXhXhXhXhXhXhXhXO . 5 3XgXsX-X&X#X/.!.!.E.E./.tXdX9XB.x.z.h.j.4.1 = - hXhXhXhXhXhXhXhXhXhXhXhX",
"hXhXhXhXhXhXhXhXhXO . 5 3XgXuX(.R./.qXiXtX-X&X*X>X,X>X@X+X].z.g.t.o.} W - o O hXhXhXhXhXhXhXhXhX",
"hXhXhXhXhXhXhXhXhX.   2 4XgXuXQ.U.!.iXgXdX,X-X-X-X-X-X;X;X+Xc.g.p.=.*.} - o O hXhXhXhXhXhXhXhXhX",
"hXhXhXhXhXhXhXhXhX4 2 8 1XpXwX).Q.).0XyXrX=X$X$X$X$X$X$X%XoXi.q.9.:.=...- o O hXhXhXhXhXhXhXhXhX",
"hXhXhXhXhXhXO . 4 [.6X1X~.Q.).wXiX0XI.P.P.L.K.K.K.K.K.K.L.Z.Y F P 9.p.<.> X O hXhXhXhXhXhXhXhXhX",
"hXhXhXhXhXhXO . 5 6XgXpX!.U.!.iXgXyXP.D.F.F.F.F.F.F.F.F.F.C.K M G e.k.3.: X o hXhXhXhXhXhXhXhXhX",
"hXhXhXhXhXhXO . 5 3XgXuX!.U.!.tXdXrXP.F.F.F.F.F.F.F.F.F.F.C.K N J w.k.4.1 = - hXhXhXhXhXhXhXhXhX",
"hXhXhXhXhXhXO . 5 3XgXuX!.Y.E.-X,X=XL.F.F.F.F.F.F.F.F.F.F.C.K N J w.g.t.o.} W - o O hXhXhXhXhXhX",
"hXhXhXhXhXhXO . 5 3XgXuX!.U.E.&X;X%XK.F.F.F.F.F.F.F.F.F.F.C.K N J r.k.p.=.*. .- o O hXhXhXhXhXhX",
"hXhXhXhXhXhXO . 5 3XgXuX(.E.W.}.|.'.J.F.F.F.F.F.F.F.F.F.F.C.K N F 1.0.6.%.O./ = o O hXhXhXhXhXhX",
"hXhXhXhXhXhXO . 5 3XgXsX-X&X}.;.#.-.S.F.F.F.F.F.F.F.F.F.F.C.K V N j g g s s t @ O O hXhXhXhXhXhX",
"hXhXhXhXhXhXO . 5 3XgXsX,X;X X#.] +.A.G.F.F.F.F.F.F.F.F.H.C.K V m t w w r r 0 + O O hXhXhXhXhXhX",
"hXhXhXhXhXhXO . 5 3XgXaX#X+X_.&.X.@.N.C.C.C.C.C.C.C.C.C.C.M.I D A d a a u y q + O O hXhXhXhXhXhX",
"hXhXhXhXhXhXO . 5 3XgXwXV.x.l.u.y.8.U K K K K K K K K K K I ^ _ _ / / Q Z m l % O O hXhXhXhXhXhX",
"hXhXhXhXhXhXO . 5 6XgXeXn.d.g.g.k.r.F M B B B B B B B B N S ` | { { { ` D C x % O O hXhXhXhXhXhX",
"hXhXhXhXhXhXO . 4 [.7X{.v.d.f.0.0.2.L D D D D D D D D D D H ! / ( [ { ) v x h % O O hXhXhXhXhXhX",
"hXhXhXhXhXhXhXhXhX4 2 7 5.k.0.n f b ~ _ _ _ _ _ _ _ _ _ _ ! k p k ( | E , $ % hXhXhXhXhXhXhXhXhX",
"hXhXhXhXhXhXhXhXhX. . : 3.k.7.f w a / { { { { { { { { { { / a w a / | R & X O hXhXhXhXhXhXhXhXhX",
"hXhXhXhXhXhXhXhXhXO X > <.p.6.g w a / { { { { { { { { { { / a e a Q ' T & O O hXhXhXhXhXhXhXhXhX",
"hXhXhXhXhXhXhXhXhXO o - ..=.%.s w a / { { { { { { { { { { / a r u Z D c % O O hXhXhXhXhXhXhXhXhX",
"hXhXhXhXhXhXhXhXhXO o - } *.O.s w a / { { { { { { { { { { / a r y m C x % O O hXhXhXhXhXhXhXhXhX",
"hXhXhXhXhXhXhXhXhXO o - W  ./ d t d / { { { { { { { { { { / d y i z x h % O O hXhXhXhXhXhXhXhXhX",
"hXhXhXhXhXhXhXhXhXhXhXhX- - < z m A _ { { { { { { { { { { _ A m z ; % % hXhXhXhXhXhXhXhXhXhXhXhX",
"hXhXhXhXhXhXhXhXhXhXhXhXo X # x C D ` | { { { { { { { { | ` D C x % X O hXhXhXhXhXhXhXhXhXhXhXhX",
"hXhXhXhXhXhXhXhXhXhXhXhXO O % h x c T R R R R R R R R R R T c x h % O O hXhXhXhXhXhXhXhXhXhXhXhX",
"hXhXhXhXhXhXhXhXhXhXhXhXhXhXhX% % % & = = = = = = = = = = & % % % hXhXhXhXhXhXhXhXhXhXhXhXhXhXhX",
"hXhXhXhXhXhXhXhXhXhXhXhXhXhXhXO O O O O O O O O O O O O O O O O O hXhXhXhXhXhXhXhXhXhXhXhXhXhXhX",
"hXhXhXhXhXhXhXhXhXhXhXhXhXhXhXO O O O O O O O O O O O O O O O O O hXhXhXhXhXhXhXhXhXhXhXhXhXhXhX",
"hXhXhXhXhXhXhXhXhXhXhXhXhXhXhXhXhXhXhXhXhXhXhXhXhXhXhXhXhXhXhXhXhXhXhXhXhXhXhXhXhXhXhXhXhXhXhXhX",
"hXhXhXhXhXhXhXhXhXhXhXhXhXhXhXhXhXhXhXhXhXhXhXhXhXhXhXhXhXhXhXhXhXhXhXhXhXhXhXhXhXhXhXhXhXhXhXhX",
"hXhXhXhXhXhXhXhXhXhXhXhXhXhXhXhXhXhXhXhXhXhXhXhXhXhXhXhXhXhXhXhXhXhXhXhXhXhXhXhXhXhXhXhXhXhXhXhX"
};
