/* XPM */
static char *result[] = {
/* columns rows colors chars-per-pixel */
"48 48 72 1 ",
"  c #03261F",
". c #032922",
"X c #06362E",
"o c #0E372F",
"O c #0D382F",
"+ c #10372F",
"@ c #0D3730",
"# c #063B32",
"$ c #0C3B33",
"% c #103730",
"& c #074237",
"* c #0D4337",
"= c #074238",
"- c #0D433A",
"; c #0B4A3E",
": c #11453C",
"> c #0B4D42",
", c #124F45",
"< c #0C5145",
"1 c #0E5549",
"2 c #0E5A4E",
"3 c #135347",
"4 c #10564B",
"5 c #105A4D",
"6 c #0F5E51",
"7 c #105D51",
"8 c #0F6052",
"9 c #126255",
"0 c #156659",
"q c #146B5D",
"w c #196C5D",
"e c #206B5F",
"r c #146E60",
"t c #196E60",
"y c #167163",
"u c #1B7364",
"i c #1D7768",
"p c #1B7C6B",
"a c #217365",
"s c #207768",
"d c #217C6C",
"f c #2D7F72",
"g c #238473",
"h c #2C8576",
"j c #258977",
"k c #2E8B7C",
"l c #308C7D",
"z c #2F9081",
"x c #319283",
"c c #349A8A",
"v c #3A9E8E",
"b c #27AB95",
"n c #3EA293",
"m c #29BBA3",
"M c #41A697",
"N c #36C1AA",
"B c #2CCFB4",
"V c #2BD0B4",
"C c #3BD4BA",
"Z c #46D3BC",
"A c #6DCABC",
"S c #6EDAC7",
"D c #71D3C4",
"F c #71DCCB",
"G c #7DDECF",
"H c #73E0CF",
"J c #72E7D4",
"K c #7FEFDE",
"L c #7FF0DE",
"P c #82E7D8",
"I c #90F5E6",
"U c None",
/* pixels */
"UUUUUUUUUUUUUUUUUUUUUUUUUUUUUUUUUUUUUUUUUUUUUUUU",
"UUUUUUUUUUUUUUUUUUUUUUUUUUUUUUUUUUUUUUUUUUUUUUUU",
"UUUUUUUUUUUUUUUUUUUUUUUUUUUUUUUUUUUUUUUUUUUUUUUU",
"UUUUUUUUUUUUUUUUUUO@@@@@@@+UUUUUUUUUUUUUUUUUUUUU",
"UUUUUUUUUUUUUUUUUU+o@@@@Oo%UUUUUUUUUUUUUUUUUUUUU",
"UUUUUUUUUUUUUUUUUU::---:**-UUUUUUUUUUUUUUUUUUUUU",
"UUUUUUUUUUUU%@@@@:tssssiyyw*@oo++UUUUUUUUUUUUUUU",
"UUUUUUUUUUUUOO@@o-sjjgggppy-@$@@oUUUUUUUUUUUUUUU",
"UUUUUUUUUUUU::::-3iggdgdiuy;*:**-UUUUUUUUUUUUUUU",
"UUUUUUUUU+o:fllllh099999999wuttyw$+%UUUUUUUUUUUU",
"UUUUUUUUU%o:lccccz025577579ippppt:@@UUUUUUUUUUUU",
"UUUUUUUUU::3hlxMMvurq752579yiiuit>$$UUUUUUUUUUUU",
"UUUUUUoo:hlht0dDPHNmb9<<><<699997444$o+UUUUUUUUU",
"UUUUUUOO:lcl02aGIKCVm8>>>><262666774$@oUUUUUUUUU",
"UUUUUU@@:lcxsahFPJNmb2;;;;>225252775$@oUUUUUUUUU",
"UUUUUU@@:lcnDGFZCNy72=####&;<<<<1775$$oUUUUUUUUU",
"UUUUUU@@-kcMPIPCVm8>>X#X#X#>>>>>>575$@OUUUUUUUUU",
"UUUUUU:-,hzvJLJNmb2;>XXXXXX>>>>>>525-$$UUUUUUUUU",
"UUUo@:esiw0iNCNy62=#X......X##>>><<<141$@%UUUUUU",
"UUUoO:sjd97rmBm8>>##X.  . .X##=>>>;<595$@@UUUUUU",
"UUU@$-sgd96qbmb2>=XXX.    .X##>>>111775*$@UUUUUU",
"UUU@$-sjg966862=#X...     .X##>>3idi974$$@UUUUUU",
"UUU@$-sgd975<>;##X.       .X##;>1dgd975$O@UUUUUU",
"UUU@@-sgd975<>;##X..      .XX#;>2djg975$@@UUUUUU",
"UUU@@*ypi865<<>##X.       .X##;>2kxk075$@@UUUUUU",
"UUU%$*tpi965<;;##X.       .X##;;2lcx075$$%UUUUUU",
"UUU++*wtt997<>;&##....  ...##=280kxh944$@OUUUUUU",
"UUUUUU:*;qit1>>;;;XX##XXXX#=;2bmbu07-*$UUUUUUUUU",
"UUUUUU%o*yiu1>>>>;#####X###;>8mVmr55$OOUUUUUUUUU",
"UUUUUU@O-ypi1>>>>;###&####&26yNCNr85*$%UUUUUUUUU",
"UUUUUUoO*ypu662>>>>;;;;;;;2bmNJLSa74$@@UUUUUUUUU",
"UUUUUUo@-ypi862<>>>>>>;>;;8mBCLIGa62$$OUUUUUUUUU",
"UUUUUUoo-wyt975<<<>><<14440bmNSPAe33$O%UUUUUUUUU",
"UUUUUUUUU$-:577522>>1sddkljirruaw:$$UUUUUUUUUUUU",
"UUUUUUUUU@@$477775>>4djjccx075261*@@UUUUUUUUUUUU",
"UUUUUUUUU%o$354554<>1idgkxh945224$@%UUUUUUUUUUUU",
"UUUUUUUUUUUU$$$*-*257999007>$$$$$UUUUUUUUUUUUUUU",
"UUUUUUUUUUUU@@@@@$477777777$@@$@OUUUUUUUUUUUUUUU",
"UUUUUUUUUUUU+O@@@$355465473$@@@@OUUUUUUUUUUUUUUU",
"UUUUUUUUUUUUUUUUUU$*$$$$$$$UUUUUUUUUUUUUUUUUUUUU",
"UUUUUUUUUUUUUUUUUU@$O@@@@OOUUUUUUUUUUUUUUUUUUUUU",
"UUUUUUUUUUUUUUUUUU%@ooooOO+UUUUUUUUUUUUUUUUUUUUU",
"UUUUUUUUUUUUUUUUUUUUUUUUUUUUUUUUUUUUUUUUUUUUUUUU",
"UUUUUUUUUUUUUUUUUUUUUUUUUUUUUUUUUUUUUUUUUUUUUUUU",
"UUUUUUUUUUUUUUUUUUUUUUUUUUUUUUUUUUUUUUUUUUUUUUUU",
"UUUUUUUUUUUUUUUUUUUUUUUUUUUUUUUUUUUUUUUUUUUUUUUU",
"UUUUUUUUUUUUUUUUUUUUUUUUUUUUUUUUUUUUUUUUUUUUUUUU",
"UUUUUUUUUUUUUUUUUUUUUUUUUUUUUUUUUUUUUUUUUUUUUUUU"
};
