/* XPM */
static char *result[] = {
/* columns rows colors chars-per-pixel */
"48 48 158 2 ",
"   c #1B2D14",
".  c #1B3017",
"X  c #1D341B",
"o  c #0F2C2F",
"O  c #112B2E",
"+  c #0F2C31",
"@  c #112B30",
"#  c #0F3131",
"$  c #143436",
"%  c #143438",
"&  c #193C3C",
"*  c #17393A",
"=  c #1E432F",
"-  c #1E4635",
";  c #1D4834",
":  c #1F4C3C",
">  c #1B403B",
",  c #214636",
"<  c #244D31",
"1  c #224538",
"2  c #214B3C",
"3  c #265234",
"4  c #2C5435",
"5  c #2D5A36",
"6  c #25513E",
"7  c #2A543C",
"8  c #2D5A3A",
"9  c #305C38",
"0  c #336339",
"q  c #3C6C3E",
"w  c #1E4343",
"e  c #254F42",
"r  c #284E43",
"t  c #245242",
"y  c #2D5947",
"u  c #295556",
"i  c #2D5B57",
"p  c #295458",
"a  c #2D5C5D",
"s  c #275656",
"d  c #325D5C",
"f  c #3F6D40",
"g  c #35665B",
"h  c #3A6E5E",
"j  c #2F5F61",
"k  c #315F61",
"l  c #326364",
"z  c #376A63",
"x  c #396B65",
"c  c #356769",
"v  c #356869",
"b  c #396C6A",
"n  c #3F726A",
"m  c #467D41",
"M  c #407462",
"N  c #447574",
"B  c #477679",
"V  c #487779",
"C  c #477A7A",
"Z  c #4A7D7C",
"A  c #50853F",
"S  c #4E8642",
"D  c #558C42",
"F  c #568E4F",
"G  c #579144",
"H  c #5B9543",
"J  c #5E9846",
"K  c #59914E",
"L  c #5C9452",
"P  c #619B45",
"I  c #659E56",
"U  c #649E58",
"Y  c #6DA947",
"T  c #67A24F",
"R  c #6AA54E",
"E  c #6EAA49",
"W  c #71AE47",
"Q  c #71AD49",
"!  c #75B14D",
"~  c #7CB44D",
"^  c #6BA553",
"/  c #6FAA52",
"(  c #67A25C",
")  c #6BA55A",
"_  c #6DA85A",
"`  c #72AC53",
"'  c #78AF56",
"]  c #78AB5F",
"[  c #79B157",
"{  c #7EB956",
"}  c #7AB259",
"|  c #5A8D6C",
" . c #4E817F",
".. c #528471",
"X. c #568A74",
"o. c #598D73",
"O. c #51857A",
"+. c #54897A",
"@. c #588B79",
"#. c #5D9373",
"$. c #5D937B",
"%. c #5F987F",
"&. c #689F6D",
"*. c #659D75",
"=. c #689D76",
"-. c #61977E",
";. c #649B7D",
":. c #67A06D",
">. c #69A16B",
",. c #70A66E",
"<. c #79AB60",
"1. c #6CA476",
"2. c #71A678",
"3. c #81B857",
"4. c #81BD59",
"5. c #83BC63",
"6. c #88BE67",
"7. c #87BD68",
"8. c #86C05A",
"9. c #8AC45D",
"0. c #90C85B",
"q. c #A9DB5E",
"w. c #A6D85A",
"e. c #AFE15A",
"r. c #B4E557",
"t. c #B1E25D",
"y. c #8CC363",
"u. c #92CD69",
"i. c #9AD367",
"p. c #9AD46B",
"a. c #95D069",
"s. c #A0D669",
"d. c #A2D561",
"f. c #ABDC72",
"g. c #B5E56D",
"h. c #B7E86D",
"j. c #B8E86F",
"k. c #B7E87F",
"l. c #4A7E80",
"z. c #4F8285",
"x. c #528584",
"c. c #558981",
"v. c #588A81",
"b. c #5E9581",
"n. c #619780",
"m. c #629980",
"M. c #6FA48A",
"N. c #72A986",
"B. c #73A98A",
"V. c #81B493",
"C. c #BBEBBF",
"Z. c #C6F5B6",
"A. c #B0E1C5",
"S. c #BDEDC1",
"D. c #BEEED2",
"F. c #CAF9CB",
"G. c #CEFDE4",
"H. c None",
/* pixels */
"H.H.H.H.H.H.H.H.H.H.H.H.H.H.H.H.H.H.H.H.H.H.H.H.H.H.H.H.H.H.H.H.H.H.H.H.H.H.H.H.H.H.H.H.H.H.H.H.",
"H.H.H.H.H.H.H.H.H.H.H.H.H.H.H.H.H.H.H.H.H.H.H.H.H.H.H.H.H.H.H.H.H.H.H.H.H.H.H.H.H.H.H.H.H.H.H.H.",
"H.H.H.H.H.H.H.H.H.H.H.H.H.H.H.H.H.H.H.H.H.H.H.H.H.H.H.H.H.H.H.H.H.H.H.H.H.H.H.H.H.H.H.H.H.H.H.H.",
"H.H.H.H.H.H.H.H.H.H.H.H.H.H.H.H.H.H.H.H.H.H.H.H.H.H.H.H.H.H.H.H.H.H.H.H.H.H.H.H.H.H.H.H.H.H.H.H.",
"H.H.H.H.H.H.H.H.H.H.H.H.H.H.H.H.H.H.H.H.H.H.H.H.H.H.H.H.H.H.H.H.H.H.H.H.H.H.H.H.H.H.H.H.H.H.H.H.",
"H.H.H.H.H.H.H.H.H.H.H.H.H.H.H.H.H.H.H.H.H.H.H.H.H.H.H.H.H.H.H.H.H.H.H.H.H.H.H.H.H.H.H.H.H.H.H.H.",
"H.H.H.H.H.H.H.H.H.H.H.H.H.H.H.H.H.H.H.H.H.l l d : ; ; ; - , H.H.H.H.H.H.H.H.H.H.H.H.H.H.H.H.H.H.",
"H.H.H.H.H.H.H.H.H.H.H.H.H.H.H.H.H.H.H.H.H.l l d : ; - - ; , H.H.H.H.H.H.H.H.H.H.H.H.H.H.H.H.H.H.",
"H.H.H.H.H.H.H.H.H.H.H.H.H.H.H.H.H.H.H.H.H.c v l t t t 6 2 6 H.H.H.H.H.H.H.H.H.H.H.H.H.H.H.H.H.H.",
"H.H.H.H.H.H.H.H.H.H.H.H.H.H.H.l l l l l c C  .Z C C C Z C N r , , 2 , , H.H.H.H.H.H.H.H.H.H.H.H.",
"H.H.H.H.H.H.H.H.H.H.H.H.H.H.H.l l l l l c Z z.z.z.z.z.z.z.C r - ; ; ; , H.H.H.H.H.H.H.H.H.H.H.H.",
"H.H.H.H.H.H.H.H.H.H.H.H.H.H.H.c v c x x b  .x.x.x.x.x.x.x. .y 6 6 2 2 2 H.H.H.H.H.H.H.H.H.H.H.H.",
"H.H.H.H.H.H.H.H.H.H.H.H.l l c C l.Z $.-.$.%.%.$.n.-.-.n.-.%.#.#.X.g a i 2 1 1 H.H.H.H.H.H.H.H.H.",
"H.H.H.H.H.H.H.H.H.H.H.H.l l c Z x.x.-.;.;.1.;.;.;.;.;.-.;.;.;.-.$.x l a 2 1 1 H.H.H.H.H.H.H.H.H.",
"H.H.H.H.H.H.H.H.H.H.H.H.c v b z.l.v.M.N.N.2.,.1.1.:.1.*.=.;.;.;.$.M x g t e 2 H.H.H.H.H.H.H.H.H.",
"H.H.H.H.H.H.H.H.H.1 , r N Z x.b.n.m.A.F.C.f.d.i.y.7.4.` ` _ :.;.-.%.$.+.l a i 2 , , H.H.H.H.H.H.",
"H.H.H.H.H.H.H.H.H., - t l.z.z.b.m.B.F.G.F.j.r.e.0.4.4.~ W ` =.;.-.;.m.$.b l j 2 ; - H.H.H.H.H.H.",
"H.H.H.H.H.H.H.H.H., ; t Z x.c.M.B.V.D.F.Z.g.t.q.3.3.' Q Y R &.=.=.;.;.-.n x l : ; - H.H.H.H.H.H.",
"H.H.H.H.H.H.H.H.H., ; 6 X.n.M.A.F.C.Z.w.g.s.p.y.q 4 9 D H J R Q ` =.;.;.$.$...> # # H.H.H.H.H.H.",
"H.H.H.H.H.H.H.H.H., - 7 #.;.M.F.G.F.r.r.t.p.p.7.8 - 3 S G H E Q ` =.;.-.;.;.o.& o O H.H.H.H.H.H.",
"H.H.H.H.H.H.H.H.H.2 2 y o.;.N.S.F.Z.g.t.q.y.7.<.4 = < m S A Y W R :.*.*.;.;.o.w $ $ H.H.H.H.H.H.",
"H.H.H.H.H.H., - 2 i a g $.;.2.f.g.f.s.i.0.f 9 4 X   X < 3 5 D H J ^ / _ =.;.$.l a p % + O H.H.H.",
"H.H.H.H.H.H.< ; : a l b $.;.1.q.r.r.i.a.6.9 > = .   . = - 3 S G H Y Q / *.;.$.x l a % @ @ H.H.H.",
"H.H.H.H.H.H.- ; : j l x #.1.>.d.w.w.i.a.5.9 - -     . = , 3 S G H Y Q Q *.;.$.x l i % @ @ H.H.H.",
"H.H.H.H.H.H., ; : a l x T / / ~ ~ 3.9.y.} 8 - =     . = - 3 A G H E Q ` *.;.$.b l a % @ @ H.H.H.",
"H.H.H.H.H.H.; ; : a l h T Q E ! Q Q 4.9.' 8 ; =     . = - 3 S G H Y Q ^ *.;.$.x j a % @ @ H.H.H.",
"H.H.H.H.H.H.- ; : j l h ( / / E Q Q { 4.` 8 - =       = ; 3 D J P E Q ` >.*.#.x l a % @ @ H.H.H.",
"H.H.H.H.H.H., ; : j l v #.:.>.E Q Y P J D 3 - =       - , 5 ` 4.{ Q Q Q R ` ^ x l a * @ @ H.H.H.",
"H.H.H.H.H.H.; ; 6 a l v %.m.:./ W Y H G A 3 ; =       - - 5 } 9.8.! W Q E W R x l a $ + O H.H.H.",
"H.H.H.H.H.H., , 2 i a z @.b.*._ / R J H D 0 5 3 X . X 4 9 q } 8.4._ ^ ^ / / I g a s $ O O H.H.H.",
"H.H.H.H.H.H.H.H.H.2 : t  .z.c.*.*.:.^ Y Q ' ' R 4 = 4 <.y.4.! ! / o.+.+.*.1.| > $ % H.H.H.H.H.H.",
"H.H.H.H.H.H.H.H.H., ; 6 C z.x.n.;.:.` E Q 8.9.} 5 - y 7.p.u.! E ^ +.z.x.%.%.| & o O H.H.H.H.H.H.",
"H.H.H.H.H.H.H.H.H.1 - t B l.z.$.m.=._ ^ ` 4.8.' 0 3 0 5.a.y.` ^ ( o.+.+.#.$...& O O H.H.H.H.H.H.",
"H.H.H.H.H.H.H.H.H., ; 2 l c b  .x.x.*.=.>.` ! E D S D E ! / #.O.o.( ^ ( M v l % O @ H.H.H.H.H.H.",
"H.H.H.H.H.H.H.H.H., ; 2 j l c l.l.x.n.m.1.R Q E H G H E ! ^ +.z.X.^ W T h l a % @ @ H.H.H.H.H.H.",
"H.H.H.H.H.H.H.H.H.1 1 2 s a j C l.x.n.n.*.( ^ T L F F ^ ^ ( +.x.+.( T L g a s % O @ H.H.H.H.H.H.",
"H.H.H.H.H.H.H.H.H.H.H.H.% % & k c b l.x.x.v.+.+.O.O.O.+.+.+.%.-.$.n h g & $ % H.H.H.H.H.H.H.H.H.",
"H.H.H.H.H.H.H.H.H.H.H.H.O + % a j c l.z.x.z.z.l.z.z.z.x.x.x.-.-.$.x l a # + @ H.H.H.H.H.H.H.H.H.",
"H.H.H.H.H.H.H.H.H.H.H.H.O O % p j j N B B Z l.l.l.Z l.l.l.l.+.o...g a s % + O H.H.H.H.H.H.H.H.H.",
"H.H.H.H.H.H.H.H.H.H.H.H.H.H.H.% % % * & w k c c c c c c c k w & > $ $ $ H.H.H.H.H.H.H.H.H.H.H.H.",
"H.H.H.H.H.H.H.H.H.H.H.H.H.H.H.O O O O o % a l l l j l l l a % O @ O O @ H.H.H.H.H.H.H.H.H.H.H.H.",
"H.H.H.H.H.H.H.H.H.H.H.H.H.H.H.O O @ @ O $ p a a j a j a a s $ O @ @ @ @ H.H.H.H.H.H.H.H.H.H.H.H.",
"H.H.H.H.H.H.H.H.H.H.H.H.H.H.H.H.H.H.H.H.H.% $ % % % % $ % $ H.H.H.H.H.H.H.H.H.H.H.H.H.H.H.H.H.H.",
"H.H.H.H.H.H.H.H.H.H.H.H.H.H.H.H.H.H.H.H.H.O @ O + + O O @ O H.H.H.H.H.H.H.H.H.H.H.H.H.H.H.H.H.H.",
"H.H.H.H.H.H.H.H.H.H.H.H.H.H.H.H.H.H.H.H.H.O @ @ + @ @ @ O O H.H.H.H.H.H.H.H.H.H.H.H.H.H.H.H.H.H.",
"H.H.H.H.H.H.H.H.H.H.H.H.H.H.H.H.H.H.H.H.H.H.H.H.H.H.H.H.H.H.H.H.H.H.H.H.H.H.H.H.H.H.H.H.H.H.H.H.",
"H.H.H.H.H.H.H.H.H.H.H.H.H.H.H.H.H.H.H.H.H.H.H.H.H.H.H.H.H.H.H.H.H.H.H.H.H.H.H.H.H.H.H.H.H.H.H.H.",
"H.H.H.H.H.H.H.H.H.H.H.H.H.H.H.H.H.H.H.H.H.H.H.H.H.H.H.H.H.H.H.H.H.H.H.H.H.H.H.H.H.H.H.H.H.H.H.H."
};
