/* XPM */
static char *result[] = {
/* columns rows colors chars-per-pixel */
"48 48 158 2 ",
"   c #373A00",
".  c #393A00",
"X  c #4A3E03",
"o  c #434402",
"O  c #4E4104",
"+  c #474903",
"@  c #4E4D01",
"#  c #504003",
"$  c #5D4504",
"%  c #504E01",
"&  c #4E5000",
"*  c #575500",
"=  c #5F5705",
"-  c #614607",
";  c #615703",
":  c #615905",
">  c #646305",
",  c #6B6704",
"<  c #656408",
"1  c #726107",
"2  c #7C7C03",
"3  c #79760C",
"4  c #646313",
"5  c #64631C",
"6  c #777615",
"7  c #77771F",
"8  c #767622",
"9  c #995C0B",
"0  c #A75F0A",
"q  c #AA5E08",
"w  c #A5660C",
"e  c #AC610A",
"r  c #BC6408",
"t  c #B76C0D",
"y  c #B96D09",
"u  c #C26708",
"i  c #C36F0D",
"p  c #C6710F",
"a  c #C9710B",
"s  c #C67C0E",
"d  c #D17E07",
"f  c #D7740A",
"g  c #DD760A",
"h  c #DC7909",
"j  c #E07709",
"k  c #E0780A",
"l  c #868500",
"z  c #888702",
"x  c #939102",
"c  c #9C9B02",
"v  c #95950F",
"b  c #9D9D0F",
"n  c #959510",
"m  c #9E9D10",
"M  c #A59F07",
"N  c #A39708",
"B  c #BD920D",
"V  c #BB9315",
"C  c #A0A105",
"Z  c #AEAE00",
"A  c #B5A603",
"S  c #B5AE01",
"D  c #ADB100",
"F  c #B6B401",
"G  c #B7B802",
"H  c #B8B802",
"J  c #B8B70E",
"K  c #BCBB0E",
"L  c #A1A21D",
"P  c #D58006",
"I  c #DB8507",
"U  c #DC8408",
"Y  c #D48C05",
"T  c #CD9A0D",
"R  c #DB9006",
"E  c #C49B10",
"W  c #CA9B12",
"Q  c #D6A50A",
"!  c #DCA30C",
"~  c #DDAF0A",
"^  c #C1BF0B",
"/  c #CBA41E",
"(  c #DEAF1C",
")  c #E0AF1C",
"_  c #E0B918",
"`  c #BFC00E",
"'  c #CDCD06",
"]  c #C1C10D",
"[  c #CAC00C",
"{  c #CCCD0A",
"}  c #D0CE05",
"|  c #DBCD03",
" . c #D4D503",
".. c #D8D502",
"X. c #DCDC01",
"o. c #DEDE0B",
"O. c #D9D914",
"+. c #E2C605",
"@. c #E1D203",
"#. c #E0DE01",
"$. c #DFE000",
"%. c #E0E100",
"&. c #EBEB07",
"*. c #E3E30E",
"=. c #EAEA0C",
"-. c #F3EA0C",
";. c #F4F406",
":. c #FFFF01",
">. c #FAF40A",
",. c #E5E411",
"<. c #EAEA10",
"1. c #E3E31D",
"2. c #ECEC1A",
"3. c #FEFF15",
"4. c #FEFE18",
"5. c #D1D022",
"6. c #E6E520",
"7. c #EAEA23",
"8. c #E5E52F",
"9. c #EAEA2C",
"0. c #FEFF25",
"q. c #FEFF28",
"w. c #E4E439",
"e. c #FDFD34",
"r. c #FDFD42",
"t. c #EAEA67",
"y. c #E6E46C",
"u. c #F2F267",
"i. c #FAF567",
"p. c #F9F966",
"a. c #FCFC6B",
"s. c #EBEB7D",
"d. c #FDFD75",
"f. c #F1F27A",
"g. c #FAF57C",
"h. c #FEFD7B",
"j. c #EAEA8C",
"k. c #FFFF8C",
"l. c #FFFF91",
"z. c #FFFF9C",
"x. c #FFFFA3",
"c. c #E6E6B7",
"v. c #E9EAB9",
"b. c #F7F7BD",
"n. c #E6E6C2",
"m. c #E9E9C4",
"M. c #EBEBCB",
"N. c #FEFECE",
"B. c #E9EAD0",
"V. c #EAEADC",
"C. c #FCFDD4",
"Z. c #FDFDDD",
"A. c #EAEAE1",
"S. c #FEFEE1",
"D. c #FFFFEE",
"F. c #FFFFF1",
"G. c white",
"H. c None",
/* pixels */
"H.H.H.H.H.H.H.H.H.H.H.H.H.H.H.H.H.H.H.H.H.H.H.H.H.H.H.H.H.H.H.H.H.H.H.H.H.H.H.H.H.H.H.H.H.H.H.H.",
"H.H.H.H.H.H.H.H.H.H.H.H.H.H.H.H.H.H.H.H.H.H.H.H.H.H.H.H.H.H.H.H.H.H.H.H.H.H.H.H.H.H.H.H.H.H.H.H.",
"H.H.H.H.H.H.H.H.H.H.H.H.H.H.H.H.H.H.H.H.H.H.H.H.H.H.H.H.H.H.H.H.H.H.H.H.H.H.H.H.H.H.H.H.H.H.H.H.",
"H.H.H.H.H.H.H.H.H.H.H.H.H.H.H.H.H.H.H.H.H.H.H.H.H.H.H.H.H.H.H.H.H.H.H.H.H.H.H.H.H.H.H.H.H.H.H.H.",
"H.H.H.H.H.H.H.H.H.H.H.H.H.H.H.H.H.H.H.H.H.H.H.H.H.H.H.H.H.H.H.H.H.H.H.H.H.H.H.H.H.H.H.H.H.H.H.H.",
"H.H.H.H.H.H.H.H.H.H.H.H.H.H.H.H.H.H.H.H.H.H.H.H.H.H.H.H.H.H.H.H.H.H.H.H.H.H.H.H.H.H.H.H.H.H.H.H.",
"H.H.H.H.H.H.H.H.H.H.H.H.H.H.H.H.H.H.H.H.H.H.H.H.H.H.H.H.H.H.% % % % % @ H.H.H.H.H.H.H.H.H.H.H.H.",
"H.H.H.H.H.H.H.H.H.H.H.H.H.H.H.H.H.H.H.H.H.H.H.H.H.H.H.H.H.H.@ @ @ @ @ @ H.H.H.H.H.H.H.H.H.H.H.H.",
"H.H.H.H.H.H.H.H.H.H.H.H.H.H.H.H.H.H.H.H.H.H.H.H.H.H.H.H.H.H.< < < > < < H.H.H.H.H.H.H.H.H.H.H.H.",
"H.H.H.H.H.H.H.H.H.H.H.H.H.H.H.H.H.H.H.H.H.& @ * % % % % @ < O.<.<.=.=.O.> @ & H.H.H.H.H.H.H.H.H.",
"H.H.H.H.H.H.H.H.H.H.H.H.H.H.H.H.H.H.H.H.H.@ @ @ @ % % % @ > &.:.:.:.:.&.> @ @ H.H.H.H.H.H.H.H.H.",
"H.H.H.H.H.H.H.H.H.H.H.H.H.H.H.H.H.H.H.H.H.> > < 5 5 5 4 4 6 2.3.3.3.3.2.3 > > H.H.H.H.H.H.H.H.H.",
"H.H.H.H.H.H.H.H.H.H.H.H.% @ @ % % @ @ @ > O.&.7.m.A.B.j.s.s.h.h.h.h.h.a.2.&.O.< @ @ H.H.H.H.H.H.",
"H.H.H.H.H.H.H.H.H.H.H.H.@ @ % @ @ @ @ @ > =.:.0.S.G.F.z.k.k.k.k.k.k.k.h.3.:.<.< @ @ H.H.H.H.H.H.",
"H.H.H.H.H.H.H.H.H.H.H.H.< > < 5 5 5 5 5 7 7.3.e.C.D.Z.z.k.k.k.k.k.k.k.h.q.3.7.3 < < H.H.H.H.H.H.",
"H.H.H.@ % % % * % % @ > O.<.9.v.V.V.V.V.M.k.d.h.z.z.z.k.k.k.k.k.k.k.k.k.h.d.p.2.<.O.< @ & H.H.H.",
"H.H.H.& @ @ @ @ @ @ @ > &.:.0.Z.G.G.G.G.D.z.k.k.k.k.k.k.k.k.k.k.k.k.k.k.k.k.h.4.:.&.> @ & H.H.H.",
"H.H.H.: > > 5 5 5 5 5 8 9.0.r.N.D.D.F.D.Z.z.k.l.k.k.k.k.k.k.k.k.k.f.f.f.f.f.u.2.;.o., * * H.H.H.",
"* @ : ] ' 5.n.A.A.V.V.A.Z.Z.C.x.z.z.z.z.z.k.k.k.k.k.k.k.k.k.k.k.f.L v v v n v x c x l 9 3 + . . ",
"@ @ > ' %.1.S.G.G.G.G.G.G.G.F.x.k.k.k.k.k.k.k.k.k.k.k.k.k.k.k.k.s.v l l l l l l l z z z 3 o   . ",
"@ @ > 5.1.w.b.C.C.D.D.D.D.D.Z.z.k.k.k.k.k.k.k.k.f.f.f.f.f.f.f.f.y.b x x x x x x x x x x z o . . ",
"@ @ 5 c.C.b.w.5.8.k.z.z.z.z.z.k.k.k.k.k.k.k.k.f.L v v v v v v v m {  . . . . . . . . . .] @ . . ",
"% @ 5 V.G.S.1.$.$.d.k.k.k.k.k.k.k.k.k.k.k.k.k.f.v l l l l l l l x  .%.%.$.%.%.%.$.$.$.$.{ @   . ",
"% @ 5 V.G.S.8.,.6.p.g.g.k.k.k.f.f.f.f.f.f.f.f.y.b x x x x x x x b  .%.$.$.$.%.@.$. .X.X.[ @ . . ",
"% % 5 V.G.D.k.d.i.1.*.6.h.l.f.L n n n n n n v b '  . . . . . .....X.%.X.%.%.@.R U U U U s # . . ",
"% @ 5 V.G.D.z.k.d.*.X.*.h.l.f.v l l l l l l l x  .$.%.$.%.%.%.%.%.#.%.%.$.$.@.U g g g k p X . . ",
"% @ 5 M.F.S.z.k.d.,.%.*.u.f.t.m x x x x x x x c  .%.$.$.#.#.@.@.@.@.@.@.@.@.+.U g g g g p X   . ",
"% @ 4 j.z.z.k.k.d.4.:.;.` J K  . . . . . . . . .$.$.$.$.%...R I U U U U U U U g g g u u e X .   ",
"% @ 4 s.k.k.k.l.d.4.:.;.F Z F  .$.$.%.%.%.%.%.%.$.$.$.$.%.@.U g g g g g k k k j j g r r w X     ",
"% % 4 y.g.g.g.g.i.3.:.;.G S F X.$.$.$.$.$.$.$.X.X.@.@.@.@.+.U h g f g f p a a a p p q q 9 O     ",
"% @ : / ) ) ( ( _ >.:.;.H Z F  .$.$.$.$.%.%.%.@.R U U U U U h g f u u q - X X X X X X X O H.H.H.",
"% % : T ! ! ! T ~ >.:.;.G D F X.$.$.$.$.X.%.#.@.U g g j j g j j f r r q X . . . .   . . . H.H.H.",
"% @ : V W W ! ! ~ -.>.-.G D F | @.@.@.@.@.@.@.+.U g g a p p p p i e 0 9 X     . . . . . . H.H.H.",
"H.H.H.: : 1 T ! ! ~ ~ ~ F Z A Y U U U U U U I U g j a - O X O O O X X X H.H.H.H.H.H.H.H.H.H.H.H.",
"H.H.H.@ @ ; T ! ! ! T ! F D A P g j j j g g j g h k p O . . . . .   . . H.H.H.H.H.H.H.H.H.H.H.H.",
"H.H.H.% % : B T W ! ! ! S D A d f f a a a a a a a a t O . . . . . . . . H.H.H.H.H.H.H.H.H.H.H.H.",
"H.H.H.H.H.H.: ; 1 W ! Q S D A y r e $ X # X # # # # O H.H.H.H.H.H.H.H.H.H.H.H.H.H.H.H.H.H.H.H.H.",
"H.H.H.H.H.H.% @ ; W ) Q S D A t r 0 X . . . . . . . . H.H.H.H.H.H.H.H.H.H.H.H.H.H.H.H.H.H.H.H.H.",
"H.H.H.H.H.H.% @ ; V W E C c N w 0 9 X . . . . . . . . H.H.H.H.H.H.H.H.H.H.H.H.H.H.H.H.H.H.H.H.H.",
"H.H.H.H.H.H.H.H.H.: : : @ + + X X X H.H.H.H.H.H.H.H.H.H.H.H.H.H.H.H.H.H.H.H.H.H.H.H.H.H.H.H.H.H.",
"H.H.H.H.H.H.H.H.H.@ @ @ . . . .     H.H.H.H.H.H.H.H.H.H.H.H.H.H.H.H.H.H.H.H.H.H.H.H.H.H.H.H.H.H.",
"H.H.H.H.H.H.H.H.H.% % @ . . . . X . H.H.H.H.H.H.H.H.H.H.H.H.H.H.H.H.H.H.H.H.H.H.H.H.H.H.H.H.H.H.",
"H.H.H.H.H.H.H.H.H.H.H.H.H.H.H.H.H.H.H.H.H.H.H.H.H.H.H.H.H.H.H.H.H.H.H.H.H.H.H.H.H.H.H.H.H.H.H.H.",
"H.H.H.H.H.H.H.H.H.H.H.H.H.H.H.H.H.H.H.H.H.H.H.H.H.H.H.H.H.H.H.H.H.H.H.H.H.H.H.H.H.H.H.H.H.H.H.H.",
"H.H.H.H.H.H.H.H.H.H.H.H.H.H.H.H.H.H.H.H.H.H.H.H.H.H.H.H.H.H.H.H.H.H.H.H.H.H.H.H.H.H.H.H.H.H.H.H.",
"H.H.H.H.H.H.H.H.H.H.H.H.H.H.H.H.H.H.H.H.H.H.H.H.H.H.H.H.H.H.H.H.H.H.H.H.H.H.H.H.H.H.H.H.H.H.H.H.",
"H.H.H.H.H.H.H.H.H.H.H.H.H.H.H.H.H.H.H.H.H.H.H.H.H.H.H.H.H.H.H.H.H.H.H.H.H.H.H.H.H.H.H.H.H.H.H.H.",
"H.H.H.H.H.H.H.H.H.H.H.H.H.H.H.H.H.H.H.H.H.H.H.H.H.H.H.H.H.H.H.H.H.H.H.H.H.H.H.H.H.H.H.H.H.H.H.H."
};
