/* XPM */
static char *result[] = {
/* columns rows colors chars-per-pixel */
"48 48 131 2 ",
"   c #343434",
".  c #353535",
"X  c #393939",
"o  c #3A3A3A",
"O  c gray23",
"+  c #3C3C3C",
"@  c gray24",
"#  c #3E3E3E",
"$  c gray25",
"%  c gray26",
"&  c #434343",
"*  c #494949",
"=  c gray29",
"-  c #535353",
";  c #555555",
":  c #565656",
">  c gray35",
",  c #5A5A5A",
"<  c #5D5D5D",
"1  c gray37",
"2  c #5F5F5F",
"3  c #626262",
"4  c gray39",
"5  c gray40",
"6  c #676767",
"7  c #686868",
"8  c #6A6A6A",
"9  c gray42",
"0  c #6C6C6C",
"q  c #6D6D6D",
"w  c #6F6F6F",
"e  c gray44",
"r  c #717171",
"t  c #727272",
"y  c gray45",
"u  c #747474",
"i  c gray46",
"p  c #777777",
"a  c gray47",
"s  c #797979",
"d  c gray48",
"f  c #7B7B7B",
"g  c gray49",
"h  c #7E7E7E",
"j  c gray50",
"k  c #808080",
"l  c #818181",
"z  c gray51",
"x  c #838383",
"c  c #848484",
"v  c gray52",
"b  c #868686",
"n  c gray53",
"m  c #898989",
"M  c gray54",
"N  c #8B8B8B",
"B  c gray55",
"V  c #8D8D8D",
"C  c #8E8E8E",
"Z  c gray56",
"A  c #909090",
"S  c gray59",
"D  c #979797",
"F  c gray60",
"G  c #9A9A9A",
"H  c #9B9B9B",
"J  c gray61",
"K  c #9D9D9D",
"L  c #9F9F9F",
"P  c #A0A0A0",
"I  c gray63",
"U  c #A2A2A2",
"Y  c gray64",
"T  c #A4A4A4",
"R  c #A5A5A5",
"E  c gray65",
"W  c #A7A7A7",
"Q  c gray66",
"!  c #A9A9A9",
"~  c #AAAAAA",
"^  c #ACACAC",
"/  c gray68",
"(  c #AEAEAE",
")  c #AFAFAF",
"_  c #B1B1B1",
"`  c #B2B2B2",
"'  c #B7B7B7",
"]  c gray73",
"[  c gray76",
"{  c #C3C3C3",
"}  c #C5C5C5",
"|  c #C6C6C6",
" . c gray79",
".. c #CACACA",
"X. c #CBCBCB",
"o. c gray80",
"O. c #CDCDCD",
"+. c #CECECE",
"@. c #D0D0D0",
"#. c gray82",
"$. c #D2D2D2",
"%. c LightGray",
"&. c gray83",
"*. c gray84",
"=. c #D7D7D7",
"-. c #D8D8D8",
";. c gray85",
":. c #DADADA",
">. c gainsboro",
",. c #DDDDDD",
"<. c gray87",
"1. c #DFDFDF",
"2. c gray88",
"3. c gray89",
"4. c gray91",
"5. c gray92",
"6. c #ECECEC",
"7. c #EEEEEE",
"8. c #EFEFEF",
"9. c gray94",
"0. c #F1F1F1",
"q. c gray95",
"w. c gray96",
"e. c #F6F6F6",
"r. c gray97",
"t. c #F9F9F9",
"y. c gray98",
"u. c #FBFBFB",
"i. c gray99",
"p. c white",
"a. c None",
/* pixels */
"a.a.a.a.a.a.a.a.a.a.a.a.a.a.a.a.a.a.a.a.a.a.a.a.a.a.a.a.a.a.a.a.a.a.a.a.a.a.a.a.a.a.a.a.a.a.a.a.",
"a.a.a.a.a.a.a.a.a.a.a.a.a.a.a.a.a.a.a.a.a.a.a.a.a.a.a.a.a.a.a.a.a.a.a.a.a.a.a.a.a.a.a.a.a.a.a.a.",
"a.a.a.a.a.a.a.a.a.a.a.a.a.a.a.a.a.a.a.a.a.a.a.a.a.a.a.a.a.a.a.a.a.a.a.a.a.a.a.a.a.a.a.a.a.a.a.a.",
"a.a.a.a.a.a.a.a.a.a.a.a.a.a.a.a.a.a.a.a.a.a.a.a.a.a.a.a.a.a.a.a.a.a.a.a.a.a.a.a.a.a.a.a.a.a.a.a.",
"a.a.a.a.a.a.a.a.a.a.a.a.a.a.a.a.a.a.a.a.a.a.a.a.a.a.a.a.a.a.a.a.a.a.a.a.a.a.a.a.a.a.a.a.a.a.a.a.",
"a.a.a.a.a.a.a.a.a.a.a.a.a.a.a.a.a.a.a.a.a.a.a.a.a.a.a.a.a.a.a.a.a.a.a.a.a.a.a.a.a.a.a.a.a.a.a.a.",
"a.a.a.a.a.a.a.a.a.a.a.a.a.a.a.a.a.a.a.a.a.a.a.a.a.a.a.a.a.a.1 1 1 1 1 1 a.a.a.a.a.a.a.a.a.a.a.a.",
"a.a.a.a.a.a.a.a.a.a.a.a.a.a.a.a.a.a.a.a.a.a.a.a.a.a.a.a.a.a.< < < < < < a.a.a.a.a.a.a.a.a.a.a.a.",
"a.a.a.a.a.a.a.a.a.a.a.a.a.a.a.a.a.a.a.a.a.a.a.a.a.a.a.a.a.a.5 6 6 6 6 6 a.a.a.a.a.a.a.a.a.a.a.a.",
"a.a.a.a.a.a.a.a.a.a.a.a.a.a.a.a.a.a.a.a.a.1 1 1 1 1 1 1 < 5 F P L L P H a t t a.a.a.a.a.a.a.a.a.",
"a.a.a.a.a.a.a.a.a.a.a.a.a.a.a.a.a.a.a.a.a.< < < < < < < < 5 L ! Q Q ! U a r t a.a.a.a.a.a.a.a.a.",
"a.a.a.a.a.a.a.a.a.a.a.a.a.a.a.a.a.a.a.a.a.5 6 6 0 0 0 0 0 u E ( ( ( ( W h a a a.a.a.a.a.a.a.a.a.",
"a.a.a.a.a.a.a.a.a.a.a.a.1 1 1 1 1 1 1 < 5 F P T } ........X.#.$.$.$.%.O.W U K a t t a.a.a.a.a.a.",
"a.a.a.a.a.a.a.a.a.a.a.a.< < < < < < < < 5 L Q ( %.;.;.;.;.;.-.-.-.-.;.%.( Q U a r t a.a.a.a.a.a.",
"a.a.a.a.a.a.a.a.a.a.a.a.5 6 6 0 0 0 0 0 u E ( ` %.-.-.-.-.-.-.-.-.-.-.%.` ( W h a a a.a.a.a.a.a.",
"a.a.a.1 1 1 1 1 1 1 < 5 F P T } ........X.#.$.%.=.-.-.-.-.-.-.-.-.-.-.=.%.%.O.W U K a t t a.a.a.",
"a.a.a.< < < < < < < < 5 L Q ( %.;.;.;.;.;.-.-.-.-.-.-.-.-.-.-.-.-.-.-.-.-.-.$./ Q I a r r a.a.a.",
"a.a.a.e r e q 0 0 0 0 u E ( ` %.-.-.-.-.-.-.-.-.-.-.-.-.-.-.-.-.-.-.-.;.>.,.-.' ` ^ c g h a.a.a.",
"1 < e <.7.4.+.........X.#.$.%.=.-.-.-.-.-.-.-.-.-.-.-.-.-.-.-.-.-.-.-.>.e.u.y.e.w.9.#.o.{ h r t ",
"1 < r 7.p.i.,.-.;.;.;.;.-.-.-.-.-.-.-.-.-.-.-.-.-.-.-.-.-.-.-.-.-.-.=.>.u.p.p.p.p.i.<.:.O.h t t ",
"1 < e 3.e.q.1.>.>.;.-.-.-.-.-.-.-.-.-.-.-.-.-.-.-.-.;.>.,.,.,.,.,.,.>.2.r.u.t.9.8.5.*.%.| p 8 9 ",
"1 < 7 Q ` ] q.u.e.>.-.-.-.-.-.-.-.-.-.-.-.-.-.-.-.-.>.e.u.y.y.y.y.y.u.r.2.,.$.V l n ! ) P * O + ",
"1 < 6 L W ` e.p.u.>.=.-.-.-.-.-.-.-.-.-.-.-.-.-.-.=.>.u.p.p.p.p.p.p.p.i.,.;.o.g e p I ! G %   . ",
"1 < 6 L Q _ 6.e.q.1.>.>.;.-.-.-.-.;.>.,.,.,.,.,.,.>.2.r.u.t.q.9.9.8.8.5.@.O.[ h y d U ! H %   . ",
"1 < 6 L Q ! _ ` ] q.u.e.>.-.-.-.-.>.e.u.y.y.y.y.y.u.r.2.,.&.F A Z c z z h h h k k v Y ! H %   . ",
"1 < 6 L ! Q W W ` e.p.u.>.=.-.-.=.>.u.p.p.p.p.p.p.p.i.,.;.+.N l j y r r r r y k z b T ! H %   . ",
"1 < 6 L ! Q Q W _ 6.e.q.1.>.,.,.>.2.r.u.t.q.9.9.8.8.5.@.o.{ m k j u t y a a d v b M T ! H %   . ",
"1 < 6 L ! Q Q Q ! _ ` ] q.u.y.y.u.r.2.,.&.F A Z c z z h h g i u u t t a J U U Y T T W ! H %   . ",
"1 < 6 P ! Q Q Q Q W W ` w.p.p.p.p.i.,.;.+.N l j y r r r r r r r r t r a U ! ! ! ! ! ! ~ H %   . ",
"1 < 5 J T T W Q Q Q W ` 0.u.t.q.0.6.@.o.{ m k j u t t t t y a a a a a g L T Y J H H H H A %   . ",
"1 1 4 z b M T Q Q Q Q ( *.,.&.F A C k h g i u u t t t t t a J U U U U L M n j = % % % % % a.a.a.",
"1 1 3 h z b T ! Q Q Q ( $.;.+.N l j y r r t t t t t t t r a Y ~ ! ! ~ R n x s @           a.a.a.",
"1 1 3 f h z L T T W Q ( $.;.+.B l k u t t t t t u u u u u a S H H H H D g s t #   . . . . a.a.a.",
"a.a.a.3 3 5 z b M T Q ( $.;.+.B l k u t t t t u j k k k l s = % % % % % # # # a.a.a.a.a.a.a.a.a.",
"a.a.a.1 < 3 h z b T Q ( %.;.+.B l k u t t t t u l x x x x d @                 a.a.a.a.a.a.a.a.a.",
"a.a.a.1 1 3 f h z L T ! O.%. .N z k t e w 9 9 q p s s s d t #   . . . . . . . a.a.a.a.a.a.a.a.a.",
"a.a.a.a.a.a.3 3 5 z b N ! ( ! n z h 3 < , $ + + # # # # # # a.a.a.a.a.a.a.a.a.a.a.a.a.a.a.a.a.a.",
"a.a.a.a.a.a.1 < 3 h z b T ! T n x h 2 > ; X   .             a.a.a.a.a.a.a.a.a.a.a.a.a.a.a.a.a.a.",
"a.a.a.a.a.a.1 1 3 f h z J P H h s i , : - X . . . . . . . . a.a.a.a.a.a.a.a.a.a.a.a.a.a.a.a.a.a.",
"a.a.a.a.a.a.a.a.a.3 3 4 5 6 3 & # @ o o o a.a.a.a.a.a.a.a.a.a.a.a.a.a.a.a.a.a.a.a.a.a.a.a.a.a.a.",
"a.a.a.a.a.a.a.a.a.1 1 1 < 1 > X     . . . a.a.a.a.a.a.a.a.a.a.a.a.a.a.a.a.a.a.a.a.a.a.a.a.a.a.a.",
"a.a.a.a.a.a.a.a.a.1 1 1 1 1 > o . . . . . a.a.a.a.a.a.a.a.a.a.a.a.a.a.a.a.a.a.a.a.a.a.a.a.a.a.a.",
"a.a.a.a.a.a.a.a.a.a.a.a.a.a.a.a.a.a.a.a.a.a.a.a.a.a.a.a.a.a.a.a.a.a.a.a.a.a.a.a.a.a.a.a.a.a.a.a.",
"a.a.a.a.a.a.a.a.a.a.a.a.a.a.a.a.a.a.a.a.a.a.a.a.a.a.a.a.a.a.a.a.a.a.a.a.a.a.a.a.a.a.a.a.a.a.a.a.",
"a.a.a.a.a.a.a.a.a.a.a.a.a.a.a.a.a.a.a.a.a.a.a.a.a.a.a.a.a.a.a.a.a.a.a.a.a.a.a.a.a.a.a.a.a.a.a.a.",
"a.a.a.a.a.a.a.a.a.a.a.a.a.a.a.a.a.a.a.a.a.a.a.a.a.a.a.a.a.a.a.a.a.a.a.a.a.a.a.a.a.a.a.a.a.a.a.a.",
"a.a.a.a.a.a.a.a.a.a.a.a.a.a.a.a.a.a.a.a.a.a.a.a.a.a.a.a.a.a.a.a.a.a.a.a.a.a.a.a.a.a.a.a.a.a.a.a.",
"a.a.a.a.a.a.a.a.a.a.a.a.a.a.a.a.a.a.a.a.a.a.a.a.a.a.a.a.a.a.a.a.a.a.a.a.a.a.a.a.a.a.a.a.a.a.a.a."
};
