/* XPM */
static char *result[] = {
/* columns rows colors chars-per-pixel */
"64 64 46 1 ",
"  c #1E1510",
". c #231A11",
"X c #251A11",
"o c #271C12",
"O c #291D12",
"+ c #2B1F12",
"@ c #2B1F13",
"# c #2D2012",
"$ c #2D2113",
"% c #2E2113",
"& c #2E2213",
"* c #312414",
"= c #322414",
"- c #332514",
"; c #342614",
": c #362715",
"> c #392A16",
", c #3B2B16",
"< c #3D2C16",
"1 c #3F2E17",
"2 c #433118",
"3 c #49361A",
"4 c #4D391B",
"5 c #126D91",
"6 c #13699B",
"7 c #136C9A",
"8 c #127192",
"9 c #137298",
"0 c #14759D",
"q c #147999",
"w c #147B99",
"e c #195FBD",
"r c #1460A6",
"t c #1464A4",
"y c #146BA2",
"u c #1662AC",
"i c #1660AE",
"p c #1669A9",
"a c #166EA8",
"s c #1768AC",
"d c #1779A8",
"f c #1760B1",
"g c #1761B5",
"h c #1965B9",
"j c #1964BB",
"k c None",
/* pixels */
"kkkkkkkkkkkkkkkkkkkkkkkkkkkkkkkkkkkkkkkkkkkkkkkkkkkkkkkkkkkkkkkk",
"kkkkkkkkkkkkkkkkkkkkkkkkkkkkkkkkkkkkkkkkkkkkkkkkkkkkkkkkkkkkkkkk",
"kkkkkkkkkkkkkkkkkkkkkkkkkkkkkkkkkkkkkkkkkkkkkkkkkkkkkkkkkkkkkkkk",
"kkkkkkkkkkkkkkkkkkkkkkkkkkkkkkkkkkkkkkkkkkkkkkkkkkkkkkkkkkkkkkkk",
"kkkkkkkkkkkkkkkkkkkkkkkkkkkkkkkkkkkkkkkkkkkkkkkkkkkkkkkkkkkkkkkk",
"kkkkkkkkkkkkkkkkkkkkkkkkkkkkkkkkkkkkkkkkkkkkkkkkkkkkkkkkkkkkkkkk",
"kkkkkkkkkkkkkkkkkkkkkkkkkkkkkkkkkkkkkkkkkkkkkkkkkkkkkkkkkkkkkkkk",
"kkkkkkkkkkkkkkkkkkkkkkkkkkkkkkkkkkkkkkkkkkkkkkkkkkkkkkkkkkkkkkkk",
"kkkkkkkkkkkkkkkkkkkkkkkkuuuuppppttttjjjjkkkkkkkkkkkkkkkkkkkkkkkk",
"kkkkkkkkkkkkkkkkkkkkkkkkuuuuppppttttjjjjkkkkkkkkkkkkkkkkkkkkkkkk",
"kkkkkkkkkkkkkkkkkkkkkkkkuuuuppppttttjjjjkkkkkkkkkkkkkkkkkkkkkkkk",
"kkkkkkkkkkkkkkkkkkkkkkkkuuuuppppttttjjjjkkkkkkkkkkkkkkkkkkkkkkkk",
"kkkkkkkkkkkkkkkkkkkkkkkk6666888855557777kkkkkkkkkkkkkkkkkkkkkkkk",
"kkkkkkkkkkkkkkkkkkkkkkkk6666888855557777kkkkkkkkkkkkkkkkkkkkkkkk",
"kkkkkkkkkkkkkkkkkkkkkkkk6666888855557777kkkkkkkkkkkkkkkkkkkkkkkk",
"kkkkkkkkkkkkkkkkkkkkkkkk6666888855557777kkkkkkkkkkkkkkkkkkkkkkkk",
"kkkkkkkkkkkkkkkkkkkkkkkkhhhh9999rrrrrrrrkkkkkkkkkkkkkkkkkkkkkkkk",
"kkkkkkkkkkkkkkkkkkkkkkkkhhhh9999rrrrrrrrkkkkkkkkkkkkkkkkkkkkkkkk",
"kkkkkkkkkkkkkkkkkkkkkkkkhhhh9999rrrrrrrrkkkkkkkkkkkkkkkkkkkkkkkk",
"kkkkkkkkkkkkkkkkkkkkkkkkhhhh9999rrrrrrrrkkkkkkkkkkkkkkkkkkkkkkkk",
"kkkkkkkkkkkkkkkkkkkk%%%%;;;;;;;;;;;;22221111kkkkkkkkkkkkkkkkkkkk",
"kkkkkkkkkkkkkkkkkkkk%%%%;;;;;;;;;;;;22221111kkkkkkkkkkkkkkkkkkkk",
"kkkkkkkkkkkkkkkkkkkk%%%%;;;;;;;;;;;;22221111kkkkkkkkkkkkkkkkkkkk",
"kkkkkkkkkkkkkkkkkkkk%%%%;;;;;;;;;;;;22221111kkkkkkkkkkkkkkkkkkkk",
"kkkkkkkkkkkkkkkkkkkk####....++++OOOO****>>>>kkkkkkkkkkkkkkkkkkkk",
"kkkkkkkkkkkkkkkkkkkk####....++++OOOO****>>>>kkkkkkkkkkkkkkkkkkkk",
"kkkkkkkkkkkkkkkkkkkk####....++++OOOO****>>>>kkkkkkkkkkkkkkkkkkkk",
"kkkkkkkkkkkkkkkkkkkk####....++++OOOO****>>>>kkkkkkkkkkkkkkkkkkkk",
"kkkkkkkkkkkkkkkkkkkk@@@@    ;;;;****<<<<****kkkkkkkkkkkkkkkkkkkk",
"kkkkkkkkkkkkkkkkkkkk@@@@    ;;;;****<<<<****kkkkkkkkkkkkkkkkkkkk",
"kkkkkkkkkkkkkkkkkkkk@@@@    ;;;;****<<<<****kkkkkkkkkkkkkkkkkkkk",
"kkkkkkkkkkkkkkkkkkkk@@@@    ;;;;****<<<<****kkkkkkkkkkkkkkkkkkkk",
"kkkkkkkkkkkkkkkkkkkk&&&&XXXX&&&&====----,,,,kkkkkkkkkkkkkkkkkkkk",
"kkkkkkkkkkkkkkkkkkkk&&&&XXXX&&&&====----,,,,kkkkkkkkkkkkkkkkkkkk",
"kkkkkkkkkkkkkkkkkkkk&&&&XXXX&&&&====----,,,,kkkkkkkkkkkkkkkkkkkk",
"kkkkkkkkkkkkkkkkkkkk&&&&XXXX&&&&====----,,,,kkkkkkkkkkkkkkkkkkkk",
"kkkkkkkkkkkkkkkkkkkk;;;;oooooooooooo$$$$1111kkkkkkkkkkkkkkkkkkkk",
"kkkkkkkkkkkkkkkkkkkk;;;;oooooooooooo$$$$1111kkkkkkkkkkkkkkkkkkkk",
"kkkkkkkkkkkkkkkkkkkk;;;;oooooooooooo$$$$1111kkkkkkkkkkkkkkkkkkkk",
"kkkkkkkkkkkkkkkkkkkk;;;;oooooooooooo$$$$1111kkkkkkkkkkkkkkkkkkkk",
"kkkkkkkkkkkkkkkkkkkk::::1111====3333,,,,4444kkkkkkkkkkkkkkkkkkkk",
"kkkkkkkkkkkkkkkkkkkk::::1111====3333,,,,4444kkkkkkkkkkkkkkkkkkkk",
"kkkkkkkkkkkkkkkkkkkk::::1111====3333,,,,4444kkkkkkkkkkkkkkkkkkkk",
"kkkkkkkkkkkkkkkkkkkk::::1111====3333,,,,4444kkkkkkkkkkkkkkkkkkkk",
"kkkkkkkkkkkkkkkkkkkkkkkkiiiiyyyyaaaaeeeekkkkkkkkkkkkkkkkkkkkkkkk",
"kkkkkkkkkkkkkkkkkkkkkkkkiiiiyyyyaaaaeeeekkkkkkkkkkkkkkkkkkkkkkkk",
"kkkkkkkkkkkkkkkkkkkkkkkkiiiiyyyyaaaaeeeekkkkkkkkkkkkkkkkkkkkkkkk",
"kkkkkkkkkkkkkkkkkkkkkkkkiiiiyyyyaaaaeeeekkkkkkkkkkkkkkkkkkkkkkkk",
"kkkkkkkkkkkkkkkkkkkkkkkkwwww0000qqqqsssskkkkkkkkkkkkkkkkkkkkkkkk",
"kkkkkkkkkkkkkkkkkkkkkkkkwwww0000qqqqsssskkkkkkkkkkkkkkkkkkkkkkkk",
"kkkkkkkkkkkkkkkkkkkkkkkkwwww0000qqqqsssskkkkkkkkkkkkkkkkkkkkkkkk",
"kkkkkkkkkkkkkkkkkkkkkkkkwwww0000qqqqsssskkkkkkkkkkkkkkkkkkkkkkkk",
"kkkkkkkkkkkkkkkkkkkkkkkkggggddddffffjjjjkkkkkkkkkkkkkkkkkkkkkkkk",
"kkkkkkkkkkkkkkkkkkkkkkkkggggddddffffjjjjkkkkkkkkkkkkkkkkkkkkkkkk",
"kkkkkkkkkkkkkkkkkkkkkkkkggggddddffffjjjjkkkkkkkkkkkkkkkkkkkkkkkk",
"kkkkkkkkkkkkkkkkkkkkkkkkggggddddffffjjjjkkkkkkkkkkkkkkkkkkkkkkkk",
"kkkkkkkkkkkkkkkkkkkkkkkkkkkkkkkkkkkkkkkkkkkkkkkkkkkkkkkkkkkkkkkk",
"kkkkkkkkkkkkkkkkkkkkkkkkkkkkkkkkkkkkkkkkkkkkkkkkkkkkkkkkkkkkkkkk",
"kkkkkkkkkkkkkkkkkkkkkkkkkkkkkkkkkkkkkkkkkkkkkkkkkkkkkkkkkkkkkkkk",
"kkkkkkkkkkkkkkkkkkkkkkkkkkkkkkkkkkkkkkkkkkkkkkkkkkkkkkkkkkkkkkkk",
"kkkkkkkkkkkkkkkkkkkkkkkkkkkkkkkkkkkkkkkkkkkkkkkkkkkkkkkkkkkkkkkk",
"kkkkkkkkkkkkkkkkkkkkkkkkkkkkkkkkkkkkkkkkkkkkkkkkkkkkkkkkkkkkkkkk",
"kkkkkkkkkkkkkkkkkkkkkkkkkkkkkkkkkkkkkkkkkkkkkkkkkkkkkkkkkkkkkkkk",
"kkkkkkkkkkkkkkkkkkkkkkkkkkkkkkkkkkkkkkkkkkkkkkkkkkkkkkkkkkkkkkkk"
};
