/* XPM */
static char *result[] = {
/* columns rows colors chars-per-pixel */
"64 64 246 2 ",
"   c #53090E",
".  c #54090E",
"X  c #570C0C",
"o  c #570C0D",
"O  c #570D0D",
"+  c #5C0A0F",
"@  c #5D0A0F",
"#  c #580D0D",
"$  c #5E0A10",
"%  c #5F0A10",
"&  c #600D0E",
"*  c #620D0F",
"=  c #660E0F",
"-  c #630A11",
";  c #630B11",
":  c #640B10",
">  c #640B11",
",  c #6A0B12",
"<  c #522308",
"1  c #532409",
"2  c #542409",
"3  c #572408",
"4  c #572508",
"5  c #5B2109",
"6  c #5E210A",
"7  c #5C220B",
"8  c #5F220A",
"9  c #5F220B",
"0  c #582408",
"q  c #5B2508",
"w  c #592609",
"e  c #59260A",
"r  c #5C2609",
"t  c #6F2704",
"y  c #60220A",
"u  c #62220B",
"i  c #712403",
"p  c #712503",
"a  c #762206",
"s  c #762505",
"d  c #792206",
"f  c #792306",
"g  c #792504",
"h  c #792505",
"j  c #7A2504",
"k  c #7B2605",
"l  c #7C2605",
"z  c #7D2605",
"x  c #7D2607",
"c  c #702803",
"v  c #712803",
"b  c #742802",
"n  c #752802",
"m  c #762802",
"M  c #762A03",
"N  c #79340C",
"B  c #79350D",
"V  c #79350E",
"C  c #7D350D",
"Z  c #7E370E",
"A  c #6F2F1B",
"S  c #712F1C",
"D  c #67311A",
"F  c #8D0F15",
"G  c #940F16",
"H  c #9B0F16",
"J  c #9C0F16",
"K  c #8D1414",
"L  c #931114",
"P  c #911214",
"I  c #931215",
"U  c #971315",
"Y  c #961017",
"T  c #971017",
"R  c #941216",
"E  c #981315",
"W  c #9A1315",
"Q  c #9B1017",
"!  c #9B1316",
"~  c #9B1317",
"^  c #9C1017",
"/  c #9D1017",
"(  c #9E1018",
")  c #9F1018",
"_  c #A11119",
"`  c #A31018",
"'  c #A21119",
"]  c #A31119",
"[  c #A01219",
"{  c #A0111B",
"}  c #A41119",
"|  c #A61119",
" . c #A7121B",
".. c #A71718",
"X. c #A7151B",
"o. c #A8141B",
"O. c #AA151A",
"+. c #AC151B",
"@. c #AD151B",
"#. c #AE151B",
"$. c #A8121C",
"%. c #A9121C",
"&. c #AA121C",
"*. c #AD121D",
"=. c #AE121C",
"-. c #AF121D",
";. c #A9151C",
":. c #A61818",
">. c #B3111C",
",. c #B1121C",
"<. c #B1131D",
"1. c #B2121D",
"2. c #B3121D",
"3. c #B2131D",
"4. c #B2131E",
"5. c #B3131E",
"6. c #B4121D",
"7. c #B4131E",
"8. c #B5131E",
"9. c #B6131E",
"0. c #B1151C",
"q. c #B1161C",
"w. c #B5161C",
"e. c #B8131F",
"r. c #B9131F",
"t. c #BC131F",
"y. c #B9141F",
"u. c #BC141F",
"i. c #BD141F",
"p. c #802307",
"a. c #802606",
"s. c #812606",
"d. c #832308",
"f. c #842408",
"g. c #A61E25",
"h. c #A71F26",
"j. c #A81F26",
"k. c #AE1F27",
"l. c #BD1420",
"z. c #A02125",
"x. c #B3242A",
"c. c #B9202A",
"v. c #BC212C",
"b. c #BC222C",
"n. c #BD222C",
"m. c #BD222D",
"M. c #C01420",
"N. c #C11420",
"B. c #C11521",
"V. c #C41521",
"C. c #C91522",
"Z. c #CA1522",
"A. c #CD1522",
"S. c #CE1522",
"D. c #CA1820",
"F. c #CD1920",
"G. c #D11623",
"H. c #D41623",
"J. c #D51623",
"K. c #D61623",
"L. c #D51624",
"P. c #D61624",
"I. c #D81624",
"U. c #D91624",
"Y. c #D81724",
"T. c #D91724",
"R. c #DD1625",
"E. c #DC1725",
"W. c #DD1725",
"Q. c #DE1725",
"!. c #D11921",
"~. c #D21921",
"^. c #DD1E2B",
"/. c #DA1F2C",
"(. c #E01726",
"). c #E11726",
"_. c #E01826",
"`. c #E11826",
"'. c #E31826",
"]. c #E41826",
"[. c #E41927",
"{. c #E11F2D",
"}. c #EE1A28",
"|. c #EF1A28",
" X c #F31A29",
".X c #F41B29",
"XX c #F61A29",
"oX c #F61B29",
"OX c #F61B2A",
"+X c #F71B2A",
"@X c #F81B2A",
"#X c #FB1B2A",
"$X c #FC1B2A",
"%X c #FF1B2A",
"&X c #FF1B2B",
"*X c #FF1C2B",
"=X c #FF1D2C",
"-X c #C4222D",
";X c #C42E39",
":X c #F72230",
">X c #F72331",
",X c #FC2231",
"<X c #FF2331",
"1X c #FF2332",
"2X c #FF2432",
"3X c #FF2433",
"4X c #FF2937",
"5X c #FF2A38",
"6X c #FB4F5B",
"7X c #FF505C",
"8X c #FB5661",
"9X c #FB5662",
"0X c #FF5662",
"qX c #FF5762",
"wX c #FA5B66",
"eX c #FE5C67",
"rX c #FF5C67",
"tX c #FF5D68",
"yX c #FF5E69",
"uX c #FF5F6A",
"iX c #FF646F",
"pX c #FF656F",
"aX c #FF6570",
"sX c #FE6873",
"dX c #EC7A81",
"fX c #ED7B82",
"gX c #EB898C",
"hX c #EC898C",
"jX c #ED898C",
"kX c #F58189",
"lX c #F78289",
"zX c #F7838B",
"xX c #F3878E",
"cX c #F4878E",
"vX c #F5878E",
"bX c #F6878F",
"nX c #F7878F",
"mX c #FF828B",
"MX c #F4888F",
"NX c #F7888F",
"BX c #FF8890",
"VX c #FF9098",
"CX c #FF9198",
"ZX c #FF979E",
"AX c #FF989F",
"SX c None",
/* pixels */
"SXSXSXSXSXSXSXSXSXSXSXSXSXSXSXSXSXSXSXSXSXSXSXSXSXSXSXSXSXSXSXSXSXSXSXSXSXSXSXSXSXSXSXSXSXSXSXSXSXSXSXSXSXSXSXSXSXSXSXSXSXSXSXSX",
"SXSXSXSXSXSXSXSXSXSXSXSXSXSXSXSXSXSXSXSXSXSXSXSXSXSXSXSXSXSXSXSXSXSXSXSXSXSXSXSXSXSXSXSXSXSXSXSXSXSXSXSXSXSXSXSXSXSXSXSXSXSXSXSX",
"SXSXSXSXSXSXSXSXSXSXSXSXSXSXSXSXSXSXSXSXSXSXSXSXSXSXSXSXSXSXSXSXSXSXSXSXSXSXSXSXSXSXSXSXSXSXSXSXSXSXSXSXSXSXSXSXSXSXSXSXSXSXSXSX",
"SXSXSXSXSXSXSXSXSXSXSXSXSXSXSXSXSXSXSXSXSXSXSXSXSXSXSXSXSXSXSXSXSXSXSXSXSXSXSXSXSXSXSXSXSXSXSXSXSXSXSXSXSXSXSXSXSXSXSXSXSXSXSXSX",
"SXSXSXSXSXSXSXSXSXSXSXSXSXSXSXSXSXSXSXSXSXSXSXSXSXSXSXSXSXSXSXSXSXSXSXSXn n n n SXSXSXSXSXSXSXSXSXSXSXSXSXSXSXSXSXSXSXSXSXSXSXSX",
"SXSXSXSXSXSXSXSXSXSXSXSXSXSXSXSXSXSXSXSXSXSXSXSXSXSXSXSXSXSXSXSXSXSXSXSXn n n n SXSXSXSXSXSXSXSXSXSXSXSXSXSXSXSXSXSXSXSXSXSXSXSX",
"SXSXSXSXSXSXSXSXSXSXSXSXSXSXSXSXSXSXSXSXSXSXSXSXSXSXSXSXSXSXSXSXSXSXSXSXn n n n SXSXSXSXSXSXSXSXSXSXSXSXSXSXSXSXSXSXSXSXSXSXSXSX",
"SXSXSXSXSXSXSXSXSXSXSXSXSXSXSXSXSXSXSXSXSXSXSXSXSXSXSXSXSXSXSXSXSXSXSXSXv v v v SXSXSXSXSXSXSXSXSXSXSXSXSXSXSXSXSXSXSXSXSXSXSXSX",
"SXSXSXSXSXSXSXSXSXSXSXSXSXSXSXSXSXSXSXSXSXSXSXSXSXSXSXSXSXSXSXSXZ Z Z B r 3 0 0 SXSXSXSXSXSXSXSXSXSXSXSXSXSXSXSXSXSXSXSXSXSXSXSX",
"SXSXSXSXSXSXSXSXSXSXSXSXSXSXSXSXSXSXSXSXSXSXSXSXSXSXSXSXSXSXSXSXZ Z Z B e 1 2 2 SXSXSXSXSXSXSXSXSXSXSXSXSXSXSXSXSXSXSXSXSXSXSXSX",
"SXSXSXSXSXSXSXSXSXSXSXSXSXSXSXSXSXSXSXSXSXSXSXSXSXSXSXSXSXSXSXSXZ Z Z V e 2 2 2 SXSXSXSXSXSXSXSXSXSXSXSXSXSXSXSXSXSXSXSXSXSXSXSX",
"SXSXSXSXSXSXSXSXSXSXSXSXSXSXSXSXSXSXSXSXSXSXSXSXSXSXSXSXSXSXSXSXC C C N w 2 2 2 SXSXSXSXSXSXSXSXSXSXSXSXSXSXSXSXSXSXSXSXSXSXSXSX",
"SXSXSXSXSXSXSXSXSXSXSXSXSXSXSXSXSXSXSXSXSXSXSXSXSXSXSXSXSXSXSXSXM M M M SXSXSXSXSXSXSXSXSXSXSXSXSXSXSXSXSXSXSXSXSXSXSXSXSXSXSXSX",
"SXSXSXSXSXSXSXSXSXSXSXSXSXSXSXSXSXSXSXSXSXSXSXSXSXSXSXSXSXSXSXSXn n n n SXSXSXSXSXSXSXSXSXSXSXSXSXSXSXSXSXSXSXSXSXSXSXSXSXSXSXSX",
"SXSXSXSXSXSXSXSXSXSXSXSXSXSXSXSXSXSXSXSXSXSXSXSXSXSXSXSXSXSXSXSXn n n n SXSXSXSXSXSXSXSXSXSXSXSXSXSXSXSXSXSXSXSXSXSXSXSXSXSXSXSX",
"SXSXSXSXSXSXSXSXSXSXSXSXSXSXSXSXSXSXSXSXSXSXSXSXSXSXSXSXSXSXSXSXv v v v SXSXSXSXSXSXSXSXSXSXSXSXSXSXSXSXSXSXSXSXSXSXSXSXSXSXSXSX",
"SXSXSXSXSXSXSXSXSXSXSXSXSXSXSXSXSXSXSXSX^ ^ ^ ^ ^ ^ ^ E g n n v q 0 0 q v n n n n n n n SXSXSXSXSXSXSXSXSXSXSXSXSXSXSXSXSXSXSXSX",
"SXSXSXSXSXSXSXSXSXSXSXSXSXSXSXSXSXSXSXSX^ ^ ^ ^ ^ ^ ^ E g n n v 0 1 1 0 v n n n n n n n SXSXSXSXSXSXSXSXSXSXSXSXSXSXSXSXSXSXSXSX",
"SXSXSXSXSXSXSXSXSXSXSXSXSXSXSXSXSXSXSXSXH H H H ^ ^ ^ U j n m v 4 1 1 4 c b b b b n n n SXSXSXSXSXSXSXSXSXSXSXSXSXSXSXSXSXSXSXSX",
"SXSXSXSXSXSXSXSXSXSXSXSXSXSXSXSXSXSXSXSXh.h.h.g.[ ) ) W s v v t 8 7 7 y x s.s.a.z l l l SXSXSXSXSXSXSXSXSXSXSXSXSXSXSXSXSXSXSXSX",
"SXSXSXSXSXSXSXSXSXSXSXSX^ ^ ^ ) <.7.2.b.fXMXMXdXc.,.3.X.u 4 4 8 K R I ~ D.~.!.F.q.@.@...l n n n n n n n SXSXSXSXSXSXSXSXSXSXSXSX",
"SXSXSXSXSXSXSXSXSXSXSXSX^ ^ ^ ) <.7.2.n.NXAXAXNXm.6.8.;.9 1 1 7 R / ^ } P.Q.Q.U.r.7.8.@.l n n n n n n n SXSXSXSXSXSXSXSXSXSXSXSX",
"SXSXSXSXSXSXSXSXSXSXSXSX^ ^ ^ ) <.7.2.b.bXZXZXbXv.>.6.o.6 < < 5 L J H ` J.W.R.I.e.5.7.+.l b n n n n n n SXSXSXSXSXSXSXSXSXSXSXSX",
"SXSXSXSXSXSXSXSXSXSXSXSX) ) ) ' y.l.t.-XlXCXVXzX;Xv.m.x.S D D A z.j.h.k./.{.{.^.B.u.l.w.f.l l k m n n n SXSXSXSXSXSXSXSXSXSXSXSX",
"SXSXSXSXSXSXSXSX^ ^ ^ ) -.<.<.y.|.+XXX>XeXpXiXsXzXbXnXvXjXgXgXhXxXcXcXkXwX8X9X6X:XoX+X}.w.+.@.:.k n n n n n n n SXSXSXSXSXSXSXSX",
"SXSXSXSXSXSXSXSX^ ^ ^ ) <.7.7.l.+X*X*X2X0XyXtXiXVXZXZXZXZXZXZXZXZXZXZXCXaXyXuXqX2X*X*X+Xl.7.8.@.l n n n n n n n SXSXSXSXSXSXSXSX",
"SXSXSXSXSXSXSXSX^ ^ ^ ) <.7.5.i.OX*X&X2XqXuXyXpXCXZXZXZXZXZXZXZXZXZXZXCXpXyXuXqX2X*X*X+Xu.5.7.+.l b n n n n n n SXSXSXSXSXSXSXSX",
"SXSXSXSXSXSXSXSX^ ^ ^ ) <.7.5.i.OX*X*X<X7XqX0XrXmXBXBXBXBXBXBXBXBXBXBXmXrX0XqX7X,X#X$X.XV.u.l.w.f.l l k m n n n SXSXSXSXSXSXSXSX",
"SXSXSXSXSXSXSXSX^ ^ ^ ) <.7.5.i.OX*X*X=X<X2X1X3X4X5X5X5X5X5X5X5X5X5X5X4X3X1X2X,X[.).`.'..X+X+X}.w.+.@.:.k n n n SXSXSXSXSXSXSXSX",
"SXSXSXSXSXSXSXSX^ ^ ^ ) <.7.5.i.OX*X*X*X*X&X&X%X%X%X%X%X%X%X%X%X%X%X%X%X%X&X*X#X).E.E.`.$X*X*X+Xl.7.8.@.l n n n SXSXSXSXSXSXSXSX",
"SXSXSXSXSXSXSXSX^ ^ ^ ) <.7.5.i.+X*X*X*X*X*X*X*X*X*X*X*X*X*X*X*X*X*X*X*X*X*X*X#X`.W.W.`.#X*X*XOXu.5.7.@.l n n n SXSXSXSXSXSXSXSX",
"SXSXSXSXSXSXSXSX^ ^ ^ ) <.7.5.u. X$X#X$X*X*X*X*X$X#X#X$X*X*X*X*X$X#X#X#X#X#X#X@X_.W.W.`.#X*X*X+XN.e.r.0.f p i i SXSXSXSXSXSXSXSX",
"SXSXSXSXSXSXSXSX^ ^ ^ ) <.7.7.y.E.`.`.].$X*X*X$X].`.`.].$X*X*X$X].`.`.`.`.`.`._.W.W.W.`.#X*X*X#XW.Y.T.Z.= X # # SXSXSXSXSXSXSXSX",
"SXSXSXSXSXSXSXSX^ ^ ^ ) <.7.7.r.Y.W.E.`.#X*X*X#X`.E.E.`.#X*X*X#X`.E.W.W.W.W.W.W.W.W.W.`.#X*X*X#X`.W.Q.S.-   . . SXSXSXSXSXSXSXSX",
"SXSXSXSXSXSXSXSX^ ^ ^ ) <.7.7.r.T.Q.W.`.#X*X*X#X`.W.W.`.$X*X*X$X`.W.W.W.W.W.W.W.W.W.W.`.#X*X*X#X`.W.Q.A.>   . . SXSXSXSXSXSXSXSX",
"SXSXSXSXSXSXSXSXE E U ! <.7.7.e.H.T.Y.E.+X#X#X@X_.W.W.(..X+X+X XE.Y.Y.T.E.W.W.E.T.Y.Y.W.#X*X*X#X`.W.Q.A.>   . . SXSXSXSXSXSXSXSX",
"SXSXSXSXSXSXSXSXg g g p.@.7.7.8.e.r.e.l.E.`.`._.W.W.W.T.M.u.i.u.y.r.e.l.T.W.W.T.l.e.e.N.+X*X*X#X`.W.Q.A.>   . . SXSXSXSXSXSXSXSX",
"SXSXSXSXSXSXSXSXn n b l @.7.7.7.7.7.5.e.Y.W.W.W.W.W.W.Y.e.5.5.5.7.7.5.e.Y.W.W.Y.e.5.5.u.OX*X*X#X`.W.Q.A.>   . . SXSXSXSXSXSXSXSX",
"SXSXSXSXSXSXSXSXn n n l @.7.7.7.7.7.7.r.T.Q.W.W.W.W.Q.T.r.7.7.7.7.7.5.e.T.Q.Q.T.r.7.5.i.OX*X*X#X`.W.Q.S.>   . . SXSXSXSXSXSXSXSX",
"SXSXSXSXSXSXSXSXn n n l @.7.7.7.7.7.7.e.H.T.Y.Y.Y.Y.T.H.e.7.7.8.e.r.e.u.L.T.T.H.e.7.5.i.OX*X*X#XW.Y.T.C.;   . . SXSXSXSXSXSXSXSX",
"SXSXSXSXSXSXSXSXn n n l @.7.7.7.7.7.7.8.e.r.r.r.r.r.r.e.8.7.7.e.H.T.T.L.u.e.r.e.8.7.5.i.OX*X*X+XN.e.y.*.%   . . SXSXSXSXSXSXSXSX",
"SXSXSXSXSXSXSXSXn n n l @.7.7.7.7.7.7.7.7.7.7.7.7.7.7.7.7.7.7.r.T.Q.Q.T.e.5.7.7.7.7.5.i.OX*X*XOXu.5.7.%.%   . . SXSXSXSXSXSXSXSX",
"SXSXSXSXSXSXSXSXn n n l @.8.7.7.7.7.7.7.7.7.7.7.7.7.7.7.7.7.7.r.T.Q.Q.T.r.7.7.7.7.7.5.u.+X*X*X+Xl.7.9.&.%   . . SXSXSXSXSXSXSXSX",
"SXSXSXSXSXSXSXSXn n n l ..@.@.#.5.7.7.7.7.7.7.8.e.r.r.e.8.7.7.e.H.T.T.H.e.7.7.8.e.r.e.M.|.+X+X}.4.$.&.{ %   . . SXSXSXSXSXSXSXSX",
"SXSXSXSXSXSXSXSXSXSXSXSXl l l d.#.7.7.7.7.7.7.e.H.T.T.H.e.7.7.8.e.r.r.e.8.7.7.e.H.T.T.L.M.u.l.4., $ % % SXSXSXSXSXSXSXSXSXSXSXSX",
"SXSXSXSXSXSXSXSXSXSXSXSXn n b l @.7.7.7.7.7.7.r.T.Q.Q.T.r.7.7.7.7.7.7.7.7.7.7.r.T.Q.Q.T.e.5.7.$.$       SXSXSXSXSXSXSXSXSXSXSXSX",
"SXSXSXSXSXSXSXSXSXSXSXSXn n n l @.8.7.7.7.7.7.r.T.Q.Q.T.r.7.7.7.7.7.7.7.7.7.5.e.T.Q.Q.T.r.7.8.%.%   . . SXSXSXSXSXSXSXSXSXSXSXSX",
"SXSXSXSXSXSXSXSXSXSXSXSXn n n l O.1.<.3.7.7.7.e.H.T.T.H.e.7.7.8.e.r.r.r.r.r.e.u.L.T.T.H.9.<.3. .%   . . SXSXSXSXSXSXSXSXSXSXSXSX",
"SXSXSXSXSXSXSXSXSXSXSXSXn n n j W ) ) _ 3.7.7.8.e.r.r.e.8.7.7.e.H.T.Y.Y.Y.Y.T.L.u.e.r.9.' ) ) Y @   . . SXSXSXSXSXSXSXSXSXSXSXSX",
"SXSXSXSXSXSXSXSXSXSXSXSXn n n g U ^ ^ ) <.7.7.7.7.7.7.7.7.7.7.r.T.Q.W.W.W.W.Q.T.e.5.7.<.) ^ ^ G +   . . SXSXSXSXSXSXSXSXSXSXSXSX",
"SXSXSXSXSXSXSXSXSXSXSXSXn n n g E / ^ ) <.7.7.7.7.7.7.7.7.7.7.r.T.Q.Q.W.W.W.Q.T.r.7.7.<.) ^ / G +   . . SXSXSXSXSXSXSXSXSXSXSXSX",
"SXSXSXSXSXSXSXSXSXSXSXSXn n n h P G G T =.<.<.3.7.7.7.7.3.<.<.8.G.K.K.K.Y.Y.T.H.9.<.<.=.T G G F +   . . SXSXSXSXSXSXSXSXSXSXSXSX",
"SXSXSXSXSXSXSXSXSXSXSXSXSXSXSXSX@ + + : T ) ) _ 3.7.7.3._ ) ) ) ] ] ] | 9.r.r.9.' ) ) T : + + + SXSXSXSXSXSXSXSXSXSXSXSXSXSXSXSX",
"SXSXSXSXSXSXSXSXSXSXSXSXSXSXSXSX      + G ^ ^ ) <.7.7.<.) ^ ^ ^ ^ Q Q ( <.7.7.<.) ^ ^ G +       SXSXSXSXSXSXSXSXSXSXSXSXSXSXSXSX",
"SXSXSXSXSXSXSXSXSXSXSXSXSXSXSXSX. .   + G / ^ ) 3.8.8.1.) ^ ^ ^ ^ ^ ^ ) 3.8.8.3.) ^ / G +   . . SXSXSXSXSXSXSXSXSXSXSXSXSXSXSXSX",
"SXSXSXSXSXSXSXSXSXSXSXSXSXSXSXSX. .   + F G G T O.@.@.O.W U E E E E U W  .%.%. .Y G G F +   . . SXSXSXSXSXSXSXSXSXSXSXSXSXSXSXSX",
"SXSXSXSXSXSXSXSXSXSXSXSXSXSXSXSXSXSXSXSX+ + + & d l l l j g g g g g j a * % % % @ + + + SXSXSXSXSXSXSXSXSXSXSXSXSXSXSXSXSXSXSXSX",
"SXSXSXSXSXSXSXSXSXSXSXSXSXSXSXSXSXSXSXSX      O p n n n n n n n n n n p o               SXSXSXSXSXSXSXSXSXSXSXSXSXSXSXSXSXSXSXSX",
"SXSXSXSXSXSXSXSXSXSXSXSXSXSXSXSXSXSXSXSX. . . # i n n n n n n n n n n i # . . . . . . . SXSXSXSXSXSXSXSXSXSXSXSXSXSXSXSXSXSXSXSX",
"SXSXSXSXSXSXSXSXSXSXSXSXSXSXSXSXSXSXSXSX. . . # i n n n n n n n n n n i # . . . . . . . SXSXSXSXSXSXSXSXSXSXSXSXSXSXSXSXSXSXSXSX",
"SXSXSXSXSXSXSXSXSXSXSXSXSXSXSXSXSXSXSXSXSXSXSXSXSXSXSXSXSXSXSXSXSXSXSXSXSXSXSXSXSXSXSXSXSXSXSXSXSXSXSXSXSXSXSXSXSXSXSXSXSXSXSXSX",
"SXSXSXSXSXSXSXSXSXSXSXSXSXSXSXSXSXSXSXSXSXSXSXSXSXSXSXSXSXSXSXSXSXSXSXSXSXSXSXSXSXSXSXSXSXSXSXSXSXSXSXSXSXSXSXSXSXSXSXSXSXSXSXSX",
"SXSXSXSXSXSXSXSXSXSXSXSXSXSXSXSXSXSXSXSXSXSXSXSXSXSXSXSXSXSXSXSXSXSXSXSXSXSXSXSXSXSXSXSXSXSXSXSXSXSXSXSXSXSXSXSXSXSXSXSXSXSXSXSX",
"SXSXSXSXSXSXSXSXSXSXSXSXSXSXSXSXSXSXSXSXSXSXSXSXSXSXSXSXSXSXSXSXSXSXSXSXSXSXSXSXSXSXSXSXSXSXSXSXSXSXSXSXSXSXSXSXSXSXSXSXSXSXSXSX"
};
