/* XPM */
static char *result[] = {
/* columns rows colors chars-per-pixel */
"64 64 11 1 ",
"  c #0C3730",
". c #1B7B6B",
"X c #209581",
"o c #2CCDB1",
"O c #30DBBD",
"+ c #4AEDD1",
"@ c #8CF4E2",
"# c #A2F6E7",
"$ c #D1FAF3",
"% c white",
"& c None",
/* pixels */
"&&&&&&&&&&&&&&&&&&&&&&&&&&&&&&&&&&&&&&&&&&&&&&&&&&&&&&&&&&&&&&&&",
"&&&&&&&&&&&&&&&&&&&&&&&&&&&&&&&&&&&&&&&&&&&&&&&&&&&&&&&&&&&&&&&&",
"&&&&&&&&&&&&&&&&&&&&&&&&&&&&&&&&&&&&&&&&&&&&&&&&&&&&&&&&&&&&&&&&",
"&&&&&&&&&&&&&&&&&&&&&&&&&&&&&&&&&&&&&&&&&&&&&&&&&&&&&&&&&&&&&&&&",
"&&&&&&&&&&&&&&&&&&&&&&&&&&&&&&&&&&&&&&&&&&&&&&&&&&&&&&&&&&&&&&&&",
"&&&&&&&&&&&&&&&&&&&&&&&&&&&&&&&&&&&&&&&&&&&&&&&&&&&&&&&&&&&&&&&&",
"&&&&&&&&&&&&&&&&&&&&&&&&&&&&&&&&&&&&&&&&&&&&&&&&&&&&&&&&&&&&&&&&",
"&&&&&&&&&&&&&&&&&&&&&&&&&&&&&&&&&&&&&&&&&&&&&&&&&&&&&&&&&&&&&&&&",
"&&&&&&&&&&&&&&&&&&&&&&&&                &&&&&&&&&&&&&&&&&&&&&&&&",
"&&&&&&&&&&&&&&&&&&&&&&&&                &&&&&&&&&&&&&&&&&&&&&&&&",
"&&&&&&&&&&&&&&&&&&&&&&&&                &&&&&&&&&&&&&&&&&&&&&&&&",
"&&&&&&&&&&&&&&&&&&&&&&&&                &&&&&&&&&&&&&&&&&&&&&&&&",
"&&&&&&&&&&&&&&&&&&&&    %%%%%%%%%%%%%%%%    &&&&&&&&&&&&&&&&&&&&",
"&&&&&&&&&&&&&&&&&&&&    %%%%%%%%%%%%%%%%    &&&&&&&&&&&&&&&&&&&&",
"&&&&&&&&&&&&&&&&&&&&    %%%%%%%%%%%%%%%%    &&&&&&&&&&&&&&&&&&&&",
"&&&&&&&&&&&&&&&&&&&&    %%%%%%%%%%%%%%%%    &&&&&&&&&&&&&&&&&&&&",
"&&&&&&&&&&&&&&&&    %%%%############$$$$OOOO    &&&&&&&&&&&&&&&&",
"&&&&&&&&&&&&&&&&    %%%%############$$$$OOOO    &&&&&&&&&&&&&&&&",
"&&&&&&&&&&&&&&&&    %%%%############$$$$OOOO    &&&&&&&&&&&&&&&&",
"&&&&&&&&&&&&&&&&    %%%%############$$$$OOOO    &&&&&&&&&&&&&&&&",
"&&&&&&&&&&&&    %%%%$$$$########%%%%++++++++    &&&&&&&&&&&&&&&&",
"&&&&&&&&&&&&    %%%%$$$$########%%%%++++++++    &&&&&&&&&&&&&&&&",
"&&&&&&&&&&&&    %%%%$$$$########%%%%++++++++    &&&&&&&&&&&&&&&&",
"&&&&&&&&&&&&    %%%%$$$$########%%%%++++++++    &&&&&&&&&&&&&&&&",
"&&&&&&&&&&&&    %%%%####%%%%$$$$$$$$$$$$++++OOOO    &&&&&&&&&&&&",
"&&&&&&&&&&&&    %%%%####%%%%$$$$$$$$$$$$++++OOOO    &&&&&&&&&&&&",
"&&&&&&&&&&&&    %%%%####%%%%$$$$$$$$$$$$++++OOOO    &&&&&&&&&&&&",
"&&&&&&&&&&&&    %%%%####%%%%$$$$$$$$$$$$++++OOOO    &&&&&&&&&&&&",
"&&&&&&&&    %%%%####%%%%@@@@@@@@@@@@@@@@XXXX++++    &&&&&&&&&&&&",
"&&&&&&&&    %%%%####%%%%@@@@@@@@@@@@@@@@XXXX++++    &&&&&&&&&&&&",
"&&&&&&&&    %%%%####%%%%@@@@@@@@@@@@@@@@XXXX++++    &&&&&&&&&&&&",
"&&&&&&&&    %%%%####%%%%@@@@@@@@@@@@@@@@XXXX++++    &&&&&&&&&&&&",
"&&&&&&&&    %%%%####$$$$@@@@@@@@@@@@@@@@XXXX++++OOOO    &&&&&&&&",
"&&&&&&&&    %%%%####$$$$@@@@@@@@@@@@@@@@XXXX++++OOOO    &&&&&&&&",
"&&&&&&&&    %%%%####$$$$@@@@@@@@@@@@@@@@XXXX++++OOOO    &&&&&&&&",
"&&&&&&&&    %%%%####$$$$@@@@@@@@@@@@@@@@XXXX++++OOOO    &&&&&&&&",
"&&&&&&&&    %%%%$$$$oooo@@@@@@@@@@@@@@@@XXXX........    &&&&&&&&",
"&&&&&&&&    %%%%$$$$oooo@@@@@@@@@@@@@@@@XXXX........    &&&&&&&&",
"&&&&&&&&    %%%%$$$$oooo@@@@@@@@@@@@@@@@XXXX........    &&&&&&&&",
"&&&&&&&&    %%%%$$$$oooo@@@@@@@@@@@@@@@@XXXX........    &&&&&&&&",
"&&&&&&&&    %%%%++++++++XXXXXXXXXXXXXXXXooooooooXXXX    &&&&&&&&",
"&&&&&&&&    %%%%++++++++XXXXXXXXXXXXXXXXooooooooXXXX    &&&&&&&&",
"&&&&&&&&    %%%%++++++++XXXXXXXXXXXXXXXXooooooooXXXX    &&&&&&&&",
"&&&&&&&&    %%%%++++++++XXXXXXXXXXXXXXXXooooooooXXXX    &&&&&&&&",
"&&&&&&&&&&&&    ++++....oooooooooooooooo....oooo    &&&&&&&&&&&&",
"&&&&&&&&&&&&    ++++....oooooooooooooooo....oooo    &&&&&&&&&&&&",
"&&&&&&&&&&&&    ++++....oooooooooooooooo....oooo    &&&&&&&&&&&&",
"&&&&&&&&&&&&    ++++....oooooooooooooooo....oooo    &&&&&&&&&&&&",
"&&&&&&&&&&&&    OOOO....oooooooooooooooo....XXXX    &&&&&&&&&&&&",
"&&&&&&&&&&&&    OOOO....oooooooooooooooo....XXXX    &&&&&&&&&&&&",
"&&&&&&&&&&&&    OOOO....oooooooooooooooo....XXXX    &&&&&&&&&&&&",
"&&&&&&&&&&&&    OOOO....oooooooooooooooo....XXXX    &&&&&&&&&&&&",
"&&&&&&&&&&&&&&&&    XXXXooooooooooooooooXXXX    &&&&&&&&&&&&&&&&",
"&&&&&&&&&&&&&&&&    XXXXooooooooooooooooXXXX    &&&&&&&&&&&&&&&&",
"&&&&&&&&&&&&&&&&    XXXXooooooooooooooooXXXX    &&&&&&&&&&&&&&&&",
"&&&&&&&&&&&&&&&&    XXXXooooooooooooooooXXXX    &&&&&&&&&&&&&&&&",
"&&&&&&&&&&&&&&&&&&&&                        &&&&&&&&&&&&&&&&&&&&",
"&&&&&&&&&&&&&&&&&&&&                        &&&&&&&&&&&&&&&&&&&&",
"&&&&&&&&&&&&&&&&&&&&                        &&&&&&&&&&&&&&&&&&&&",
"&&&&&&&&&&&&&&&&&&&&                        &&&&&&&&&&&&&&&&&&&&",
"&&&&&&&&&&&&&&&&&&&&&&&&&&&&&&&&&&&&&&&&&&&&&&&&&&&&&&&&&&&&&&&&",
"&&&&&&&&&&&&&&&&&&&&&&&&&&&&&&&&&&&&&&&&&&&&&&&&&&&&&&&&&&&&&&&&",
"&&&&&&&&&&&&&&&&&&&&&&&&&&&&&&&&&&&&&&&&&&&&&&&&&&&&&&&&&&&&&&&&",
"&&&&&&&&&&&&&&&&&&&&&&&&&&&&&&&&&&&&&&&&&&&&&&&&&&&&&&&&&&&&&&&&"
};
