/* XPM */
static char *result[] = {
/* columns rows colors chars-per-pixel */
"64 64 33 1 ",
"  c #07C9F7",
". c #08C9F7",
"X c #3FCBEC",
"o c #34D2F7",
"O c #35D2F7",
"+ c #35D2F8",
"@ c #34D3F8",
"# c #35D3F8",
"$ c #34D3F9",
"% c #34D4F9",
"& c #4DC5E1",
"* c #4DC6E3",
"= c #4FC8E4",
"- c #4EC8E5",
"; c #40CAEB",
": c #40CBEB",
"> c #43CDEE",
", c #44D0F0",
"< c #71DFFA",
"1 c #95DDF7",
"2 c #95DEF8",
"3 c #96DEF8",
"4 c #97DEF8",
"5 c #93E6FB",
"6 c #92E7FB",
"7 c #93E7FB",
"8 c #92E8FC",
"9 c #93E8FC",
"0 c #CBF3FD",
"q c #CCF3FD",
"w c #CBF4FD",
"e c #CBF4FE",
"r c None",
/* pixels */
"rrrrrrrrrrrrrrrrrrrrrrrrrrrrrrrrrrrrrrrrrrrrrrrrrrrrrrrrrrrrrrrr",
"rrrrrrrrrrrrrrrrrrrrrrrrrrrrrrrrrrrrrrrrrrrrrrrrrrrrrrrrrrrrrrrr",
"rrrrrrrrrrrrrrrrrrrrrrrrrrrrrrrrrrrrrrrrrrrrrrrrrrrrrrrrrrrrrrrr",
"rrrrrrrrrrrrrrrrrrrrrrrrrrrrrrrrrrrrrrrrrrrrrrrrrrrrrrrrrrrrrrrr",
"rrrrrrrrrrrrrrrrrrrrrrrrrrrrrrrrrrrrrrrrrrrrrrrrrrrrrrrrrrrrrrrr",
"rrrrrrrrrrrrrrrrrrrrrrrrrrrrrrrrrrrrrrrrrrrrrrrrrrrrrrrrrrrrrrrr",
"rrrrrrrrrrrrrrrrrrrrrrrrrrrrrrrrrrrrrrrrrrrrrrrrrrrrrrrrrrrrrrrr",
"rrrrrrrrrrrrrrrrrrrrrrrrrrrrrrrrrrrrrrrrrrrrrrrrrrrrrrrrrrrrrrrr",
"rrrrrrrrrrrrrrrr-,,=rrrrrrrrrrrrrrrrrrrrrrrrrrrr9999@@@@rrrrrrrr",
"rrrrrrrrrrrrrrrrX$$;rrrrrrrrrrrrrrrrrrrrrrrrrrrr9999@@@@rrrrrrrr",
"rrrrrrrrrrrrrrrrX$$:rrrrrrrrrrrrrrrrrrrrrrrrrrrr9999@@@@rrrrrrrr",
"rrrrrrrrrrrrrrrr*>>&rrrrrrrrrrrrrrrrrrrrrrrrrrrr9999@@@@rrrrrrrr",
"rrrrrrrrrrrrrrrrrrrrrrrrrrrrwwww6666rrrrrrrrrrrrrrrrrrrrrrrrrrrr",
"rrrrrrrrrrrrrrrrrrrrrrrrrrrrwwww6666rrrrrrrrrrrrrrrrrrrrrrrrrrrr",
"rrrrrrrrrrrrrrrrrrrrrrrrrrrrwwww6666rrrrrrrrrrrrrrrrrrrrrrrrrrrr",
"rrrrrrrrrrrrrrrrrrrrrrrrrrrrwwww6666rrrrrrrrrrrrrrrrrrrrrrrrrrrr",
"rrrrrrrrrrrrrrrrrrrrrrrrrrrrrrrrrrrrrrrrrrrrrrrrrrrrrrrrrrrrrrrr",
"rrrrrrrrrrrrrrrrrrrrrrrrrrrrrrrrrrrrrrrrrrrrrrrrrrrrrrrrrrrrrrrr",
"rrrrrrrrrrrrrrrrrrrrrrrrrrrrrrrrrrrrrrrrrrrrrrrrrrrrrrrrrrrrrrrr",
"rrrrrrrrrrrrrrrrrrrrrrrrrrrrrrrrrrrrrrrrrrrrrrrrrrrrrrrrrrrrrrrr",
"rrrrrrrrrrrrrrrrrrrreeee4444rrrrrrrrrrrr00001111rrrrrrrrrrrrrrrr",
"rrrrrrrrrrrrrrrrrrrreeee4444rrrrrrrrrrrr00001111rrrrrrrrrrrrrrrr",
"rrrrrrrrrrrrrrrrrrrreeee4444rrrrrrrrrrrr00001111rrrrrrrrrrrrrrrr",
"rrrrrrrrrrrrrrrrrrrreeee4444rrrrrrrrrrrr00001111rrrrrrrrrrrrrrrr",
"rrrrrrrrrrrr00002222    OOOO8888rrrrrrrroooo7777rrrrrrrrrrrrrrrr",
"rrrrrrrrrrrr00002222    OOOO8888rrrrrrrroooo7777rrrrrrrrrrrrrrrr",
"rrrrrrrrrrrr00002222    OOOO8888rrrrrrrroooo7777rrrrrrrrrrrrrrrr",
"rrrrrrrrrrrr00002222    OOOO8888rrrrrrrroooo7777rrrrrrrrrrrrrrrr",
"rrrrrrrrrrrrrrrrrrrrrrrrrrrrrrrrrrrrrrrrrrrrrrrrrrrrrrrrrrrrrrrr",
"rrrrrrrrrrrrrrrrrrrrrrrrrrrrrrrrrrrrrrrrrrrrrrrrrrrrrrrrrrrrrrrr",
"rrrrrrrrrrrrrrrrrrrrrrrrrrrrrrrrrrrrrrrrrrrrrrrrrrrrrrrrrrrrrrrr",
"rrrrrrrrrrrrrrrrrrrrrrrrrrrrrrrrrrrrrrrrrrrrrrrrrrrrrrrrrrrrrrrr",
"rrrr7777%%%%rrrrrrrrrrrrrrrrrrrrqqqq6666rrrrrrrrrrrrrrrrrrrrrrrr",
"rrrr7777%%%%rrrrrrrrrrrrrrrrrrrrqqqq6666rrrrrrrrrrrrrrrrrrrrrrrr",
"rrrr7777%%%%rrrrrrrrrrrrrrrrrrrrqqqq6666rrrrrrrrrrrrrrrrrrrrrrrr",
"rrrr7777%%%%rrrrrrrrrrrrrrrrrrrrqqqq6666rrrrrrrrrrrrrrrrrrrrrrrr",
"rrrrrrrrrrrrrrrrrrrrrrrrrrrr7777++++....####rrrrrrrrrrrrrrrrrrrr",
"rrrrrrrrrrrrrrrrrrrrrrrrrrrr7777++++....####rrrrrrrrrrrrrrrrrrrr",
"rrrrrrrrrrrrrrrrrrrrrrrrrrrr7777++++....####rrrrrrrrrrrrrrrrrrrr",
"rrrrrrrrrrrrrrrrrrrrrrrrrrrr7777++++....####rrrrrrrrrrrrrrrrrrrr",
"rrrrrrrrrrrrrrrr$$$$rrrrrrrrrrrrrrrrrrrrrrrrrrrrrrrrrrrrrrrrrrrr",
"rrrrrrrrrrrrrrrr$$$$rrrrrrrrrrrrrrrrrrrrrrrrrrrrrrrrrrrrrrrrrrrr",
"rrrrrrrrrrrrrrrr$$$$rrrrrrrrrrrrrrrrrrrrrrrrrrrrrrrrrrrrrrrrrrrr",
"rrrrrrrrrrrrrrrr$$$$rrrrrrrrrrrrrrrrrrrrrrrrrrrrrrrrrrrrrrrrrrrr",
"rrrrrrrrrrrrrrrrrrrrrrrrrrrrrrrrrrrrrrrrrrrr33335555rrrrrrrrrrrr",
"rrrrrrrrrrrrrrrrrrrrrrrrrrrrrrrrrrrrrrrrrrrr33335555rrrrrrrrrrrr",
"rrrrrrrrrrrrrrrrrrrrrrrrrrrrrrrrrrrrrrrrrrrr33335555rrrrrrrrrrrr",
"rrrrrrrrrrrrrrrrrrrrrrrrrrrrrrrrrrrrrrrrrrrr33335555rrrrrrrrrrrr",
"rrrrrrrrrrrrrrrrrrrrrrrrrrrrrrrr2222qqqq6666########7777rrrrrrrr",
"rrrrrrrrrrrrrrrrrrrrrrrrrrrrrrrr2222qqqq6666########7777rrrrrrrr",
"rrrrrrrrrrrrrrrrrrrrrrrrrrrrrrrr2222qqqq6666########7777rrrrrrrr",
"rrrrrrrrrrrrrrrrrrrrrrrrrrrrrrrr2222qqqq6666########7777rrrrrrrr",
"rrrrrrrrrrrr9999%%%%rrrrrrrrrrrrrrrr<<<<<<<<rrrrrrrrrrrrrrrrrrrr",
"rrrrrrrrrrrr9999%%%%rrrrrrrrrrrrrrrr<<<<<<<<rrrrrrrrrrrrrrrrrrrr",
"rrrrrrrrrrrr9999%%%%rrrrrrrrrrrrrrrr<<<<<<<<rrrrrrrrrrrrrrrrrrrr",
"rrrrrrrrrrrr9999%%%%rrrrrrrrrrrrrrrr<<<<<<<<rrrrrrrrrrrrrrrrrrrr",
"rrrrrrrrrrrrrrrrrrrrrrrrrrrrrrrrrrrrrrrrrrrrrrrrrrrrrrrrrrrrrrrr",
"rrrrrrrrrrrrrrrrrrrrrrrrrrrrrrrrrrrrrrrrrrrrrrrrrrrrrrrrrrrrrrrr",
"rrrrrrrrrrrrrrrrrrrrrrrrrrrrrrrrrrrrrrrrrrrrrrrrrrrrrrrrrrrrrrrr",
"rrrrrrrrrrrrrrrrrrrrrrrrrrrrrrrrrrrrrrrrrrrrrrrrrrrrrrrrrrrrrrrr",
"rrrrrrrrrrrrrrrrrrrrrrrrrrrrrrrrrrrrrrrrrrrrrrrrrrrrrrrrrrrrrrrr",
"rrrrrrrrrrrrrrrrrrrrrrrrrrrrrrrrrrrrrrrrrrrrrrrrrrrrrrrrrrrrrrrr",
"rrrrrrrrrrrrrrrrrrrrrrrrrrrrrrrrrrrrrrrrrrrrrrrrrrrrrrrrrrrrrrrr",
"rrrrrrrrrrrrrrrrrrrrrrrrrrrrrrrrrrrrrrrrrrrrrrrrrrrrrrrrrrrrrrrr"
};
