/* XPM */
static char *result[] = {
/* columns rows colors chars-per-pixel */
"64 64 80 1 ",
"  c #03261F",
". c #032922",
"X c #06372E",
"o c #0E372F",
"O c #06392F",
"+ c #0C382F",
"@ c #11362E",
"# c #063630",
"$ c #0E3730",
"% c #063A32",
"& c #0C3A32",
"* c #0F3F38",
"= c #064036",
"- c #0C4137",
"; c #0E423A",
": c #0B4A3E",
"> c #104037",
", c #12423A",
"< c #0B4D42",
"1 c #124E43",
"2 c #0C5145",
"3 c #0E5449",
"4 c #0E5B4E",
"5 c #11564B",
"6 c #11594D",
"7 c #0F5D50",
"8 c #105D51",
"9 c #126255",
"0 c #146559",
"q c #126B5D",
"w c #1C6B5D",
"e c #1A705F",
"r c #156F62",
"t c #1D6F61",
"y c #167163",
"u c #1B7464",
"i c #1B7867",
"p c #1A7768",
"a c #1B7B6A",
"s c #217465",
"d c #217768",
"f c #227C6C",
"g c #247F70",
"h c #22806F",
"j c #238573",
"k c #248876",
"l c #2E8A7B",
"z c #308376",
"x c #318D7F",
"c c #328F80",
"v c #2F9182",
"b c #329383",
"n c #349A8A",
"m c #399D8D",
"M c #2BAF99",
"N c #3EA393",
"B c #2AB19B",
"V c #2CBEA6",
"C c #2DBEA8",
"Z c #29C1A6",
"A c #2BC0A9",
"S c #36C3AC",
"D c #2CCEB4",
"F c #2BD0B4",
"G c #39D1B6",
"H c #39D2B9",
"J c #43D2BA",
"K c #75D2C4",
"L c #75DCCC",
"P c #75E0CF",
"I c #77E3D2",
"U c #76EAD7",
"Y c #76EAD8",
"T c #80E2D3",
"R c #84EADA",
"E c #81F0DF",
"W c #81F0E0",
"Q c #8FF4E5",
"! c #90F5E6",
"~ c None",
/* pixels */
"~~~~~~~~~~~~~~~~~~~~~~~~~~~~~~~~~~~~~~~~~~~~~~~~~~~~~~~~~~~~~~~~",
"~~~~~~~~~~~~~~~~~~~~~~~~~~~~~~~~~~~~~~~~~~~~~~~~~~~~~~~~~~~~~~~~",
"~~~~~~~~~~~~~~~~~~~~~~~~~~~~~~~~~~~~~~~~~~~~~~~~~~~~~~~~~~~~~~~~",
"~~~~~~~~~~~~~~~~~~~~~~~~~~~~~~~~~~~~~~~~~~~~~~~~~~~~~~~~~~~~~~~~",
"~~~~~~~~~~~~~~~~~~~~~~~~@++$o$$$$oo@~~~~~~~~~~~~~~~~~~~~~~~~~~~~",
"~~~~~~~~~~~~~~~~~~~~~~~~+$&&&&&&$&&$~~~~~~~~~~~~~~~~~~~~~~~~~~~~",
"~~~~~~~~~~~~~~~~~~~~~~~~@$$&$&$#&++$~~~~~~~~~~~~~~~~~~~~~~~~~~~~",
"~~~~~~~~~~~~~~~~~~~~~~~~;;;*****-&-*~~~~~~~~~~~~~~~~~~~~~~~~~~~~",
"~~~~~~~~~~~~~~~~@@+$$$o*sfffffffuuew*o$ooo@@~~~~~~~~~~~~~~~~~~~~",
"~~~~~~~~~~~~~~~~+$$$+&+;fjjjjjjjaaau*&&+&++o~~~~~~~~~~~~~~~~~~~~",
"~~~~~~~~~~~~~~~~$$o+$++-fjjjjjjjaaau-+$$&&&$~~~~~~~~~~~~~~~~~~~~",
"~~~~~~~~~~~~~~~~,;,:;:;1ffhfffggiiiu:--**--&~~~~~~~~~~~~~~~~~~~~",
"~~~~~~~~~~~~@oo,zxxxxxxl099980089889uutuuruw*@o@~~~~~~~~~~~~~~~~",
"~~~~~~~~~~~~o++,xnnnnnnb068888778879paaaaaau-o$$~~~~~~~~~~~~~~~~",
"~~~~~~~~~~~~$$+;xnnnnnnv968877778889paaaaaau-++$~~~~~~~~~~~~~~~~",
"~~~~~~~~~~~~,;;1lvxbNNNmyqqq76776689upppiipr;*&&~~~~~~~~~~~~~~~~",
"~~~~~~~~@@$,zcxl009dLRRISCCB7<<<<<<3888899988665$++@~~~~~~~~~~~~",
"~~~~~~~~$+o;cnnb086tT!!RHDFC7<<<<<<<788888888885*$$@~~~~~~~~~~~~",
"~~~~~~~~o+&,xnnb964tT!QEHDFV7<<<<<<<778888888886&+$+~~~~~~~~~~~~",
"~~~~~~~~o&&;xnnbsutgIWEYCVVB3<<:<<<<776868588885&&$@~~~~~~~~~~~~",
"~~~~~~~~$$&;lnnNLTTPJGGSq443=%%%%%%=<<2<<<326886&&$+~~~~~~~~~~~~",
"~~~~~~~~$&+;xnnNR!!WGDDV4<<<%%%O%%%%;<<<<<<24486&&&$~~~~~~~~~~~~",
"~~~~~~~~oo+;xnnNR!!EGDDV4<<<%%%%#%%%<<<<<<<<4944-&&&~~~~~~~~~~~~",
"~~~~~~~~>;-:lbbmURRUCVVM3:<:%O%OX%#%<<<<<<<<4644-&&&~~~~~~~~~~~~",
"~~~~ooo*sfad000ySHGSq443%%%%.....  .%%%=<<<:22226665&$@@~~~~~~~~",
"~~~~o+$*fjjg986qVDDV7<<<%%%%.      .O%%%:<<2:::26866&&&$~~~~~~~~",
"~~~~$&&-fjjh988qSDDC7<<<%#%#.      .X%%%:<2<<:::6674&&&$~~~~~~~~",
"~~~~$&&*fjjh988qBVVM3:<:%###.      .X%%%:::<33346974&+&$~~~~~~~~",
"~~~~$$&*djjh98887744%%%%...       ..#%%%:<<3ffff9886&&&$~~~~~~~~",
"~~~~$&&;fjjh9886<<<:%%%X.          .O%%%:<<3fjjh9866&&&o~~~~~~~~",
"~~~~$&&;fjjh9888<<<<%%%O.          .X%#%::<3fjjh9886&&$@~~~~~~~~",
"~~~~$$+-djjf9886<<<<%%%O.          .X%%%:<<3gkjj9884&&&$~~~~~~~~",
"~~~~o++-uaai9888<<<<%%%#.          .X##%:<:4lnnxq876&&&+~~~~~~~~",
"~~~~$&+-uapi9786<<<<%%%#.         ..X#%%:<:4xnnv9886%&$$~~~~~~~~",
"~~~~$&&-eaai8877<<<<%%%#..         .%%%%:::3xnnb0684-&$o~~~~~~~~",
"~~~~@oo*wuuu99982<<<=%%%.... .......O%%*4749lvbl9665&$$@~~~~~~~~",
"~~~~~~~~-;-:wiiy3<<<<<;;&###OOXX##XO:::4BVVBu009;&&*~~~~~~~~~~~~",
"~~~~~~~~$+o-uaau2<<<<<<:%%%#%OO%%%%%:<<7VFDZq665*$+o~~~~~~~~~~~~",
"~~~~~~~~o+o-uaau3<<<<<<<%%%#%%OO%%%%:<:4VDFZq696&&&+~~~~~~~~~~~~",
"~~~~~~~~o++-uaai3<2<<<<<=%%%%%%=%%%=374qSHGSe665&&+o~~~~~~~~~~~~",
"~~~~~~~~o&o-yaap7774<<<<<::::::::::4BVVSUWWPt686&$$@~~~~~~~~~~~~",
"~~~~~~~~ooo&iaap7774<<<<<<<<<::2<<:4CDDHY!!It886&&$+~~~~~~~~~~~~",
"~~~~~~~~o&&-uaap8787<<<<<<<<<::::::4VDDHE!!Tt886-&++~~~~~~~~~~~~",
"~~~~~~~~o++;wutr07883<3<<<<<33334349BCCSPTTKw665*++@~~~~~~~~~~~~",
"~~~~~~~~~~~~*&*<688777732<<2fffglbxlyq0reeew;--&~~~~~~~~~~~~~~~~",
"~~~~~~~~~~~~$$$$68887777<<<3fjjknnnb08886645++&@~~~~~~~~~~~~~~~~",
"~~~~~~~~~~~~$&$*687877772<<3fjjkbnnb08889476=+++~~~~~~~~~~~~~~~~",
"~~~~~~~~~~~~@o$$56566666<2<3pjfjxbbl96666665&@@@~~~~~~~~~~~~~~~~",
"~~~~~~~~~~~~~~~~$*&&&&&-486899990008;&&&&=&&~~~~~~~~~~~~~~~~~~~~",
"~~~~~~~~~~~~~~~~o&+&&&&-588888888885&&&++&$+~~~~~~~~~~~~~~~~~~~~",
"~~~~~~~~~~~~~~~~@$&$&$&&668888888886-%$&$&++~~~~~~~~~~~~~~~~~~~~",
"~~~~~~~~~~~~~~~~@ooo++o$566666546865&$@@+++@~~~~~~~~~~~~~~~~~~~~",
"~~~~~~~~~~~~~~~~~~~~~~~~*&&&-&&**&%*~~~~~~~~~~~~~~~~~~~~~~~~~~~~",
"~~~~~~~~~~~~~~~~~~~~~~~~$++&&$&&+++$~~~~~~~~~~~~~~~~~~~~~~~~~~~~",
"~~~~~~~~~~~~~~~~~~~~~~~~$$&&&$&$&o&o~~~~~~~~~~~~~~~~~~~~~~~~~~~~",
"~~~~~~~~~~~~~~~~~~~~~~~~@$$@+oooooo@~~~~~~~~~~~~~~~~~~~~~~~~~~~~",
"~~~~~~~~~~~~~~~~~~~~~~~~~~~~~~~~~~~~~~~~~~~~~~~~~~~~~~~~~~~~~~~~",
"~~~~~~~~~~~~~~~~~~~~~~~~~~~~~~~~~~~~~~~~~~~~~~~~~~~~~~~~~~~~~~~~",
"~~~~~~~~~~~~~~~~~~~~~~~~~~~~~~~~~~~~~~~~~~~~~~~~~~~~~~~~~~~~~~~~",
"~~~~~~~~~~~~~~~~~~~~~~~~~~~~~~~~~~~~~~~~~~~~~~~~~~~~~~~~~~~~~~~~",
"~~~~~~~~~~~~~~~~~~~~~~~~~~~~~~~~~~~~~~~~~~~~~~~~~~~~~~~~~~~~~~~~",
"~~~~~~~~~~~~~~~~~~~~~~~~~~~~~~~~~~~~~~~~~~~~~~~~~~~~~~~~~~~~~~~~",
"~~~~~~~~~~~~~~~~~~~~~~~~~~~~~~~~~~~~~~~~~~~~~~~~~~~~~~~~~~~~~~~~",
"~~~~~~~~~~~~~~~~~~~~~~~~~~~~~~~~~~~~~~~~~~~~~~~~~~~~~~~~~~~~~~~~"
};
