/* XPM */
static char *result[] = {
/* columns rows colors chars-per-pixel */
"64 64 165 2 ",
"   c #1B2B0F",
".  c #1B2D13",
"X  c #1B3016",
"o  c #1B341B",
"O  c #0E2C2E",
"+  c #122C2E",
"@  c #10312E",
"#  c #0F2C30",
"$  c #112B31",
"%  c #0E3131",
"&  c #133336",
"*  c #173A37",
"=  c #183A37",
"-  c #153539",
";  c #173A39",
":  c #193B3B",
">  c #1E452F",
",  c #1E4634",
"<  c #1D4834",
"1  c #1F4B3A",
"2  c #1A403D",
"3  c #234C2F",
"4  c #224536",
"5  c #244E32",
"6  c #234438",
"7  c #224B3C",
"8  c #245133",
"9  c #2A5535",
"0  c #2D5B35",
"q  c #25513B",
"w  c #2A5739",
"e  c #2B583A",
"r  c #366639",
"t  c #38673A",
"y  c #1B3D42",
"u  c #254D41",
"i  c #235242",
"p  c #2A5543",
"a  c #2C5757",
"s  c #295957",
"d  c #2B565A",
"f  c #2E5C5D",
"g  c #315E5C",
"h  c #2E605D",
"j  c #35655C",
"k  c #38605E",
"l  c #396B5E",
"z  c #2D5C61",
"x  c #335F62",
"c  c #2F6364",
"v  c #326364",
"b  c #376966",
"n  c #396A63",
"m  c #336668",
"M  c #366A6A",
"N  c #3B6E68",
"B  c #3D7162",
"V  c #457675",
"C  c #487977",
"Z  c #477878",
"A  c #4A7C7B",
"S  c #4F8945",
"D  c #4A8044",
"F  c #518743",
"G  c #548A42",
"H  c #568E4F",
"J  c #588D44",
"K  c #569144",
"L  c #5A9443",
"P  c #59914E",
"I  c #5E9943",
"U  c #609943",
"Y  c #689F56",
"T  c #619B55",
"R  c #6EAA46",
"E  c #6BA54E",
"W  c #6EAB4A",
"Q  c #71AD47",
"!  c #71AC49",
"~  c #75B14C",
"^  c #7AB24B",
"/  c #6BA652",
"(  c #6EAA52",
")  c #66A158",
"_  c #69A35A",
"`  c #6DA859",
"'  c #66A257",
"]  c #71AB53",
"[  c #77AE58",
"{  c #73A656",
"}  c #7BB357",
"|  c #7DB45A",
" . c #5E8F6F",
".. c #4E817F",
"X. c #568777",
"o. c #568875",
"O. c #5A8D74",
"+. c #53867B",
"@. c #54897A",
"#. c #588B7A",
"$. c #5D9276",
"%. c #5E957C",
"&. c #5E987E",
"*. c #669F6E",
"=. c #699E6E",
"-. c #609674",
";. c #669D75",
":. c #689D73",
">. c #61967E",
",. c #649B7D",
"<. c #689C78",
"1. c #6BA16C",
"2. c #7FB265",
"3. c #67A176",
"4. c #6CA474",
"5. c #70A477",
"6. c #81BA57",
"7. c #82BD5B",
"8. c #84BD64",
"9. c #86C15B",
"0. c #8AC45C",
"q. c #ABDD5C",
"w. c #A8DA5B",
"e. c #AFE15B",
"r. c #B4E556",
"t. c #B3E35B",
"y. c #8AC265",
"u. c #8BC169",
"i. c #8AC565",
"p. c #91C564",
"a. c #92CE67",
"s. c #93CE6A",
"d. c #9CD467",
"f. c #97D16C",
"g. c #9AD36B",
"h. c #AADB60",
"j. c #A5D862",
"k. c #ACDE72",
"l. c #B5E56C",
"z. c #B8E76D",
"x. c #B6E77C",
"c. c #4C7F81",
"v. c #4F8285",
"b. c #518484",
"n. c #548981",
"m. c #5E9683",
"M. c #5F9982",
"N. c #629980",
"B. c #609582",
"V. c #6EA486",
"C. c #6EA589",
"Z. c #71A586",
"A. c #72A689",
"S. c #7BAF8F",
"D. c #C7F7B9",
"F. c #CAF6B8",
"G. c #BFEFC4",
"H. c #B5E7CA",
"J. c #BFF0C4",
"K. c #BFF2D3",
"L. c #CAFACC",
"P. c #C0F0C4",
"I. c #C1F1D4",
"U. c #CDFCE2",
"Y. c None",
/* pixels */
"Y.Y.Y.Y.Y.Y.Y.Y.Y.Y.Y.Y.Y.Y.Y.Y.Y.Y.Y.Y.Y.Y.Y.Y.Y.Y.Y.Y.Y.Y.Y.Y.Y.Y.Y.Y.Y.Y.Y.Y.Y.Y.Y.Y.Y.Y.Y.Y.Y.Y.Y.Y.Y.Y.Y.Y.Y.Y.Y.Y.Y.Y.Y.Y.",
"Y.Y.Y.Y.Y.Y.Y.Y.Y.Y.Y.Y.Y.Y.Y.Y.Y.Y.Y.Y.Y.Y.Y.Y.Y.Y.Y.Y.Y.Y.Y.Y.Y.Y.Y.Y.Y.Y.Y.Y.Y.Y.Y.Y.Y.Y.Y.Y.Y.Y.Y.Y.Y.Y.Y.Y.Y.Y.Y.Y.Y.Y.Y.Y.",
"Y.Y.Y.Y.Y.Y.Y.Y.Y.Y.Y.Y.Y.Y.Y.Y.Y.Y.Y.Y.Y.Y.Y.Y.Y.Y.Y.Y.Y.Y.Y.Y.Y.Y.Y.Y.Y.Y.Y.Y.Y.Y.Y.Y.Y.Y.Y.Y.Y.Y.Y.Y.Y.Y.Y.Y.Y.Y.Y.Y.Y.Y.Y.Y.",
"Y.Y.Y.Y.Y.Y.Y.Y.Y.Y.Y.Y.Y.Y.Y.Y.Y.Y.Y.Y.Y.Y.Y.Y.Y.Y.Y.Y.Y.Y.Y.Y.Y.Y.Y.Y.Y.Y.Y.Y.Y.Y.Y.Y.Y.Y.Y.Y.Y.Y.Y.Y.Y.Y.Y.Y.Y.Y.Y.Y.Y.Y.Y.Y.",
"Y.Y.Y.Y.Y.Y.Y.Y.Y.Y.Y.Y.Y.Y.Y.Y.Y.Y.Y.Y.Y.Y.Y.Y.Y.Y.Y.Y.Y.Y.Y.Y.Y.Y.Y.Y.Y.Y.Y.Y.Y.Y.Y.Y.Y.Y.Y.Y.Y.Y.Y.Y.Y.Y.Y.Y.Y.Y.Y.Y.Y.Y.Y.Y.",
"Y.Y.Y.Y.Y.Y.Y.Y.Y.Y.Y.Y.Y.Y.Y.Y.Y.Y.Y.Y.Y.Y.Y.Y.Y.Y.Y.Y.Y.Y.Y.Y.Y.Y.Y.Y.Y.Y.Y.Y.Y.Y.Y.Y.Y.Y.Y.Y.Y.Y.Y.Y.Y.Y.Y.Y.Y.Y.Y.Y.Y.Y.Y.Y.",
"Y.Y.Y.Y.Y.Y.Y.Y.Y.Y.Y.Y.Y.Y.Y.Y.Y.Y.Y.Y.Y.Y.Y.Y.Y.Y.Y.Y.Y.Y.Y.Y.Y.Y.Y.Y.Y.Y.Y.Y.Y.Y.Y.Y.Y.Y.Y.Y.Y.Y.Y.Y.Y.Y.Y.Y.Y.Y.Y.Y.Y.Y.Y.Y.",
"Y.Y.Y.Y.Y.Y.Y.Y.Y.Y.Y.Y.Y.Y.Y.Y.Y.Y.Y.Y.Y.Y.Y.Y.Y.Y.Y.Y.Y.Y.Y.Y.Y.Y.Y.Y.Y.Y.Y.Y.Y.Y.Y.Y.Y.Y.Y.Y.Y.Y.Y.Y.Y.Y.Y.Y.Y.Y.Y.Y.Y.Y.Y.Y.",
"Y.Y.Y.Y.Y.Y.Y.Y.Y.Y.Y.Y.Y.Y.Y.Y.Y.Y.Y.Y.Y.Y.Y.Y.Y.Y.Y.Y.x x m g 4 < < < < < 1 6 Y.Y.Y.Y.Y.Y.Y.Y.Y.Y.Y.Y.Y.Y.Y.Y.Y.Y.Y.Y.Y.Y.Y.Y.",
"Y.Y.Y.Y.Y.Y.Y.Y.Y.Y.Y.Y.Y.Y.Y.Y.Y.Y.Y.Y.Y.Y.Y.Y.Y.Y.Y.Y.v v v g 1 1 < < < < , , Y.Y.Y.Y.Y.Y.Y.Y.Y.Y.Y.Y.Y.Y.Y.Y.Y.Y.Y.Y.Y.Y.Y.Y.",
"Y.Y.Y.Y.Y.Y.Y.Y.Y.Y.Y.Y.Y.Y.Y.Y.Y.Y.Y.Y.Y.Y.Y.Y.Y.Y.Y.Y.k v c f 1 < < < < < < < Y.Y.Y.Y.Y.Y.Y.Y.Y.Y.Y.Y.Y.Y.Y.Y.Y.Y.Y.Y.Y.Y.Y.Y.",
"Y.Y.Y.Y.Y.Y.Y.Y.Y.Y.Y.Y.Y.Y.Y.Y.Y.Y.Y.Y.Y.Y.Y.Y.Y.Y.Y.Y.b v m c i 1 i 1 q 7 q i Y.Y.Y.Y.Y.Y.Y.Y.Y.Y.Y.Y.Y.Y.Y.Y.Y.Y.Y.Y.Y.Y.Y.Y.",
"Y.Y.Y.Y.Y.Y.Y.Y.Y.Y.Y.Y.Y.Y.Y.Y.Y.Y.Y.Y.g k v v v k k v A c.c.c.c.A A A A A ..N u 6 6 6 4 6 6 6 Y.Y.Y.Y.Y.Y.Y.Y.Y.Y.Y.Y.Y.Y.Y.Y.",
"Y.Y.Y.Y.Y.Y.Y.Y.Y.Y.Y.Y.Y.Y.Y.Y.Y.Y.Y.Y.v v v v v v v m c.v.v.v.v.v.v.v.v.v.v.Z u , , 1 1 , 1 , Y.Y.Y.Y.Y.Y.Y.Y.Y.Y.Y.Y.Y.Y.Y.Y.",
"Y.Y.Y.Y.Y.Y.Y.Y.Y.Y.Y.Y.Y.Y.Y.Y.Y.Y.Y.Y.v v v v v c v m ..v.v.v.v.v.v.v.v.v.v...u , 1 , , 1 , 4 Y.Y.Y.Y.Y.Y.Y.Y.Y.Y.Y.Y.Y.Y.Y.Y.",
"Y.Y.Y.Y.Y.Y.Y.Y.Y.Y.Y.Y.Y.Y.Y.Y.Y.Y.Y.Y.b m m m b b n N ..b.b.b.v.b.b.b.b.b.b...p q q q 7 4 1 7 Y.Y.Y.Y.Y.Y.Y.Y.Y.Y.Y.Y.Y.Y.Y.Y.",
"Y.Y.Y.Y.Y.Y.Y.Y.Y.Y.Y.Y.Y.Y.Y.Y.v v v b A c.c.c.>.>.$.>.>.>.,.,.N.N.N.,.N.>.B.M.$.$.$.O.j h h f 7 1 6 6 Y.Y.Y.Y.Y.Y.Y.Y.Y.Y.Y.Y.",
"Y.Y.Y.Y.Y.Y.Y.Y.Y.Y.Y.Y.Y.Y.Y.Y.x v v m A b.b.b.B.<.,.,.,.<.-.,.,.,.,.,.,.,.,.,.,.N.,.%.n c j h 7 , , 6 Y.Y.Y.Y.Y.Y.Y.Y.Y.Y.Y.Y.",
"Y.Y.Y.Y.Y.Y.Y.Y.Y.Y.Y.Y.Y.Y.Y.Y.v x v m c.v.c.b.N.<.<.,.,.,.,.,.,.,.,.,.,.,.,.;.,.N.,.%.n c v h 2 , 1 6 Y.Y.Y.Y.Y.Y.Y.Y.Y.Y.Y.Y.",
"Y.Y.Y.Y.Y.Y.Y.Y.Y.Y.Y.Y.Y.Y.Y.Y.b m m M b.b.b.n.N.Z.Z.Z.4.1.4.4.4.,.<.3.;.;.<.<.,.3.,.%.B b b j u 7 7 6 Y.Y.Y.Y.Y.Y.Y.Y.Y.Y.Y.Y.",
"Y.Y.Y.Y.Y.Y.Y.Y.Y.Y.Y.Y.6 6 4 u C ....v.m.B.N.V.H.I.I.P.k.h.h.j.9.8.8.8.] ] ] { 3.,.,.,.>.%.%.#.v j h g 7 4 1 6 Y.Y.Y.Y.Y.Y.Y.Y.",
"Y.Y.Y.Y.Y.Y.Y.Y.Y.Y.Y.Y.6 1 , i A v.v.v.M.N.,.A.I.U.U.L.z.t.t.t.0.0.0.9.^ Q R ( ,.,.,.,.<.N.N.M.M v v f 1 < < 6 Y.Y.Y.Y.Y.Y.Y.Y.",
"Y.Y.Y.Y.Y.Y.Y.Y.Y.Y.Y.Y.4 , < 7 A v.v.v.&.,.,.Z.I.U.I.L.z.r.t.t.p.7.0.9.! Q Q ( <.,.,.,.N.N.N.%.m c c h 1 < , 6 Y.Y.Y.Y.Y.Y.Y.Y.",
"Y.Y.Y.Y.Y.Y.Y.Y.Y.Y.Y.Y.6 , < q ..b.b.n.V.C.V.S.P.L.L.F.l.t.t.l.6.| 6.} ! W R W 1.<.;.3.<.N.<.>.B b b v 1 < , , Y.Y.Y.Y.Y.Y.Y.Y.",
"Y.Y.Y.Y.Y.Y.Y.Y.Y.Y.Y.Y.4 < < q O.N.,.C.H.K.K.G.x.l.z.l.j.g.g.8.t 9 9 0 G L L L E ( ( ` 3.,.,.,.%.%.%.X.* % @ + Y.Y.Y.Y.Y.Y.Y.Y.",
"Y.Y.Y.Y.Y.Y.Y.Y.Y.Y.Y.Y.4 < < 8 $.,.,.C.I.U.U.L.l.r.r.l.g.g.g.8.9 > , 5 F K L L R Q Q ] <.<.,.,.N.,.N.$.; # # O Y.Y.Y.Y.Y.Y.Y.Y.",
"Y.Y.Y.Y.Y.Y.Y.Y.Y.Y.Y.Y.4 4 , q $.,.,.C.K.U.U.L.z.r.r.e.g.g.g.8.0 , , 5 F K L L W ! ! ! <.,.,.,.,.,.,.O.* O O + Y.Y.Y.Y.Y.Y.Y.Y.",
"Y.Y.Y.Y.Y.Y.Y.Y.Y.Y.Y.Y.7 1 4 p $.,.,.V.G.L.L.D.l.t.t.q.f.8.8.8.9 , , 5 t G G G E W W E =.;.;.;.,.,.,.$.2 & & - Y.Y.Y.Y.Y.Y.Y.Y.",
"Y.Y.Y.Y.Y.Y.Y.Y.6 4 < 7 h h h j %.,.,.5.k.z.l.l.d.d.d.p.t w e 9 o . . o 9 8 8 0 G I K I / ( W ` 3.,.,.$.j f f d - + + + Y.Y.Y.Y.",
"Y.Y.Y.Y.Y.Y.Y.Y.4 < < 1 h v c b >.,.,.4.q.r.r.t.d.s.g.u.9 , , > .   . X > 5 < 8 F K K L W ! ! ] ;.,.,.,.b v v f & O $ + Y.Y.Y.Y.",
"Y.Y.Y.Y.Y.Y.Y.Y.4 > < 1 h v v b $.,.,.5.h.r.r.t.d.f.g.u.e , < , X .   X > 4 > 8 F K K K W ! ! ( 3.,.,.%.v k v f & $ # $ Y.Y.Y.Y.",
"Y.Y.Y.Y.Y.Y.Y.Y.4 > < 1 h v v n -.<.<.1.w.q.q.q.g.s.f.8.e < < , . .   X > < < 8 F K K K R ! ! ( ;.,.N.%.m v v f - $ $ + Y.Y.Y.Y.",
"Y.Y.Y.Y.Y.Y.Y.Y., < < 1 z x v l ' ( ] W ~ ^ ^ ^ 9.0.i.| 9 , , > . . . . , , , 8 F K K L W ! ! ( <.,.,.%.v k v f & # $ $ Y.Y.Y.Y.",
"Y.Y.Y.Y.Y.Y.Y.Y., < < 1 c m x n / ! ! ! ! ! ~ W 9.0.0.| 9 , , , . . . X > , , 8 F K K I E ! ! ] ;.;.N.%.m v v f & # % $ Y.Y.Y.Y.",
"Y.Y.Y.Y.Y.Y.Y.Y., < < 1 f c x n / R ~ R ! ! ( ~ 9.9.9.| w < , > . . . . > < > 8 F K J U W ! ! ] ;.,.,.>.b v v f % # # $ Y.Y.Y.Y.",
"Y.Y.Y.Y.Y.Y.Y.Y., < < < c c v n ' ( ( ( W ! Q Q 6.7.7.[ w < , > X .   . > < 4 8 J L I U W ! ! E ;.;.;.-.n v v f - # $ $ Y.Y.Y.Y.",
"Y.Y.Y.Y.Y.Y.Y.Y.< < < 1 c c v b $.3.*.1.( Q Q R I I I J 8 < < , .   . X 3 , , 9 [ 7.7.6.! ! ! ! W ( ( ' n v v f & $ $ + Y.Y.Y.Y.",
"Y.Y.Y.Y.Y.Y.Y.Y.4 < < 1 f v c m &.,.,.*.( Q Q R L K J F 8 < < < . . . . , , 4 9 6.0.7.7.! ! ! ! ! ! ! E l c v f - # $ + Y.Y.Y.Y.",
"Y.Y.Y.Y.Y.Y.Y.Y.4 < > 1 h v c M &.N.,.;.( ! R R L L J G 8 < < , . . . . > , > 9 6.8.0.7.! ! ! ! ! W ! / l v c f & # $ + Y.Y.Y.Y.",
"Y.Y.Y.Y.Y.Y.Y.Y.4 4 1 4 h h h j $.,.N.-.` ( ( W L L L G 0 9 9 9 o . . o 9 0 0 r 6.9.9.7.] ` / / ( ( ( ' j f f s & + + + Y.Y.Y.Y.",
"Y.Y.Y.Y.Y.Y.Y.Y.Y.Y.Y.Y.7 4 1 i ..b.b.@.,.;.;.*.( W R R } | | ] 9 > > 9 8.8.8.8.[ ! ] ` o.X.@.X.;.3.;. ., & & $ Y.Y.Y.Y.Y.Y.Y.Y.",
"Y.Y.Y.Y.Y.Y.Y.Y.Y.Y.Y.Y.4 < < 7 A v.v.b.,.,.,.;.( W R ~ 9.0.0.| 9 4 , 9 u.g.k.s.] ! W ( +.v.v.b.&.,.,.O.; + + + Y.Y.Y.Y.Y.Y.Y.Y.",
"Y.Y.Y.Y.Y.Y.Y.Y.Y.Y.Y.Y.6 , , u A v.v.v.,.,.,.;.] Q W ~ 9.9.0.| 9 , , w 8.g.f.a.~ ! ! ( @.v.v.v.&.,.,.O.; O $ + Y.Y.Y.Y.Y.Y.Y.Y.",
"Y.Y.Y.Y.Y.Y.Y.Y.Y.Y.Y.Y.6 1 < u Z v.c...B.N.N.-.` ( ` ! 7.9.9.} 0 8 8 0 8.s.s.a.` ( / _ O.@.@.@.%.%.%.X.; $ $ $ Y.Y.Y.Y.Y.Y.Y.Y.",
"Y.Y.Y.Y.Y.Y.Y.Y.Y.Y.Y.Y.6 1 1 1 c m m M v.b.b.n.<.:.:.=.] ! ! ! G F F G ! ~ ~ ] O.@.@.o./ E ( ' B n b h - O + $ Y.Y.Y.Y.Y.Y.Y.Y.",
"Y.Y.Y.Y.Y.Y.Y.Y.Y.Y.Y.Y.6 1 < 7 f v c m A v.v.b.B.,.>.:.] ! ! W L L G L ! ! ! / @.v.v.@.( Q R E l c c f - + + $ Y.Y.Y.Y.Y.Y.Y.Y.",
"Y.Y.Y.Y.Y.Y.Y.Y.Y.Y.Y.Y.6 , < 1 h m v m c.b.b.b.,.,.,.3.( Q ! W L L J L R ! ! ` +.v.v.@.( R W / l c m f & + $ $ Y.Y.Y.Y.Y.Y.Y.Y.",
"Y.Y.Y.Y.Y.Y.Y.Y.Y.Y.Y.Y.6 , 4 4 a f z x Z c.c.b.M.&.,.,._ ( / ` P H H P / / / _ @.b.v.@.) / E T j f f s & + $ $ Y.Y.Y.Y.Y.Y.Y.Y.",
"Y.Y.Y.Y.Y.Y.Y.Y.Y.Y.Y.Y.Y.Y.Y.Y.- & & ; x m m M v.b.b.n.+.+.+.+.+...+...@.@.@.#.&.M.N.%.B l l j * & & - Y.Y.Y.Y.Y.Y.Y.Y.Y.Y.Y.Y.",
"Y.Y.Y.Y.Y.Y.Y.Y.Y.Y.Y.Y.Y.Y.Y.Y.+ # O $ f v c m A v.v.v.v.v.v.v.v.v.v.v.v.v.v.b.&.,.,.$.n c j f % # # # Y.Y.Y.Y.Y.Y.Y.Y.Y.Y.Y.Y.",
"Y.Y.Y.Y.Y.Y.Y.Y.Y.Y.Y.Y.Y.Y.Y.Y.+ + + - z v v m v.v.v.v.b.v.v.c.v.v.v.v.v.v.v.b.,.,.,.>.b v v h & # # # Y.Y.Y.Y.Y.Y.Y.Y.Y.Y.Y.Y.",
"Y.Y.Y.Y.Y.Y.Y.Y.Y.Y.Y.Y.Y.Y.Y.Y.+ + + & d z z z V Z A A c.c.c.c.A ..v.c.c.c.A v.#.O.O.X.v f f s & O O + Y.Y.Y.Y.Y.Y.Y.Y.Y.Y.Y.Y.",
"Y.Y.Y.Y.Y.Y.Y.Y.Y.Y.Y.Y.Y.Y.Y.Y.Y.Y.Y.Y.& & & & ; ; - y x m m m m m m m m m m z y ; * ; & & & & Y.Y.Y.Y.Y.Y.Y.Y.Y.Y.Y.Y.Y.Y.Y.Y.",
"Y.Y.Y.Y.Y.Y.Y.Y.Y.Y.Y.Y.Y.Y.Y.Y.Y.Y.Y.Y.O O O + O # + - f m x m v v v v v v v z & # # # + + + + Y.Y.Y.Y.Y.Y.Y.Y.Y.Y.Y.Y.Y.Y.Y.Y.",
"Y.Y.Y.Y.Y.Y.Y.Y.Y.Y.Y.Y.Y.Y.Y.Y.Y.Y.Y.Y.+ + $ $ # $ O - d v x x m v c v v v c f & + $ $ $ $ $ + Y.Y.Y.Y.Y.Y.Y.Y.Y.Y.Y.Y.Y.Y.Y.Y.",
"Y.Y.Y.Y.Y.Y.Y.Y.Y.Y.Y.Y.Y.Y.Y.Y.Y.Y.Y.Y.+ + + $ $ $ + $ d g z x f f f f z f f a & + + $ $ + $ $ Y.Y.Y.Y.Y.Y.Y.Y.Y.Y.Y.Y.Y.Y.Y.Y.",
"Y.Y.Y.Y.Y.Y.Y.Y.Y.Y.Y.Y.Y.Y.Y.Y.Y.Y.Y.Y.Y.Y.Y.Y.Y.Y.Y.Y.- & & & $ & & & & & & & Y.Y.Y.Y.Y.Y.Y.Y.Y.Y.Y.Y.Y.Y.Y.Y.Y.Y.Y.Y.Y.Y.Y.Y.",
"Y.Y.Y.Y.Y.Y.Y.Y.Y.Y.Y.Y.Y.Y.Y.Y.Y.Y.Y.Y.Y.Y.Y.Y.Y.Y.Y.Y.+ O O + # # O + O O + + Y.Y.Y.Y.Y.Y.Y.Y.Y.Y.Y.Y.Y.Y.Y.Y.Y.Y.Y.Y.Y.Y.Y.Y.",
"Y.Y.Y.Y.Y.Y.Y.Y.Y.Y.Y.Y.Y.Y.Y.Y.Y.Y.Y.Y.Y.Y.Y.Y.Y.Y.Y.Y.+ $ $ % # # $ # $ + $ + Y.Y.Y.Y.Y.Y.Y.Y.Y.Y.Y.Y.Y.Y.Y.Y.Y.Y.Y.Y.Y.Y.Y.Y.",
"Y.Y.Y.Y.Y.Y.Y.Y.Y.Y.Y.Y.Y.Y.Y.Y.Y.Y.Y.Y.Y.Y.Y.Y.Y.Y.Y.Y.+ $ + $ $ $ $ + + + + + Y.Y.Y.Y.Y.Y.Y.Y.Y.Y.Y.Y.Y.Y.Y.Y.Y.Y.Y.Y.Y.Y.Y.Y.",
"Y.Y.Y.Y.Y.Y.Y.Y.Y.Y.Y.Y.Y.Y.Y.Y.Y.Y.Y.Y.Y.Y.Y.Y.Y.Y.Y.Y.Y.Y.Y.Y.Y.Y.Y.Y.Y.Y.Y.Y.Y.Y.Y.Y.Y.Y.Y.Y.Y.Y.Y.Y.Y.Y.Y.Y.Y.Y.Y.Y.Y.Y.Y.Y.",
"Y.Y.Y.Y.Y.Y.Y.Y.Y.Y.Y.Y.Y.Y.Y.Y.Y.Y.Y.Y.Y.Y.Y.Y.Y.Y.Y.Y.Y.Y.Y.Y.Y.Y.Y.Y.Y.Y.Y.Y.Y.Y.Y.Y.Y.Y.Y.Y.Y.Y.Y.Y.Y.Y.Y.Y.Y.Y.Y.Y.Y.Y.Y.Y.",
"Y.Y.Y.Y.Y.Y.Y.Y.Y.Y.Y.Y.Y.Y.Y.Y.Y.Y.Y.Y.Y.Y.Y.Y.Y.Y.Y.Y.Y.Y.Y.Y.Y.Y.Y.Y.Y.Y.Y.Y.Y.Y.Y.Y.Y.Y.Y.Y.Y.Y.Y.Y.Y.Y.Y.Y.Y.Y.Y.Y.Y.Y.Y.Y.",
"Y.Y.Y.Y.Y.Y.Y.Y.Y.Y.Y.Y.Y.Y.Y.Y.Y.Y.Y.Y.Y.Y.Y.Y.Y.Y.Y.Y.Y.Y.Y.Y.Y.Y.Y.Y.Y.Y.Y.Y.Y.Y.Y.Y.Y.Y.Y.Y.Y.Y.Y.Y.Y.Y.Y.Y.Y.Y.Y.Y.Y.Y.Y.Y."
};
