/* XPM */
static char *result[] = {
/* columns rows colors chars-per-pixel */
"64 64 12 1 ",
"  c #F9AF29",
". c #F8AE2A",
"X c #F9AF2A",
"o c #FAB02A",
"O c #FCEE4A",
"+ c #FEF04A",
"@ c #FFFFB5",
"# c #FFFFB6",
"$ c #FFFFB7",
"% c #FFFFF7",
"& c white",
"* c None",
/* pixels */
"****************************************************************",
"****************************************************************",
"****************************************************************",
"****************************************************************",
"****************************************************************",
"****************************************************************",
"****************************************************************",
"****************************************************************",
"****************++++****************************####++++********",
"****************++++****************************####++++********",
"****************++++****************************####++++********",
"****************++++****************************####++++********",
"****************************####    ****************************",
"****************************####    ****************************",
"****************************####    ****************************",
"****************************####    ****************************",
"****************************************************************",
"****************************************************************",
"****************************************************************",
"****************************************************************",
"********************%%%%@@@@************&&&&@@@@****************",
"********************%%%%@@@@************&&&&@@@@****************",
"********************%%%%@@@@************&&&&@@@@****************",
"********************%%%%@@@@************&&&&@@@@****************",
"************&&&&@@@@OOOOOOOOXXXX********OOOO    ****************",
"************&&&&@@@@OOOOOOOOXXXX********OOOO    ****************",
"************&&&&@@@@OOOOOOOOXXXX********OOOO    ****************",
"************&&&&@@@@OOOOOOOOXXXX********OOOO    ****************",
"****************************************************************",
"****************************************************************",
"****************************************************************",
"****************************************************************",
"****####++++********************&&&&@@@@************************",
"****####++++********************&&&&@@@@************************",
"****####++++********************&&&&@@@@************************",
"****####++++********************&&&&@@@@************************",
"****************************$$$$XXXXXXXXXXXX********************",
"****************************$$$$XXXXXXXXXXXX********************",
"****************************$$$$XXXXXXXXXXXX********************",
"****************************$$$$XXXXXXXXXXXX********************",
"****************++++********************************************",
"****************++++********************************************",
"****************++++********************************************",
"****************++++********************************************",
"********************************************$$$$....************",
"********************************************$$$$....************",
"********************************************$$$$....************",
"********************************************$$$$....************",
"********************************@@@@&&&&####OOOOOOOOoooo********",
"********************************@@@@&&&&####OOOOOOOOoooo********",
"********************************@@@@&&&&####OOOOOOOOoooo********",
"********************************@@@@&&&&####OOOOOOOOoooo********",
"************####oooo****************........********************",
"************####oooo****************........********************",
"************####oooo****************........********************",
"************####oooo****************........********************",
"****************************************************************",
"****************************************************************",
"****************************************************************",
"****************************************************************",
"****************************************************************",
"****************************************************************",
"****************************************************************",
"****************************************************************"
};
