/* XPM */
static char *result[] = {
/* columns rows colors chars-per-pixel */
"64 64 19 1 ",
"  c #AE8D76",
". c #AE8E77",
"X c #AF8E77",
"o c #B08E77",
"O c #BB987F",
"+ c #BC9980",
"@ c #BD9980",
"# c #BD9A80",
"$ c #D9AF92",
"% c #D8AF93",
"& c #D9AF93",
"* c #D9B093",
"= c #D9B094",
"- c #DAB094",
"; c #E2C0AA",
": c #E3C1AB",
"> c #E4C1AB",
", c #E5C2AB",
"< c None",
/* pixels */
"<<<<<<<<<<<<<<<<<<<<<<<<<<<<<<<<<<<<<<<<<<<<<<<<<<<<<<<<<<<<<<<<",
"<<<<<<<<<<<<<<<<<<<<<<<<<<<<<<<<<<<<<<<<<<<<<<<<<<<<<<<<<<<<<<<<",
"<<<<<<<<<<<<<<<<<<<<<<<<<<<<<<<<<<<<<<<<<<<<<<<<<<<<<<<<<<<<<<<<",
"<<<<<<<<<<<<<<<<<<<<<<<<<<<<<<<<<<<<<<<<<<<<<<<<<<<<<<<<<<<<<<<<",
"<<<<<<<<<<<<<<<<<<<<<<<<<<<<<<<<<<<<<<<<<<<<<<<<<<<<<<<<<<<<<<<<",
"<<<<<<<<<<<<<<<<<<<<<<<<<<<<<<<<<<<<<<<<<<<<<<<<<<<<<<<<<<<<<<<<",
"<<<<<<<<<<<<<<<<<<<<<<<<<<<<<<<<<<<<<<<<<<<<<<<<<<<<<<<<<<<<<<<<",
"<<<<<<<<<<<<<<<<<<<<<<<<<<<<<<<<<<<<<<<<<<<<<<<<<<<<<<<<<<<<<<<<",
"<<<<<<<<<<<<<<<<@@@@<<<<<<<<<<<<<<<<<<<<<<<<<<<<----++++<<<<<<<<",
"<<<<<<<<<<<<<<<<@@@@<<<<<<<<<<<<<<<<<<<<<<<<<<<<----++++<<<<<<<<",
"<<<<<<<<<<<<<<<<@@@@<<<<<<<<<<<<<<<<<<<<<<<<<<<<----++++<<<<<<<<",
"<<<<<<<<<<<<<<<<@@@@<<<<<<<<<<<<<<<<<<<<<<<<<<<<----++++<<<<<<<<",
"<<<<<<<<<<<<<<<<<<<<<<<<<<<<====oooo<<<<<<<<<<<<<<<<<<<<<<<<<<<<",
"<<<<<<<<<<<<<<<<<<<<<<<<<<<<====oXoo<<<<<<<<<<<<<<<<<<<<<<<<<<<<",
"<<<<<<<<<<<<<<<<<<<<<<<<<<<<=**=oXoo<<<<<<<<<<<<<<<<<<<<<<<<<<<<",
"<<<<<<<<<<<<<<<<<<<<<<<<<<<<====oooo<<<<<<<<<<<<<<<<<<<<<<<<<<<<",
"<<<<<<<<<<<<<<<<<<<<<<<<<<<<<<<<<<<<<<<<<<<<<<<<<<<<<<<<<<<<<<<<",
"<<<<<<<<<<<<<<<<<<<<<<<<<<<<<<<<<<<<<<<<<<<<<<<<<<<<<<<<<<<<<<<<",
"<<<<<<<<<<<<<<<<<<<<<<<<<<<<<<<<<<<<<<<<<<<<<<<<<<<<<<<<<<<<<<<<",
"<<<<<<<<<<<<<<<<<<<<<<<<<<<<<<<<<<<<<<<<<<<<<<<<<<<<<<<<<<<<<<<<",
"<<<<<<<<<<<<<<<<<<<<;;;;%%%%<<<<<<<<<<<<::::%%%%<<<<<<<<<<<<<<<<",
"<<<<<<<<<<<<<<<<<<<<;,:;%*-%<<<<<<<<<<<<::::%%%%<<<<<<<<<<<<<<<<",
"<<<<<<<<<<<<<<<<<<<<;;;;%%&%<<<<<<<<<<<<::::%%%%<<<<<<<<<<<<<<<<",
"<<<<<<<<<<<<<<<<<<<<;;;;%%%%<<<<<<<<<<<<::::%%%%<<<<<<<<<<<<<<<<",
"<<<<<<<<<<<<>>>>&&&&++++++++oooo<<<<<<<<++++....<<<<<<<<<<<<<<<<",
"<<<<<<<<<<<<>>>>&&&&+O++++++oooo<<<<<<<<++++....<<<<<<<<<<<<<<<<",
"<<<<<<<<<<<<>>>>&&&&++++++@+oXoo<<<<<<<<++++....<<<<<<<<<<<<<<<<",
"<<<<<<<<<<<<>>>>&&&&++++++++oooo<<<<<<<<++++....<<<<<<<<<<<<<<<<",
"<<<<<<<<<<<<<<<<<<<<<<<<<<<<<<<<<<<<<<<<<<<<<<<<<<<<<<<<<<<<<<<<",
"<<<<<<<<<<<<<<<<<<<<<<<<<<<<<<<<<<<<<<<<<<<<<<<<<<<<<<<<<<<<<<<<",
"<<<<<<<<<<<<<<<<<<<<<<<<<<<<<<<<<<<<<<<<<<<<<<<<<<<<<<<<<<<<<<<<",
"<<<<<<<<<<<<<<<<<<<<<<<<<<<<<<<<<<<<<<<<<<<<<<<<<<<<<<<<<<<<<<<<",
"<<<<$$$$++++<<<<<<<<<<<<<<<<<<<<::::****<<<<<<<<<<<<<<<<<<<<<<<<",
"<<<<$$$$++++<<<<<<<<<<<<<<<<<<<<::::****<<<<<<<<<<<<<<<<<<<<<<<<",
"<<<<$$$$++++<<<<<<<<<<<<<<<<<<<<::::****<<<<<<<<<<<<<<<<<<<<<<<<",
"<<<<$$$$++++<<<<<<<<<<<<<<<<<<<<::::****<<<<<<<<<<<<<<<<<<<<<<<<",
"<<<<<<<<<<<<<<<<<<<<<<<<<<<<----        XXXX<<<<<<<<<<<<<<<<<<<<",
"<<<<<<<<<<<<<<<<<<<<<<<<<<<<----        XXXX<<<<<<<<<<<<<<<<<<<<",
"<<<<<<<<<<<<<<<<<<<<<<<<<<<<----        XXXX<<<<<<<<<<<<<<<<<<<<",
"<<<<<<<<<<<<<<<<<<<<<<<<<<<<----        XXXX<<<<<<<<<<<<<<<<<<<<",
"<<<<<<<<<<<<<<<<####<<<<<<<<<<<<<<<<<<<<<<<<<<<<<<<<<<<<<<<<<<<<",
"<<<<<<<<<<<<<<<<####<<<<<<<<<<<<<<<<<<<<<<<<<<<<<<<<<<<<<<<<<<<<",
"<<<<<<<<<<<<<<<<####<<<<<<<<<<<<<<<<<<<<<<<<<<<<<<<<<<<<<<<<<<<<",
"<<<<<<<<<<<<<<<<####<<<<<<<<<<<<<<<<<<<<<<<<<<<<<<<<<<<<<<<<<<<<",
"<<<<<<<<<<<<<<<<<<<<<<<<<<<<<<<<<<<<<<<<<<<<&&&&XXXX<<<<<<<<<<<<",
"<<<<<<<<<<<<<<<<<<<<<<<<<<<<<<<<<<<<<<<<<<<<&&&&XXXX<<<<<<<<<<<<",
"<<<<<<<<<<<<<<<<<<<<<<<<<<<<<<<<<<<<<<<<<<<<&&&&XXXX<<<<<<<<<<<<",
"<<<<<<<<<<<<<<<<<<<<<<<<<<<<<<<<<<<<<<<<<<<<&&&&XXXX<<<<<<<<<<<<",
"<<<<<<<<<<<<<<<<<<<<<<<<<<<<<<<<&&&&::::%%%%@@@@@@@@XXXX<<<<<<<<",
"<<<<<<<<<<<<<<<<<<<<<<<<<<<<<<<<&&&&::::%%%%@@@@@@@@XXXX<<<<<<<<",
"<<<<<<<<<<<<<<<<<<<<<<<<<<<<<<<<&&&&::::%%%%@@@@@@@@XXXX<<<<<<<<",
"<<<<<<<<<<<<<<<<<<<<<<<<<<<<<<<<&&&&::::%%%%@@@@@@@@XXXX<<<<<<<<",
"<<<<<<<<<<<<****oooo<<<<<<<<<<<<<<<<XXXXXXXX<<<<<<<<<<<<<<<<<<<<",
"<<<<<<<<<<<<****oooo<<<<<<<<<<<<<<<<XXXXXXXX<<<<<<<<<<<<<<<<<<<<",
"<<<<<<<<<<<<****oooo<<<<<<<<<<<<<<<<XXXXXXXX<<<<<<<<<<<<<<<<<<<<",
"<<<<<<<<<<<<****oooo<<<<<<<<<<<<<<<<XXXXXXXX<<<<<<<<<<<<<<<<<<<<",
"<<<<<<<<<<<<<<<<<<<<<<<<<<<<<<<<<<<<<<<<<<<<<<<<<<<<<<<<<<<<<<<<",
"<<<<<<<<<<<<<<<<<<<<<<<<<<<<<<<<<<<<<<<<<<<<<<<<<<<<<<<<<<<<<<<<",
"<<<<<<<<<<<<<<<<<<<<<<<<<<<<<<<<<<<<<<<<<<<<<<<<<<<<<<<<<<<<<<<<",
"<<<<<<<<<<<<<<<<<<<<<<<<<<<<<<<<<<<<<<<<<<<<<<<<<<<<<<<<<<<<<<<<",
"<<<<<<<<<<<<<<<<<<<<<<<<<<<<<<<<<<<<<<<<<<<<<<<<<<<<<<<<<<<<<<<<",
"<<<<<<<<<<<<<<<<<<<<<<<<<<<<<<<<<<<<<<<<<<<<<<<<<<<<<<<<<<<<<<<<",
"<<<<<<<<<<<<<<<<<<<<<<<<<<<<<<<<<<<<<<<<<<<<<<<<<<<<<<<<<<<<<<<<",
"<<<<<<<<<<<<<<<<<<<<<<<<<<<<<<<<<<<<<<<<<<<<<<<<<<<<<<<<<<<<<<<<"
};
