/* XPM */
static char *result[] = {
/* columns rows colors chars-per-pixel */
"64 64 256 2 ",
"   c black",
".  c #010101",
"X  c #020202",
"o  c gray1",
"O  c #040404",
"+  c gray2",
"@  c #060606",
"#  c #070707",
"$  c gray3",
"%  c #090909",
"&  c gray4",
"*  c #0B0B0B",
"=  c #0C0C0C",
"-  c gray5",
";  c #0E0E0E",
":  c gray6",
">  c #101010",
",  c #111111",
"<  c gray7",
"1  c #131313",
"2  c gray8",
"3  c #151515",
"4  c #161616",
"5  c gray9",
"6  c #181818",
"7  c #191919",
"8  c gray10",
"9  c #1B1B1B",
"0  c gray11",
"q  c #1D1D1D",
"w  c #1E1E1E",
"e  c gray12",
"r  c #202020",
"t  c gray13",
"y  c #222222",
"u  c #232323",
"i  c gray14",
"p  c #252525",
"a  c gray15",
"s  c #272727",
"d  c #282828",
"f  c gray16",
"g  c #2A2A2A",
"h  c gray17",
"j  c #2C2C2C",
"k  c #2D2D2D",
"l  c gray18",
"z  c #2F2F2F",
"x  c gray19",
"c  c #313131",
"v  c #323232",
"b  c gray20",
"n  c #343434",
"m  c #353535",
"M  c gray21",
"N  c #373737",
"B  c gray22",
"V  c #393939",
"C  c #3A3A3A",
"Z  c gray23",
"A  c #3C3C3C",
"S  c gray24",
"D  c #3E3E3E",
"F  c #3F3F3F",
"G  c gray25",
"H  c #414141",
"J  c gray26",
"K  c #434343",
"L  c #444444",
"P  c gray27",
"I  c #464646",
"U  c gray28",
"Y  c #484848",
"T  c #494949",
"R  c gray29",
"E  c #4B4B4B",
"W  c #4C4C4C",
"Q  c gray30",
"!  c #4E4E4E",
"~  c gray31",
"^  c #505050",
"/  c #515151",
"(  c gray32",
")  c #535353",
"_  c gray33",
"`  c #555555",
"'  c #565656",
"]  c gray34",
"[  c #585858",
"{  c gray35",
"}  c #5A5A5A",
"|  c #5B5B5B",
" . c gray36",
".. c #5D5D5D",
"X. c gray37",
"o. c #5F5F5F",
"O. c #606060",
"+. c gray38",
"@. c #626262",
"#. c gray39",
"$. c #646464",
"%. c #656565",
"&. c gray40",
"*. c #676767",
"=. c #686868",
"-. c DimGray",
";. c #6A6A6A",
":. c gray42",
">. c #6C6C6C",
",. c #6D6D6D",
"<. c gray43",
"1. c #6F6F6F",
"2. c gray44",
"3. c #717171",
"4. c #727272",
"5. c gray45",
"6. c #747474",
"7. c gray46",
"8. c #767676",
"9. c #777777",
"0. c gray47",
"q. c #797979",
"w. c gray48",
"e. c #7B7B7B",
"r. c #7C7C7C",
"t. c gray49",
"y. c #7E7E7E",
"u. c gray50",
"i. c #808080",
"p. c #818181",
"a. c gray51",
"s. c #838383",
"d. c #848484",
"f. c gray52",
"g. c #868686",
"h. c gray53",
"j. c #888888",
"k. c #898989",
"l. c gray54",
"z. c #8B8B8B",
"x. c gray55",
"c. c #8D8D8D",
"v. c #8E8E8E",
"b. c gray56",
"n. c #909090",
"m. c gray57",
"M. c #929292",
"N. c #939393",
"B. c gray58",
"V. c #959595",
"C. c gray59",
"Z. c #979797",
"A. c #989898",
"S. c gray60",
"D. c #9A9A9A",
"F. c #9B9B9B",
"G. c gray61",
"H. c #9D9D9D",
"J. c gray62",
"K. c #9F9F9F",
"L. c #A0A0A0",
"P. c gray63",
"I. c #A2A2A2",
"U. c gray64",
"Y. c #A4A4A4",
"T. c #A5A5A5",
"R. c gray65",
"E. c #A7A7A7",
"W. c gray66",
"Q. c #A9A9A9",
"!. c #AAAAAA",
"~. c gray67",
"^. c #ACACAC",
"/. c gray68",
"(. c #AEAEAE",
"). c #AFAFAF",
"_. c gray69",
"`. c #B1B1B1",
"'. c #B2B2B2",
"]. c gray70",
"[. c #B4B4B4",
"{. c gray71",
"}. c #B6B6B6",
"|. c #B7B7B7",
" X c gray72",
".X c #B9B9B9",
"XX c gray73",
"oX c #BBBBBB",
"OX c #BCBCBC",
"+X c gray74",
"@X c gray",
"#X c gray75",
"$X c #C0C0C0",
"%X c #C1C1C1",
"&X c gray76",
"*X c #C3C3C3",
"=X c gray77",
"-X c #C5C5C5",
";X c #C6C6C6",
":X c gray78",
">X c #C8C8C8",
",X c gray79",
"<X c #CACACA",
"1X c #CBCBCB",
"2X c gray80",
"3X c #CDCDCD",
"4X c #CECECE",
"5X c gray81",
"6X c #D0D0D0",
"7X c gray82",
"8X c #D2D2D2",
"9X c LightGray",
"0X c gray83",
"qX c #D5D5D5",
"wX c gray84",
"eX c #D7D7D7",
"rX c #D8D8D8",
"tX c gray85",
"yX c #DADADA",
"uX c gray86",
"iX c gainsboro",
"pX c #DDDDDD",
"aX c gray87",
"sX c #DFDFDF",
"dX c gray88",
"fX c #E1E1E1",
"gX c #E2E2E2",
"hX c gray89",
"jX c #E4E4E4",
"kX c gray90",
"lX c #E6E6E6",
"zX c #E7E7E7",
"xX c gray91",
"cX c #E9E9E9",
"vX c #EAEAEA",
"bX c gray92",
"nX c #ECECEC",
"mX c gray93",
"MX c #EEEEEE",
"NX c #EFEFEF",
"BX c gray94",
"VX c #F1F1F1",
"CX c gray95",
"ZX c #F3F3F3",
"AX c #F4F4F4",
"SX c gray96",
"DX c #F6F6F6",
"FX c gray97",
"GX c #F8F8F8",
"HX c #F9F9F9",
"JX c gray98",
"KX c #FBFBFB",
"LX c gray99",
"PX c #FDFDFD",
"IX c #FEFEFE",
"UX c white",
/* pixels */
"$.$.@.O.m b c c n b m h V c b b m c b m ` } o...V.S.Z.N.*.*.#.O.' ' ` ..m.J.D.n.+.] ) ' m b c c m m N M _ { } ( m m m v ] ` [ { ",
"o.@.@.o.B m m B c b M j V x n N c z v b ^ ) } } z.B.Z.n.%.#.#.&.` ' ' ..v.S.Z.n...' ) ' m n b v v v m n ) [ } ) B m n b ] ] [ ] ",
"&.=.&...C c z c n m B k V l c b b b B B ) `  .X.M.G.H.m.=.o.o.@.[ [ { O.b.S.A.N...] ` ] N M m n n b M M _ [ | ' m v v M _ } | { ",
"} } [ ( K S Z Z N M B v P F H F V M V A | X.#.@.l.b.b.g.6.1.,.:.) ^ ! { c.S.A.N.#.o. . .V N m b b c b v Q ! / Q A Z Z D E ~ ^ ~ ",
"V V A K _ } ....O. .o.$.g.l.x.h.$...X.$.k.n.m.z.>.:.>.4.g.b.v.h.K C N T h.A.A.M.B.m.v.l.$.+.X.{ g a a i A V Z V ! ~ ! E D C V V ",
"c z v Z X.*.;.=.&.o.+.;.B.G.G.N.:.+.+.-.M.D.S.n.*.+.O.-.N.L.G.n.C l h H g.D.F.V.D.S.Z.n.=.%.+. .s t t w n z c c ` [ [ _ M c x v ",
"B m m N X.+.O...*.O.+.-.n.C.B.l.;.@.#.;.M.S.S.n.,.*.$.&.M.A.M.h.H n x L f.A.A.V.Z.A.Z.n.-.*.$.X.g i i u V n N V / ` ] [ M M M B ",
"x z c v  ...o.X.O.} ..$.l.v.v.g.O.} ..#.h.x.c.h.X.X.X.X.l.v.x.f.Y A M I p.v.v.x.c.n.n.z.$.$.@. .j a s s D V D J _ ` ' } N C B B ",
"n n x B p l g j m M B Z D G G F h j k p H C Z D m A n H Z G V Y d.l.c.l.D H H D } ..o.X.} [ ] [ / ! ( ^ b.z.z.g.....' ` o.+...o.",
"z v l b r p y p n b b b n b x l p p u q V n b b z N z B v N b K l.N.C.x.Z M N V ' { | } [ ] ] [ | ' [ } S.A.A.m.| | ` ` O.#.o.@.",
"n N v c y t 0 e b v v b n n v x e w q 0 v v v v v V c n z c z A N.G.H.c.S x x b ^ ( _ _ ) ) ) _ ] ( ` | C.D.F.B.| | ' ] #.*.#.%.",
"n M c b m N c b M M m M B V B N l l l h x z z x v M c M D J G I g.k.k.y.L Z C Z _ ` ` ' ` ` ' ' ] ) ' } s.g.j.a./ ( Q ^ X.#.o.+.",
") _ ) X.r.g.d.d.$.#.O.o.o.X. .| Q ~ Q K l p i s ^ / _ +.u.z.k.h.=.$.#.&.! ^ ^ Q M m m n m m n n N m M n L H J F Z A V G ( { ] [ ",
"` ' ` @.M.J.F.S.*.%.#.@.@.@.+.O.{ .. ./ h y t a / ^ ` $.b.H.G.m.o.` ) } [  .} ` M m b b b n b b v c n c v x v v l x l B ! [ ' ] ",
"{ { ] o.N.A.B.M.-.*.%.%.%.&.&.&._ [ [ ) f i p g ' ) { @.v.S.S.x.@.[ ` [ { ] ' _ m b c c b m m n x z v b l c n n v b c Z ^ { ] ] ",
"^ ( / ` k.z.h.h.<.;.&.#.+.o...| ) ` ) / a i i a / ! ` } g.m.B.k.[ ) _ ) ) Q ^ _ A V N B A D F D J S S F N V C N V V m S ^ ] / ^ ",
"g f a j Z F G Y h.v.m.v.D A V N n C M v b z j v B B V B X. . .| A B N V B M N C _ @. .$.h.m.k.b.c.v.m.s.=.| ..X.@.{ @. .A m D m ",
"r y t p z c n S k.N.A.b.Z b b n b B m b N m b B m v v b [ [ ] _ N n n m m b m B O.;.#.>.n.G.M.V.B.Z.F.x.1.O.$.&.+.| #.} V x V b ",
"r u y p l z c A b.F.K.b.D c x b v m c z n v l c x k l n ) { [ _ m b b n b c b N } +.X.;.v.H.C.C.S.G.J.v.1.o.@.$.;.%.:.X.A x m c ",
"y i y d m B B H p.j.z.i.I D S S b n x c C Z N B Z V C D Q / ^ ! N m n m v l x m ..$.$.,.h.N.b.b.k.j.l.i.-.X.O.O.} ' { ^ Z v m x ",
"v x j N E ( ^ _ O.@.$.%.Q / ^ E b n v C W _ / ) ^ ^ ~ W G A C V m n b c j s d k ! _ _ ` ..O... .K F H G B N C M z j l c x b m v ",
"B b z A ` X.}  .' _ _ ] _ | { ^ b b c Z / | [ [ ] { ] ) M c z z v c x k a r t a ) [ | { ' ' ' _ N z x b c b n j e 0 9 u z M M b ",
"c k g M Q ` ( _ | } { ] [ } [ / B M c C / } ` ) ] [ [ [ M M n m b b v z d t u f ~ / ] ] ) ` [ ) C v v n v n n j a p y a b N b b ",
"G F S U } O...+.` {  .] ] ' [ ' S Z M H } %.O...X... .X.Z S C B B B B m l s g x  .} o.o. .o.O.] C m B A C S H A u p y p x b z v ",
"l.z.x.b.m.m.b.c.=.O.O.+.} ] } { [ +.} %.k.N.z.N.n.m.m.x.@.....X.) ( _ ] ] [ ..#.g.b.B.n.b.N.m.k.+.] o.%.g.k.v.a.Z c z x s u p i ",
"Z.Z.Z.A.A.Z.V.M.>.#.#.@.[ ) ` _ $.-.+.,.M.H.N.A.A.A.Z.M.=.#.@.@.} ] ]  .+.$.*.:.n.A.G.A.Z.D.A.m.,.o.#.>.m.A.A.k.C c z l i r y r ",
"D.S.S.D.D.S.C.B.;.#.%.$.} ' } } O.#...>.n.J.Z.S.S.S.A.N.-.$.#.@.} ` _ | @.%.*.-.B.G.K.F.D.G.D.V.;...o.>.n.G.F.c.S n n c a y u t ",
"b.b.b.n.M.M.n.b.%.o.@.O._ ~ ) _ #.%.@.<.j.N.b.n.m.n.b.x.$.O.o.X.[ ` _ [ | }  .X.s.k.z.k.j.l.l.h.;.%.&.<.p.k.j.p.S B B m g a f p ",
" .| |  .X.o.X...o.{ } _ H N C Z ( ) ( _  .X.|  .o.X.X. .N m m n b b b v j s d k A G J H H K L L / _ ) ^ P J G K +.o.+.X.) ( ` / ",
"[ ] ' ' ] ] ' ` [ ) _ Q B k x b } }  .| { [ [ [ [ ] ] ] m m m n v b n c s w e p j l x x x c b n /  .} ( M l k B X.X.#.o.` ` { ` ",
"[ ] ' ' ] [ [ ] [ ` [ / A v N C ) / _ ] _ ' [ ' ' _ ` ' n m M n v c v x f y t a b b b b v v n M ! { ' ( M b x A O.@.=.#.[ { X.{ ",
"[ ] ] {  .o.O.O.O...o.' F b N C ` ~ ( ` ) ' [ / ] ` ' ] M N N m B M M N n x l x D S A Z C B C A } +.{ { G H C K #.&.:.&.|  .O.| ",
"+.+.@.$.v.b.m.n.B.l.b.x.[ ) _ Y Z Z M M Z M b Z ) ] _ ( ' _ ^ ` X... .o.j.x.l.k.k.b.c.g.O. ...&.k.n.N.n.c.v.c.l.V.n.B.V.b.b.N.n.",
"%.@.#.=.m.C.Z.V.A.M.A.B.X.{  ._ n n x v B M b Z / [ ] _ ' ) ( { #.#.#.=.N.S.S.S.Z.G.A.n.-.#.@.-.b.V.S.Z.V.Z.A.Z.S.N.V.Z.M.N.V.n.",
"O.X.O.;.b.S.F.A.F.A.F.V.o.' [ ) n b l l m v l b _ | | [ } ] ' X.+.+.+.=.N.S.D.D.A.G.Z.b.;.#.+.*.M.A.F.D.S.F.H.H.S.V.S.G.S.G.K.S.",
"*.%.*.<.p.j.l.j.k.j.j.d.[ ( ( ~ M M c b S S V Z Q ( ^ ^ [ [ ' | o.o.X.#.c.m.m.n.c.m.c.j.&.+.o.$.f.j.l.k.h.h.k.z.B.B.D.Z.c.c.m.c.",
"_ ) / ! L J G F G G F J s g f d v m b V E ) ^ ( Z A B F ^ ] ) ) Z C B A %.=.*.&.X.O...} Z B M V H H J J G F J I v.B.S.x.5.;.>.;.",
"} } [ ) M v z z x c k v r p y y z b v V ! { ' ` v x j N ~ } ' _ B N M C #.&.%.$.[ } ` ) M n z c z l z x z z b V x.Z.J.z.;.X.@.+.",
"' ' _ ` n n b b m B v b r y 0 r b M b V ! { _ ^ B M v Z ( | ] ` b v c n ..+.O.o.[ [ _ ) N M x c n v v b v c m S j.B.H.z.>.@.*.&.",
"{ ] ` { N Z V N C H Z Z s s u g n B M D ` @.X.{ F F C F ^ ' / ^ m b v n  .o... .X.o.| | H H Z Z H S A A V M C J a.c.B.a.%. .o.| ",
"+.%.@.X.+.X. .+.k.z.x.k.V m m M _ @...$.j.V.c.N.z.c.h.d.D Z m N p p u d b n m F f.c.N.n.c.v.c.z.k.k.h.j.o.o. .| H G H A C M B B ",
"X.%.%.@.%.$.$.>.b.V.Z.b.Z c b B o.-.@.:.b.G.B.Z.C.G.C.z.D b k b i i t p c n N J c.B.S.Z.V.C.C.B.D.F.S.B.:.&.@.#.c k k z v n m v ",
"X.%.$.+.#.O.O.=.C.H.K.m.G c v B X.$.o.>.b.K.S.D.B.H.S.l.H v l M e r 0 e h z b A b.B.Z.Z.Z.S.S.Z.B.C.B.c.>.$.+.@.S M b m x n c h ",
" .O.....&.*.%.;.s.h.k.i.P Z A F | o...*.i.z.k.z.N.C.v.u.I N z v v m v b S F F I k.z.c.b.M.N.B.N.D.Z.m.j.6.;.#.O.S A D J j x b b ",
"g g d b E ' ` ] @.O.@.$.Q ~ ~ Q B V N C G J G K ] |  .$.} @.$.*.a.h.g.g.c.x.h.j.X.....+.%.*.*.*.@.@.=.5.k.N.A.A.m.m.x.w.B a y u ",
"u t w l ! o...| { ) ) { ' | } _ m n m m c l x n } [ ` | O.&.#.+.N.F.D.S.K.G.B.N.X.{ ]  .@.%.$.$.$.+.@.:.v.C.C.M.N.A.Z.f.x e w p ",
"a y w h T ] _ / | ] ] [ { [ ] ) m z v M v x m N / ) ( ' +.$.#.%.c.C.V.N.S.S.M.n...` ( [ o.+.+.+.$.@.$.;.V.F.G.A.H.K.G.x.c y e u ",
"g f p x R ' ) ( ^ / ` ) ) ^ ( ) F M N A B B A Z ! _ ' _ ..| ..#.z.N.M.n.Z.S.B.N. .) ! ` ..X.X.X... ...X.k.l.l.h.k.k.h.a.z g f g ",
"` ( ~ _ n C B M N N V x F N V C [ | +.| ~ ^ ` / N M B C B m V G #.&.>.,.n.S.S.c.L A N B Z Z Z A M Z V B D S C F G H S H ~ _ / ( ",
"` _ ( ) n M m n l c n h B x n N +.@.&.+.' ` ` ! N n b m m v b N $.$.=.;.n.S.A.k.S m l z c c x x c m v x m b x n m m v Z ^ { ' ] ",
" .| [ _ V m v c b m N j B l c n @.+.&.%... . .` b x z v n n m N X.X.@.*.n.F.D.v.H V b n M m n n b N b c m b z b z z j N ^ | [ [ ",
"_ ( ^ ~ I L H F C V C n U H K J  .| O...^ W ~ W V C C V M n m N | | O.@.d.l.z.a.B c j z b b b b v N n b V B m V G H F I [ o.|  .",
"*.%.&.<.a.k.k.f.#.X.O.#.f.k.x.j...| | ! n f k z Q / / U B z l c n m B c P G G A h p u f x v b m ( ] ' ] o.O.o.$.d.k.j.k.m.m.v.M.",
"@.o.+.>.M.F.F.C.:.@.@.;.M.F.G.B.X. .} T f 7 w i ) | ..~ Z x x n x v m h B k l l i r r s x n M B ~ ` ` ] O.@.@.=.N.F.F.S.G.S.Z.H.",
"*.$.%.;.B.A.C.m.1.&.%.;.n.C.C.c.| ] ] E l e p h ! ] { Q S m m N x c n j Z c b b y w w a l v b m ( [ ] { @.#.#.=.n.C.V.V.D.A.B.A.",
"#.@.#.&.n.n.v.z.*.o.o.$.j.c.v.h.[ ) _ R v i s h ! ` ` T Z n v c B M N x G M M m b l l m S F G H ( ] ` ' X.X...@.k.c.z.x.B.N.v.n.",
"$.$.$.%.*.=.=.*.} ] { ( J S H G B N c Z Q ' Q E M N b b N v x V ~ _ ( _ X.O.O.%.p.l.M.a.n.k.x.g.O._ | ` V m F m Z Z B H ] O. .| ",
"@.@.@.#.$.%.%.%.[ ' [ ! B z b b x b c A ) ..{ } B M c v m v z n / [ ] [ o.+.@.-.n.V.D.c.D.B.V.c...( [ ( B m S m n n v A )  .{ { ",
"@.@.@.@.@.#.#.#.{ {  .^ V z v b c m c M ( ' / ) m c z c m m n m ) } |  .@.#.%.<.B.Z.G.B.H.F.H.V.+.[ } ( V b B x l z l B Q ' _ ` ",
"+.+.+.o...| | | ~ ! ( E C n B N v b k b X.$.X.X.K G H G V M B M E ~ ! ( ..+.+.*.v.m.C.v.h.d.g.p.' ^ / R B v n x B C V H ( { ] [ ",
"m M n c j d s s Z N C C v v n x a s p n t.c.x.x.x.l.x.p.*...o.| A A B F ) | [ [ #.&.=. .S b n c V B Z C b v m m Q ^ ! ( o.#.O.@.",
"n m b l d u t y n l x b x v b k y r e x z.J.H.H.F.S.K.b.:.o.#...N b k N ^  .] _ +.#.%.} g e t t k c b b v v n N ' } ] } #.%.+.$.",
"n m n z d y y u m c m N b m M x p i r h l.C.B.B.Z.B.H.b.:.@.=.X.N n z V ( ..{ ] O.o.@. .d t i i v N M n M n v M ) [ ] [ +.@.o.$.",
"c b b l s y y u x l n M z z b x p a u k v.S.S.G.S.N.F.v.-.@.*.[ n n x V ~ { ' ' $.O.+...d y u t l n b v N m b B / ] ] { @.$.@.*."
};
