/* XPM */
static char *result[] = {
/* columns rows colors chars-per-pixel */
"64 64 256 2 ",
"   c black",
".  c #010101",
"X  c #020202",
"o  c gray1",
"O  c #040404",
"+  c gray2",
"@  c #060606",
"#  c #070707",
"$  c gray3",
"%  c #090909",
"&  c gray4",
"*  c #0B0B0B",
"=  c #0C0C0C",
"-  c gray5",
";  c #0E0E0E",
":  c gray6",
">  c #101010",
",  c #111111",
"<  c gray7",
"1  c #131313",
"2  c gray8",
"3  c #151515",
"4  c #161616",
"5  c gray9",
"6  c #181818",
"7  c #191919",
"8  c gray10",
"9  c #1B1B1B",
"0  c gray11",
"q  c #1D1D1D",
"w  c #1E1E1E",
"e  c gray12",
"r  c #202020",
"t  c gray13",
"y  c #222222",
"u  c #232323",
"i  c gray14",
"p  c #252525",
"a  c gray15",
"s  c #272727",
"d  c #282828",
"f  c gray16",
"g  c #2A2A2A",
"h  c gray17",
"j  c #2C2C2C",
"k  c #2D2D2D",
"l  c gray18",
"z  c #2F2F2F",
"x  c gray19",
"c  c #313131",
"v  c #323232",
"b  c gray20",
"n  c #343434",
"m  c #353535",
"M  c gray21",
"N  c #373737",
"B  c gray22",
"V  c #393939",
"C  c #3A3A3A",
"Z  c gray23",
"A  c #3C3C3C",
"S  c gray24",
"D  c #3E3E3E",
"F  c #3F3F3F",
"G  c gray25",
"H  c #414141",
"J  c gray26",
"K  c #434343",
"L  c #444444",
"P  c gray27",
"I  c #464646",
"U  c gray28",
"Y  c #484848",
"T  c #494949",
"R  c gray29",
"E  c #4B4B4B",
"W  c #4C4C4C",
"Q  c gray30",
"!  c #4E4E4E",
"~  c gray31",
"^  c #505050",
"/  c #515151",
"(  c gray32",
")  c #535353",
"_  c gray33",
"`  c #555555",
"'  c #565656",
"]  c gray34",
"[  c #585858",
"{  c gray35",
"}  c #5A5A5A",
"|  c #5B5B5B",
" . c gray36",
".. c #5D5D5D",
"X. c gray37",
"o. c #5F5F5F",
"O. c #606060",
"+. c gray38",
"@. c #626262",
"#. c gray39",
"$. c #646464",
"%. c #656565",
"&. c gray40",
"*. c #676767",
"=. c #686868",
"-. c DimGray",
";. c #6A6A6A",
":. c gray42",
">. c #6C6C6C",
",. c #6D6D6D",
"<. c gray43",
"1. c #6F6F6F",
"2. c gray44",
"3. c #717171",
"4. c #727272",
"5. c gray45",
"6. c #747474",
"7. c gray46",
"8. c #767676",
"9. c #777777",
"0. c gray47",
"q. c #797979",
"w. c gray48",
"e. c #7B7B7B",
"r. c #7C7C7C",
"t. c gray49",
"y. c #7E7E7E",
"u. c gray50",
"i. c #808080",
"p. c #818181",
"a. c gray51",
"s. c #838383",
"d. c #848484",
"f. c gray52",
"g. c #868686",
"h. c gray53",
"j. c #888888",
"k. c #898989",
"l. c gray54",
"z. c #8B8B8B",
"x. c gray55",
"c. c #8D8D8D",
"v. c #8E8E8E",
"b. c gray56",
"n. c #909090",
"m. c gray57",
"M. c #929292",
"N. c #939393",
"B. c gray58",
"V. c #959595",
"C. c gray59",
"Z. c #979797",
"A. c #989898",
"S. c gray60",
"D. c #9A9A9A",
"F. c #9B9B9B",
"G. c gray61",
"H. c #9D9D9D",
"J. c gray62",
"K. c #9F9F9F",
"L. c #A0A0A0",
"P. c gray63",
"I. c #A2A2A2",
"U. c gray64",
"Y. c #A4A4A4",
"T. c #A5A5A5",
"R. c gray65",
"E. c #A7A7A7",
"W. c gray66",
"Q. c #A9A9A9",
"!. c #AAAAAA",
"~. c gray67",
"^. c #ACACAC",
"/. c gray68",
"(. c #AEAEAE",
"). c #AFAFAF",
"_. c gray69",
"`. c #B1B1B1",
"'. c #B2B2B2",
"]. c gray70",
"[. c #B4B4B4",
"{. c gray71",
"}. c #B6B6B6",
"|. c #B7B7B7",
" X c gray72",
".X c #B9B9B9",
"XX c gray73",
"oX c #BBBBBB",
"OX c #BCBCBC",
"+X c gray74",
"@X c gray",
"#X c gray75",
"$X c #C0C0C0",
"%X c #C1C1C1",
"&X c gray76",
"*X c #C3C3C3",
"=X c gray77",
"-X c #C5C5C5",
";X c #C6C6C6",
":X c gray78",
">X c #C8C8C8",
",X c gray79",
"<X c #CACACA",
"1X c #CBCBCB",
"2X c gray80",
"3X c #CDCDCD",
"4X c #CECECE",
"5X c gray81",
"6X c #D0D0D0",
"7X c gray82",
"8X c #D2D2D2",
"9X c LightGray",
"0X c gray83",
"qX c #D5D5D5",
"wX c gray84",
"eX c #D7D7D7",
"rX c #D8D8D8",
"tX c gray85",
"yX c #DADADA",
"uX c gray86",
"iX c gainsboro",
"pX c #DDDDDD",
"aX c gray87",
"sX c #DFDFDF",
"dX c gray88",
"fX c #E1E1E1",
"gX c #E2E2E2",
"hX c gray89",
"jX c #E4E4E4",
"kX c gray90",
"lX c #E6E6E6",
"zX c #E7E7E7",
"xX c gray91",
"cX c #E9E9E9",
"vX c #EAEAEA",
"bX c gray92",
"nX c #ECECEC",
"mX c gray93",
"MX c #EEEEEE",
"NX c #EFEFEF",
"BX c gray94",
"VX c #F1F1F1",
"CX c gray95",
"ZX c #F3F3F3",
"AX c #F4F4F4",
"SX c gray96",
"DX c #F6F6F6",
"FX c gray97",
"GX c #F8F8F8",
"HX c #F9F9F9",
"JX c gray98",
"KX c #FBFBFB",
"LX c gray99",
"PX c #FDFDFD",
"IX c #FEFEFE",
"UX c white",
/* pixels */
"r r e e 7 6 6 6 5 5 5 9 x n n n c c c z y r r e 0 0 9 q l c c c l k k j y r r r 8 6 6 6 3 2 2 2 4 4 4 5 9 9 9 0 h z z z b n n n ",
"e e e e 7 6 6 6 5 5 5 8 l n n n x x x l y r r e 0 9 0 q k x x x k k k h t r r e 8 6 6 5 3 2 2 2 4 4 4 5 8 8 8 0 h z z z v n n n ",
"e r r e 7 6 6 6 5 5 5 7 l m n n c x x l y r r r 0 9 9 q k x x x k k k h t r r e 7 6 6 6 3 2 2 2 3 4 4 4 7 8 8 0 h z z x b n n n ",
"r r r e 7 6 6 6 7 8 7 9 l n n b x z l k t e e e q q q e j z z l k k k j y r t e 8 7 7 7 3 2 2 2 4 4 4 5 9 0 0 q g l k l x v v v ",
"i i u t 7 5 5 7 f j j k v v v c s i i u 9 7 7 9 g k k j a i i a c v v c p u i u u i i y 7 5 5 4 5 6 6 7 s g f f i y y y u u u u ",
"i i i y 8 5 5 8 k x x c c v v x p u y y 8 7 7 9 j x x z i y y i v n n v a i i i i p i u 8 5 5 5 6 6 6 8 g k j j y r r r r r r r ",
"i i i u 7 5 5 8 k x x x c v v x p u u y 9 7 7 9 h x x z i y y i c n n v s i i i i i i i 8 5 5 5 6 6 6 8 g k j j y r r r r r r r ",
"u u u t 8 7 7 0 j l l l z x x l p u y t 8 6 6 8 j x x z i y y i x v c x a i i i i i i u 7 4 5 5 6 6 6 8 d g g g u t t t r r r r ",
"7 7 7 8 s f f d y t t t t y y y t t t e 4 2 2 5 j x x z s p a p u u u u t t t t y y y t 6 3 3 3 5 6 6 6 8 8 8 9 p s s s y y y y ",
"5 5 5 7 d h h g e w e e r r r r r r r e 3 2 2 4 j c x z s a a a t r r r r r r r y y y t 5 3 3 3 5 6 6 6 5 5 5 6 p d d s y t t y ",
"5 5 5 7 d h h g r e e e r r r r r r r e 3 2 2 4 j x x z s a a p t r r r r r r r y y y t 5 3 3 3 5 6 6 6 5 5 5 6 a d d s y t t t ",
"5 5 5 7 a f g f t r r r r r r r r r e w 4 2 2 4 g z z l s a a p t t t t r r r r t t t r 5 3 3 3 7 8 8 7 5 5 5 6 p s s a t r r t ",
"5 5 5 5 8 8 8 0 a d d d t e e e w q 0 9 4 3 3 4 r u u u y y u u i i i i t r r e 7 6 5 5 3 3 3 5 s h h f 8 5 5 5 7 8 8 8 5 5 5 5 ",
"5 5 5 5 5 5 4 7 d g h f t e e e q 0 0 9 4 3 3 4 q r r r r t t y p p p p y r r e 5 3 3 3 3 3 3 5 g z z j 8 5 5 5 5 5 5 4 2 2 2 2 ",
"5 5 5 5 5 5 5 7 s g g f y r r e 0 0 0 9 4 3 3 4 w r r r t t t y p p p p y r r e 4 3 3 3 3 3 3 5 g l l j 8 5 5 5 5 5 5 5 3 2 2 2 ",
"7 7 7 7 7 8 8 9 a d d s r e e w 0 9 9 8 4 3 3 4 w r r e t t t t i u u u r e e w 6 5 5 6 5 5 5 7 f k k h 9 6 6 6 5 5 5 5 3 3 3 3 ",
"s a a s h k k g 9 6 6 6 5 4 4 5 5 4 4 4 3 3 3 3 7 8 7 8 e r r e 6 4 4 4 4 5 4 6 f j j h a a a p y y y y e e e w 6 5 5 5 8 8 8 8 ",
"f f f g z x c l 6 2 3 3 3 3 3 3 3 3 3 3 3 3 3 3 7 7 7 8 e r r e 3 1 1 1 3 3 3 5 k c x x g f f d t r r r r r r e 6 5 5 6 9 9 9 9 ",
"f f f g z x x l 6 3 3 3 3 3 3 3 3 3 3 3 3 3 3 3 7 7 7 8 e r r e 3 1 1 1 3 2 2 5 j x x x g d f d t r r r r r r e 6 5 5 5 9 9 9 9 ",
"h g g h l l z j 7 4 4 4 6 6 6 6 5 5 5 5 6 6 6 6 7 7 7 8 w e e w 4 2 2 2 5 6 6 8 j x z z g d d d y t t t r r r r 8 6 6 7 8 9 9 9 ",
"c v v c i y y t 0 9 9 0 j z l l g f f g k l z k 9 6 6 6 5 5 4 5 6 7 7 9 c m m n j h h g u t t y i p p i y r r r y y y t 8 7 7 7 ",
"b b n v y w e w 0 0 0 q z b v v l k k l c v v x 0 5 5 5 3 3 3 3 7 7 7 0 m Z Z C k h h g y r r t i p p p y r r r u u u y 8 7 7 7 ",
"b b b v y w e e 0 0 0 w l v v c k j k l v v v x 0 5 5 5 3 3 3 4 7 7 7 0 m Z Z V k h h g u r r t i p p p y r r r u u u y 9 7 7 7 ",
"c c c x y e r e 0 9 9 q l v c c k j j k x x x l q 6 6 6 4 3 3 4 7 7 6 9 b V B N h g g g u t t t i p p p y t t t y y y t 8 6 6 7 ",
"r r r r t y y r 6 5 5 7 d j h h p u u u y y t t e e e w 6 5 5 5 5 5 5 6 0 q q w t t y y u i i i i u u u p p a i 8 6 6 6 5 4 4 4 ",
"0 0 0 0 t u u y 6 4 4 6 a g g f y t t r w e e w r r r e 7 5 5 5 5 5 5 5 5 5 5 6 w r r r u i i i i i i i p a a p 7 4 4 4 4 4 4 4 ",
"q 0 0 q y u u y 6 4 4 6 s g g f y t t t w e e e r r r e 7 5 5 5 5 5 5 5 5 5 5 6 e r r t i i i i i i i i p a a p 7 4 4 4 4 4 4 4 ",
"q q q q y u u y 6 5 5 6 p d d s t r r r w w w w e e e w 8 6 6 6 7 8 8 7 7 6 6 7 w e w e u u u u u u u u u i i u 6 4 4 4 4 4 4 4 ",
"w q q q q q w q 0 9 9 9 7 6 6 5 3 3 3 3 2 2 2 2 4 5 4 5 r y y u g j j h y r r e 7 5 5 6 7 7 7 8 q q q 0 5 5 5 4 4 4 4 4 7 7 7 7 ",
"w q q q 0 0 0 0 0 0 0 9 4 2 3 3 1 1 1 1 < < < < 3 3 3 4 y i i p k z x l i t t r 6 4 4 4 5 6 6 6 9 0 0 9 3 2 2 2 4 4 4 5 7 7 7 7 ",
"w q q q 0 0 0 0 0 0 0 9 4 3 3 3 1 1 1 1 < < < < 3 3 3 4 y i i p k z z l u t t r 6 4 4 4 5 6 6 7 9 0 0 9 3 2 2 2 4 4 4 4 7 7 7 7 ",
"q q q q w e e e w w w w 7 6 6 6 2 2 2 2 1 1 1 1 6 6 6 7 y p p a k z z l i u u y 7 6 6 6 6 6 6 7 q w w q 5 4 4 4 5 5 4 5 6 7 6 6 ",
"6 6 6 7 g l l l k k k l k k k j t w e w 4 4 4 6 g l l k d d s d l x x x l l l k p i i u 9 8 8 0 a d d s y y y t 7 6 6 6 5 5 5 5 ",
"5 5 5 7 j x x x x x x x x x x z u t t r 5 4 4 7 k v v c f d d f z x x x x x x z s a a p 0 8 8 9 s g g f p i i u 8 6 6 6 6 5 5 5 ",
"5 5 5 8 j x x x x x x x x x x z u t t e 5 4 4 6 k v v c f d d f z x x x x x x z a a a p 0 8 8 9 d g g f i i i u 7 6 6 6 5 5 5 5 ",
"5 5 5 7 h z l l z z z z l l l k u t t e 5 4 4 6 h x x z d s s d z x x x x x x z p i p i 0 9 9 0 a f f d u u u y 9 8 8 8 7 7 7 7 ",
"5 5 5 6 t y y u i i i i u y y u i i i y 4 2 2 2 9 q 0 0 q w e t l x x x x x x l w 9 0 0 w e e w 6 5 5 5 6 7 7 9 g k k k j j j j ",
"5 5 5 6 e r r r y u u u t r r t i i i y 4 1 1 2 6 6 6 6 9 0 0 w k x x x x x x l q 8 8 9 e r r e 2 1 1 1 4 5 5 7 j c x x x x x c ",
"5 5 5 6 e r r t u u u u t r r t i i i y 4 1 1 2 6 6 6 6 9 0 0 w k x x x x x x l q 8 8 9 e r r e 3 1 1 1 4 5 5 7 j x x x x x x c ",
"5 5 5 6 w e e e y u u u t r r r y u u t 4 2 2 2 6 6 6 6 9 0 0 w h l k k l l l j q 9 9 9 e e e q 3 1 1 2 7 7 7 9 j x x x z l l z ",
"3 2 2 2 5 5 5 6 y u u i t r r e 5 3 3 3 5 5 5 5 5 5 5 6 8 8 8 8 7 7 7 8 t y y y e e e e 5 3 3 3 4 4 4 6 f k k l x x x z p y y u ",
"2 2 2 1 4 4 4 5 y i i i t r r w 3 1 1 1 5 5 5 5 5 5 5 5 7 7 7 6 4 4 4 4 w r r r r r r e 3 1 1 1 4 4 4 7 j x x x x x x z i t t t ",
"2 2 2 2 4 4 4 5 y i i i t r r w 2 1 1 1 5 5 5 5 5 5 5 5 7 7 7 6 4 4 4 5 w r r r r r r e 3 1 1 1 4 4 4 7 j x x x x x x z u t t t ",
"2 2 2 2 4 4 4 6 t u u u r e e q 3 1 1 2 6 7 7 7 7 7 7 7 8 8 8 7 5 5 5 5 w e e e e e r e 3 1 1 2 6 7 7 9 j z z z z z z l u t t t ",
"3 3 3 2 4 5 5 5 5 6 6 6 5 6 6 5 4 4 4 6 a f f f k k k k y r r e 9 0 0 9 4 4 4 4 6 6 7 7 5 5 4 7 h l l k a p p p s s s s y r r r ",
"3 3 3 3 5 5 5 5 3 3 3 3 4 4 4 4 5 5 5 7 g k k k v v v c i t t r q 0 0 9 3 2 2 2 4 5 5 5 5 5 5 8 z n n c p y y y p a a p t r r r ",
"3 3 3 3 4 4 4 5 3 3 3 3 4 4 4 4 5 5 5 8 g k k l v v v c i t t r q 0 0 9 3 2 2 2 4 5 5 5 5 5 5 8 z b b c p y y y p a a p y r r r ",
"3 3 3 4 6 6 6 6 5 5 5 5 5 5 5 6 5 5 5 7 f j j j c v v c i t t t e w w q 5 4 4 4 5 5 5 5 5 5 5 8 z b b c i y y y p p p p t e e e ",
"5 5 5 7 a f d s a a a a a a a i 7 4 4 5 t y y u j l k j p i i a k l l l j h h f 8 5 5 5 5 5 5 7 k c x z u y y y y y y t 7 5 5 5 ",
"5 5 5 7 d j j h f f f f d d d s 6 3 4 5 e r r t h k k j s p p s x c c c x x x l 9 5 5 5 5 5 5 7 j x x l u y y y y y y t 5 4 4 4 ",
"5 5 5 7 d h h h f f f f d d d a 6 3 4 5 e r e t h k k j s p p s x c c c x x x l 9 5 5 5 5 5 5 7 j x x l u y y y y y y t 5 4 4 4 ",
"7 7 7 9 f h h h f d d f s s s a 6 4 4 5 w w w e f h h g p i u p l z z z l z z j 0 6 6 6 5 5 5 7 g z l k u y y y y t y r 5 3 4 4 ",
"g g g g l z z l s i p p i i i u 8 6 7 7 6 6 6 6 5 5 6 6 7 8 8 8 w e e r u i i u e w w w 6 5 5 6 e t t t u u u u t r r e 4 3 3 3 ",
"k j j j l z z l a i i i u u u y 9 7 7 7 5 4 5 4 2 1 1 2 6 6 6 6 0 0 0 0 t y y y r e r e 6 5 5 6 w e e e u u u u t r r e 5 3 3 3 ",
"k k j j z z z l a i i i u u u y 9 8 8 7 5 5 5 5 2 1 1 2 5 6 6 7 0 0 0 q t y y y r r r e 6 5 5 6 w e e e u i i u t r r e 5 3 3 3 ",
"h h h h l l l k a i p p u u u y 9 8 8 7 6 6 6 5 3 2 2 3 5 6 6 6 9 9 9 0 r t t t r r r e 6 5 5 6 q e e e y u u u r e e w 5 3 3 3 ",
"0 0 0 q p a a s g h h h u t t r 9 9 9 0 w w w w w w w w 5 3 4 4 5 5 5 5 6 6 5 7 e r r e 6 5 5 5 8 9 9 9 5 5 5 5 5 5 5 5 5 5 5 6 ",
"7 6 6 7 y i i p j j k j u r r e 0 0 0 0 e r r r r r r e 5 4 4 4 4 4 4 4 4 4 4 5 e r r e 6 5 5 5 7 8 8 8 3 2 3 3 3 3 3 3 5 6 6 6 ",
"7 6 6 7 y i i p j j j h u r r e 0 0 0 0 e r r r r r r w 5 4 4 4 4 4 4 4 4 4 4 5 e r r e 6 5 5 5 8 8 8 7 4 3 3 3 3 3 3 3 5 6 6 6 ",
"8 7 7 8 t u u i g h h g u t t r q q 0 q e e e e e e e w 7 6 6 6 5 5 5 5 5 5 5 6 w e e w 7 5 5 6 0 0 9 9 6 6 6 5 3 3 3 4 6 7 7 7 ",
"y t t r 6 5 5 6 w e e r y u u u r r r e 6 5 5 5 7 7 8 0 s g g f t e e e e e e w 5 3 3 4 6 7 7 9 d g g g j j k h 9 5 5 6 e t e e ",
"u y u t 4 3 3 4 9 0 0 q y u u u t r r e 4 3 3 3 6 7 7 9 h l k j y r r r r r r e 3 1 1 2 6 7 7 9 h l k l x x x l 9 5 5 6 e t t t ",
"u y u t 5 3 3 4 9 0 0 q y u u u t r r e 4 3 3 3 6 6 6 8 h k j j y r r r r r r w 3 1 1 2 7 7 7 9 g k j k z x x k 9 5 5 6 e t t t ",
"u u u y 5 3 3 4 0 q q w u u u u t r r e 4 3 3 3 6 7 6 9 h l k j y r r r r r r e 3 1 1 2 7 7 7 9 g k k l x c x l 0 5 5 6 r t t y "
};
