/* XPM */
static char *result[] = {
/* columns rows colors chars-per-pixel */
"64 64 32 1 ",
"  c #5F5D5C",
". c #615D5C",
"X c #62605F",
"o c #645F60",
"O c #656263",
"+ c #686767",
"@ c #676866",
"# c #696967",
"$ c #696768",
"% c #696969",
"& c #71716F",
"* c #747474",
"= c #757877",
"- c #7E7E7E",
"; c #807E7E",
": c #7F807F",
"> c #80807F",
", c #7F7F80",
"< c #807F80",
"1 c #7F8080",
"2 c #808080",
"3 c #8A8787",
"4 c #8A8887",
"5 c #8A8788",
"6 c #8D8D8D",
"7 c #908F8F",
"8 c #8E908F",
"9 c #90908F",
"0 c #8F8F90",
"q c #908F90",
"w c #8F9190",
"e c #909090",
/* pixels */
"--1-****************<2-26e6e6qq6%@%%6w06>->-  ..&*******  .o-,,-",
"-2--****************-;226e6w7qq6%$%%6006;->-. .X&*******...o-,-,",
"1;,-****************---26weq7677%%+%6e06;;;;X...&*******.   -,-,",
"-:--****=**=*=**=***>22266667577%%%%6ee6;-;;....&*******OooO-,--",
"1;->-1-26666666657667777=*===*==*&**40w6XXX.... @%%%--------****",
"-1<-2--26ee6qq0677777777***********=6we4........@%$%-,,--<--****",
"-1;1-,-26e97eqee77777777************6qe6........@%@%---,--,,=***",
"2-1-----6686565673737373**********==4664....... @@@%-122-,<<****",
",---%%%%**=*OoOo......o+*******=6665OXXX...........o5675<,1-----",
"-,--%@%%***&    .......o********6qq6...............O67772--1<--:",
"1-,-%+%%***&............********60q6X..............o5e7721;-2-,-",
"-1,1%%%%***&o...........&****===5665XXX. ..........O5777-----1-2",
",;124664O..  ............o.o4664Oooo---=X...........**==****-2-,",
"-:-27ee6.... ..............o69e6o ..--;-............********--2-",
"<-128ee6o..................o6996o..o-2<-............********--22",
"-2-<5664....................4563O...=<<-X.......X..O*=*=****----",
":;--O.O.....................XXXX.. O****...... O465666666664O.o ",
"-1--..... ........X ... . ..... ....&**&.....  .6e8e7777qe06O...",
"1-2-o .                   ..       .****........6e897777e6e6o   ",
"--,-O X.XX  X X  X XXX XO... . XX..o****o..... O466657776664O.Xo",
"=*****&*------------&&*&&*&**&**---=%%%$........*=*=*=**%%%%---=",
"********,2--->-2---;*&*=********-->-%+#+........********%+%%-,<<",
"********--:---2--->:=***********-->-%%%$.... .. &*******%$@$--<<",
"*===****-1;>-:-,--:-&&&*=**=***=----#+#+....oo.o***====*%%%$----",
"776666662<--222;X.XX...O67666665...X...X...o;;--666666676665O oo",
"qq67e6ew2--2222;.......o6q676qq6o...........;;-16qq676776006o ..",
"eeq787e62-1;22>-X......o6q7776q6O...........;;-<6q6067qqewe6o. .",
"64656666;1-1----X....ooo56666676o..........o---<666666666464O...",
"OO.+;>>>1---*****&&*&*&&**===****&**$#+#******=**==**==*Oooo----",
"  ..-;-;-22;************************%$%%****************...o;;--",
"...o;>>;1,,2************************%++%***************&...o----",
"..oo=;-----=******&******=***&******%++%*=**===*=*===*=*OOoo=---",
"-;;=ooo.ooo.....oooo&***----oo.O=<--...o59666666666656665664Oooo",
"<;<;o............. .****----o. o-2--...o6e77866ww6677777qqe6o...",
";-;;o............. .&***--2-...o-;;-...o6e9876e606ew77qq00e5o...",
",;;;o............. o&=**-:--...o----...o496666666666777q6qe6o...",
"-<,-o.............  &*******...o%%%%....-->-==*=**=*==*=6696o...",
",---.............. .********....+%#+X..X-;--************6e66o...",
",-<-.............. o********....%#%+....;;<;************6e85o...",
"----O.............oo*=*=****O.oo++$$o..O;<<<=*=*==*=***=5664X ..",
"<--,---=.......X&***66666666*&*%o..o&*&*776666666666----OO.X....",
"1;2--->;........***=60000066****o...****6q77e666w6e61-,-........",
"-,-:>->-.......X&*&=60600ew0****. ..***=6q6qew0e6e06,-1-o.......",
"------;-. ......&***60666464***&oOoO&*&*6q6666666666212,X.... ..",
"%%%%--:-X.....o &***-11-OoO  ooo4664O .o-,222222222266w4o  .@@@+",
"%$@%----X ...  o&***----o    ..o6eq6O .O---<---:21-260e6o oo@%%+",
"%+@%--;-    .. O*=**,11-o .....o6604. ..-<<-2-,--2<26606o..o+%++",
"%%%%----O O  .  &***---=O .. Ooo60q6O ..=;----------6664O. o%%%%",
"----*******&....****XX.O&&*&**&*67e7....**************=*****----",
"1,1-********...o&***  ..********67e5X...************&*******-:--",
"-1,-********...o****X..O********6e75X...&*******************---:",
"1---=*****=*o...&*&&...o*=******6677...O&*********=***&*****:222",
"-2-266666675o..........o----******=*....%%%%****<---..XX566666e6",
"--226ee67775o..........o-<;-********....@%@%****,<--o  X6ew6066e",
"2-,26ewe7677............-<<-********... %%@@****--1-X  X6987qeew",
"-2-26e666677o...........=;;-********o.. %%%%&*&*----O  O46666666",
"-2-,22<<<<<-............X..O****;---...X4664O o.O.oo%****=**2222",
"1-2-,,<<<;--................*=**-;--...X6004O .... o********<<2;",
"-;-<22<<212-o...............****--2-....6006     ...********-:-1",
"-1,,,,<<;---o.o......X.XOooo****--:-Oo.O5565O Ooo..o*******=-1;-",
"******=******&*&...X465656652----<--;;--oooo&*&&**&*****-,---2->",
"***************&X. X6eeeeeeq2--21-<<<;;-o.oo************--1;,-,-",
"****************.. X5e96e67621;:-2,-;---o.o ************---:-1-2",
"***************&X. X6ee607e62-1-<-;-----o. .************-:2-<-2-"
};
