/* XPM */
static char *result[] = {
/* columns rows colors chars-per-pixel */
"64 64 29 1 ",
"  c #5C5C5C",
". c #605F5F",
"X c #646363",
"o c #686767",
"O c #6C6B6B",
"+ c #716F6F",
"@ c #747373",
"# c #787777",
"$ c #7D7C7C",
"% c #807E7E",
"& c #848383",
"* c #888787",
"= c #8B8B8B",
"- c #908F8F",
"; c #939393",
": c #989797",
"> c #9B9B9B",
", c #A09F9F",
"< c #9FA0A0",
"1 c #A4A3A3",
"2 c #A8A7A7",
"3 c #AAAAAA",
"4 c #B0AFAF",
"5 c #B3B2B2",
"6 c #B8B7B7",
"7 c #BBBBBB",
"8 c #C3C3C3",
"9 c #CBCBCB",
"0 c #D2D2D2",
/* pixels */
"5111;----;-;68887777:;=;---:67787665>;;;=========;=;;;;:57778889",
">***@OOOOOO+1553333<@OOOOOO@<33<<<<>@+++ooXXXXXXOOOOO++$<<<35546",
"1***+OOOOOO@1453334<#OOOOOOO<533<<<>@+++XXoXX XXOOOOO@@#<<334447",
"1***@OOOOOO@15554<3<#OOOOOO@<<3<<33<#+++oooXXXXXOOOOO@@$<3<33437",
"1***@OOO->:>3343:-;=&%%&:<>>=-=;<45<=**&&&&&OooOOOO@-;>;==*====<",
"1***@OO+>3333333=**==*==<343=*&=4553--==---=@OOOOOO@<1<<&$$$$$$;",
"1***@OOO>3333433;=*==**=<33<==&=3553;;-=--==OOOOOOoO<<<<&$$&&$&-",
"1***@OO+:3333333=*****==<43<=&&=<453===-=--=OOOOOOO@<<<<&$&$$&$;",
",%%%=-;;===*=======*#@@#<333;---;=-=&&&&==&&@OOO+OO@&=*==--=&&&;",
":#$$>1,,&######$&&*&OOOO<331;-;-&$%%$&$&&&&&OOOO++@+###%;>>;&&&;",
">$#$:1,>&#$$$#$$===&@OO@<131;;;-&$%%$$&$&&&&@OOO+++@#$$%;;>;&&&;",
">#$$:>,>&$$#$$#$&&=&@OOO<331;;--&$&%&$$&&&&$@OOO+@@##$#$;>;;&&&;",
":%#%$$$%=;;;=&&&#@@@OOO@&===****====&$$$OOOOXXXO;>>;@@@@$&&$OoO&",
",#%#@O++;>>>===*@O+OOOOO$$$$$&$&=---&&$$oXX  X O<<<>@+@@$$$@XX $",
",##%@+O@->>>=***@OOOOOO@$$$$&$$&---=$$&$o XXXX O<<3>@++@$$$@XXX$",
":#%#@@@@;>>>=***#OOOO@OO$&$&&$&&=--=&$$$oXXXXXXO<3<>@++@##$@XX $",
"2---::::&$$$@@@@@OOOoXXo@@#@@@+@@@##@@@@=;;;=&======$$$$@@@@OOO%",
"4::>1332$oooOOOOOOOOXXXXO+++OOOOOOOOOOO@<333<><;&$$$$&$$++++@O@-",
"4>::1322$oOOOOOoOOOOXXXXO@++OOOOOOOOOOO@<331>;>;*$&$$$$$@+++O@O;",
"6:>>1231$OOoOOO@@O@OoXXXO+++OOOOOOOOO@O@<33<><>>&$&$&$&$@+++@O@;",
"8333;==*@@@@=<<<>;;;:<:;#@O@OOOOOOO$<3331<<<=&&&====%%&$$$&$+++;",
"9443*$#$@@@@<535<1<33333$O@OOOOOO@O$7787<<<<&$$&==;=%%$&===&@++;",
"9444=$$$@@@@<3333<<<3533$OO@OOOOOO@#6877<<<:&$$&;=;=%%$$=&&$+++;",
"9444=#$$@@@@<5331<<<3333$O@@OOOO@@@#5877<<<:&&$&=;==&$&&&==&@++-",
"4===&&&&@OO@;<1<;=======$$##OO@OO@+@*==&===============&+O@O...=",
"<###&&&=@OOO=<<<=&&&$##$$$$$@@O@@O++O++@$$$$=====&==--;&X...   *",
"<###&=&=@OOO=<<<&&&&$$$#$$$$@O@OO+++@O+@$&$&==;=&=&=-;;*X.X.   &",
"3###&&=&@OOO=<;<&&&$$$##&$$&@@OO@@+@O@O@$$$&=====&==---*XX..   *",
"3###$$$$@@@@@@@@@@##@@@@@O@@$&&&;>>>%$$#OooOO@O@$$##@@@O.....OO=",
"<$#####@@@$@X  XO@O@@O@OOOO@&===<3<<&&&$    XXXX+@@OX. .   XOOO:",
"3$#$###$#@@@oXXXOO@O@@O@OOOO&===<3<<&&%$X   XXXo@@@OX.X.   X+++;",
"3$####$@@$@@oXXXO@O@O@@OOO@O&&==<33<&&&$X X XXXX@@@@XXX..  X+++;",
"<ooo&<>>>>>>>;;>&$$$@@@@;<<<;;;;3422,,,>=&&$OOO@==;=&&&$OOOO@@@-",
"<XXX=33333333333=$&&@O@@<333<:;>33434222;--=OOO@><<>=;=&@OO@@O@-",
"< XX-3333<33333<=&&$@O@@<333:;::33343331;--=@OO#;>>;===&@O@O@O@-",
"<XXX=3333333<333=&$&@@O@<331<:;>33432232;--=OOO#>>>>;==&O@O@+@O>",
"3$$$=-;-;-;;-======*OooO&&&&$$$&13333331$######$$$$#@O@$;;:;;:;7",
"7===**=*=&&*$&&$====O XXO@OO@@@@>3333211@OO+$&$$OoOoX  @33333339",
"7&&=*=*==&=&$$&$=-==O XXOO@OO@@#13331331@OOO$&$$OOOoXX @<3333338",
"8==&*=&=&=&=&&$$====OXXoO@O@@@@#11133311#OO@$$%#OOOoXXX@3333<338",
"6@##+OOO$===%$$&@OO@OOOOO@O@OOOO@@@$====$#$#OOOOXXo@;;;>333<-=-5",
"5@++o XX$==&&%&$oX XO@@O@O@OOoOoXXXX#&%$%%$$XX..XXX@13333<3<&$&4",
"5@O+oXXX$===&$&$O XXOOO@O@@OOoOoXXXX$$&$$$$$XX..X  @3333333<&&&3",
"5@@+oX X#=*=&$$$oXXXO@@@@@@@OoOoXXXX$$$$&&$$XXXXXXX$113133<<&&*3",
"5OOOOOOOOOOOOXOOOOOO=;>;<<<<&$$$@O++OoOO@@@@@@@$>>>>==;->;<-$$&3",
"5OOOO@++X..X.XXXOO@@><<<3533=&$&@@@@X..X++O@$##=355<=&&=---=$&&3",
"5OOOO+++O.XX.XX.O@+@><<33333=&&$@@@+XX.X+++@#$$&355<&&&=-;-=&$$3",
"5OOO++@@OXXXXXXXOO+@:<<<3533=&&&$@#@oXXO+++@#$#&3351=&&=---=$&$3",
"5++O*:;:========OoXX@$#$;311-=-=>1<<>:>;%###@@+%333<&&&==&=$OOO<",
"5@@@=<><>>>>>:::@XXXoOOO;111;--;3333333<%#%#+++$133<&&&&&&&$XoX<",
"5OO@=<><>>::::::@ XXoOOO;11<;--;1333333<%###++O$133<=&&&&&&#oXX<",
"6@@@=<<<>>:::::;@ XXOOOO;<<<;-=-1333113>%%%#@+O$<31<&&&&&&&#XoX<",
"8>>:<<<1>---====@XXoOO+O###$=====;=;*===%#%#@$$$&=&&=&=&$&&@ooX<",
"9<<3<331:-=;==&&@ooo++@+OOOO$=&=*=***&*&#%$%$$$#$##&*==&&$$#XXo<",
"9<<<3313:====*=&@ooo++++OOOO&===*=**&&*&$$$$$$#$$$$$==&&$$%#oXX5",
"0<<<<<11:-;==*&*@ooO+@+@OOO@$=&&****&%&%$$$%##$$###$&&&&$$$#XXo4",
"8@@@&;;;><<<=&%%@@@@&&&&&&&%@+++O@@@O++@&$&$@++++OOOOOOOOOOOOOO5",
"7oXX@===<<<<=&%%##@@&=*==*==+OOOOOOOOOOO$$$$@+++OOOOXXXXXoXOO@@5",
"8ooX$===:<<<=$%%#@@#&=****=&@OOOOOOOOOOO$&$$++++OOOOXoXXooXO+OO6",
"8ooo$=&=;<<<=$&%#@##&&&&&&&=@+@+OO+O+O+@$$$#+++@+@@@OOOOXXXO@@@6",
"9$&&@OoO@&$$&&=&%$$$+oooOOOO;>>:**&&&&&%+++++++#>>>>>><-ooXO$$$7",
"9=&=@ X O@##&&&=&%%%O..XXOXO:111***===*&+OOO+@O$<1<3333;oXo+&&&7",
"9=&&@XXXO###&&=&%$$&O..XXooO:111=***=***OOOO+++$<1<3333;XXX@%%%7",
"9&&=@ XXO###&=&=&$&$O.X.oooO:111=*=***=&OOOO+++%11<1333;oo.@&&%7"
};
