/* XPM */
static char *result[] = {
/* columns rows colors chars-per-pixel */
"64 64 78 1 ",
"  c gray14",
". c #252525",
"X c gray15",
"o c #272727",
"O c #282828",
"+ c #282829",
"@ c #282929",
"# c gray16",
"$ c #29292A",
"% c #2A2A2A",
"& c gray17",
"* c #2C2C2C",
"= c #2C2C2D",
"- c #2D2D2D",
"; c gray18",
": c #2F2F2F",
"> c #2F2F30",
", c gray19",
"< c #303031",
"1 c #303131",
"2 c #313131",
"3 c #323232",
"4 c #343333",
"5 c #353434",
"6 c #363535",
"7 c #373636",
"8 c #383737",
"9 c #393838",
"0 c #3A3939",
"q c #3A393A",
"w c #3B3A3B",
"e c gray23",
"r c #3C3C3C",
"t c gray24",
"y c #3E3E3E",
"u c #3F3F3F",
"i c gray25",
"p c #414141",
"a c #414142",
"s c gray26",
"d c #424243",
"f c #434344",
"g c #434444",
"h c #444444",
"j c #444545",
"k c gray27",
"l c #444447",
"z c #464649",
"x c #46474A",
"c c #47474A",
"v c #47484A",
"b c #47484B",
"n c #48484B",
"m c #48494B",
"M c #494A4C",
"N c #4A4B4D",
"B c #4A4B4E",
"V c #4B4C4E",
"C c #4B4C4F",
"Z c #4E4E4E",
"A c #4C4D50",
"S c #4D4D50",
"D c #4D4E50",
"F c #4E4F51",
"G c #515151",
"H c gray32",
"J c #535353",
"K c gray33",
"L c #545455",
"P c #555555",
"I c #555556",
"U c #565656",
"Y c #565657",
"T c gray34",
"R c #585858",
"E c #595858",
"W c #595958",
"Q c gray35",
/* pixels */
"-------*.      .*------*.      .*------*.          .*------*.   ",
"-------*.      .*------*.      .*------*.          .*------*.   ",
"-------*.      .*------*.      .*------*.          .*------*.   ",
":::::::;oXXX   X,3333332%+@#%%%&23333332&%%%#@@+oooO>11<:::;X...",
"uuuuuuuy7664X  #ZJJJJJJHmxxmGHHHJJJJJJJJHHHGmxvzuyyuxmmciuut;***",
"pppppppi9886X  %HQRRRRRTDCCDTERRRRRRRRRRRRETDCCBdppdBCCBdppu:---",
"pppppppi9886X  %HRRRRRRTACCATRRRRRRRRRRRRRRTSCCBdppdBCCBdppu:---",
"iiiiiiiu8775X  %HRRRTTTIACCAITTYUPPPPPPPPPPKVNBMsppsmMMnpiiy:---",
"99999998:;;-.  %HRRTFAAACCCCAASCkhhhhhhhhhhfdddspppiwqqq9998;---",
"88888887;--*.  %HRRTACCCCCCCCCCNsppppppppppppppppppi98888887;---",
"88888887;--*.  %HRRTACCCCCCCCCCNdppppppppppppppppppi98888887;---",
"88887776;--*.  %HRRTACCCCCCCBNNMfddspppppppppppppppi09998887;---",
"8887:;;;---*.  %HRRTACCCCCCBfsdfMNBMspppppppppppppppiiiu9887;---",
"8887;------*.  %HRRTACCCCCCNsppdNCCBdppppppppppppppppppi9887;---",
"8887;------*.  %HERTSCCCCCCBdppdBCCBdppppppppppppppppppi9887;---",
"7776;------*.  %GTTIVNNNNNBMsppsmMMnpiiiiiiiiiiiiiiiiiiu9887-***",
";;;;-------*.  #mDSVgsdddddspppiwqqq999999999999999999998886o...",
"-----------*.  @xCCNsppppppppppi9888888888888888888888888886X   ",
"-----------*.  @vACBdppppppppppi9888888888888888888888888886X   ",
"***********&.  Olmmciuuuuuuuyyyt7666777777776666777766666664X   ",
"............   .:21<:::::::;OoooXXXo-;;;;;;-oXXo-;;-oXXXXXXX    ",
"               .*----------*.      .*------*.  .*--*.           ",
"               .*----------*.      .*------*.  .*--*.           ",
"%%%%%%%%#@@#%%%&,1111111111>Oooo   .-;;;;;;-X..X-;;-oXXXXXXX....",
"HHHHHHHGmxxmGHHGMbnnnnnnnnmxuyyeo  X57777776-**-677766666665-***",
"RRRRRRETDCCDTEWTDCCCCCCCCCCBdppyo  X68888887;--;788888888887;---",
"RRRRRRRTSCCSTRRTSCCCCCCCCCCBdppyo  X68888887;--;788888888887;---",
"TTTTTTTIVNNVITTIVNNNNNNNMMMnpiitO..o68887776;--;677777778887;---",
"AAAAAASVgssgVSSVgsdddddawqqq9998-**-7887:;;;----;;;;;;;:7887;---",
"CCCCCCCNsppsNCCNsppppppi98888887;--;7887;--------------;7887;---",
"CCCCCCCNdppdNCCBdppppppi98888887;--;7887;--------------;7887;---",
"CCCCBNNMfddfMNBMsppppppi98888887;--;7887:;;;;;;;-------;6776-***",
"CCCBfsdfMNNMfddspppppppi98888887;--;788877777776;-------;;;-X...",
"CCCNsppdNCCNdppppppppppi98888887;--;788888888887;----------*.   ",
"CCCBdppdBCCBdppppppppppi98888887;--;788888888887;----------*.   ",
"ccvziuuicmmxuyyyuuuuuuuy87777776-**-677777777776-**********&.   ",
"@@@$::::<11>OooO;:::::::;;;;;;;-X..X-;;;;;;;;;;-X...........    ",
"   .*------*.  .*--------------*.  .*----------*.               ",
"   .*------*.  .*--------------*.  .*----------*.               ",
"...X-;;;;;;-X..X&**=,11233333332%++%233333333332%+@+ooooooooXXXX",
"***-67777776-**&X..#lmbMHJJJJJJHmxxmHJJJJJJJJJJHmxvzuyyyyyyt7666",
"---;78888887;--*.  @vACDTRRRRRRTDCCDTRRRRRRRRRRTDCCBdppppppi9888",
"---;78888887;--*.  @cCCSTRRRRRRTSCCSTRRRRRRRRRRTSCCBdppppppi9888",
"***-78887776;--*.  @cCCALPPPPPPKVNNVKPPPPPPPPPPKVNBMpiiiiiiu8777",
"...o6887:;;;---*.  @cCCBjhhhhhhfddddfhhhhhhhhhhfdddp09999998:;;;",
"   X6887;------*.  @cCCNsppppppppppppppppppppppppppi98888887;---",
"   X6887;------*.  @vCCBdppppppppppppppppppppppppppi98888887;---",
"   X5776;------*.  +zBBMspppppppppppiiiiiiiiiiiiiiiu98887776;---",
"   .-;;;-------*.  ouddspppppppppppi09999999999999998887:;;;----",
"   .*----------*.  oyppppppppppppppi98888888888888888887;-------",
"   .*----------*.  oyppppppppppppppi98888888888888888887;-------",
"   .&**********&X..Oruuuuuuuyyyyuuuy87776666666677777776-*******",
"    ...........X&***:::::::;OooO;:::;;;-oXXXXXXo-;;;;;;-X.......",
"               .*----------*.  .*------*.      .*------*.       ",
"               .*----------*.  .*------*.      .*------*.       ",
"XXXXoooooooooooO;::::::::::;X..X-;;;;;;-oXXX...X&***:::;OoooXXXX",
"6667tyyyyyyyyyyyuuuuuuuuuuut;**-677777776665-**&X..Oruuuyyyt7666",
"8889ippppppppppppppppppppppu:--;788888888887;--*.  oyppppppi9888",
"8889ippppppppppppppppppppppu:--;788888888887;--*.  oyppppppi9888",
"9990ipppppppiiiiiiiiiiiiiiiy:--;788888887776;--*.  oypppiiiu9888",
"iiiipppppppi0999999999999998;--;78888887:;;;---*.  oyppi09998888",
"pppppppppppi9888888888888887;--;78888887;------*.  oyppi98888888",
"pppppppppppi9888888888888887;--;78888887;------*.  oyppi98888888",
"pppppppppppi9888888888888887;--;78888887;------*.  oyppi98888888"
};
