/* XPM */
static char *result[] = {
/* columns rows colors chars-per-pixel */
"64 64 246 2 ",
"   c #020306",
".  c #060604",
"X  c #070704",
"o  c #060506",
"O  c #070606",
"+  c #080605",
"@  c #0B0804",
"#  c #0B0807",
"$  c #0D0906",
"%  c #040309",
"&  c #060509",
"*  c #07060B",
"=  c #01020D",
"-  c #02030E",
";  c #02020F",
":  c #03040F",
">  c #07050C",
",  c #06060D",
"<  c #04040E",
"1  c #06050F",
"2  c #06060E",
"3  c #07070F",
"4  c #0A0708",
"5  c #08060B",
"6  c #09070B",
"7  c #0B070C",
"8  c #09060F",
"9  c #0D0908",
"0  c #0C080A",
"q  c #0D090A",
"w  c #0F0B0B",
"e  c #0B080D",
"r  c #0A080E",
"t  c #0B080F",
"y  c #0B090F",
"u  c #0C080E",
"i  c #0C090E",
"p  c #0F0B0F",
"a  c #100B08",
"s  c #120D0C",
"d  c #120D0E",
"f  c #120D0F",
"g  c #140E0F",
"h  c #17110D",
"j  c #010312",
"k  c #050510",
"l  c #0A0712",
"z  c #090811",
"x  c #0B0913",
"c  c #0C0912",
"v  c #0B0814",
"b  c #0C0914",
"n  c #0D0A16",
"m  c #0F0C15",
"M  c #150E10",
"N  c #25190F",
"B  c #332110",
"V  c #342211",
"C  c #312616",
"Z  c #3E2715",
"A  c #3A2A16",
"S  c #3B2C16",
"D  c #3F2E16",
"F  c #423117",
"G  c #473517",
"H  c #4E311A",
"J  c #4D3A18",
"K  c #4C391B",
"L  c #4F3A1C",
"P  c #503716",
"I  c #52371B",
"U  c #533A18",
"Y  c #52391B",
"T  c #533B1B",
"R  c #56391B",
"E  c #513C1A",
"W  c #57381E",
"Q  c #543A1F",
"!  c #513C1C",
"~  c #503D1E",
"^  c #513D1E",
"/  c #543E1E",
"(  c #553F1E",
")  c #5B3D1C",
"_  c #583D1E",
"`  c #5C3D1D",
"'  c #5C3D1E",
"]  c #643E1E",
"[  c #563B24",
"{  c #5B3F20",
"}  c #5C3E25",
"|  c #55411F",
" . c #5F401E",
".. c #5E401F",
"X. c #5D451F",
"o. c #5F491E",
"O. c #60401F",
"+. c #6D481C",
"@. c #72481E",
"#. c #554021",
"$. c #554121",
"%. c #554024",
"&. c #574126",
"*. c #574127",
"=. c #594223",
"-. c #5D4523",
";. c #5F4723",
":. c #5C4424",
">. c #5E4424",
",. c #5E4821",
"<. c #5D4A22",
"1. c #624721",
"2. c #624722",
"3. c #664620",
"4. c #624327",
"5. c #6B4420",
"6. c #6C4420",
"7. c #6C4620",
"8. c #6E4725",
"9. c #614820",
"0. c #664822",
"q. c #674B23",
"w. c #674E23",
"e. c #634924",
"r. c #624925",
"t. c #634A24",
"y. c #674B26",
"u. c #634D24",
"i. c #694A22",
"p. c #6E4A21",
"a. c #684C22",
"s. c #6A4D22",
"d. c #6B4D22",
"f. c #694E23",
"g. c #694F23",
"h. c #6C4825",
"j. c #694F25",
"k. c #684C26",
"l. c #6B4D26",
"z. c #6B4C27",
"x. c #684F26",
"c. c #6D4D25",
"v. c #624A29",
"b. c #6C4C2A",
"n. c #734D21",
"m. c #704F27",
"M. c #655027",
"N. c #665126",
"B. c #6B5023",
"V. c #6E5122",
"C. c #6C5223",
"Z. c #6F5423",
"A. c #6C5324",
"S. c #6C5325",
"D. c #6F5226",
"F. c #6F5526",
"G. c #6A5128",
"H. c #685329",
"J. c #6D5029",
"K. c #6E5229",
"L. c #6D5428",
"P. c #6E5428",
"I. c #6F5528",
"U. c #715026",
"Y. c #705326",
"T. c #725625",
"R. c #705526",
"E. c #715526",
"W. c #725426",
"Q. c #715626",
"!. c #725626",
"~. c #755625",
"^. c #745726",
"/. c #725924",
"(. c #735827",
"). c #745827",
"_. c #755B27",
"`. c #775A26",
"'. c #775C27",
"]. c #7D5C27",
"[. c #7D5E26",
"{. c #705029",
"}. c #715328",
"|. c #715329",
" X c #73522A",
".X c #745328",
"XX c #775328",
"oX c #705428",
"OX c #725428",
"+X c #74572A",
"@X c #75572A",
"#X c #74572B",
"$X c #785528",
"%X c #7A512E",
"&X c #72582B",
"*X c #745828",
"=X c #755928",
"-X c #745A28",
";X c #755A28",
":X c #765A29",
">X c #77592A",
",X c #775A2A",
"<X c #775C2A",
"1X c #77592E",
"2X c #785A29",
"3X c #7B592B",
"4X c #7A5E2A",
"5X c #7B5F2A",
"6X c #7C5E28",
"7X c #7D5E28",
"8X c #7B5E2E",
"9X c #7D602A",
"0X c #7C612A",
"qX c #7C602B",
"wX c #7C602C",
"eX c #7C612C",
"rX c #7F632D",
"tX c #7D612E",
"yX c #805E29",
"uX c #825D2B",
"iX c #875E3A",
"pX c #81612B",
"aX c #81622A",
"sX c #82632A",
"dX c #81642B",
"fX c #84642A",
"gX c #84642B",
"hX c #81622E",
"jX c #82622E",
"kX c #84622C",
"lX c #87622C",
"zX c #81642C",
"xX c #83652E",
"cX c #85682D",
"vX c #86692F",
"bX c #89692F",
"nX c #8A6C2E",
"mX c #8A6C2F",
"MX c #826230",
"NX c #8B6931",
"BX c #896C33",
"VX c #8B6C33",
"CX c #8F6D38",
"ZX c #907131",
"AX c #907134",
"SX c #947038",
/* pixels */
"( ( ( ( Y.Y.Y.Y.D.D.D.D.K.K.K.K.b.b.b.b.4.4.4.4.J.J.J.J.f.f.f.f.I I I I y.y.y.y.|.|.|.|.0.0.0.0.R R R R 5X5X5X5Xq.q.q.q.Y Y Y Y ",
"( ( ( ( Y.Y.Y.Y.D.D.D.D.K.K.K.K.b.b.b.b.4.4.4.4.J.J.J.J.f.f.f.f.I I I I y.y.y.y.|.|.|.|.0.0.0.0.R R R R 5X5X5X5Xq.q.q.q.Y Y Y Y ",
"( ( ( ( Y.Y.Y.Y.D.D.D.D.K.K.K.K.b.b.b.b.4.4.4.4.J.J.J.J.f.f.f.f.I I I I y.y.y.y.|.|.|.|.0.0.0.0.R R R R 5X5X5X5Xq.q.q.q.Y Y Y Y ",
"( ( ( ( Y.Y.Y.Y.D.D.D.D.K.K.K.K.b.b.b.b.4.4.4.4.J.J.J.J.f.f.f.f.I I I I y.y.y.y.|.|.|.|.0.0.0.0.R R R R 5X5X5X5Xq.q.q.q.Y Y Y Y ",
"F.F.F.F.N.N.N.N.<.<.<.<.M.M.M.M.v.v.v.v.>.>.>.>.L.L.L.L.(.(.(.(.C.C.C.C.r.r.r.r.} } } } Z Z Z Z P P P P H H H H ^ ^ ^ ^ ........",
"F.F.F.F.N.N.N.N.<.<.<.<.M.M.M.M.v.v.v.v.>.>.>.>.L.L.L.L.(.(.(.(.C.C.C.C.r.r.r.r.} } } } Z Z Z Z P P P P H H H H ^ ^ ^ ^ ........",
"F.F.F.F.N.N.N.N.<.<.<.<.M.M.M.M.v.v.v.v.>.>.>.>.L.L.L.L.(.(.(.(.C.C.C.C.r.r.r.r.} } } } Z Z Z Z P P P P H H H H ^ ^ ^ ^ ........",
"F.F.F.F.N.N.N.N.<.<.<.<.M.M.M.M.v.v.v.v.>.>.>.>.L.L.L.L.(.(.(.(.C.C.C.C.r.r.r.r.} } } } Z Z Z Z P P P P H H H H ^ ^ ^ ^ ........",
"S.S.S.S.H.H.H.H.j j j j k k k k 8 8 8 8 7 7 7 7 o.o.o.o._._._._.V.V.V.V.G G G G @ @ @ @ z z z z 2 2 2 2 - - - - G.G.G.G.' ' ' ' ",
"S.S.S.S.H.H.H.H.j j j j k k k k 8 8 8 8 7 7 7 7 o.o.o.o._._._._.V.V.V.V.G G G G @ @ @ @ z z z z 2 2 2 2 - - - - G.G.G.G.' ' ' ' ",
"S.S.S.S.H.H.H.H.j j j j k k k k 8 8 8 8 7 7 7 7 o.o.o.o._._._._.V.V.V.V.G G G G @ @ @ @ z z z z 2 2 2 2 - - - - G.G.G.G.' ' ' ' ",
"S.S.S.S.H.H.H.H.j j j j k k k k 8 8 8 8 7 7 7 7 o.o.o.o._._._._.V.V.V.V.G G G G @ @ @ @ z z z z 2 2 2 2 - - - - G.G.G.G.' ' ' ' ",
"A.A.A.A.u.u.u.u.; ; ; ; > > > > % % % % g g g g /./././.0X0X0X0XZ.Z.Z.Z.J J J J a a a a w w w w s s s s : : : : BXBXBXBXi.i.i.i.",
"A.A.A.A.u.u.u.u.; ; ; ; > > > > % % % % g g g g /./././.0X0X0X0XZ.Z.Z.Z.J J J J a a a a w w w w s s s s : : : : BXBXBXBXi.i.i.i.",
"A.A.A.A.u.u.u.u.; ; ; ; > > > > % % % % g g g g /./././.0X0X0X0XZ.Z.Z.Z.J J J J a a a a w w w w s s s s : : : : BXBXBXBXi.i.i.i.",
"A.A.A.A.u.u.u.u.; ; ; ; > > > > % % % % g g g g /./././.0X0X0X0XZ.Z.Z.Z.J J J J a a a a w w w w s s s s : : : : BXBXBXBXi.i.i.i.",
"k.k.k.k.*.*.*.*.= = = = * * * * 6 6 6 6 M M M M nXnXnXnX4X4X4X4Xj.j.j.j.,.,.,.,.9 9 9 9 w w w w f f f f < < < < CXCXCXCXm.m.m.m.",
"k.k.k.k.*.*.*.*.= = = = * * * * 6 6 6 6 M M M M nXnXnXnX4X4X4X4Xj.j.j.j.,.,.,.,.9 9 9 9 w w w w f f f f < < < < CXCXCXCXm.m.m.m.",
"k.k.k.k.*.*.*.*.= = = = * * * * 6 6 6 6 M M M M nXnXnXnX4X4X4X4Xj.j.j.j.,.,.,.,.9 9 9 9 w w w w f f f f < < < < CXCXCXCXm.m.m.m.",
"k.k.k.k.*.*.*.*.= = = = * * * * 6 6 6 6 M M M M nXnXnXnX4X4X4X4Xj.j.j.j.,.,.,.,.9 9 9 9 w w w w f f f f < < < < CXCXCXCXm.m.m.m.",
"1.1.1.1.N N N N h h h h , , , , m m m m l l l l ZXZXZXZX=X=X=X=Xt.t.t.t.%.%.%.%.+ + + + # # # # # # # #         jXjXjXjXh.h.h.h.",
"1.1.1.1.N N N N h h h h , , , , m m m m l l l l ZXZXZXZX=X=X=X=Xt.t.t.t.%.%.%.%.+ + + + # # # # # # # #         jXjXjXjXh.h.h.h.",
"1.1.1.1.N N N N h h h h , , , , m m m m l l l l ZXZXZXZX=X=X=X=Xt.t.t.t.%.%.%.%.+ + + + # # # # # # # #         jXjXjXjXh.h.h.h.",
"1.1.1.1.N N N N h h h h , , , , m m m m l l l l ZXZXZXZX=X=X=X=Xt.t.t.t.%.%.%.%.+ + + + # # # # # # # #         jXjXjXjXh.h.h.h.",
"e.e.e.e.$.$.$.$.tXtXtXtXvXvXvXvXeXeXeXeXmXmXmXmXcXcXcXcXQ.Q.Q.Q.;.;.;.;.&.&.&.&.<X<X<X<XwXwXwXwXqXqXqXqXrXrXrXrXVXVXVXVXz.z.z.z.",
"e.e.e.e.$.$.$.$.tXtXtXtXvXvXvXvXeXeXeXeXmXmXmXmXcXcXcXcXQ.Q.Q.Q.;.;.;.;.&.&.&.&.<X<X<X<XwXwXwXwXqXqXqXqXrXrXrXrXVXVXVXVXz.z.z.z.",
"e.e.e.e.$.$.$.$.tXtXtXtXvXvXvXvXeXeXeXeXmXmXmXmXcXcXcXcXQ.Q.Q.Q.;.;.;.;.&.&.&.&.<X<X<X<XwXwXwXwXqXqXqXqXrXrXrXrXVXVXVXVXz.z.z.z.",
"e.e.e.e.$.$.$.$.tXtXtXtXvXvXvXvXeXeXeXeXmXmXmXmXcXcXcXcXQ.Q.Q.Q.;.;.;.;.&.&.&.&.<X<X<X<XwXwXwXwXqXqXqXqXrXrXrXrXVXVXVXVXz.z.z.z.",
"9.9.9.9.:X:X:X:X;X;X;X;XE.E.E.E.P.P.P.P.w.w.w.w.g.g.g.g.F.F.F.F.R.R.R.R.&X&X&X&X}.}.}.}.OXOXOXOX2X2X2X2X^.^.^.^.W.W.W.W.a.a.a.a.",
"9.9.9.9.:X:X:X:X;X;X;X;XE.E.E.E.P.P.P.P.w.w.w.w.g.g.g.g.F.F.F.F.R.R.R.R.&X&X&X&X}.}.}.}.OXOXOXOX2X2X2X2X^.^.^.^.W.W.W.W.a.a.a.a.",
"9.9.9.9.:X:X:X:X;X;X;X;XE.E.E.E.P.P.P.P.w.w.w.w.g.g.g.g.F.F.F.F.R.R.R.R.&X&X&X&X}.}.}.}.OXOXOXOX2X2X2X2X^.^.^.^.W.W.W.W.a.a.a.a.",
"9.9.9.9.:X:X:X:X;X;X;X;XE.E.E.E.P.P.P.P.w.w.w.w.g.g.g.g.F.F.F.F.R.R.R.R.&X&X&X&X}.}.}.}.OXOXOXOX2X2X2X2X^.^.^.^.W.W.W.W.a.a.a.a.",
"T T T T '.'.'.'.dXdXdXdXpXpXpXpXhXhXhXhXoXoXoXoXI.I.I.I.-X-X-X-X).).).).8X8X8X8X1X1X1X1X@X@X@X@X*X*X*X*X!.!.!.!.B.B.B.B.s.s.s.s.",
"T T T T '.'.'.'.dXdXdXdXpXpXpXpXhXhXhXhXoXoXoXoXI.I.I.I.-X-X-X-X).).).).8X8X8X8X1X1X1X1X@X@X@X@X*X*X*X*X!.!.!.!.B.B.B.B.s.s.s.s.",
"T T T T '.'.'.'.dXdXdXdXpXpXpXpXhXhXhXhXoXoXoXoXI.I.I.I.-X-X-X-X).).).).8X8X8X8X1X1X1X1X@X@X@X@X*X*X*X*X!.!.!.!.B.B.B.B.s.s.s.s.",
"T T T T '.'.'.'.dXdXdXdXpXpXpXpXhXhXhXhXoXoXoXoXI.I.I.I.-X-X-X-X).).).).8X8X8X8X1X1X1X1X@X@X@X@X*X*X*X*X!.!.!.!.B.B.B.B.s.s.s.s.",
"{ { { { / / / / ~ ~ ~ ~ E E E E ! ! ! ! K K K K | | | | ,X,X,X,X>X>X>X>X#.#.#.#.=.=.=.=.-.-.-.-.X.X.X.X.L L L L 2.2.2.2.{.{.{.{.",
"{ { { { / / / / ~ ~ ~ ~ E E E E ! ! ! ! K K K K | | | | ,X,X,X,X>X>X>X>X#.#.#.#.=.=.=.=.-.-.-.-.X.X.X.X.L L L L 2.2.2.2.{.{.{.{.",
"{ { { { / / / / ~ ~ ~ ~ E E E E ! ! ! ! K K K K | | | | ,X,X,X,X>X>X>X>X#.#.#.#.=.=.=.=.-.-.-.-.X.X.X.X.L L L L 2.2.2.2.{.{.{.{.",
"{ { { { / / / / ~ ~ ~ ~ E E E E ! ! ! ! K K K K | | | | ,X,X,X,X>X>X>X>X#.#.#.#.=.=.=.=.-.-.-.-.X.X.X.X.L L L L 2.2.2.2.{.{.{.{.",
"Q Q Q Q [ [ [ [ 1 1 1 1 c c c c c c c c X X X X x.x.x.x.+X+X+X+X#X#X#X#XA A A A o o o o 4 4 4 4 5 5 5 5 O O O O iXiXiXiX8.8.8.8.",
"Q Q Q Q [ [ [ [ 1 1 1 1 c c c c c c c c X X X X x.x.x.x.+X+X+X+X#X#X#X#XA A A A o o o o 4 4 4 4 5 5 5 5 O O O O iXiXiXiX8.8.8.8.",
"Q Q Q Q [ [ [ [ 1 1 1 1 c c c c c c c c X X X X x.x.x.x.+X+X+X+X#X#X#X#XA A A A o o o o 4 4 4 4 5 5 5 5 O O O O iXiXiXiX8.8.8.8.",
"Q Q Q Q [ [ [ [ 1 1 1 1 c c c c c c c c X X X X x.x.x.x.+X+X+X+X#X#X#X#XA A A A o o o o 4 4 4 4 5 5 5 5 O O O O iXiXiXiX8.8.8.8.",
"` ` ` ` W W W W v v v v d d d d d d d d $ $ $ $ 9X9X9X9X3X3X3X3X$X$X$X$XB B B B e e e e p p p p y y y y u u u u lXlXlXlX6.6.6.6.",
"` ` ` ` W W W W v v v v d d d d d d d d $ $ $ $ 9X9X9X9X3X3X3X3X$X$X$X$XB B B B e e e e p p p p y y y y u u u u lXlXlXlX6.6.6.6.",
"` ` ` ` W W W W v v v v d d d d d d d d $ $ $ $ 9X9X9X9X3X3X3X3X$X$X$X$XB B B B e e e e p p p p y y y y u u u u lXlXlXlX6.6.6.6.",
"` ` ` ` W W W W v v v v d d d d d d d d $ $ $ $ 9X9X9X9X3X3X3X3X$X$X$X$XB B B B e e e e p p p p y y y y u u u u lXlXlXlX6.6.6.6.",
") ) ) ) U U U U n n n n d d d d d d d d $ $ $ $ xXxXxXxXuXuXuXuX].].].].V V V V r r r r t t t t p p p p i i i i gXgXgXgXn.n.n.n.",
") ) ) ) U U U U n n n n d d d d d d d d $ $ $ $ xXxXxXxXuXuXuXuX].].].].V V V V r r r r t t t t p p p p i i i i gXgXgXgXn.n.n.n.",
") ) ) ) U U U U n n n n d d d d d d d d $ $ $ $ xXxXxXxXuXuXuXuX].].].].V V V V r r r r t t t t p p p p i i i i gXgXgXgXn.n.n.n.",
") ) ) ) U U U U n n n n d d d d d d d d $ $ $ $ xXxXxXxXuXuXuXuX].].].].V V V V r r r r t t t t p p p p i i i i gXgXgXgXn.n.n.n.",
" . . . .S S S S & & & & 0 0 0 0 q q q q . . . . zXzXzXzXsXsXsXsX[.[.[.[.D D D D 3 3 3 3 x x x x b b b b C C C C yXyXyXyXp.p.p.p.",
" . . . .S S S S & & & & 0 0 0 0 q q q q . . . . zXzXzXzXsXsXsXsX[.[.[.[.D D D D 3 3 3 3 x x x x b b b b C C C C yXyXyXyXp.p.p.p.",
" . . . .S S S S & & & & 0 0 0 0 q q q q . . . . zXzXzXzXsXsXsXsX[.[.[.[.D D D D 3 3 3 3 x x x x b b b b C C C C yXyXyXyXp.p.p.p.",
" . . . .S S S S & & & & 0 0 0 0 q q q q . . . . zXzXzXzXsXsXsXsX[.[.[.[.D D D D 3 3 3 3 x x x x b b b b C C C C yXyXyXyXp.p.p.p.",
"O.O.O.O.F F F F `.`.`.`.AXAXAXAXSXSXSXSXNXNXNXNXbXbXbXbX7X7X7X7XaXaXaXaX:.:.:.:.MXMXMXMXkXkXkXkXfXfXfXfX6X6X6X6XT.T.T.T.U.U.U.U.",
"O.O.O.O.F F F F `.`.`.`.AXAXAXAXSXSXSXSXNXNXNXNXbXbXbXbX7X7X7X7XaXaXaXaX:.:.:.:.MXMXMXMXkXkXkXkXfXfXfXfX6X6X6X6XT.T.T.T.U.U.U.U.",
"O.O.O.O.F F F F `.`.`.`.AXAXAXAXSXSXSXSXNXNXNXNXbXbXbXbX7X7X7X7XaXaXaXaX:.:.:.:.MXMXMXMXkXkXkXkXfXfXfXfX6X6X6X6XT.T.T.T.U.U.U.U.",
"O.O.O.O.F F F F `.`.`.`.AXAXAXAXSXSXSXSXNXNXNXNXbXbXbXbX7X7X7X7XaXaXaXaX:.:.:.:.MXMXMXMXkXkXkXkXfXfXfXfX6X6X6X6XT.T.T.T.U.U.U.U.",
"_ _ _ _ l.l.l.l.] ] ] ] ~.~.~.~.XXXXXXXXh.h.h.h.c.c.c.c.3.3.3.3.d.d.d.d. X X X X%X%X%X%X@.@.@.@.+.+.+.+..X.X.X.X7.7.7.7.5.5.5.5.",
"_ _ _ _ l.l.l.l.] ] ] ] ~.~.~.~.XXXXXXXXh.h.h.h.c.c.c.c.3.3.3.3.d.d.d.d. X X X X%X%X%X%X@.@.@.@.+.+.+.+..X.X.X.X7.7.7.7.5.5.5.5.",
"_ _ _ _ l.l.l.l.] ] ] ] ~.~.~.~.XXXXXXXXh.h.h.h.c.c.c.c.3.3.3.3.d.d.d.d. X X X X%X%X%X%X@.@.@.@.+.+.+.+..X.X.X.X7.7.7.7.5.5.5.5.",
"_ _ _ _ l.l.l.l.] ] ] ] ~.~.~.~.XXXXXXXXh.h.h.h.c.c.c.c.3.3.3.3.d.d.d.d. X X X X%X%X%X%X@.@.@.@.+.+.+.+..X.X.X.X7.7.7.7.5.5.5.5."
};
