/* XPM */
static char *f28237cd37fc4d78f54f9fed79d982f5AJKGN5hZXWXAuJN6[] = {
/* columns rows colors chars-per-pixel */
"64 64 192 2 ",
"   c #030F0C",
".  c #03120E",
"X  c #08120F",
"o  c #041611",
"O  c #061914",
"+  c #081A16",
"@  c #081512",
"#  c #1C3731",
"$  c #1E3B34",
"%  c #1F3F38",
"&  c #17332E",
"*  c #213D36",
"=  c #223F38",
"-  c #23423A",
";  c #2E463B",
":  c #2F483D",
">  c #31493E",
",  c #364437",
"<  c #444C3A",
"1  c #4F533C",
"2  c #54553C",
"3  c #57593F",
"4  c #595A3F",
"5  c #1E3E43",
"6  c #1F4246",
"7  c #214346",
"8  c #2A4B42",
"9  c #234649",
"0  c #264A4B",
"q  c #2A4C4B",
"w  c #334D42",
"e  c #2D544B",
"r  c #2F584E",
"t  c #365044",
"y  c #385246",
"u  c #30534F",
"i  c #305A4F",
"p  c #2E5653",
"a  c #2F5955",
"s  c #305753",
"d  c #325A54",
"f  c #3A5C54",
"g  c #345E59",
"h  c #3A5F59",
"j  c #346156",
"k  c #35635A",
"l  c #3A665E",
"z  c #37685D",
"x  c #3B695F",
"c  c #3F6056",
"v  c #3C6B61",
"b  c #3A6760",
"n  c #3F7166",
"m  c #545B42",
"M  c #595C41",
"N  c #525D4A",
"B  c #5E6044",
"V  c #54614E",
"C  c #436459",
"Z  c #406A5F",
"A  c #4B6352",
"S  c #5B6553",
"D  c #616447",
"F  c #626649",
"G  c #65694B",
"H  c #6B6E4F",
"J  c #6A6F50",
"K  c #6E7453",
"L  c #717652",
"P  c #737954",
"I  c #757A5E",
"U  c #797F58",
"Y  c #72745A",
"T  c #416F63",
"R  c #427367",
"E  c #497465",
"W  c #447569",
"Q  c #497768",
"!  c #477A6C",
"~  c #4A7B6D",
"^  c #767B62",
"/  c #7B7E64",
"(  c #4D816F",
")  c #54826E",
"_  c #4E8574",
"`  c #4F8876",
"'  c #538673",
"]  c #528976",
"[  c #5A8A75",
"{  c #548C78",
"}  c #5B8D78",
"|  c #598774",
" . c #58907A",
".. c #7C8265",
"X. c #7E8569",
"o. c #628E76",
"O. c #8A875B",
"+. c #928D5D",
"@. c #818563",
"#. c #81866A",
"$. c #878967",
"%. c #928F61",
"&. c #8F956C",
"*. c #939265",
"=. c #9A9665",
"-. c #9B9865",
";. c #9D9A6A",
":. c #98996B",
">. c #879171",
",. c #889272",
"<. c #8C9376",
"1. c #A19A67",
"2. c #A29E6B",
"3. c #83A97F",
"4. c #A4A16E",
"5. c #AAA46F",
"6. c #A5A572",
"7. c #ABA571",
"8. c #ADAA73",
"9. c #ADAC7A",
"0. c #A6A87A",
"q. c #B2AE76",
"w. c #B4AF79",
"e. c #AEB17C",
"r. c #B2B077",
"t. c #B6B37A",
"y. c #BAB57D",
"u. c #BBB97F",
"i. c #83AD84",
"p. c #9FA280",
"a. c #84B087",
"s. c #8CB285",
"d. c #86B389",
"f. c #89B589",
"g. c #8DBA8C",
"h. c #91BE8F",
"j. c #93BD8C",
"k. c #91B687",
"l. c #91BF90",
"z. c #A5A883",
"x. c #BBB680",
"c. c #BDBB82",
"v. c #B6B88A",
"b. c #BABE91",
"n. c #C0BE83",
"m. c #C3BF8A",
"M. c #C1BF91",
"N. c #95C291",
"B. c #96C391",
"V. c #99C693",
"C. c #99C693",
"Z. c #9DCA96",
"A. c #9CCA95",
"S. c #BFC186",
"D. c #C4C58B",
"F. c #C8C48F",
"G. c #C1C387",
"H. c #C5C395",
"J. c #C9C691",
"K. c #C4C59C",
"L. c #CCCC9C",
"P. c #C8C799",
"I. c #D1CE9C",
"U. c #CFD09F",
"Y. c #D5D29E",
"T. c #CCD0A0",
"R. c #D5D4A2",
"E. c #D9D7A5",
"W. c #DDDAA6",
"Q. c #D5D6A9",
"!. c #D6DBA8",
"~. c #DCDDAB",
"^. c #D4D8A5",
"/. c #E1DFAA",
"(. c #E0DFB0",
"). c #DEE1AB",
"_. c #DFE0B2",
"`. c #E3E2AC",
"'. c #E4E4B1",
"]. c #E9E6B1",
"[. c #E6EAB3",
"{. c #EBECB4",
"}. c #EDEDB9",
"|. c #F1EFBD",
" X c #EEF0B7",
".X c #EEF3BA",
"XX c #F1F3BC",
"oX c #F4F9BF",
"OX c #F6F6C2",
"+X c #F5FAC0",
"@X c #FAFBC6",
"#X c #FEFECA",
/* pixels */
"R R R R R R R R R R R R R R R R W R R W R R W R R R R R R R R R R R R R R R R R R R R R R R R R R R R W R W R R v b b l l l b l ",
"R R R R R R R R R R R R R R R R R R R R R R n W R R n W R R R R R R R R R R R R R R R R R R R R R R R R R R R R v b l b b l b l ",
"R R R R R n R R R R R R R R R W R R W W R n n n W W W W R R R R R R R R R R W W R R R E R R R R W W W R R R R R b b l l l l l x ",
"R R R R ! W ! R R R n R n R n n n n n R Q Q ! Q n T v v n R R R R R R R R v n n Q W Q Q R R n R n n n n v R R R v v v T b b l b ",
"R R R W d.B.l.l.d 6 0 0 0 0 0 0 0 0 9 0 a.N.N.g.m M B M e 6 0 0 p d a a < B F 4 s.j.j.l.s 9 0 0 0 0 9 0 9 0 9 0 i.B.j.j.R k b b ",
"R R R W l.Z.C.C.d 6 9 7 9 6 7 7 9 9 7 9 f.A.V.V.L -.6.%.e 6 7 7 p a p e F -.7.*.j.Z.Z.l.u 5 9 9 9 5 9 9 9 9 6 9 d.Z.C.V.E l x l ",
"R W R W g.Z.C.C.d 7 9 9 9 9 9 9 9 9 6 8 f.Z.V.N...5.n.4.8 7 9 7 p d a p J e.S.4.j.Z.Z.l.s 7 9 9 9 9 9 9 9 9 9 9 d.Z.C.V.R k b x ",
"R R R W g.B.N.N.i 7 9 9 7 7 6 7 6 7 6 7 d.A.N.N.L -.8.*.q 6 7 7 q p p e G 2.8.=.k.Z.l.l.u 5 7 5 5 9 6 6 9 9 9 9 a.C.B.l.E l b l ",
"R R R R g g g g 9 7 7 7 , 2 4 4 2 2 2 1 )  .} } Q E Q E m 4 B B ^ / / ^ ) ' | ' ~ ~ ~ Q < m M m M 4 M 1 u p p p k c h k b b l b ",
"R R R R 0 6 9 6 7 7 7 5 4 +.=.=.-.-.1.O.) ` _ _ W n R n G -.4.6.Q.(.'.K.] ` ` ` R R R T D =.1.1.;.-.;.O.d p a a p p p p b b l l ",
"W R R n e 0 q q 7 7 7 5 D 1.8.8.8.5.q.*.) { { ` W n R n K r.c.u.OX#X#X_.{ ` ` _ ! R E n G 7.w.9.r.r.q.-.f p a a s s a a k l b l ",
"R R R n q 0 0 0 5 5 5 5 G 5.q.8.q.8.q.:.) ( ( ( W R W n J ;.6.6.Q._._.S.] _ _ _ R v R x J 7.x.w.r.r.r.-.f e p e p a s a b l b x ",
"R R R n 0 9 9 9 , 2 2 4 8.`.`.].[.[.[.!.z.#.#.^ ) ` _ _ R E E Q n v v b z z z z N Y ^ / v.{.OXOX`.W.~.L...F G B s a s p k b b b ",
"R W R R 0 7 9 6 2 +.-.-.W.{.{.{..X.X.X.X}.(.'.K.[ ` ' ` W R n R b g k g k k k j I H.I.U.}.OX@X@X`.`.`./.c.e.r.:.f p s s b b c x ",
"R W R R q 7 9 - B 1.5.5.`. X{.{..X.X.XOX@X#X#X'.} ` ` ` W R R W b k b z z g z g #.W.{.{.@X@X@X#X]./.`./.D.G.D.9.f p s p b b b b ",
"R R R n 0 7 9 - B 1.5.5.`. X{.{.).!.!.Q._._.'.K.| ( _ _ R R R R b g g g j z z a ^ H.L.L.(._.(.(.W./.`./.D.S.G.0.f p s p l b b b ",
"R R R R 0 6 0 6 D 5.w.w.|.OXOX].A 8 y w y y w w ; : - : - - - - 8 : - : - ; ; - - ; , , : ; ; , z.'.{.{.S.y.u.4.j p s p l l l b ",
"R W R n 0 0 9 6 F 5.w.w.|.@X@X(.t * - = % % % % - - - - % - * = % - - - - - % - # # & # # # # & #.`.{.{.S.t.u.4.f p d s l l l l ",
"R W n R 0 6 0 6 F 7.w.w.|.@X@X~.y * 7 - - - 7 - - - - - - - - - - - - - - - - - $ - - $ $ $ $ # @.~.{.{.c.t.x.4.f p a p l x b l ",
"R R R R 0 6 9 6 D 7.q.q.|.OX@X~.y % - - - = - - - - - - % % $ $ - % % % - - - - # # # # # - - # @.).{.`.S.t.c.4.f p p a l l b l ",
"R R R R 0 6 0 6 D 2.q.8.W.].].P., # * # X                       o .   .                 e j j i #.W.].].n.y.u.4.f p s p k b l l ",
"R R R R q 0 9 6 D 2.q.q.W././.P.> # * * X           .         . . .                     i z z j #.W.].(.c.y.x.4.f p s d b b l b ",
"R R R n 0 6 6 6 D 2.q.8.W./.`.H.> # # # .     . . . . . . . . . . . . . . . .   . .     r k k j #.W.].].n.y.u.4.f p s p l l l b ",
"R R R R q 0 0 0 D 2.8.q.W./.`.H.> # * # .   .   . . . . . . o o . . . .   . . .     .   i k k j #.W.].].n.t.x.4.h a d d l b l l ",
"! ~ ! ~ a.g.g.f.L 2.r.q.Y././.M.> $ - * X . . . o o o o O O O O o O O O O O O O o o o o e j i i @.I././.x.w.x.;.s.g.j.g.R x b T ",
"! ! ! _ l.A.A.V.P 2.r.r.Y.W.W.M.> = = = .   . . o o O o O O O O O O O O O O O O O o o o e j j i / J././.x.w.w.;.j.Z.A.C.Q b T b ",
"~ ! ! ~ l.A.C.N.P 4.r.q.Y.W.W.b.> $ - * . . . . o o o o O O O O O O O O O O O O o o o o e i j i / I./.E.x.w.w.1.j.A.V.V.Q v T b ",
"! ! ! ! f.N.N.j.P 2.r.q.Y.W./.D.w $ = = . . . . o o O o O O O O O O O O O O O O O o o o e i i i @.I././.x.w.x.1.k.N.h.h.Q b v v ",
"W W W R b l l k G 2.8.q./.`.`.L.t - - - @ . . . O O O O O O o o o o o o o o o O O O O O j v x z @.I././.J.m.F.9.C g h h k b g b ",
"n R R n g s g p F 2.8.8./.`.].L.t $ - - .   . . O O O O O o o O o o o o o o o o O O O O j n v z #.I.`./.J.m.J.w.f p a p g h g g ",
"R R R W g g g a F 2.q.8./.].].P.t - - - .   . . O O O O o o O o o o o o O o O o O O O o j v v z ..Y.`.~.J.m.H.w.f a a a g k b g ",
"R W R R g g d p F 4.8.q.W.`.].P.t % - - .   . . O O O O o O o o o o o o o O o O O O O o j v x x ..Y.`./.J.m.F.z.f p a a h g b g ",
"R R R R q 9 9 9 D 1.5.5.Y.W.~.M., $ - - .   . . o o . o o o o o o . o o o o o o o o o o i Z z j ..I.W.W.n.w.y.2.f s s p l b l b ",
"R R R n 0 7 9 6 D 1.5.5.Y.W.W.D.> $ $ $ . . . . . o o o o o o o o o o . . o . o . o o . i x x j ..I.W.W.u.r.y.2.f p s s b l l l ",
"R R R R 0 9 7 6 B 1.5.5.Y.W.W.H.> - - - . . . . o o o o o o o o o . o o o o o o o o o o i z z j O.J.W.W.u.r.t.2.f p p s l l b l ",
"R R R R e 0 q 9 B 1.5.5.I./.W.H.> * - - .   . . o o . o o o o o o o o o o . o o o o . o j x z j ..I.W.Y.u.t.y.4.C s d d l l b l ",
"! ! ! ~ s.h.g.g.L 1.5.5.Y.`.`.D.> $ % * .   . . o O O O o o O o . o o o . . o . o o O o i j j j X.Y.'.`.D.G.S.0.s.l.h.g.E b b v ",
"! ~ ~ ~ h.Z.A.V.L 1.8.q.Y.`.`.J.> * * * .   . . o O O O O o o O o o o o o o o o O o o o i z j i X.).[.'.D.S.D.8.h.Z.C.C.W v v v ",
"~ ! ! ~ h.C.V.V.L 1.8.5.Y.`.).J.> # % * .   . . O O O O o O o o o o o o o . . o o O o o i j j j X.Y.[.`.D.S.D.0.j.A.C.C.Q v T v ",
"! ! ! ~ k.V.B.j.L 1.8.8.Y.`.`.J.> # - $ . . . o O O O O o o O o o o o o . o o . O o o o i z j j X.^.{.`.D.G.G.9.k.B.B.N.Q b v v ",
"W W W R v b b c F 1.q.5.`.{.[.U.t % - - o   . . O O O O O O O O o O O O o o O o O o O o i n z z ,.`.oXXXx.8.w.:.C c h k b b g h ",
"W n W n g a a p D 2.5.8.`. X{.Y.t % - - o . . . O O O O O O O O O o o O o o o o o o o o j n v z ,.[.+XXXx.7.w.=.d p p p g h g b ",
"W W n W h g g g D 1.7.8.`.{. XL.t % : - X   . . O O O O O O O O O o O o o o o o o o o o j n z z ,.[.+XXXx.7.w.=.f p s a g g g b ",
"n W W n g p g p F 2.7.7.`. X XY.t % - - . . o o O O O O + + O + + + + + O O O O O O O o j z n z ,.'.OX|.x.7.w.=.f p s s k b g g ",
"R R R R 0 9 0 6 F 7.w.w.}.OX@XQ.t % ; - 8 e e e e e e e i i d d i j j i j z z j j j z j z z n z X.R.`.`.c.w.x.2.f a s p b b k b ",
"R R R R 0 6 9 6 D 7.w.w..X#X#X~.t % - - r r r r i r r r z k k k k k j z v v z n v v v v z v z z X.Y.`./.n.w.x.2.f p s s b b b b ",
"R R R n 0 9 0 6 F 7.w.w.|.@X@X).y - - - e r r e r r r r j j k j k z c c v x x n v v z z n z n z X.R.'./.c.t.x.2.f p s s k l b b ",
"R R R R 0 6 9 6 F 7.w.r.}.@X@X).t % - - e r e e r i i i j z k k k z j z v x n z v z z z z z z j #.R.`./.c.w.x.4.d p s s b b l l ",
"R R R n 0 9 9 6 B 2.5.7.W.'.'.E.p./ / / I Y I K ~ _ ( _ R R R R z k z g k b k k A ^ ............0.E././.c.r.x.2.f p d p b b l l ",
"R W R R 0 7 9 6 B -.5.5.W.`.`./.'.'._._.R.R.^.v.[ ` ] ` W R R R z g k z z k k k ..T.!.).!.!.!.).E.~.(./.c.r.y.4.f p s s b b l b ",
"R R R R 0 9 9 6 D 1.5.7.W.'.`.`.OX#X#X#X.X XXXR.[ _ ' ` W R W W z z b z g z k j ,. X+X+X+X+X+X+X]./.`./.n.y.u.4.f p p p l l l b ",
"W R R R 0 7 9 6 M +.=.=.I./././..XOXOX.X~.R.^.b.| _ ' _ R R v v k a a j g z k j X.T.).).[..XoXoX/./././.9.6.6.*.f p s a l b l l ",
"R R R R 0 9 9 9 s d d s $.t.x.u.D.D.D.v.o.' [ ' W R R R S ..#.#.S B B m j k k k g g f j &.S.D.D.c.c.c.9.C d f d s p p s k l b l ",
"R R R R 0 6 9 9 p s s p H q.t.t.c.S.S.0.' ` ` ` W R E v #.Q.(._.9.4.7.%.l k k k a p p p K y.S.S.y.y.u.;.d p p p d p d s b b b l ",
"W R R R 0 6 6 9 p s s p H w.y.u.S.D.D.8.| ` ] ` ! R W R <.OX#X#XS.u.n.4.x k k k d s p p K x.D.D.c.u.c.4.f p p p p p p p l l l b ",
"n R R n p 0 0 0 p s p p D ;.7.7.9.e.e.:.' ] ] ] R v R b ,.Q.'.(.e.6.8.*.k j j g g d d p J 8.z.9.6.6.8.*.f p s a d g d d l b l l ",
"b b v v i.j.g.g.c p d p s f f f f h f h a.N.l.l.m M B M E ~ ~ ~ k j d f 1 M M 2 i.j.j.g.C s h h f f f f s s p s i.g.g.g.R b b k ",
"b b b v g.Z.C.C.x p d p s p p p p p p p g.A.C.V.K -.6.%.E T R n d r p p M %.1.O.k.Z.C.C.h p p p p p p p a p a d g.Z.A.C.E k b b ",
"l b b b g.Z.C.C.c p s p a p a a p s p d g.A.C.N.U 8.n.6.E R R E d s d p G 5.w.1.j.Z.Z.l.T p s s p a s s p s s p f.Z.C.C.Q k b b ",
"l l b b f.B.N.N.b p s s a a a a g s p d a.C.N.l.K :.8.%.R T R R g p a p D %.2.$.k.C.l.l.h p s s a a a a a d p a a.C.l.l.E k x b ",
"b b l b T T T T l l b b b b k b l l l l R E E Q x x T Z l b v b b c b k C b T C R E R R v v v v b b b b l l l l T T T T b b b b ",
"l l l l l k b k l l b b b b b b b b l l b b b b x k k l v l l l b b b x b b b b b b b v v v v v b b k b l b l l b k b b b b k x ",
"l b v l l v l b b l b b x b b k b b b b v v b v b x b b b l l l b b b b k b b k v T v v T v v v b k b b l l l l b b b b x x b b ",
"l l l l l b l l b l b c b b b b b b b b v v T b l x b x l l b b b b b b b b b b b T b T b v T b b b b b b l b b b b b c b b b b "
};
