/* XPM */
static char *result[] = {
/* columns rows colors chars-per-pixel */
"64 64 159 2 ",
"   c #040405",
".  c #050907",
"X  c #050609",
"o  c #08070B",
"O  c #060B0B",
"+  c #080D0D",
"@  c #06110D",
"#  c #09120E",
"$  c #07190C",
"%  c #081A0E",
"&  c #050710",
"*  c #060C13",
"=  c #0A0D12",
"-  c #060D1A",
";  c #0A0F1A",
":  c #110D17",
">  c #071313",
",  c #0A1313",
"<  c #071F11",
"1  c #0A1A14",
"2  c #07131B",
"3  c #0B141B",
"4  c #07181A",
"5  c #0C1B1B",
"6  c #101616",
"7  c #10141B",
"8  c #111B1D",
"9  c #08220F",
"0  c #0A2215",
"q  c #0D2C17",
"w  c #0C231C",
"e  c #0C2B1C",
"r  c #10221D",
"t  c #102A1D",
"y  c #0D341C",
"u  c #10301E",
"i  c #060E23",
"p  c #080F26",
"a  c #071522",
"s  c #0A1423",
"d  c #071D23",
"f  c #0C1C23",
"g  c #09152B",
"h  c #0B1B2A",
"j  c #111D24",
"k  c #101F28",
"l  c #091736",
"z  c #071837",
"x  c #0B1C33",
"c  c #0D1E38",
"v  c #0D2322",
"b  c #0E2B23",
"n  c #0D232C",
"m  c #0E2B2A",
"M  c #112523",
"N  c #112B25",
"B  c #12222B",
"V  c #122C2B",
"C  c #0E3323",
"Z  c #0E3B23",
"A  c #0F352D",
"S  c #0D3D2C",
"D  c #113225",
"F  c #103D24",
"G  c #12332B",
"H  c #12392C",
"J  c #0D2335",
"K  c #0D2C33",
"L  c #0D243A",
"P  c #0D2B3B",
"I  c #112331",
"U  c #122C32",
"Y  c #11263B",
"T  c #142D3C",
"R  c #0E3236",
"E  c #0F3836",
"W  c #0D313A",
"Q  c #123434",
"!  c #123D33",
"~  c #11313B",
"^  c #163D3C",
"/  c #183A3B",
"(  c #0F4728",
")  c #124527",
"_  c #11432B",
"`  c #114E2B",
"'  c #0E4433",
"]  c #0E473E",
"[  c #124334",
"{  c #124B34",
"}  c #15413B",
"|  c #1A433F",
" . c #164D3A",
".. c #135033",
"X. c #145C35",
"o. c #13533C",
"O. c #19573F",
"+. c #15643B",
"@. c #0C2343",
"#. c #0F2E42",
"$. c #0A274B",
"%. c #0F2F4A",
"&. c #122C42",
"*. c #192D43",
"=. c #1C2D49",
"-. c #0F3443",
";. c #0E3B42",
":. c #0E3D4A",
">. c #143445",
",. c #113A44",
"<. c #14374A",
"1. c #0F3352",
"2. c #133353",
"3. c #163D51",
"4. c #153659",
"5. c #144347",
"6. c #144944",
"7. c #11424A",
"8. c #13494E",
"9. c #145643",
"0. c #125D44",
"q. c #0B4D56",
"w. c #1B4255",
"e. c #1C4F57",
"r. c #13415C",
"t. c #174A5D",
"y. c #155051",
"u. c #1B5152",
"i. c #214A40",
"p. c #126049",
"a. c #14744D",
"s. c #196C52",
"d. c #156A5C",
"f. c #1A6D5D",
"g. c #1C7653",
"h. c #124C60",
"j. c #0C526C",
"k. c #0E5D6C",
"l. c #125964",
"z. c #12536A",
"x. c #115C68",
"c. c #126163",
"v. c #136472",
"b. c #186077",
"n. c #146C74",
"m. c #1E717C",
"M. c #206C71",
"N. c #217071",
"B. c #138464",
"V. c #116B82",
"C. c #1A6C82",
"Z. c #207186",
"A. c #2C7A97",
"S. c #148493",
"D. c #14809A",
"F. c #2D969B",
"G. c #27A896",
"H. c #1FB1B0",
"J. c #1CACC2",
/* pixels */
"X X X     3 O     O O 1 5 2 i O P 3 1 1 = * O     .       O 4 v.6.O 5 W R w G O             . % 0     c.G.S O O J d     O > . @ ",
"+ O O . X   O N O     > . O > h - > . G 5   O O     . - *   ;.J.n   , ,.Z.3 - X = X     O     . , X * S.H.B.e O 2 A O O   + , O ",
". 4 g * o X . v 5 O   O o 5 5 g     @ N 5 o . O X c g J , O #.h.> O O 5 R * O   o 1 + . @ ,   . 5 # 4 5.;.;.w     * - O   + O O ",
"O @ >       .   O   o O 3 O + = 1 . @ b , = O   s z.a X 5 4 5 O * O * @ # n T O   1 w , >   . O # O w p.n x < . O # X X   . 2 - ",
"          5 > o       O b , # + 0       O   O   > p.0 X @ O e 5 5 5 = X w ~ ; B o # O O + , ,   $     e v # O     O X     O #.J ",
"        X O O O J f O 1 +         .           o   . < f -   O > 1 @ X O O > a 4.# O O . > = o   O O       O   .   X &       z @.",
"< g -   X     O 3 v O O X X X   o + O   O X Y B + . . g n O   O 3   X O O R h * g h > > = O O # O O . #         + G v < w   * & ",
"o L 2 O O >   O 5 +     & ;     O O = > X O - X @ . O   O $   3 B 7 X - X e.V   - = > G v %   . j , O 1 O   O .    .s.0 E O . O ",
"    1 H O + @ @ + O o   > O   O ,   #     . 2 @., $ 1 O # O . . # = a * > ] a.$     @ b O $   .   4 4 O O O 1 , O # 5 , , > o , ",
"X   0 ..0 O . O , O   O 6 + 6 O # # O . . = h $.- O O O } 5   . . = O . > 4 q 9     O 1   X O O   O @   > 5 + = O   X O o = = 7 ",
"p O O # O O X   . , > % 6 .   . 1 B O 9 1 J 5 = , 7 * X &., O O # O > ,   v > 5 > 2 l X O g , .   h 3 O ~ d     . + , O + X O   ",
"l 2 X X X     X . , 3 O   O   O , , O O 2 h o , > o =   C C . X + O O 1 . e , Q m P 3 O O o O . X s X   W P O . . . O O 5 5 4 O ",
"f h :       O   3 , +     @ .   . < >   O ,   O .   O   C g.0 o , # O     , # O w >   .     . + h -   X O a , O X O o X O 1   O ",
"O X X     X     X   O O   * > >       b 5.Q X O     X X   < , 2 , , J 3 . .   O 3 = + O   O % O * & , O w   O @   O , * O , ,   ",
", O X s * O X X   o = o 4 k.~ #     . v K 2     .           3 s O   f ,     O = * O > , O o O     o o o w O O O X   , 7 . 5 , O ",
", * 2 %.p O b f 5 o   + B V.:.. O . . # 4 b O   # # .   O * L *   O ,     O   #     O #   o O 5 < > O w = o + O > X .   X @ , H ",
"r . X X X X * P k o O + 3 + , o >   O 5 P n f = X O     5 2 , O     @ O M , O O , O   + w ( O w 1 . # r . O +   r G O O > , > , ",
"# $   X   O + - + @ O * , 5 7 &       X C.b.L o   X   O v v > 1 + 9 1 1 M G # . O O O . , w # -.U 5 O N o   O   . # o X > # O 7 ",
"  , = X O O @ O . q v & 3 # . > O O X g A.b.[ q . o O 1 M.F.0 > @ @ , 3 r M + o O O X O ,   O 3 = O   + O O 4 O   O #   = O + # ",
". + O O . O O O O 7 f O # , O ( F , a 1.T f 0 w 8 > # O K d.d.2 O O + 6 + O O o       * 5 = O 4 ,   X 8 >           + O O   o , ",
"o   O O   O   o 7 , , 5 # X X _ X.t ; -     O > w v M 3 O O K v + O , M 8 >   o 3 O X   1 v O   > O O , X O O O > 5 O O   X s L ",
"X X   . X *.1 - 3 X   X     , = O = X       = 1 O @ , O O X O 5 . + o X > , O   5 1 X   x 5 O O w 1 * . O O   O = f o     X = 1 ",
"O O     O J  .N O O O & o X O >   + , ; X O   >     *   - n   O O # , w O o O   @ O O B 2 O x m r 4 W >   O   O O   O X     O f.",
"N O # , j <.K 5 O 5 = & + O   O O h , g s 3 + O   X #   4 2 X f 1 @ . O . O #   N 5 O 3 O   - v + ;.D.f #     O O   O O   + 5 K ",
"1 * + > B 3.T . 3 e.) ) .     O s 2.o X s 3 , O     > O     O c = o O X 1 O   O , 1 O   .   5 o   1 n , # f B 3 o       O # O   ",
"O 1 M 5 O m w O C 9.% 0 # . * o - &     O   . .     X * O   , - O = O o 5 6   o O . O . .     0 3 X X + # J B $ ,     .   . O   ",
"2 R v &.3     . O # O .   8 j 3 X     O f     X     O = =       X , O @ . O O , o .       o O D G X , # > . $ ' v .   7 .     O ",
"2 K 5 * X O +   O O O   o   X + O   s h <.5 & X       X , 3   & X . O @ X f 5 + o   o o   + w u + o N 6 O % w 0.C > = #     . G ",
"  n 2 X o = , > +   X * X o > 5 1 o f 3 v w.s       =   O o * o     , 0 & g o     . o = X   O 0 1 * - , o , * O . , w >       1 ",
"R f &   = X O # O O         + O   O   X v h , + 5 2   O , O - O X X 1 . X   > # .     O O S y 0 O X h 5 h <.X # o O & o < 1   + ",
"O , 5   & o .     O @ .     X O   X O O 5 b 5 + > =     O , . O O     X O x u.O.M , . + @ 0.+.( 1 * c j @.t.U O o 7 = o 8 3 *   ",
"O . w O O O s o . 1 0 , * , , > 1 o O , O O O + = g O X + >   O O X X O O ; 1 0 N r o # r 1 # O w V 3 , 5.B Y O + # O X o & l X ",
".       g 2 h + @ > # ~ n 2 5 O   X   X 3 O = . > e . , 8 O . 1 > O O v f o   s &.5 O @ @   . O h 1.P # p.) . 1 M O O = o o = O ",
"O :   - g O 1 O . # + J v o > O O X O O w O     O r . . O . # N o   . + + X   3 5 ,   O .   $ $ 3 ;.d.5   % O # + O + = = 3 s O ",
"  # # 5 O 1 y e .   O o =     3 , M f   + O > ,   . # N 1   . .   O O O O O X 4 ~ =   5 G r . X , f n.0.. O O . + 1 5   X O X   ",
"6 b % . O # 5 n h   O O O .   O o > = O o   O O   O   X O       O O O   . * B >.<.& O , M # n + O O 4 < @ O X   v 5 o # O X     ",
"j } , O . . 1 3 - > O   , = o   O o . 3 , .       V , Q > , O O   O @ , N O * * O > O   O & Y = &     # | <.* @ H 8 5 5 O O O , ",
"> R 4 . . . X   O b o.1 O l i   O - X = & O =     6 # 8 3 b # O 3 O   > N , X .     = O . X   # X     @ N f   H ..# 5 O O O O = ",
"W C.W - r >   . v # e e > O     . ,   X = f 5 X 3 s + s Y # N > M O O 5 = >   .     o         # 3 *   , X   O   . # w O   X * & ",
", v 3 v 7 . , .   # > 2 g O o O   #   O # Q L o h ; + = o . # = O + .   X         O O O . ,   O >   X .     X O . ,   .   o 5 , ",
"5 3 , O o   O O O # 4 X X = 5 o   + , > @ ` n v w   # ! U O 1 , O > o o N N O O , O # O 1 t O     X O X   + O   O O .     . > . ",
"O L ;   O , O O O V # O O = w O + O g s   O @ D F + O w O > 9.w X O O o = y %     a *.O @ O       X , , + o X X , > * O     , . ",
"O *   X = =     O 5 O O 5 * 5 # + o = N     = j = O   X O X , # .           O     - -         . 1 O = c h X = *.~ :.;.O O = O O ",
"m 1 $ 4       O 5   # > > = 1 , o + & > O X l 2 , +   # , O , >   + #   % t v >     X O . @ O   # + , 3 , = - J n j.q.O . X O # ",
"G 1 1 , X   o O ,   O 1 + O + o O     # w O > # O O . D 5 + . . > G O   % 0 , O   X     , #   o = 3 N 6 = 5 - > f 3 + .     = O ",
"1 @ / U @ m > O O   +   o O O 1 > X   . o O # 5 o + + w * O @ .   O     = =       X   . 8 6   + = o N #   O o 5 N O 1 5 o   X   ",
"5 > h f , 8 O @ , f J o - . , o + o O . @ . q # O > O O . O X     O     , 5 5   O 1 =   o , > O O   o O [ A .   q F o + O + 3 7 ",
"8 1 + , o   . . > v 3 & i @ , = 1 , O @ r   O 1 * N Q X # O   O . , o   6 @ I a   , + O X o + + +       w y w   O $ * f   O j , ",
"o X o O   o X     1 O X O O O >     . . .   O @ 1 4 8 + O   O M . . O O O O 3 O w @ o Y k O . > 2 =   X     O =     3 P     o 5 ",
"* * o O = 6     X X   X 3 o O O * O   . 3 = o  .[ 2 & O O O O X o N   + 4 O O   O O O a h f O 5 2 = , O     o j   O o % .   w 5 ",
"x c s O ; + . . , =   X & X X 5 O O . * n 3 = y.} n = O = + O   O r O   O O O .     O = = 4 O     O { o.#   O O       O   o # @ ",
"O > q - c 8 , O 3 = o , O   . = = O . O + , =.B 0 5 = o o   O   . O .   . N # O o   o O 5.c.$ y $ O > 1 5 X   X .     1 6 , , O ",
". . @ # O O #   f f = , O   . # O O i.u.O = ; X * + 5 o O # +   O , O O Y 4 O # 5 O # . 8.N.# 0 4 &.4 # j M @         . = 3 , . ",
"> O   . , 1 r 6 l.l.=.j O     , 1 X ^ 6.O 3 , X O O * O # O O . . X O + 2 X   O # . N + o v O   * 3 = 5 1 , O # O , , 5 O O , + ",
", O   , M F w N x.V.L > 3 X , e H [ v 1 . < w     X O   X O   O > O v > w 1 , , o & * g + > O   o   O = o O O 8 * * = o     = I ",
"# O     & O , N K J X   O O , A 4 p.o.> o w A f X       + , O O = O R b M G f o a Y   = O . .   O O O o O 3 O + =       O O X o ",
"= O       , O @   X 5 X 8 # # w 1 . 0 # ) r K ,.O + . O O O   O f 5 = 1 + .   X = 3 . o   # O . X O = . > 5 o , o 5 ,     O O   ",
"o O .     O 2 w ) # , X b 5   9.y   , , e w , N + , O 5 5 O   J f X   . O . . O X 3 5 . . O 3 ; O h 3 O O v o = O # w O         ",
"      O 3 w R } y , = O O     O O + 6 P h 3 O + 6 o . + m e O = O o , O     , =   5 # . + o 3 2 O s ,     O O O   , ~ n     > O ",
"  O > 4 Y 3 7.;.  X = = * -       o = s O < #   O . . O e _ D # O o > w O O o . . . O O w M O 5 #   O O . . O O ;   3 3 1 . O = ",
"  v f s r.m n.m.X o O # - 2       3 > + . O 1 , O   O O . O O     X         , , #   o , ) w O , O   0 U o     3 f   5 # #     _ ",
"  5 o o = o f n   o = ,   . X X s 2 1 O     1 w 3 X X o   .     w @       w D r . . 3 , O $ . . . O 5 5 = 4 I 2     O O , @ X Z ",
"3 N > X       .   O O O       & M 5 . . #   . . &   X 3 # @ % . e , * O = r F .   O O             O . O . = s X     O 5 O , O   ",
"O > N   . M +   X O + & $.f   + = ,   O +     w # , . ,   . @ . X.5 %.f O 1 # .   V ` @ O O > X     . X .           , w O 4 3   "
};
