/* XPM */
static char *result[] = {
/* columns rows colors chars-per-pixel */
"64 64 43 1 ",
"  c #C2BB87",
". c #C3BD89",
"X c #C6C18C",
"o c #C8C48E",
"O c #CBC691",
"+ c #CDCA94",
"@ c #D2CD95",
"# c #D3CE99",
"$ c #D4D295",
"% c #D5D599",
"& c #D9D59B",
"* c #D6D99B",
"= c #D9DC9E",
"- c #DBDEA1",
"; c #DDE3A4",
": c #DEE7A9",
"> c #DEEBAA",
", c #E0E3A7",
"< c #E1E5A9",
"1 c #E2ECAC",
"2 c #E6F0AE",
"3 c #E8F1AF",
"4 c #E6E4B0",
"5 c #E4EFB0",
"6 c #EBEDB3",
"7 c #EEEEBA",
"8 c #F0EFBB",
"9 c #E6F2B2",
"0 c #E9F5B4",
"q c #EBF8B6",
"w c #EDF6B9",
"e c #EDF8B9",
"r c #F2F4BC",
"t c #F3F9BD",
"y c #EEEEC0",
"u c #EFF0C1",
"i c #F5F5C2",
"p c #F6F9C2",
"a c #F9F9C5",
"s c #F5F6C9",
"d c #F6F9CA",
"f c #F9FACD",
"g c #FAFAD1",
/* pixels */
"=-==233qqqq3$ X ....%=;*::>:o......X*==>qqqqttaaaaat2>>>X.......",
"=-==2qqqqqqq$  X....%=*=:>>;o.......**==3qqqataaaaat2>>>X.... ..",
"====2qqqqqqq+   ... $***;>>;o......X*==>0q0wtaaaaaai11>>X.......",
"==;=2qqqq3qq+  X..  %;=;;:>;o..X....*=*=300waaaaaaai2>1;XX......",
"***$23qq;++$o  X++$$:919+++O++++X. .$%$%&=&-9tttttt3$+O+%*+%%%%%",
"$$$$2qqq$   XX  +%**>qq9+...%*%%X..X+++$@@@&3q0qq332X  X*=======",
"$$$$2qqq#     X $*%*10q9+  .%*$%X...+++$@@@#3qqqqqq2XX X**======",
"$$$*>3q3%  XX XX+%%*5q00+ ..+*$$XX.X$+$$@@@%9qqqqqq3XXXX**======",
"9555%+++%%*****$*===6apr@...O+@@$*$**&&*&%$&rippqqq3111<+OO+****",
"qqqq+  .%===**=*====8aai@...O@O+*=====-=&%%*raaaqqqqqeq9OX.O%**$",
"qqqq+...+==;========raai@ ..++++*=======&%%*raaaqqqqqqq9o.XX%%**",
"qqqq+...%===========8aai+ ..O+++*=======&&**raaiqq0qqqq9+XXO%***",
"qqqq>>>>%ooo*===;:;:raai-##%%*%%$$&%*=--678ripai&@@$0qq91<<<0w77",
"qqqqqeee%...%=;=:>>>raaa,-=-==-=$+@@*=--iaaaaaaro  O9qqqqqqtpaaa",
"qqqqqq99+...$===::>:raaa-===-=*-%@@@&==-iaaaaaaro .O9qqqqqqtaaaa",
"q9q99999*.X.*;=;:>>:taaa,==-=*-*%##$----tiiiiia8oXXO0qqqqqqqtapa",
"+++++OO+<8778rrrrirraaaa0595;*=-8uuurrr7#+#+@++@$%%%-,;,0q0q9999",
"XX.XX...4aaaaaaaaaaaaaaae000;*=-sgggaaa8O  .   X*==--===0qq0>>>>",
"XXX.....4aapaaaaaaaaaaaaqq00;***uggffaiiO......X%======-00q0>>>>",
"X.XXX.XX4appriiririiriirq000;;;;sgffiis7o.....Xo%======-300095>>",
"....+***;<<1#O+++++#O+O@1eqertrtwwe0#OOO....$***$$@&======*;9999",
"....*;=*;;<;O      .   .1qqqpapaw009O.......&==&%@@@===*%%%*9q9q",
"....%===;::;+... .......1qqqaaaae009O.......$=-&@@@@====*%%*99qq",
".X..%==;;:::O...........<qqqpaaae0q9+.o....o&--&@@@&==*=%**;9qqq",
";*==****>qqq+ ..##&%*%%*;;;:qqee00q05>5>=$$$$&&@$$$$@@@#59wwtiip",
">>>>*%*$>eie#...&---========3qqqeqq0qqq0;===$$@@$$$$+++#euetaaaa",
";;;>***$5tee#...%--*===-===;qqqq00q0qqq0-&=&$@@@$$$$+O@#euetpaaa",
">>;;**%*5tte#O.O------;-=;=;33q30000q900,---$$$$$$$##@##eeptpaap",
"=;;;;;=;,<1<0888ysssssssetir-*$*+oO+-;-;3rr33322,;;,r8rrttepeqqe",
"=;;=;>>;::;;raaaggggggggdaai&$$$X...%-*-ttttq33q,,;1aaaattpe09qq",
";;=;;>>>,;::raaaggggggggaaai&$$$X...%--;ttttqqqq;;;2aaaattpeq000",
">=>;;=*;;;-;6rirusssgsgsptr8*$$$X.. %***r3tqqqqq;;-,rrtptteuq000",
"0000+XXXXXXooooo-;-,wtpp#ooooXXX....XXXX#$$&<39:OXXO&&&-3qqqqqqq",
"0qq0# .. ... X  %===0tte+ X.XXXX.... ...O@@@<<>:X  X@@@$3qqqqqqq",
"qqqq+X..X   ..XX%===wree+. .XXX........X@@@+<2>:X .X$$@&3qqtqqqq",
"qqq0+XXX.XX.XXXo%**=wtpu#XXXoXoXX.......@@@#><>>OoXo$$$&3333q333",
"qqq0;$%%$$$$$&&$#@$&yddd9>5>;=;=o......X;:::---:uuuu9991$o+oOoo+",
"qqqq;===*$%$====#@@@ygggu0q0>;:;o......X>5>5-==-fggdeqq9X . X  X",
"qqq0:===%%%%====#@@@ygggeqqq>:::O .....X:>5>-==-dggdeqq9oX     X",
"eeee,--;=%%%&===&&&&ygddeq9q>>:>+oooXXXo:>>>;--:sffs9995X  XXXXX",
"ppppttqr-$$$====ysusrwweqqqq0099etuw-***----ussdeee9OooXX  X%%**",
"pdaatttt-$$$===-sgggtqqeqqqq00qqpdai-=-===--sggfeqq1X...X XX*==-",
"aaaatttt,$$$*===ugggtqqqqqqq009qpaaa,====-*-sffdeee3X...   X*===",
"aaaatttt<&=&=,;,igff019191559999tiir<-;;-;-;sffsw11>oXXXXXXX*===",
"aaaatqqqtiiiiiaieeeq%.oXooXo*---:<<1ttpi0000eeqwOXXo@%%@@OO@====",
"aaaatqqqiaaaaaaaeqqq+.......%-*=;:;>paaaweqqqq09o  X%%%%@O@+====",
"aaaae0qqiaaaaaiie0qq+.......*===;;:<iaaaeqqqqqq9o..X%%%%@O+@*===",
"ppiaq399wr8irriieeqe#.XX....**=*-;-;rrir0qqqqqq9o..X@%%#@@@@-;-;",
"eweq%oooO+O+O+O+6aap,***o X @@%@oXXXooo+9qqqqqq9o..X$**$*$$=tttt",
"qqq0+. ..XXXX..O7aai<===o  X++@@X   X Xo9qqqqq09o..X*$**=$=-ttat",
"qeqq+...XXX.O..O6add<--*o  X+##+X X    o9qqqqqq9o  X****$=$-taaa",
"3151+ . .oooO.OOwppp<;;;+OO+%%*%+oooXXXO>0090qq9+XXo$$*==$==aaaa",
"XXXX..X o@@@##%%99q000q0ddfs9099;;;=*%%*;=;=0qq0=*=*$$$$==&,taaa",
"......  +@@@%%%*9000qqqqdfgfe09q>>;>**$*=;=;9qq0;===$$$$==&,aaaa",
"..... .XO@@@%%%*20q0qqqqdfffe00q1;;>=***====9q09;==*$$$$==&,aaaa",
"O++OoXXXO@++#%&*>0999930udsue0e01<1>;==;====9qe9;=;;====,,,<rtat",
"02q3&@@@o ..$===;::;;====--;tttteetwttt6--*-5eqq>>>5iaiappatqtwq",
"0qq3=$$$o ..&===;;;,-======-tttttttttttt----5eqq95>5iaaaapapqqqq",
"0000=@$$o  .$===;:<;-====;=-6ttttttttttt-*==9eqq5>>9aaaaaaaaqq3q",
"2233-&&&@Xoo&===;:;;;;;,;;;,6663w06wt6t6:-::9eqq:::<78wripptq333",
"****6ati1;;;%%%&=-=-wppp3q22+oXX=---=--,udddeqq9oXXXoXXO3qqq;-=-",
"*%$*7aaa3,;,=&$%*-==rapdqqq9o .X$======-dggge9q9o ..   o3qq3====",
"%%%*7aaa3,;>=%*%*===wappqqq2OX X&&=====-dggge9q>o... XXo3qq3-===",
"%%%%raai3,::*%%%====8adpq9q2o. X$======,dggdeq09X... X O3qt3-==="
};
