/* XPM */
static char *result[] = {
/* columns rows colors chars-per-pixel */
"64 64 190 2 ",
"   c #2D750F",
".  c #2D7310",
"X  c #2D7313",
"o  c #2F7213",
"O  c #2C7411",
"+  c #2E7411",
"@  c #2E7610",
"#  c #2E7412",
"$  c #2E7612",
"%  c #2F7713",
"&  c #297014",
"*  c #2A7115",
"=  c #2B7216",
"-  c #2E7114",
";  c #2E7316",
":  c #2E7414",
">  c #2F7515",
",  c #2D7416",
"<  c #2F7417",
"1  c #2F7616",
"2  c #2C7118",
"3  c #2D7219",
"4  c #2E7318",
"5  c #2B7619",
"6  c #2D7418",
"7  c #2C7519",
"8  c #2F7419",
"9  c #2E7519",
"0  c #2C7718",
"q  c #2D7718",
"w  c #2C751B",
"e  c #2D761A",
"r  c #2C771A",
"t  c #2F761A",
"y  c #2E771B",
"u  c #2F7918",
"i  c #2E791A",
"p  c #2F791A",
"a  c #2F781C",
"s  c #307312",
"d  c #317413",
"f  c #307316",
"g  c #317415",
"h  c #327514",
"j  c #307614",
"k  c #317715",
"l  c #327516",
"z  c #307717",
"x  c #317717",
"c  c #307812",
"v  c #327A14",
"b  c #327816",
"n  c #337917",
"m  c #337B17",
"M  c #307518",
"N  c #317619",
"B  c #307719",
"V  c #30751A",
"C  c #30771B",
"Z  c #32771A",
"A  c #32771C",
"S  c #317818",
"D  c #337919",
"F  c #337B18",
"G  c #31781A",
"H  c #33781B",
"J  c #32791B",
"K  c #307A1B",
"L  c #347A18",
"P  c #337F1B",
"I  c #357D1A",
"U  c #347E1B",
"Y  c #367E1A",
"T  c #377F1B",
"R  c #31781C",
"E  c #30791D",
"W  c #33781D",
"Q  c #32791D",
"!  c #307B1C",
"~  c #317B1C",
"^  c #317A1E",
"/  c #337A1E",
"(  c #34791C",
")  c #347B1D",
"_  c #347B1F",
"`  c #327C1D",
"'  c #337F1D",
"]  c #357C1C",
"[  c #367C1C",
"{  c #357F1C",
"}  c #377F1C",
"|  c #357C1E",
" . c #377E1E",
".. c #387E1C",
"X. c #397F1D",
"o. c #387E1E",
"O. c #397F1F",
"+. c #367B20",
"@. c #367B22",
"#. c #377E20",
"$. c #377E22",
"%. c #387D20",
"&. c #397E21",
"*. c #387F23",
"=. c #3A7F22",
"-. c #36801D",
";. c #36801F",
":. c #39811E",
">. c #3A801E",
",. c #3B811F",
"<. c #3A821E",
"1. c #3B831F",
"2. c #3D801F",
"3. c #358021",
"4. c #378120",
"5. c #368220",
"6. c #368122",
"7. c #378223",
"8. c #398020",
"9. c #3A8020",
"0. c #398320",
"q. c #398022",
"w. c #3A8123",
"e. c #3B8222",
"r. c #3E8122",
"t. c #3A8125",
"y. c #388324",
"u. c #3D8726",
"i. c #3E8328",
"p. c #3D8428",
"a. c #3F8429",
"s. c #408326",
"d. c #418724",
"f. c #408825",
"g. c #418925",
"h. c #428A24",
"j. c #438B25",
"k. c #428826",
"l. c #428A26",
"z. c #438B27",
"x. c #448A27",
"c. c #428528",
"v. c #408729",
"b. c #40872B",
"n. c #44872A",
"m. c #42872C",
"M. c #418828",
"N. c #428929",
"B. c #438B28",
"V. c #468928",
"C. c #448A28",
"Z. c #478A29",
"A. c #46892A",
"S. c #448B2B",
"D. c #448C29",
"F. c #468C29",
"G. c #468C2A",
"H. c #478D2B",
"J. c #41882C",
"K. c #438A2C",
"L. c #458C2C",
"P. c #458C2E",
"I. c #468D2F",
"U. c #488B2A",
"Y. c #488B2C",
"T. c #488E2C",
"R. c #498F2D",
"E. c #4A8D2E",
"W. c #488F2F",
"Q. c #45912F",
"!. c #48902D",
"~. c #4A902E",
"^. c #4C922F",
"/. c #468D31",
"(. c #478E30",
"). c #498E31",
"_. c #4A8F32",
"`. c #469230",
"'. c #4A9030",
"]. c #489231",
"[. c #4C9230",
"{. c #4D9235",
"}. c #4A9634",
"|. c #4D9436",
" X c #4E9338",
".X c #51963D",
"XX c #52973C",
"oX c #549940",
"OX c #559A41",
"+X c #579C41",
/* pixels */
"U U U U { { { { U U U U P P P P ' ' ' ' 5.5.5.5.7.7.7.7.y.y.y.y.i i i i ! ! ! ! ~ ~ ~ ~ ` ` ` ` w.w.w.w.#.#.#.#.Z Z Z Z H H H H ",
"U U U U { { { { U U U U P P P P ' ' ' ' 5.5.5.5.7.7.7.7.y.y.y.y.i i i i ! ! ! ! ~ ~ ~ ~ ` ` ` ` w.w.w.w.#.#.#.#.Z Z Z Z H H H H ",
"U U U U { { { { U U U U P P P P ' ' ' ' 5.5.5.5.7.7.7.7.y.y.y.y.i i i i ! ! ! ! ~ ~ ~ ~ ` ` ` ` w.w.w.w.#.#.#.#.Z Z Z Z H H H H ",
"U U U U { { { { U U U U P P P P ' ' ' ' 5.5.5.5.7.7.7.7.y.y.y.y.i i i i ! ! ! ! ~ ~ ~ ~ ` ` ` ` w.w.w.w.#.#.#.#.Z Z Z Z H H H H ",
"U U U U { { { { -.-.-.-.4.4.4.4.5.5.5.5.6.6.6.6.3.3.3.3.3.3.3.3.0 0 0 0 p p p p K K K K ` ` ` ` w.w.w.w.) ) ) ) ( ( ( ( M M M M ",
"U U U U { { { { -.-.-.-.4.4.4.4.5.5.5.5.6.6.6.6.3.3.3.3.3.3.3.3.0 0 0 0 p p p p K K K K ` ` ` ` w.w.w.w.) ) ) ) ( ( ( ( M M M M ",
"U U U U { { { { -.-.-.-.4.4.4.4.5.5.5.5.6.6.6.6.3.3.3.3.3.3.3.3.0 0 0 0 p p p p K K K K ` ` ` ` w.w.w.w.) ) ) ) ( ( ( ( M M M M ",
"U U U U { { { { -.-.-.-.4.4.4.4.5.5.5.5.6.6.6.6.3.3.3.3.3.3.3.3.0 0 0 0 p p p p K K K K ` ` ` ` w.w.w.w.) ) ) ) ( ( ( ( M M M M ",
"z z z z z z z z u u u u p p p p K K K K q q q q r r r r 5 5 5 5 E E E E y y y y 7 7 7 7 t t t t ) ) ) ) | | | | ).).).).{.{.{.{.",
"z z z z z z z z u u u u p p p p K K K K q q q q r r r r 5 5 5 5 E E E E y y y y 7 7 7 7 t t t t ) ) ) ) | | | | ).).).).{.{.{.{.",
"z z z z z z z z u u u u p p p p K K K K q q q q r r r r 5 5 5 5 E E E E y y y y 7 7 7 7 t t t t ) ) ) ) | | | | ).).).).{.{.{.{.",
"z z z z z z z z u u u u p p p p K K K K q q q q r r r r 5 5 5 5 E E E E y y y y 7 7 7 7 t t t t ) ) ) ) | | | | ).).).).{.{.{.{.",
"J J J J B B B B J J J J G G G G E E E E 7 7 7 7 e e e e e e e e e e e e y y y y ^ ^ ^ ^ / / / / R R R R , , , , P.P.P.P._._._._.",
"J J J J B B B B J J J J G G G G E E E E 7 7 7 7 e e e e e e e e e e e e y y y y ^ ^ ^ ^ / / / / R R R R , , , , P.P.P.P._._._._.",
"J J J J B B B B J J J J G G G G E E E E 7 7 7 7 e e e e e e e e e e e e y y y y ^ ^ ^ ^ / / / / R R R R , , , , P.P.P.P._._._._.",
"J J J J B B B B J J J J G G G G E E E E 7 7 7 7 e e e e e e e e e e e e y y y y ^ ^ ^ ^ / / / / R R R R , , , , P.P.P.P._._._._.",
"M M M M ; ; ; ; W W W W R R R R _ _ _ _ = = = = 6 6 6 6 w w w w a a a a 7 7 7 7 9 9 9 9 C C C C R R R R J J J J (.(.(.(.|.|.|.|.",
"M M M M ; ; ; ; W W W W R R R R _ _ _ _ = = = = 6 6 6 6 w w w w a a a a 7 7 7 7 9 9 9 9 C C C C R R R R J J J J (.(.(.(.|.|.|.|.",
"M M M M ; ; ; ; W W W W R R R R _ _ _ _ = = = = 6 6 6 6 w w w w a a a a 7 7 7 7 9 9 9 9 C C C C R R R R J J J J (.(.(.(.|.|.|.|.",
"M M M M ; ; ; ; W W W W R R R R _ _ _ _ = = = = 6 6 6 6 w w w w a a a a 7 7 7 7 9 9 9 9 C C C C R R R R J J J J (.(.(.(.|.|.|.|.",
"A A A A A A A A i.i.i.i.a.a.a.a.m.m.m.m.Q Q Q Q / / / / Q Q Q Q t.t.t.t.*.*.*.*.p.p.p.p.I.I.I.I.I.I.I.I.v.v.v.v.] ] ] ] 1 1 1 1 ",
"A A A A A A A A i.i.i.i.a.a.a.a.m.m.m.m.Q Q Q Q / / / / Q Q Q Q t.t.t.t.*.*.*.*.p.p.p.p.I.I.I.I.I.I.I.I.v.v.v.v.] ] ] ] 1 1 1 1 ",
"A A A A A A A A i.i.i.i.a.a.a.a.m.m.m.m.Q Q Q Q / / / / Q Q Q Q t.t.t.t.*.*.*.*.p.p.p.p.I.I.I.I.I.I.I.I.v.v.v.v.] ] ] ] 1 1 1 1 ",
"A A A A A A A A i.i.i.i.a.a.a.a.m.m.m.m.Q Q Q Q / / / / Q Q Q Q t.t.t.t.*.*.*.*.p.p.p.p.I.I.I.I.I.I.I.I.v.v.v.v.] ] ] ] 1 1 1 1 ",
"- - - - f f f f s.s.s.s.a.a.a.a.m.m.m.m.8 8 8 8 V V V V t t t t t.t.t.t.| | | | q.q.q.q.K.K.K.K.L.L.L.L.W.W.W.W.S S S S S S S S ",
"- - - - f f f f s.s.s.s.a.a.a.a.m.m.m.m.8 8 8 8 V V V V t t t t t.t.t.t.| | | | q.q.q.q.K.K.K.K.L.L.L.L.W.W.W.W.S S S S S S S S ",
"- - - - f f f f s.s.s.s.a.a.a.a.m.m.m.m.8 8 8 8 V V V V t t t t t.t.t.t.| | | | q.q.q.q.K.K.K.K.L.L.L.L.W.W.W.W.S S S S S S S S ",
"- - - - f f f f s.s.s.s.a.a.a.a.m.m.m.m.8 8 8 8 V V V V t t t t t.t.t.t.| | | | q.q.q.q.K.K.K.K.L.L.L.L.W.W.W.W.S S S S S S S S ",
"o o o o l l l l c.c.c.c.c.c.c.c.n.n.n.n.< < < < M M M M Z Z Z Z =.=.=.=.o.o.o.o.e.e.e.e.S.S.S.S.B.B.B.B.!.!.!.!.O O O O m m m m ",
"o o o o l l l l c.c.c.c.c.c.c.c.n.n.n.n.< < < < M M M M Z Z Z Z =.=.=.=.o.o.o.o.e.e.e.e.S.S.S.S.B.B.B.B.!.!.!.!.O O O O m m m m ",
"o o o o l l l l c.c.c.c.c.c.c.c.n.n.n.n.< < < < M M M M Z Z Z Z =.=.=.=.o.o.o.o.e.e.e.e.S.S.S.S.B.B.B.B.!.!.!.!.O O O O m m m m ",
"o o o o l l l l c.c.c.c.c.c.c.c.n.n.n.n.< < < < M M M M Z Z Z Z =.=.=.=.o.o.o.o.e.e.e.e.S.S.S.S.B.B.B.B.!.!.!.!.O O O O m m m m ",
"s s s s g g g g Y.Y.Y.Y.E.E.E.E.A.A.A.A.r.r.r.r.O.O.O.O.9.9.9.9.'.'.'.'.'.'.'.'.~.~.~.~.f.f.f.f.z.z.z.z.z.z.z.z.$ $ $ $ % % % % ",
"s s s s g g g g Y.Y.Y.Y.E.E.E.E.A.A.A.A.r.r.r.r.O.O.O.O.9.9.9.9.'.'.'.'.'.'.'.'.~.~.~.~.f.f.f.f.z.z.z.z.z.z.z.z.$ $ $ $ % % % % ",
"s s s s g g g g Y.Y.Y.Y.E.E.E.E.A.A.A.A.r.r.r.r.O.O.O.O.9.9.9.9.'.'.'.'.'.'.'.'.~.~.~.~.f.f.f.f.z.z.z.z.z.z.z.z.$ $ $ $ % % % % ",
"s s s s g g g g Y.Y.Y.Y.E.E.E.E.A.A.A.A.r.r.r.r.O.O.O.O.9.9.9.9.'.'.'.'.'.'.'.'.~.~.~.~.f.f.f.f.z.z.z.z.z.z.z.z.$ $ $ $ % % % % ",
"h h h h d d d d V.V.V.V.U.U.U.U.Z.Z.Z.Z.2.2.2.2.2.2.2.2.,.,.,.,.H.H.H.H.R.R.R.R.R.R.R.R.d.d.d.d.g.g.g.g.j.j.j.j.c c c c v v v v ",
"h h h h d d d d V.V.V.V.U.U.U.U.Z.Z.Z.Z.2.2.2.2.2.2.2.2.,.,.,.,.H.H.H.H.R.R.R.R.R.R.R.R.d.d.d.d.g.g.g.g.j.j.j.j.c c c c v v v v ",
"h h h h d d d d V.V.V.V.U.U.U.U.Z.Z.Z.Z.2.2.2.2.2.2.2.2.,.,.,.,.H.H.H.H.R.R.R.R.R.R.R.R.d.d.d.d.g.g.g.g.j.j.j.j.c c c c v v v v ",
"h h h h d d d d V.V.V.V.U.U.U.U.Z.Z.Z.Z.2.2.2.2.2.2.2.2.,.,.,.,.H.H.H.H.R.R.R.R.R.R.R.R.d.d.d.d.g.g.g.g.j.j.j.j.c c c c v v v v ",
"+ + + + . . . . x.x.x.x.G.G.G.G.R.R.R.R.>.>.>.>.X.X.X.X.........T.T.T.T.[.[.[.[.^.^.^.^.F.F.F.F.l.l.l.l.h.h.h.h.@ @ @ @         ",
"+ + + + . . . . x.x.x.x.G.G.G.G.R.R.R.R.>.>.>.>.X.X.X.X.........T.T.T.T.[.[.[.[.^.^.^.^.F.F.F.F.l.l.l.l.h.h.h.h.@ @ @ @         ",
"+ + + + . . . . x.x.x.x.G.G.G.G.R.R.R.R.>.>.>.>.X.X.X.X.........T.T.T.T.[.[.[.[.^.^.^.^.F.F.F.F.l.l.l.l.h.h.h.h.@ @ @ @         ",
"+ + + + . . . . x.x.x.x.G.G.G.G.R.R.R.R.>.>.>.>.X.X.X.X.........T.T.T.T.[.[.[.[.^.^.^.^.F.F.F.F.l.l.l.l.h.h.h.h.@ @ @ @         ",
"<.<.<.<.T T T T F.F.F.F.k.k.k.k.k.k.k.k.# # # # j j j j k k k k b b b b b b b b n n n n L L L L Y Y Y Y 1.1.1.1.m m m m T T T T ",
"<.<.<.<.T T T T F.F.F.F.k.k.k.k.k.k.k.k.# # # # j j j j k k k k b b b b b b b b n n n n L L L L Y Y Y Y 1.1.1.1.m m m m T T T T ",
"<.<.<.<.T T T T F.F.F.F.k.k.k.k.k.k.k.k.# # # # j j j j k k k k b b b b b b b b n n n n L L L L Y Y Y Y 1.1.1.1.m m m m T T T T ",
"<.<.<.<.T T T T F.F.F.F.k.k.k.k.k.k.k.k.# # # # j j j j k k k k b b b b b b b b n n n n L L L L Y Y Y Y 1.1.1.1.m m m m T T T T ",
"} } } } :.:.:.:.D.D.D.D.B.B.B.B.C.C.C.C.: : : : X X X X X X X X x x x x > > > > D D D D [ [ [ [ >.>.>.>.} } } } F F F F I I I I ",
"} } } } :.:.:.:.D.D.D.D.B.B.B.B.C.C.C.C.: : : : X X X X X X X X x x x x > > > > D D D D [ [ [ [ >.>.>.>.} } } } F F F F I I I I ",
"} } } } :.:.:.:.D.D.D.D.B.B.B.B.C.C.C.C.: : : : X X X X X X X X x x x x > > > > D D D D [ [ [ [ >.>.>.>.} } } } F F F F I I I I ",
"} } } } :.:.:.:.D.D.D.D.B.B.B.B.C.C.C.C.: : : : X X X X X X X X x x x x > > > > D D D D [ [ [ [ >.>.>.>.} } } } F F F F I I I I ",
"U U U U 0.0.0.0.u.u.u.u.M.M.M.M.N.N.N.N.( ( ( ( N N N N N N N N H H H H Z Z Z Z %.%.%.%.Z Z Z Z &.&.&.&.J J J J 8.8.8.8. . . . .",
"U U U U 0.0.0.0.u.u.u.u.M.M.M.M.N.N.N.N.( ( ( ( N N N N N N N N H H H H Z Z Z Z %.%.%.%.Z Z Z Z &.&.&.&.J J J J 8.8.8.8. . . . .",
"U U U U 0.0.0.0.u.u.u.u.M.M.M.M.N.N.N.N.( ( ( ( N N N N N N N N H H H H Z Z Z Z %.%.%.%.Z Z Z Z &.&.&.&.J J J J 8.8.8.8. . . . .",
"U U U U 0.0.0.0.u.u.u.u.M.M.M.M.N.N.N.N.( ( ( ( N N N N N N N N H H H H Z Z Z Z %.%.%.%.Z Z Z Z &.&.&.&.J J J J 8.8.8.8. . . . .",
"}.}.}.}.].].].].;.;.;.;.` ` ` ` J J J J B B B B W W W W +.+.+.+.+X+X+X+XXXXXXXXX X X X X4 4 4 4 4 4 4 4 * * * * J.J.J.J.v.v.v.v.",
"}.}.}.}.].].].].;.;.;.;.` ` ` ` J J J J B B B B W W W W +.+.+.+.+X+X+X+XXXXXXXXX X X X X4 4 4 4 4 4 4 4 * * * * J.J.J.J.v.v.v.v.",
"}.}.}.}.].].].].;.;.;.;.` ` ` ` J J J J B B B B W W W W +.+.+.+.+X+X+X+XXXXXXXXX X X X X4 4 4 4 4 4 4 4 * * * * J.J.J.J.v.v.v.v.",
"}.}.}.}.].].].].;.;.;.;.` ` ` ` J J J J B B B B W W W W +.+.+.+.+X+X+X+XXXXXXXXX X X X X4 4 4 4 4 4 4 4 * * * * J.J.J.J.v.v.v.v.",
"`.`.`.`.Q.Q.Q.Q.~ ~ ~ ~ ` ` ` ` ) ) ) ) $.$.$.$.+.+.+.+.@.@.@.@..X.X.X.XoXoXoXoXOXOXOXOX2 2 2 2 3 3 3 3 & & & & /./././.b.b.b.b.",
"`.`.`.`.Q.Q.Q.Q.~ ~ ~ ~ ` ` ` ` ) ) ) ) $.$.$.$.+.+.+.+.@.@.@.@..X.X.X.XoXoXoXoXOXOXOXOX2 2 2 2 3 3 3 3 & & & & /./././.b.b.b.b.",
"`.`.`.`.Q.Q.Q.Q.~ ~ ~ ~ ` ` ` ` ) ) ) ) $.$.$.$.+.+.+.+.@.@.@.@..X.X.X.XoXoXoXoXOXOXOXOX2 2 2 2 3 3 3 3 & & & & /./././.b.b.b.b.",
"`.`.`.`.Q.Q.Q.Q.~ ~ ~ ~ ` ` ` ` ) ) ) ) $.$.$.$.+.+.+.+.@.@.@.@..X.X.X.XoXoXoXoXOXOXOXOX2 2 2 2 3 3 3 3 & & & & /./././.b.b.b.b."
};
