/* XPM */
static char *result[] = {
/* columns rows colors chars-per-pixel */
"64 64 100 2 ",
"   c #CA3604",
".  c #C23902",
"X  c #CA3B06",
"o  c #CC3D0A",
"O  c #D03F08",
"+  c #C74706",
"@  c #CB4405",
"#  c #CD4A06",
"$  c #C74208",
"%  c #CC440A",
"&  c #CE4C0B",
"*  c #D84704",
"=  c #D44A07",
"-  c #D84B06",
";  c #D1450B",
":  c #D24D0C",
">  c #CD5305",
",  c #CE550A",
"<  c #CC580D",
"1  c #D65307",
"2  c #D3530C",
"3  c #D9540D",
"4  c #D55C0E",
"5  c #D85A0C",
"6  c #D34B11",
"7  c #D45411",
"8  c #DB5414",
"9  c #D55B12",
"0  c #D95D13",
"q  c #DE5F18",
"w  c #D4610E",
"e  c #D9630E",
"r  c #D66312",
"t  c #DA6314",
"y  c #D66914",
"u  c #DA6A15",
"i  c #D46518",
"p  c #DD661A",
"a  c #D46B1B",
"s  c #DC6C1B",
"d  c #D87017",
"f  c #D6731D",
"g  c #DC721D",
"h  c #D7791B",
"j  c #DC7B1E",
"k  c #E0661C",
"l  c #E06B1C",
"z  c #E0741E",
"x  c #E07C1F",
"c  c #D47521",
"v  c #DD7521",
"b  c #D37A24",
"n  c #DD7B22",
"m  c #DE7F28",
"M  c #E26F20",
"N  c #E07621",
"B  c #E17B24",
"V  c #E17F28",
"C  c #D9811E",
"Z  c #DD8323",
"A  c #DE8B27",
"S  c #DE8329",
"D  c #DE8C2B",
"F  c #DF9231",
"G  c #D9973B",
"H  c #DC9B3C",
"J  c #E28225",
"K  c #E38927",
"L  c #E2842A",
"P  c #E28C2D",
"I  c #E2912E",
"U  c #E38E31",
"Y  c #E39332",
"T  c #E89734",
"R  c #E39A36",
"E  c #E89935",
"W  c #E59D39",
"Q  c #E99C3A",
"!  c #E1A537",
"~  c #E3A43C",
"^  c #EAA43D",
"/  c #E4AA3E",
"(  c #EBA93F",
")  c #D7A748",
"_  c #D7AC4C",
"`  c #E4A540",
"'  c #EBA542",
"]  c #E4AD41",
"[  c #EAAB42",
"{  c #E4B243",
"}  c #EBB246",
"|  c #ECB549",
" . c #EDBA4C",
".. c #EDBF50",
"X. c #EEC353",
"o. c #F6DA66",
"O. c #F7DE69",
"+. c #F7E26A",
"@. c #F8E76E",
"#. c #F9E96F",
/* pixels */
"s 7 2 7 2 7 3 : 7 7 u u s u P W R R Y D D F D v n v N 9 2 0 2 : % o o ; 7 2 7 7 5 9 0 0 7 & : : 2 r < r 4 g g g n v b n n n v v ",
"l t 9 0 t 0 9 0 9 0 t t t 0 n S m Z n d d d u n v n n 0 2 3 7 3 7 2 2 5 n n x n J K Z P s 2 < 7 2 7 2 , 2 g N n N J U U U D N N ",
"l k t k t t r t r r 9 0 9 9 g j j n d e y y y j n v n i 2 7 7 4 0 0 2 0 B j j N J J K K g , 2 2 2 2 < 2 2 g B N N J U U P P N B ",
"l k t t t t r e t r 0 9 t 9 s n j n g y y r y g v v n 0 2 9 3 7 2 2 2 0 j N j n J J K K g , < 2 < 2 < 7 2 g N N x V D L D L N j ",
"l e e u e k t t r r 9 0 9 0 g Z n n g y y u u n n n m i 2 2 9 2 5 7 7 9 j B j x J K Z K v , 2 7 2 2 < 7 , M B n v U Q H W W L L ",
"l l l u l u e u t r t 9 9 4 i y i y r 2 2 , 2 0 9 9 9 9 4 0 9 7 ; : : 2 s g g s j h j h i & , & & , & & & v L L V [ #.+.@.O.' ' ",
"x C J C J x e e y y 4 e 4 e 2 @ # & @   X X X % % % % 7 0 9 t 2 & = % ; s v s s g h h h u & & , & & & , & v S L V ' @.O.O.o.' ' ",
"z j C J C C u u t i r 4 r w 2 # , # = O @ o % % 6 & ; 2 0 0 9 5 % & = ; s s s s f j h h i & & : 7 & 7 & & v L L B ' @.O.+.o.' ' ",
"z x C Z Z j t u u u w 4 e 4 2 # # & & o X O o & & ; % 2 0 9 0 2 ; = % ; s g z s j j h C a & : , , & & & & v L K B ' @.O.+.o.' ' ",
"z C J J C n u u i i t 4 4 r 2 : & , & o @ X o 6 : : : 9 t t t t 2 2 2 9 9 9 0 9 9 7 < 9 7 : : : 6 2 4 5 2 A ~ ~ ~ ~ | | } } ' ^ ",
"x z s s g u t 4 9 4 4 e 4 4 2 2 6 & 6 o O o o 8 9 9 9 p g l l g u d u u = # # # O o o o O 6 6 : 2 5 4 4 2 D { / ( / ~ ` [ [ ^ ^ ",
"C d u s s u 5 4 4 e 4 4 4 r 2 # & 6 6 o O o o 8 9 9 9 t z s z s y u y y 2 : : = ; O o o ; 3 : : : 9 4 4 2 P / / / ( [ [ [ ` ^ ^ ",
"x z u u s u 4 4 4 4 4 4 4 e 2 : 6 & & o o o o 9 9 9 9 i z l l u u y e d 1 = = = % o o o o 2 : : : 4 5 4 2 D { ( ] [ [ } [ [ [ ^ ",
"j d l g s u 4 4 4 4 e 4 e 4 2 : & 7 : o o o o 8 9 9 9 u l z z s y u d e 2 1 2 2 : ; 6 6 : : 6 : 6 9 9 9 3 L / ~ ~ Q U U Y U Y I ",
"g u 5 e 4 0 9 9 0 4 3 2 2 2 2 & & & : : 6 6 ; M m v n L P L K V y y y u u p l l k p k k p 6 6 6 6 q p 0 0 L ! W ~ T N N N N Z Z ",
"u 9 = 1 : 2 7 9 7 9 2 2 2 2 : & & & & 3 6 6 : v m n m S P P P L y y u y s k p k k k k k q 6 6 6 6 0 q q 0 L ~ W ~ R B B B B Z K ",
"u t 2 1 2 2 2 9 9 7 7 : 2 2 & & 7 & & 7 : - 3 M V B B L U L P L y u u y t k k k p k k k i 6 6 6 6 q q q 0 L ~ ~ ~ R B V N B V K ",
"u r : 2 : 3 7 9 9 7 , 2 2 : : & & & & ; : 6 = v V V B V P P P L u y u u l k l k k k p s k 6 6 6 6 8 q 0 8 m W R R P N v N N n m ",
"u t : - : 2 9 7 8 9 2 2 : 2 : , < & 7 0 0 0 0 v V V V L L L U L w e e 0 4 0 0 4 s L V V B s s v v 7 ; : & 9 v v g s y t t t c b ",
"u 9 2 2 2 2 9 9 < 9 , : 2 : 2 # & , , a a s s m U V U L L L L L 5 5 0 5 4 4 4 5 s L V L m v c s v 7 ; 2 & 9 v v g g t t y t c b ",
"u 4 - 2 2 2 4 4 < 9 2 & 2 & & 2 2 , 2 p s p p m P L L U L L P V 4 4 4 0 5 0 0 4 s L L S V g g v v 2 ; 2 & 9 v s v g t t t t c b ",
"u t : 2 - 2 7 < 7 < , : & 2 & , & & 2 i p a p V L L L L U L P L e 4 e 4 4 4 4 5 u L J J V g g g c 7 & 2 & 0 v g f s t y t t f c ",
"u r 2 2 2 2 9 9 4 9 2 , 2 , : 2 7 7 7 c M v v S U U U P V V m v 7 , 2 : 4 e t 4 v Y U Y Y b n h n 9 & : 6 9 s s u s g g g g s s ",
"r 4 3 7 2 2 4 r r w r 9 9 9 r s u u s U Y Y U H ~ ` ' U k M M s o o o o 4 y y e n W T W F C Z C Z < & ; & 7 u u t s v g v v u u ",
"e w 5 7 0 2 t r w e r 4 r < r u p p u D P Y P W ~ H ` Y s N M M % % $ o 9 y y e n W T R T n h C Z 9 & & & 4 k u u s g g v g s u ",
"r w 2 7 3 7 w e t w w r w 9 r u u p u U Y I Y R ~ W ` F s v M s $ o $ $ 9 u y e j W W W R Z C Z Z r ; ; & 5 l u l u n g v v s u ",
"r e 0 3 2 4 w t w r r 4 r 4 r t t s u U Y Y I W ~ ` ` F M M v M $ o % o 2 t e 5 s Y P P S f a a d , ; ; % : 4 9 4 4 r r 9 r 9 4 ",
"t 0 2 7 7 3 9 0 9 9 7 < 7 7 9 z z s N ` [ { [ [ ' ' ' Q v n v v & $ $ $ % ; % % 6 t t t t 2 : 7 6 $ X o o % , , 2 : 2 = 2 # 2 2 ",
"0 0 7 7 7 7 7 7 7 7 7 & 7 & 9 z z g g [ | | { } ' ' ' ' M B n v # X $ $ % & % % 6 u p p i 7 6 7 7 ; o o o ; 2 = , 2 2 2 2 2 # 2 ",
"0 0 7 7 7 0 7 7 7 7 7 2 7 7 7 g z l g ( | { | [ ' ' ' Q v N n v # $ $ @ % % & % 7 u t u i 7 < 7 7 $ X o o % 2 2 2 : , , 2 , 2 2 ",
"0 8 2 7 3 3 6 7 7 7 7 7 < 7 9 v z g z [ | | | } [ ' ' ' m m v n # X $ @ % % % % & p t i t 8 7 6 7 % o % % % 2 , # # 2 : : 2 2 2 ",
"q i i q i p 0 0 0 t 7 2 & & 7 i t 0 t I R R R I T T Q L p a s a # @ % % & % 6 ; % & 6 & % 7 7 7 7 7 8 8 7 6 + + + # & : : & 2 5 ",
"p g Z S S S s s a s i : : 2 : 2 # : : j J J J V L L L m w y y y & & % & % 6 % % $ & % % % 7 7 7 7 7 7 7 8 7 + + + + & : : : 2 9 ",
"a a Z Z Z m f a s s 9 & , : , # 2 2 : j K J J K L L L V y y y y & % & % % % & & & % % & % 7 8 < 7 7 7 7 7 6 + + + + = : & ; 2 4 ",
"s a Z S Z Z g u a s 0 # : : : 2 2 2 : n K K K K U L K L y y y d 7 & % ; $ 6 & $ & % & & 6 6 6 7 6 6 7 7 7 : @ + + + # : : : 2 0 ",
"s s Z S Z S g s s g i 2 2 7 2 2 2 # : s j g g n V v j h w w 9 9 $ o $ $ $ $ o $ o 6 % # % S G F R F Y G R A 2 2 2 2 2 2 2 2 t g ",
"m m U Y I I Y I U Y n 0 t t 4 % % & & = 3 : - 2 9 < w < % % & %     .   o o o   X & & ; % ! { / ] / ] ] { H 2 2 2 2 2 2 2 2 t g ",
"V L Y Y I I I R Y R J 9 t t t = & % & : 6 : 6 5 r w w w 6 % ; 6 o o o o o . .   o = ; ; = F / / ~ / ! / / I 2 2 2 2 2 2 2 2 t j ",
"V L P Y I R I Y I Y Z 0 t t 0 & # % % : 2 3 2 , w w w w ; 6 6 6 o . .   o   o   o % ; % ; F / ~ / / / ( / R 2 2 2 2 2 2 2 2 t g ",
"V L I Y Y I Y I I T B e t t t % = & = : 2 : 2 < w w w w ; % % % o o o   o o . o o : 2 7 & R | { { ] ~ ~ / R > # # = = & = # 9 j ",
"V L P U U U Q ~ ! / I t u u p , & : 6 6 , < & & 6 o 6 6 .   .   o $ o $ $ $ % @ % < 9 9 < ` X...X.| ^ ^ ^ Y @ @ + # @ @ @ $ 5 d ",
"m m P P P L ~ / / { R u s s i 7 7 & 7 & 6 6 6 & o ; o o   .     . o $ $ $ o @ o % 9 9 7 7 ` X.X.X.( ^ ^ ( Y # @ # @ # @ + @ 5 j ",
"m m P P P P ! / / ) T u u s u 7 & 7 & 7 < 6 < & ; o ; % o .   o o $ o $ @ @ $ @ $ 9 9 < 7 ~ X.X.X.| ^ ^ ( R # @ @ + @ @ @ @ 5 j ",
"S S P U Y P ~ { { { R u s s s & & & & & & & 6 % o ; o %     .   o % $ $ o % $ @ % 7 < 9 2 W  .| | ( T T T P # @ @ @ # # # # 2 t ",
"g z x J B x K P K K J e t t t t p s s v c v n a + # > # @ X @ X % 6 # : = 2 2 2 7 $ % % % p z l g t 4 , , , @ $ $ $ & , # & 2 : ",
"3 3 5 1 1 3 1 1 1 1 1 5 1 5 5 V L L L P U U Y n > > > > o o o X % 7 = 2 2 5 1 2 7 % % % $ 9 l l l t , 1 4 , @ + $ o & 2 2 , : 7 ",
"3 3 5 5 1 5 5 5 5 5 5 5 5 5 5 B L V V L P D U n > > > > @ o X o & 2 = = = 1 2 2 7 % % % % 0 g s z t , , , , $ $ $ $ & & : & 2 2 ",
"3 7 1 5 5 5 5 5 5 5 5 1 5 5 5 B L V V P D P I b # > > > X o o o % : = 2 2 2 1 2 , $ % % o 0 z k l y , 4 4 , % + % $ & : , : , 7 ",
"8 3 5 5 5 2 5 5 5 1 5 5 4 1 5 Z J K L U I Y T J 2 1 , , O X @ X 6 7 7 7 4 4 w w 9 i p p p t 4 4 4 2 X $ X O   X     # , 1 > w u ",
"e t 4 4 9 2 2 = : - : < < < < P T T T Q ^ ^ ^ T 2 2 1 4 @ @ @ @ & q 7 0 9 y r w y n B V V r # , 2 =                 > > , , 4 s ",
"e y 0 2 9 9 2 & # = # < < < < P T T T Q ^ ^ ' T 2 , 4 2 @ * @ @ 6 0 9 7 9 r r y r v N v B i 2 1 2 =                 = , , , 4 d ",
"u t 0 7 2 9 2 = 2 = , < < < < P T T I Q ^ ^ ' T 4 4 2 4 @ O @ O 6 7 8 0 9 r r e r v B N N t > 2 , =                 # , > , 4 u ",
"e e 4 , 7 7 : & : = , , < < < P E T Y E ^ ^ ^ I , 2 2 2 @ @ % @ 7 q 7 9 9 t r r r n N n J r 2 1 2 2 @ o @ % @ o % o & 4 4 2 y G ",
"K K n f g c y 5 4 4 9 y r y r s l l l l w y t 4 . . . . o ; O O & 0 9 9 9 t t e t j Z Z Z a 2 2 2 1 > 2 : = ; % ; % & 9 < 2 a _ ",
"! / A Z Z S f t t t y u d u u u k k k t 5 5 5 5 . . . . o ; o O 6 9 0 9 9 t t r t j Z C Z u 2 2 2 2 # # = 2 % ; % ; 7 < 7 2 a ) ",
"! ! A Z S S f t t t e y u u u s l k l t w w 4 5 . . . . X * % O 6 i 0 0 9 t e t t j Z Z Z u 2 2 2 2 # = # # ; % ; o & 9 < < a _ ",
"! ! A n b n g 4 e 0 w y y y y k k k k t w w e 4 . . .   X ; O O 6 i 9 9 9 t 0 t t j Z x Z u : 3 3 2 3 3 2 5 # # ; : , 2 7 2 i H ",
"! / T P Y Y K u g u g j j j J u t 9 t 0 : 2 6 6 X X X   o O O o % & : 7 7 7 : : ; 0 4 4 4 4 5 5 4 t J J L J y w w r 4 : 2 # 9 J ",
"[ [ } | |  .^ n K Z J P P I I y , 4 5 2 6 6 ; ; o   X X o X X o ; 6 6 6 : 6 6 : 6 3 5 5 5 3 4 0 5 0 B J J J y 4 w w < : 2 2 4 J ",
"] [ } | } | ^ B n J Z P K K I y 4 9 4 2 ; 6 6 ; X o X X o O o o ; 6 : : 7 : 6 : 3 7 5 5 5 0 5 5 5 5 J J B V y 4 w w 4 , 2 2 0 K ",
"[ [ | | }  .^ n J Z S P A D I y 2 5 4 2 ; ; ; :       o o o o o ; 6 : 7 : 6 6 6 : 9 4 4 5 5 5 5 5 0 B J Z J y 4 r w 5 : 2 : 4 V ",
"[ ` [ } [ } W n n B Z D I I I g e t w 4 8 7 7 2 ; ; ; ; ; % o O ; ; : : : - - - - 3 - 3 : 0 f g g n K P K I J j j x s 7 3 7 8 k ",
"n v N v v v v M g g v F R F R S x C x x t k k e 2 2 2 2 : = ; ; ; ; ; ; ; - - - - - - - * 5 Z b n C I I I K J x x B l 8 8 8 8 t ",
"M s g g s v s v s v g Y F Y Y A x j J z e t t t 2 2 2 2 : ; ; ; ; ; ; ; ; - - - - - - - * 0 n j j j I I I I J x x J l 8 8 8 8 l "
};
