/* XPM */
static char *result[] = {
/* columns rows colors chars-per-pixel */
"64 64 87 1 ",
"  c #3C0774",
". c #3C0874",
"X c #3E0779",
"o c #41076F",
"O c #41096D",
"+ c #410773",
"@ c #430A75",
"# c #490E75",
"$ c #44067C",
"% c #48057F",
"& c #440A7B",
"* c #490D7C",
"= c #4C117C",
"- c #53147D",
"; c #55187B",
": c #450683",
"> c #490684",
", c #450983",
"< c #4B0C84",
"1 c #46068A",
"2 c #4A068C",
"3 c #460888",
"4 c #4C0B8B",
"5 c #500F84",
"6 c #510E8D",
"7 c #4E1082",
"8 c #4F1088",
"9 c #531584",
"0 c #54128C",
"q c #59168D",
"w c #4D0791",
"e c #4E0992",
"r c #520794",
"t c #530C94",
"y c #580F97",
"u c #550B9A",
"i c #590E9C",
"p c #551192",
"a c #5A1494",
"s c #5C129C",
"d c #60149D",
"f c #5C0EA2",
"g c #5F0FA8",
"h c #5E11A3",
"j c #610EA5",
"k c #610FA8",
"l c #6212A5",
"z c #6917A6",
"x c #661AA4",
"c c #691AA6",
"v c #6513A9",
"b c #6A16AD",
"n c #6C1AAD",
"m c #701CAE",
"M c #6D16B0",
"N c #6E19B1",
"B c #7017B1",
"V c #721CB4",
"C c #761FB9",
"Z c #781FBB",
"A c #6F20AC",
"S c #7322AF",
"D c #7521B5",
"F c #7922B6",
"G c #7721B9",
"H c #7C24BB",
"J c #7E28BC",
"K c #7F26C1",
"L c #8226BE",
"P c #8129BE",
"I c #8631BF",
"U c #8227C1",
"Y c #832BC2",
"T c #892DC4",
"R c #872FC8",
"E c #8A32C6",
"W c #8C39C4",
"Q c #8D35C9",
"! c #8E3ACA",
"~ c #9235C9",
"^ c #933BCB",
"/ c #9440CD",
"( c #9842CE",
") c #9442D0",
"_ c #9A46D0",
"` c #9C48D1",
"' c #A14DD4",
/* pixels */
"222tvbkvbbbbghgggvhh2424e6puvbvvguuu<<<<ffshDHJGsuyp*===***7euut",
"2r2ekvbbbbbbghghhvghw422tppugbvvhusu<<<<ufffGHJGsuut====*<*<ttuu",
"2e2tvvvvbMbbghlgglls4222ep6ugbnbuuup<<<8sfffGHJGsuup====*=*<euuu",
"yttyvMbMMvvMvvvvvkvl2114666pgnggsust<<,<ufufDGDVypup7*=<<<<<ueuu",
"WWWWJJJHvvvbHKKJNnBv:XX+XX7Xufuup6p8...*wrrreure444466662eewtutr",
"(^/^YUUKbvvbKUKKVnBbX   .X.Xtpuue868#...wrr61111<<846426rwteterr",
"((/^YKUJbkvbKKYKVnNb$X  ..XXuuup8p88..@#wrrw11114<44e66rreetteru",
"!!!!KKKJNnnnJJJJbbblX   7X=7ufuuppp0*#XXwurueeew34<446442teeuuuu",
"KGKGNnNNQ^^WNbnb6<4>@.. eetunNNNNNVnuttughggvkvg444<@@+&tttubNMN",
"GGGVnbbN^/(^nbbl4,,,..  eurunVNNVVGNhuuuggggvvbk0<4<@OO@tttiMNNN",
"GGGGbbbN!((!Bvbl<>,,.   rrruMNNNNVDNuuufggggvvvh4<4>@+O@etyyMNNV",
"DDGVnbbNW^^Ezzzl<,,,++ $uiuhMNNNCVGNfuuuggvgnNNv6465@++@4trtbnNN",
"hhshbbbbnNVn0655*##*ereuGHHHnbnbNNVNyetphhfvW!/Wvffy<,<<#@@*fhhk",
"ssssvbvbnbbv0-<5*##<ruufJUPJNbbNNNNbuptpsssx!/)!bjjf4<<<@+.@iggg",
"saahvbbbbbbx079<*#&*uuufJYUPbbnANVNnuttpsshv!//!bjjf<<<<@.+@igfh",
"ssssvbvbbbbv6777*#*<efufJPUJNbnSVNVNppptshsx!//!bjjj6<<<@@+&ihff",
"0060dlldq909=***ppphADDDNNNnaqqqssas68880<90cmnmnVNnhhls7<,7<<<<",
"775<sdha;#==###*hggnJKKJbvxlq999qqqq6438===7ydilVVVVbbbl8<<,.*.#",
"7779shss====###*hhhgHLJJbvbxq99qqapp843<*==7sjjjNGGNbvbv83<<&@@@",
"7779sssa====*##=hhhgHLUHnvxc9999pqpp8483=**=sfdjDNDCbbvv4<<<##@&",
"%&%%0pp8<**=piusLPPPmBBzaqqq99;997778p68********hhllGHHDnzbx7@**",
"$%&:0004<*<<hggvI~~Ebvzzq999;999====pppp***&OOo+tyusJUYKVVVn7*#*",
"%%%%6008<<<<fggxI~~TBjjzq9999999-===6p6p<***@OO+tuiiHKUUVVVn*&**",
"%%%>660t<*<8fggxI~~Tzblj99999999====6pp6***&@OO+tyyfHKKKCVDn7#**",
"xzzzjdjiyttaSDDFCVVmt000***<8p4p600pttttttte%@+%*<<<hxxnLLPLdyay",
"VVVVbvvviyydJJKJBbbb9=-*****pyypyypuuuuufffu:$$%****yifhLTTPzjvh",
"CmVVbkvliyyiJJUJMMbv0==7****tppttuppuuusfufu>%%$&**=iishLTTPvhgh",
"mCCVblvliyydHPKZNbMv9=77***<pytppytutuuuuffi,*$:&#**uishPTYPvhhh",
"zBzzrrrr4>>2jvgguuyy<<<<888644<6djjjfuffvMMbjjls%@&&7<78xccxvlll",
"zjzl6244::%>rfffeere<<<<ptp4<<<6jvbvhfffMBMNnMnv*$@&X7&,psasdlll",
"jjzjw44<:::>ufurteee<<<<6ppp<<<<lbkvjiufbNBBMbbv,.&X*X&*psssslll",
"jzjjr422:::>ffffreee<3<<66ep<<<<jbbbjffgMBNBbbnz,&&&*,&<paasxlll",
"vMMvueee4444hfgfttue3e3e424>$++%lBMNGGHJ~T~Ellls<<,*&&+%svgkvvgv",
"NNNMueue6e84fgllutteee11114>+oo#zVnVURTT^(^~lyii4<<<%++:vbbbvvvv",
"NNNMeweee84thhgftttue11e2>1>ooo+vNNNKRUR^^^~liii5*<<&++%lMbbvvxg",
"NNMguueee646hlljsueueee1424>+oo$vnNVKUUT^^^~lify6<<<%+$&lvvvvvgx",
"gggfe6eepupyCHZZNNAn6<44$$$$3,44uhhhDGGGVZFVnvbbssha43>>rfffuuuu",
"uuuu84<8uyyhHYYYHHKDe<<<+XXX3w2euyyfNVVVBbBbVVVNvhhhe322ruruueut",
"uuuu448eusyhLUYYGKGV8<<3XXXXweeeuuyuNVVVMnbnNVVnhhgh4412urureuet",
"uugu4448pyysHLUUGGHD0<<3,XXX1e1euyisNVVVMMMbVVmmlhhhe311rfrurrtr",
"ueee8388=-*-ddxlKKJJSDDAe111eeeelbbbbnnmYEEYPLLFp333XX X11111111",
"e34e888<#O##0tyyHKJRYYYGr11eeeerbNNNbbbm~^^^LPPLe,3,X.XX11111133",
"4444888<####ttadJKKKYKKJee1e1eeebNNMbcbN~^~~PPLL83,,... 1:1:3333",
"e444888<####tyyyHKKKYYKJrew4eeeebMNNbnbN~^^^LLLL3,,,X..X1111:333",
"uuuuhhhs,&,%4000xvvnRREEDDDDuweugglvKKUULPLLd0iyXX.X3334ASVneeet",
"ssyhbbnx4,:,<7<<ysihW!Q!ERWPuurrfhgvRQQEFFLCw>2>...XeeepHKKKhuuu",
"siihvbbx4,,38770yfslQQ!QWR!KuerrfgflYQQTLHFVr>2>....eeetFKKGgufu",
"siusbbnv4,,><8<6uihgR!!QRRRKuurrfghvTQQTHFLV6>2>..X.4eetJKKZfueu",
"uruiSJGJxxxx4<<444eeASDDITTJjjjjkvkbLYTPzlll5797<<46bccnYETPirur",
"etriKKKKKKJJp656,$$:tpppJPIJBMbMbMbMHHLVr222===7uuuiJYYYEEEYirrr",
"urriKWKKKIJJt<44&&&,0ptsJPIJBMbMMMMMGLJFt221====ruuiKKUYETQYfrrr",
"rrriKKWKJKIFt646%&%,tppsPTYYBBbBMbnBGHJDtww4#=#=yuuiJYYYEEETfrrr",
"ruetAAnVLLPLcccc0<089q9qAAmndfjigjjlhxss4,>,8838dzzbURYYSAAAe222",
"2eeettppPTPTPLLL0604;;;9ptst2rwrrufr>3,3@@@#6upuVZZGYREKy6e6>:$%",
"eeeetupfLPLTLLLFt660;;;;ayytrww6rfur3,3>#@@&8e6uVZCGYRRYyp46>$%$",
"e4e8tpphPTTLLLLFq060-;;-ayyuwwrwrrfu,33>+@@#eupuVGCGRRRJs6pe>%::",
"343eepepmVVFW^!Enccx5*=*43<3erwtruue,XXX<<<4xNNbNVNVAccc<<<8<<<<",
"33434e86lllb_''`LZJG6444,,,,rrtrwwe3X   <e<pHURKNNNvt464#*##3<44",
"41348eeedljb(''`JHLF64<<&:&,errteeee X  444pHURKVMMb0464=##*3444",
"413348<ellln_''`JHHV6<4<,&%,6rtteee1X   44<tGUKKVNNnp666*#*#8484",
"&&&%weeefllvPIIIVCCBt2e444etvvbvffff3,,,ffuhNKKDhshs55657<<<<448",
".O.+ruuuljllxbbbbnbbuuruutyyCZGGvvgMee1ebMMMNMNNt488-5-*<<<4<44<",
"OOOOerrujlllbzzbMMbbirueuuuiCCZCbvggeeeevMMMNVVNt688*-9=834<844<",
"OOOOtruujlllvbbbnMMbfuuuupuyCZZCbvggeeeevMMMMVNnp8885-*78<<834<4"
};
