/* XPM */
static char *result[] = {
/* columns rows colors chars-per-pixel */
"64 64 28 1 ",
"  c #3F1617",
". c #411617",
"X c #4A1516",
"o c #421718",
"O c #4B1718",
"+ c #451819",
"@ c #4E1C1B",
"# c #511515",
"$ c #501817",
"% c #531C1C",
"& c #5A1E1E",
"* c #55201F",
"= c #581F20",
"- c #572121",
"; c #5C2323",
": c #612626",
"> c #622827",
", c #642828",
"< c #6B2D2D",
"1 c #6F3030",
"2 c #723232",
"3 c #783737",
"4 c #763738",
"5 c #783738",
"6 c #7C3B3C",
"7 c #803E3F",
"8 c #813F40",
"9 c #844243",
/* pixels */
"###%---%####%%@->,,;%%@-22222221<:,,,,,:+ oo=,,,,,,><222<>>,:=;=",
"###%---%####%@@->>,:@@%*22212221<:,,:,,,+   =,,,,,,,<221<>,>:=--",
"###%---$###%@@@-<>,;%@@-22221222,>,,,,,:@ .o->>,>,,,<224<,,>;=--",
"%%%;:;:;&&&=**%*---*+++@;>;;<<<<<<<<:---OXXX@@@@;,,>><<<>==;=%@=",
"==-;,,,,,,,;----@@@+..oo@@@*>>,,1222%@@@$###o   -,,,,,,,-@@@@###",
"---:,,,,,,,;---%@%@@...o@@@%,,,,1221-%@%$###Xo  -;,,;,,,-@%%%X##",
"---:,,,:,,>;----@@$+...o@@@*:,,,1211*@@@$###o.o -,,,,,,;;%%%####",
"<,,,,,,<<<1<;;;;-%*@..oo@$$$---;<<<<-**%$$$#XXXX=,,,;;;;--==;:::",
"222<,,,<222<>,,;---*  .o####@@@@;>,>;---=@@@$###&,,:;@@@-<,,<122",
"221<,,,<222<>,,>----  oo###$%@@%>>,>----*@@@$###&,,,-@@@-,,,<122",
"222<,,,<222<,>,,;--= o o####@@$%:,,>---=@@@@##OO&<<:;@%%-,,,<222",
"5651<<<<<<<<<<<,;;;-++++$%%-;>::>,,,,>>,,,;;=%%*&&&**----;;-;<<<",
"9996222<,,,<2221,,,>%@@@---,1222,,,,12222222,-;-%###&,,,;@@@%,,,",
"9995222<,,,<2221,,,;@@@@----1222,,,,12222222,--;%###&,,,;@@@&,,,",
"9996121<,,,<2221,,,;@@@*---;1222,>>,12222222;--;%###&,,>-@%@-,,,",
"76665551<,,<111,;:;;---;;;,,43552111111112221;;;%###;,<<;-%--;:;",
"22268996222<,,,;%@@->,>,122389999999<:,,12222222:@$@>222<>:,;---",
"22169986222<,:,:@%%%>>,<222299999999<,,,12222212:@@@:222<>,,,---",
"21279997222<,,,;@@@*>,,,222399999999<,>,12222222;@@@:222<,,,,---",
"<<,377721<1<;,:-@$$-<,<<233699999666<<,<<<1<<<<<:*%*:2<1<<,<,;-;",
"###,2221,:,;---=###&22228999999942222221,>>,-%@%;>,>,,,:<2221,,,",
"###:222<,,,;---%###&12249999999922222222<>,,-%@@-,>,,,,,<2221,,,",
"###:222<,,,;---%###%22248998998822222222<,,>-%%%;,,,,,,,,2211,,,",
"###:111<<,<;---%X#X&12226777887742222<2<:;::%@@$;,>,,,<,<4442<,,",
"###&,,,<222:@@%@...@1221,,,<22222221<>,,%@@%@###&,,,<22169996222",
"###&,,,<222:@@@+.. @2221,,,,22222221,>,:*@@@$###;:,,<22269997222",
"###&,,:<222:@@%@o  @1221,,,<22221222<,,,*@@%$###&::,<22269996222",
"###:,::<1<2;@@@+o o@1211,,,,112211<1,:::-%*%$%##=:::<12139997422",
"21<:=;;&%&#$oooo+@@*>,,<1211<,,,&##&##%#:<1<,:::;%*%;<,<29999989",
"222,-&=%###X.oo+@%@%>,><2221,,,:########<222<,>,;$@@-,::29999999",
"222,---%###X ooo@@@-,>,,2221,,,:&#######<122<,>,-@@@;,>>49999999",
"221:=--%###Xooo+%%@->>>,111<:,::#######&<222<,,>;*@%-:,:29996999",
"><,;@%%-:::<<<<<:>>;%*%-****%##%,,&,,&,,<2222111,:::&###:<<<<333",
">,>-@@%-:::<2211>,,;@@@@@@@$####,,,,,,,,122222221,,,&###&,,,,211",
",,>;@%%-,,><2221,,>;@@@@%@%@###$&,,,,,,,12222222<,,,&###&,,,<113",
">>>-%@$;:<><2221,,<;@*@%@@$%###$,,,,,,,,<2222221<,,,&###&:::,111",
"==@-:::<11137886111<::;;ooo+@%@%:,,,<111<,,<<2221111&####&%##&&%",
"@@@;,,:1221699972221,,,;o +o@@@%:,,,1222,,,,<2222222:########&%%",
"@@@;,,,<222699972221,>>;+  +@@@@:,,,1222,,,,<2222222:#######$@@@",
"%@@;,,:<21169897222<,,,;   .@@@%:,,,2222<,,,<2221122:#####O##@@@",
"--->111<<,<<34422221,,,;....@@@@,221677721112222>*--@oo+X.X.o%@@",
"--->212<,,:<2222222<,,,;...+@@@*<222799942222222;@@%+ o ... o$@@",
"---<222<>,><22222221,,,;...o@@%@<222799942212222>@@@+o  .. .+@@@",
"---<221<,,,<2212222<,,,;...o@@@*<222999942222222;@@@+o   .. +@%@",
";>;;;;;;*-*>2222<<<,---%XXXX++o+::;;4664<<<<:&&&-++++@+@@@@@@@@@",
",,,-@@@-@@%>2221>,,:%@%$###X....@#@@<221,>,>&###o...+@@@@---*@@@",
",,>-@@@@@@@:2221>,,;%@%@####.. .+%@%<222<>>>&###X...@@@@----*%@@",
",,<-@@@@@@@:122<,,,;@@@@###X.. X@$@%<222<>>>&###o . +@@@@---*@@@",
"-&&;--;::,>,<<<,*;*;>>>>**&&#XXX@@@*;>;:&&&&&,:,;--%;,>>;;;;;$%O",
"###&<,:<222<,,,;%@@;2221,><:####@@@@@@@@####,212<:,><2221,,>:###",
"###&:::<222<,,,:@@%*1221,,::&###@@@@@@@@####,222<>>,<2221,>,:###",
"###;<:,<222<,,,;@@@*1221,:::####@@%@@@@@####,222<,,,1222<,,,=###",
"%%%:<<<<<<<<<<<,:>:<6664<<<,####@@@@@@@@%%%%;1<<<<<<25752<<<,###",
"=&-,222<,,:<222222239998222<####@@@%@@%@====,,>,<22269997222<###",
"---<222<,,,<222222149998222<####@%@@%@@@=---;,>,<22269996121<###",
"---<212<,,,<222222149999222<####@@@@@@@%----;,,,<22269997222<###",
"%=*,11<<,<,<222244446654,<<>%%%%@@@@@+@@-;;;><,<<11127772111,&&#",
"@@@;>,,<222222269996<>,:@@@@----%@@@+   ;,,><222<,:,<2121:<:::,,",
"@@%->,><222212249996>>,>@@%%----@@@@+   ;,,,<222<:,:<222<:<,,:,,",
"%@%;>,><222222249996>>,;%@@%----%@@@+  +;,,,<222<,,,<222<:::::<:",
"@@@;;:;<111222247774>;;;--%-;;;;*%@% +  -:;;,211<<<,<2221,,:<<::",
"@@@@@%%;,,:<2221222<%@%%>>>,1241;---o   +%%%:,:,<2222222<,,,::<:",
"@@@@@@$;:,:<2222121<@@@*>,,<1221;--*+ + @@%%&:,,<2222222<:,,<:::",
"%@@@@@%;,,:<2222222<*@@->>,,2221;--*+.  +%%%&,:,<22122221:,::,,,"
};
