/* XPM */
static char *result[] = {
/* columns rows colors chars-per-pixel */
"64 64 234 2 ",
"   c #0C0B0F",
".  c #08060A",
"X  c #08070B",
"o  c #07060A",
"O  c #050506",
"+  c #0A080D",
"@  c #14111C",
"#  c #15121E",
"$  c #15131E",
"%  c #13111B",
"&  c #070608",
"*  c gray2",
"=  c #040405",
"-  c #0D0A10",
";  c #3A294F",
":  c #412D58",
">  c #412D57",
",  c #3E2C54",
"<  c #2E2441",
"1  c #2C243E",
"2  c #2C243F",
"3  c #272037",
"4  c #09080C",
"5  c #0A090D",
"6  c #282138",
"7  c #2B233E",
"8  c #2D2440",
"9  c #2B243E",
"0  c #030206",
"q  c #020105",
"w  c #000001",
"e  c #020205",
"r  c #050308",
"t  c #0F0C17",
"y  c #110E1A",
"u  c #020104",
"i  c black",
"p  c #08050C",
"a  c #37254B",
"s  c #3D2955",
"d  c #3D2954",
"f  c #3A2850",
"g  c #2A213D",
"h  c #28203B",
"j  c #231C33",
"k  c #040307",
"l  c #050408",
"z  c #231C35",
"x  c #271F3A",
"c  c #2A203D",
"v  c #3A2851",
"b  c #3A2750",
"n  c #29203D",
"m  c #030205",
"M  c #000002",
"N  c #100D18",
"B  c #020204",
"V  c #08050B",
"C  c #37254C",
"Z  c #3F2A56",
"A  c #3E2A55",
"S  c #3B2952",
"D  c #2B213E",
"F  c #29213C",
"G  c #241D34",
"H  c #231C34",
"J  c #3B2852",
"K  c #3E2955",
"L  c #3B2851",
"P  c #2A213E",
"I  c #28203C",
"U  c #010002",
"Y  c #040308",
"T  c #06050A",
"R  c #0E0B15",
"E  c #0D0B14",
"W  c #010102",
"Q  c #07050A",
"!  c #07050B",
"~  c #0E0A14",
"^  c #332346",
"/  c #39274E",
"(  c #38264E",
")  c #35254A",
"_  c #251D37",
"`  c #241D35",
"'  c #1F192E",
"]  c #050407",
"[  c #0A080F",
"{  c #271E38",
"}  c #2C213F",
"|  c #36254B",
" . c #38264D",
".. c #0D0B15",
"X. c #0F0D18",
"o. c #040306",
"O. c #312144",
"+. c #322245",
"@. c #191325",
"#. c #151020",
"$. c #161120",
"%. c #130F1D",
"&. c #201A2F",
"*. c #261E38",
"=. c #39274F",
"-. c #37264C",
";. c #3F2B56",
":. c #15101F",
">. c #100D19",
",. c #010103",
"<. c #050409",
"1. c #251E36",
"2. c #2B223F",
"3. c #3C2952",
"4. c #0E0B16",
"5. c #020103",
"6. c #251D36",
"7. c #2B213F",
"8. c #3E2A56",
"9. c #070609",
"0. c #09060E",
"q. c #0A0710",
"w. c #0C0812",
"e. c #140F1E",
"r. c #161121",
"t. c #140F1D",
"y. c #040407",
"u. c #0C0911",
"i. c #352549",
"p. c #36254A",
"a. c #221B32",
"s. c #261E37",
"d. c #281F3A",
"f. c #130F1C",
"g. c #0E0C16",
"h. c #0D0A14",
"j. c #040406",
"k. c #312143",
"l. c #261D37",
"z. c #20192F",
"x. c #271E39",
"c. c #161221",
"v. c #241D36",
"b. c #29213D",
"n. c #251E37",
"m. c #29203C",
"M. c #0F0D17",
"N. c #13101E",
"B. c #352449",
"V. c #271F39",
"C. c #211B31",
"Z. c #09070E",
"A. c #261F38",
"S. c #120F1C",
"D. c #110E1B",
"F. c #211A30",
"G. c #2C2240",
"H. c #181224",
"J. c #151120",
"K. c #13101D",
"L. c #0F0C18",
"P. c #14101E",
"I. c #2A223D",
"U. c #0F0C16",
"Y. c #342448",
"T. c #38274E",
"R. c #221C33",
"E. c #221B31",
"W. c #060608",
"Q. c #08060C",
"!. c #13101B",
"~. c #312244",
"^. c #15121D",
"/. c #3F2B57",
"(. c #28213C",
"). c #14111D",
"_. c #38264C",
"`. c #07060C",
"'. c #0A070E",
"]. c #060409",
"[. c #030306",
"{. c #100D1A",
"}. c #13101A",
"|. c #181223",
" X c #040408",
".X c #0E0C17",
"XX c #332347",
"oX c #171223",
"OX c #09060D",
"+X c #312245",
"@X c #342449",
"#X c #1A1427",
"$X c #130F1E",
"%X c #0C0912",
"&X c #322346",
"*X c #211A31",
"=X c #272038",
"-X c #201A30",
";X c #171222",
":X c #241C34",
">X c #100E19",
",X c #08060D",
"<X c #302143",
"1X c #28203A",
"2X c #3E2B54",
"3X c #06040A",
"4X c #120F1D",
"5X c #110D1A",
"6X c #060509",
"7X c #402C57",
"8X c #402D57",
"9X c #3B294F",
"0X c #130E1C",
"qX c #191423",
"wX c #13111C",
"eX c #120F1A",
"rX c #07060B",
"tX c #0A070F",
"yX c #0D0913",
"uX c #110E19",
"iX c #322246",
"pX c #14101F",
"aX c #3C2953",
"sX c #09080D",
"dX c #1F192D",
"fX c #241C35",
"gX c #0B0810",
"hX c #261F36",
"jX c #221B33",
"kX c #20192E",
"lX c #1F182D",
"zX c #09070D",
"xX c #14121D",
"cX c white",
/* pixels */
"  . X o O O O O O O O O O O O O O O O O o X X + @ # $ % & * O O O O = - ; : > , < 1 2 3 4 = O O O O = 5 6 2 7 < , > > , 8 7 7 9 ",
"o 0 0 q w w w w w w w w w w w w w w w w e 0 0 r t y y t u w w w w w i p a s d f g h h j k i w w w w i l z h x c v d d b n x h h ",
"o 0 0 m M w w w w w w w w w w w w w w M m 0 0 r N y y t B w w w i i i V C Z A S D h F G l w w w w w i l H h x c J K K L P h h I ",
"o 0 0 m M w w w M M M U B B B B w w w U Y r r T R t t E u w w W Q p ! ~ ^ / ( ) _ H ` ' k w w W ] l l [ { D c } |  . .) _ H H H ",
"o 0 0 m M w w M e 0 m Y ..t t E u w w B ..X.X.R o.B B u w w i ! O.C a +.@.#.$.%.Q l l k U w w l &.` H *.=.J L ) @.#.$.%.T l l l ",
"o 0 0 m M w w M m 0 0 r t y y t B w w B t y y t u w w w w w i p -.;.;.( :.X.>...,.i w w w w i <.1.F h 2.3.K K -.:.X.>...,.i w w ",
"o 0 0 m M w w M q m e Y 4.>.>.4.5.i i B t y y t B w w w w w i V a Z Z  .#.>.>.4.5.w w w w w i <.6.F h 7.3.A 8. .#.>.>.4.u w w w ",
"9.e m e M w w ,.0.q.q.w.e.r.r.t.! l l T R t t E u w w W y.l l u.i.3.3.p.:.>.>.4.o.B B u w w w l a.s.6.d.=.S 3.) f.4.g.h.5.w w w ",
"j.w M M w w i Q k.-.a C  ./ / | l.H ` z.T u B u w w w l &.` H ` g D D x.%.>.>.>.t t t E u w w m y %.%.c.d.D 7.6.T 5.B u w w w w ",
"= w w w w w i V a ;.8.A A A Z 3.7.h F ` l i w w w w w <.v.b.I h h h h 6.%.>.>.y y y y t B w w B t >.N %.n.h h j k i w w w w w w ",
"= w w w i i i ! a Z A d d A Z 3.D h m.G y.i w w w w w <.` b.I h h h m.n.%.>.>.y y y y t B w w B M.y >.N.*.I F H y.w w w w w w w ",
"= w w W Q p ! ~ B.S v f  . .( | V.n.n.C.Z.l l y.U w w l C.A.s.n.H H G C.S.>.y y t t t E u w w B E t g.D.H *.A.F.k w w w w w w w ",
"= w i Q k.C a i.G.P D d.H.#.#.#.%.%.%.J.a.` ` ' k w w e y N.K.y T l l T L.y y t o.B B u w w w w u B u k D.N.P.y B w w w w w w w ",
"= w i p -.;.Z 3.D h h n.%.X.>.>.>.>.N %.A.g I.` l w w B t y y g.5.i i B t y y t u w w w w w w w w w w B t y y U.u w w w w w w w ",
"= w i p a Z A S D h I n.%.>.>.>.>.>.>.K.A.g I.` l w w B t y y t B w w B M.y y t B w w w w w w w w w w B M.y y t B w w w w w w w ",
"= w i ! Y.3.S T.d.6.n.R.%.>.>.>.>.>.>.f.E.` ` ' k w w B E t t E 5.w w B E t t E 5.w w w w w w w w w w B E t t E 5.w w w w w w w ",
"= w w l _ 7.D d.r.%.%.S.>.>.>.>.y y y t T l l k U w w w u B B u w w w w u B B u w w w w w w w w w w w w u B B u w w w w w w w w ",
"= w w l H h h _ %.N >.>.>.>.y y y y y t u i w w w w w w w w w w w w w w w w w w w w w w w w w w w w w w w w w w w w w w w w w w ",
"= w i l ` F I n.%.>.>.>.y y y y y y y t B w w w w w w w w w w w w w w w w w w w i i i i i w w w w w w w w w w w w w w w w w w w ",
"W.B u T E.*.n.j %.>.>.>.t t t t t t t ..o.B B B w w w w w w w w w w w w w w w W ! Q.p V <.l l y.U w w w w w w w w w w w w w w w ",
"!.t t t S.%.%.%.>.>.y t k B B B B B B o.R M.M.E u w w w w w w w w w w w w w i ! ~. .-.B.s.` v.' k w w w w w w w w w w w w w w w ",
"^.y y >.>.>.>.>.>.y y t B w w w w w w B t y y t B w w w w w w w w w w w w w i Q. ./.Z 3.D (.I.G y.w w w w w w w w w w w w w w w ",
").>.>.>.>.>.>.y y y y t B w w w w w i u 4.>.>.R ,.i i i i w w w w w w w w w i Q._.Z A S D I I.G y.w w w w w w w w w w w w w w w ",
").>.>.y y y y y t t t E o.B B m l <.l `.e.r.r.e.'.p p V ].<.<.l U w w w w w i Q.B.3.S T.l.H ` ' k w w w w w w w w w w w w w w w ",
").>.y y y y y t k u u [...t t y a.` H *.| / / ( C a C Y.l.` 6.z.k w w w w w i ].*.D D l.Z.y.l k U w w w w w w w w w w w w w w w ",
").>.y y y y y t B w w B t {.>.K.*.m.h 7.3.Z A A 8.8.Z 3.7.(.I.` l w w w w w i <.` F (.H k i w w w w w w w w w w w w w w w w w w ",
"# y y y y y y t B w w u 4.>.X.%.n.I h 7.3.Z A 8.8.Z Z 3.D h b.` l w w w w w i <.1.I.I.` l w w w w w w w i i i i i w w w w w w w ",
"}.t t t t t t E o.B B k %.r.$.|.H n.6.V.| (  . .| p.p.Y.x.n.A.C.k w w w w w w l z.` ` ' k w w w w w w W ! Q.p ! <.<.<. XU w w w ",
"W.u B B B B u o....X4.%.XX/ / Y.oX%.%.%.#.#.#.%.OX! ! OXD.%.%.>.B w w w w w w U k l l k U w w w w w i ! +X .-.@Xs.` 6.' k w w w ",
"= w w w w w w B t >.>.r./ Z Z / #.X.>.>.>.>.>.R ,.i i 5.4.>.>.4.u w w w w w w w w w w w w w w w w w i Q.( /.Z S D h g G l w w w ",
"= i w w w w w B 4.>.X.#.T.Z Z T.#.>.>.>.>.>.>.4.u w w B 4.>.>.4.,.i w w w w w w w w w w w w w w w w i p  .;.Z S D h F G k i w w ",
"4 l <.l U w w m %.r.$.#X-.S S | #.>.>.>.>.>.>.g.o.u u k y $X%.D.! l <.l U w w w w w w w w w w W l <.l %X&X(  .) x.6.*.*XT u B B ",
"=XH ` z.k w i ! +.=./ -.G.P D V.%.>.>.>.>.y y >..X4.4.y H n.n.n.` ` 1.z.k w w w w w w w w w w l -X6.` a.;X#.#.:.%.%.%.S.X.t t t ",
"2 h F :Xl w i V a ;.Z S P h h n.%.>.>.>.y y y >.>.>.>.N.n.I h h h F g ` l w w w w w w w w w i <.1.g g n.S.X.>.>.>.>.>.>Xy y y y ",
"7 h h H l i i V -.;.Z 3.7.h m.n.%.>.>.y y y y >.>.>.N %.n.h h h h h b.` l w w w w w w w w w i <.1.I.g A.%.>.>.>.>.y y y y y y y ",
"< P 2.l.! u 5.,X<Xa p.XX6.j H C.S.>.y y t t t t %.N.%.c.*.h h 1Xn.n.*.F.k w w w w w w w B B B ! &.` ` C.S.>.>.>.t t t t t t t t ",
"2XL 3.| %.4.g...p Q Q 3Xl y.y.T t y y t o.5.5.T a.A.n.*.h h h n.J.4X%.5XB w w w w w w B ..t t R 6Xy.y.T L.y y t [.u u u u u u u ",
"7Xd A ( $.>.>.g.5.i i i w w i u t y y t B w i <.` F h h h h h _ %.>.>.g.u w w w w w w B t y y t 5.i i B t y y t u w w w w w w w ",
"8XK Z / $.>.y t B w w w w w w B t y y t B w w <.6.g F h h h I n.%.>.y t u w w w w w w B M.y y t u w w B M.y y t B w w w w i i i ",
"9X . .^ 0XR t E u w w w w w w u E t t E u w w l ' ` H H 6.n.n.j 5Xg.t h.5.w w w w w w B E t t E o.B B k ..t t h.5.w w W l <.<.<.",
"qX:.#.0Xk 5.B 5.w w w w w w w w 5.B B 5.w w w U k l y.T y %.%.5Xo.5.B 5.w w w w w w w w 5.B u o.R t t ..[.u B 5.w w w l -X6.` ` ",
"wXX.>.4.u w w w w w w w w w w w w w w w w w w w w w i u g.>.y U.u w w w w w w w w w w w w w w B M.y y t u w w w w w i ].1.g F F ",
").>.{.t B w w w w w w w w w w w w w w w w w w w w w w B t y y t B w w w i i i i i i i i i w i B t y y t 5.w w w w w i <.6.g F I ",
"eXg.t ..k B B B w w w w w w w w B B B B w w w w w w w B t y y t B w w W ! Q.Q.Q.Q.Q.Q.p ].<.<.rXX.y y t k B B B B B B rXa.*.n.n.",
"W.u u o...t M.E u w w w w w w u ..t t E u w w w w w w B t y y t B w i ! ~.-.C C C C C @Xl.` v.a.S.>.y y t t t t t t t X.S.%.%.%.",
"= w w B t y y t B w w w w w w B t y y t B w w w w w w B t y y t B w i Q.-.;.A A A A Z 3.D h F *.%.>.>.>.>.>.5Xy y y y y >.>.>.>.",
"= w w B 4.>.>.R ,.i i i w w w B t y y t B w w w w w w B t y y t 5.i i V C A d d d d A S D h F *.%.>.>.>.>.N N >.>.>.y y y y y y ",
"= w w m %.r.r.e.tXQ.Q.p m B B k E t t E k B B B B B B k M.y y t ! <.l yX-.s d d v v L T._ R.H *XS.>.>.y #.r.r.#.5X>.>.uXt t t t ",
"= w i ! iX=./ / -.C  .^ %.t M...[.u u o.R M.t t t t t X.y y >.%.a.` H x.v d d v } c D _ Z.k y.T t >.>.J.B.=.=.XXpX>.>.t [.u B B ",
"= w i V a ;.A A 8.8.;.=.r.>.y t B w w B t y y y y y y y y y >.K.*.I h 2.J d d v g h h j k i i B t >.N r.=.Z Z  .:.>.>.g.5.w w w ",
"= i i ! a Z A d A 8.Z / r.>.y t B w w B t y y y y y y y y y >.K.*.I h 7.aXA A S D h F H l w w B X.y >.r.f ;.;. .:.X.>.g.u w w w ",
"sX<.l %XB.S L f  . . .^ 0Xg.t E u w w u h.t t t t t t t y y >.%.j n.6.V.p. . .i.6.R.H dXk w w B E t g.%.iXa p.~.;X%.N.y B w w w ",
"=Xz fXv.g P D d.oX:.#.0Xk 5.u 5.w w w w 5.u u u u u 5.o.M.y >.>.S.%.%.%.:.:.#.0XT k k o.M w w w 5.u u B 3XQ 3XgXj A.V.C.k w w w ",
"2 h h h h h h _ %.X.>.4.u w w w w w w w w w w w w w w B t y y >.>.>.>.>.>.>.>.R ,.i w w w w w w w w w w i i i <.6.b.g G ] w w w ",
"2 h I h h h h n.%.>.{.t B w w w w w w w w w w w w i i B t y y y y y {.>.>.>.>.4.5.w w w w w w w w w w w w w i ].1.I.I.G l w w w ",
"hXjXR.H x h h 6.5XR g.h.u w w w B B B B w w w W l 6X].! R t U.t t t U.t uXy y t k B B B w w w w w w w w w w w l kXG G lXk w w w ",
"X k k zXfXh h H T ,.u 5.w w w u ..M.M.E u w w l -X1.1.&.6X5.u u u u 5.k M.y y y X.t M.E u w w w w w w w w w w U k k k o.M w w w ",
"= i i l H I F G l i w w w w w B t y y t B w w <.6.g I.` l i w w w w w B t y y y y y y t B w w w w w w w w w w w w w w w w w w w ",
"= w i l ` g I.` l w w w w w w B t y y t B w w <.v.g g ` y.i i w w w w B M.y y y y y y t B w w w w w w w w w w w w w w w w w w w ",
"W.B B T ' G G dXk w w w B B B k E t t h.u w w l C.s.s.C.Z.<.].l m B B k E t U.U.U.U.t h.5.w w w w w w w w w w w w w w w w w w w ",
"!.t M.R 6Xk k o.U w w u ..X.M...[.5.u 5.w w w m y %.f.J.R.6.1.a.y t X...[.5.u u u u u 5.w w w w w w w w w w w w w w w w w w w w ",
"# y y t u i w w w w w B t y y t B w w w w w w B t >.N %.*.F F A.%.y y t u w w w w w w w w w w w w w w w w w w w w w w w w w w w ",
"# y y t B w w w w w w B t y y t B w w w w w w B t >.>.%.n.h h s.%.>.y t u w w w w w w w w w w w w w w w w w w w w w w w w w w w ",
"xXy y t B w w w w w w B t y y t B w w w w w w B t >.>.%.n.h h n.%.>.y t u w w w w w w w w w w w w w w w w w w w w w w w w w w w "
};
