/* XPM */
static char *result[] = {
/* columns rows colors chars-per-pixel */
"64 64 33 1 ",
"  c black",
". c #52391B",
"X c #513D1E",
"o c #5C3D1E",
"O c #5E401F",
"+ c #624722",
"@ c #6B4420",
"# c #6C4420",
"$ c #6C4620",
"% c #6E4725",
"& c #674B23",
"* c #694A22",
"= c #6E4A21",
"- c #684C22",
"; c #6A4D22",
": c #6C4825",
"> c #6B4C27",
", c #734D21",
"< c #704F27",
"1 c #6B5023",
"2 c #6A5128",
"3 c #715026",
"4 c #725625",
"5 c #725426",
"6 c #705029",
"7 c #805E29",
"8 c #875E3A",
"9 c #84642B",
"0 c #82622E",
"q c #87622C",
"w c #896C33",
"e c #8B6C33",
"r c #8F6D38",
/* pixels */
"                                                    ****&&&&....",
"                                                    ****&&&&....",
"                                                    ****&&&&....",
"                                                    ****&&&&....",
"                                                    2222XXXXOOOO",
"                                                    2222XXXXOOOO",
"                                                    2222XXXXOOOO",
"                                                    2222XXXXOOOO",
"                                                    ++++2222oooo",
"                                                    ++++2222oooo",
"                                                    ++++2222oooo",
"                                                    ++++2222oooo",
"                                                    ****wwww****",
"                                                    ****wwww****",
"                                                    ****wwww****",
"                                                    ****wwww****",
"                                                    wwwwrrrr<<<<",
"                                                    wwwwrrrr<<<<",
"                                                    wwwwrrrr<<<<",
"                                                    wwwwrrrr<<<<",
"                                                    ::::0000::::",
"                                                    ::::0000::::",
"                                                    ::::0000::::",
"                                                    ::::0000::::",
"                                                    ++++eeee>>>>",
"                                                    ++++eeee>>>>",
"                                                    ++++eeee>>>>",
"                                                    ++++eeee>>>>",
"                                                    ####5555----",
"                                                    ####5555----",
"                                                    ####5555----",
"                                                    ####5555----",
"                                                    55551111;;;;",
"                                                    55551111;;;;",
"                                                    55551111;;;;",
"                                                    55551111;;;;",
"                                                    1111++++6666",
"                                                    1111++++6666",
"                                                    1111++++6666",
"                                                    1111++++6666",
"                                                    ++++8888%%%%",
"                                                    ++++8888%%%%",
"                                                    ++++8888%%%%",
"                                                    ++++8888%%%%",
"                                                    ####qqqq####",
"                                                    ####qqqq####",
"                                                    ####qqqq####",
"                                                    ####qqqq####",
"                                                    ++++9999,,,,",
"                                                    ++++9999,,,,",
"                                                    ++++9999,,,,",
"                                                    ++++9999,,,,",
"                                                    ++++7777====",
"                                                    ++++7777====",
"                                                    ++++7777====",
"                                                    ++++7777====",
"                                                    ====44443333",
"                                                    ====44443333",
"                                                    ====44443333",
"                                                    ====44443333",
"                                                    4444$$$$@@@@",
"                                                    4444$$$$@@@@",
"                                                    4444$$$$@@@@",
"                                                    4444$$$$@@@@"
};
