/* XPM */
static char *result[] = {
/* columns rows colors chars-per-pixel */
"64 64 173 2 ",
"   c #1B2B10",
".  c #0B222A",
"X  c #18353E",
"o  c #3C4232",
"O  c #3A593F",
"+  c #444C3A",
"@  c #4F533C",
"#  c #54553C",
"$  c #57593F",
"%  c #595A3F",
"&  c #1E3E43",
"*  c #1F4246",
"=  c #214346",
"-  c #2B4947",
";  c #234649",
":  c #264A4B",
">  c #2A4C4B",
",  c #2B514F",
"<  c #30534F",
"1  c #2E5654",
"2  c #2F5855",
"3  c #305753",
"4  c #325955",
"5  c #3A5C54",
"6  c #345E59",
"7  c #3A5F59",
"8  c #346057",
"9  c #3F6056",
"0  c #35635B",
"q  c #3A665F",
"w  c #3C685F",
"e  c #3A6760",
"r  c #3D6B61",
"t  c #3F7166",
"y  c #545B42",
"u  c #595C41",
"i  c #5E6044",
"p  c #54614E",
"a  c #406852",
"s  c #436459",
"d  c #406A5F",
"f  c #5B6553",
"g  c #616447",
"h  c #626649",
"j  c #65694B",
"k  c #6B6E4F",
"l  c #6A6F50",
"z  c #6E7453",
"x  c #717652",
"c  c #737954",
"v  c #72745A",
"b  c #757A5E",
"n  c #416F63",
"m  c #427367",
"M  c #497465",
"N  c #447569",
"B  c #497768",
"V  c #477A6C",
"C  c #4A7B6D",
"Z  c #767B62",
"A  c #7B7E64",
"S  c #4D816F",
"D  c #54826E",
"F  c #4E8574",
"G  c #4F8876",
"H  c #518775",
"J  c #598774",
"K  c #528976",
"L  c #5A8A75",
"P  c #548C78",
"I  c #5B8D78",
"U  c #58907A",
"Y  c #67826E",
"T  c #7C8265",
"R  c #7E8569",
"E  c #628E76",
"W  c #6DA570",
"Q  c #8A865B",
"!  c #8A895C",
"~  c #928D5D",
"^  c #818563",
"/  c #8A8A62",
"(  c #81866A",
")  c #84896D",
"_  c #928F61",
"`  c #8F956C",
"'  c #939265",
"]  c #9A9665",
"[  c #9B9865",
"{  c #98996B",
"}  c #9D9A6A",
"|  c #868E72",
" . c #879171",
".. c #889272",
"X. c #919779",
"o. c #A19A67",
"O. c #A29E6B",
"+. c #83A97F",
"@. c #82BA74",
"#. c #A4A16E",
"$. c #AAA46F",
"%. c #A5A572",
"&. c #ABA571",
"*. c #ADAA73",
"=. c #A6A87A",
"-. c #ADAC7A",
";. c #B2AE76",
":. c #B4AF79",
">. c #AEB17C",
",. c #B2B077",
"<. c #B6B37A",
"1. c #BAB57D",
"2. c #BBB97F",
"3. c #83AD84",
"4. c #9FA280",
"5. c #84B087",
"6. c #8CB285",
"7. c #86B389",
"8. c #89B589",
"9. c #8DBA8C",
"0. c #91B687",
"q. c #92BD8D",
"w. c #91BF90",
"e. c #A5A984",
"r. c #BBB680",
"t. c #BDBB82",
"y. c #B6B88A",
"u. c #BABE91",
"i. c #C0BE83",
"p. c #C3BF8A",
"a. c #C1BF91",
"s. c #95C291",
"d. c #99C693",
"f. c #9CCA95",
"g. c #BFC186",
"h. c #C1C387",
"j. c #C4C58B",
"k. c #C8C48F",
"l. c #C5C395",
"z. c #C9C691",
"x. c #C4C59C",
"c. c #C8C799",
"v. c #CCCC9C",
"b. c #D1CE9C",
"n. c #D5D29E",
"m. c #CCD0A0",
"M. c #D5D4A2",
"N. c #D9D7A5",
"B. c #D4D8A5",
"V. c #DDDAA6",
"C. c #D5D6A9",
"Z. c #D6DBA8",
"A. c #DCDDAB",
"S. c #E1DFAA",
"D. c #E0DFB0",
"F. c #DEE1AB",
"G. c #DFE0B2",
"H. c #E3E2AC",
"J. c #E4E4B1",
"K. c #E9E6B1",
"L. c #E6EAB3",
"P. c #EBECB4",
"I. c #EDEDB9",
"U. c #F1EFBD",
"Y. c #EEF0B7",
"T. c #EEF3BA",
"R. c #F1F3BC",
"E. c #F4F9BF",
"W. c #CCE2D7",
"Q. c #F6F6C2",
"!. c #F5FAC0",
"~. c #FAFBC6",
"^. c #FEFECA",
/* pixels */
"m m m m m m m m m m m m m m m m t t N N N t m m m m m m m m m m m N N t m m m m m m m m m m m m m m m m m m m m r e q q e e q q ",
"m m m m m m m m m m m m m m m m V t N t t N m m m m m m m m m m m m m m N m m N m m m m m m m m m m m N m m m m e e e q q q q e ",
"m m m m m m t m m m m m N m m N t V t t m t m m m m V m m m m m m m m m N m N m m m m M m m m m N m N m m m m m e e q q q q q e ",
"m m m m V N V m m t m t t t t m t t t t V V N N m m w t m t m m t m m m n t r r N B B C m m m t t m t t m t m m r r r n w e q q ",
"m m m N 7.s.s.s.6 = : : : : : : , : : : 5.s.s.s.$ % i i : : : : 2 2 2 2 + i i i 6.q.q.q.3 ; : : ; : : : : ; : : 3.s.q.9.N q w q ",
"m m m N w.f.d.d.4 * = = = = = = * * * : 8.f.s.s.z [ *.! : * = = < 2 2 , h o.$.' q.f.f.w.3 & ; ; = = = = = ; = ; 8.f.d.d.N 0 w q ",
"m N m N w.f.d.s.4 = : = ; ; ; ; * * = : 8.f.d.s.T *.i.#.- ; ; ; 1 2 2 1 l ,.i.%.q.f.f.w.3 * ; ; = ; ; ; ; ; ; ; 8.f.d.s.m q w q ",
"m m m N 7.s.s.s.< * ; = = = * = o = = = 8.d.d.s.x [ *.' - * = * , 1 1 , j #.*.' 0.f.w.w.< & * & = = = * ; ; = ; 5.d.s.q.M q w q ",
"t N N t 8 2 2 2 ; = = & o # % # # # % @ D I P P V M M M y u u u b T T Z D D K D S S S M + # u u % % $ @ , 1 1 2 0 q 8 0 q q q r ",
"N N t V : : * : = = = = % ~ [ [ [ [ [ Q D H H H m t m t j } &.#.B.F.D.x.U F H H t t t r h ] O.o.} } } ! 5 1 2 2 1 1 1 1 0 r q q ",
"N t t t , : , : = = = = i #.*.*.*.$.;.' D P G G V m m t z ;.t.t.E.^.^.A.U F G G N M N m l &.:.-.,.,.,.[ 5 1 2 2 3 3 3 4 0 r q q ",
"t N t t , : : , = & = X h $.;.*.;.*.;.{ D S S S m m m t k } %.%.N.H.W.g.G F G G m r t r l &.:.;.,.,.,.[ 5 , , 1 1 1 1 1 e 0 r q ",
"N m m t : * : * o # # % *.H.H.K.L.L.P.Z.e.) ( Z D G G F N M B B n d w w q 0 e 0 p c Z A y.I.Q.Q.F.V.S.v.! i f i 3 1 1 1 q q e q ",
"m m N m , * * * # ~ [ [ V.P.P.P.T.T.T.T.I.D.D.x.L G H F m m m t 0 6 0 0 0 0 0 8 Z j.b.n.I.Q.~.~.H.H.H.V.t.>.,.{ 5 1 3 3 q q e q ",
"N m m t : * * * i o.$.$.H.Y.P.P.T.T.R.R.~.^.^.J.I F H H m m N m q 0 0 0 0 0 0 8 ( V.L.L.Q.^.~.^.H.S.H.H.j.h.j.-.5 1 3 3 q e q q ",
"m m m m , * * o i o.$.$.H.Y.P.P.F.Z.Z.C.G.G.J.x.J F F F m m m m q 8 0 0 0 0 0 8 Z l.m.v.D.G.G.D.A.S.H.H.j.t.h.=.5 1 3 3 q q q e ",
"m m m t : ; ; * h $.:.:.U.Q.Q.K.. . . . & X X X X X X X 1 1 1 1 1 1 4 1 X X X X X X X X . . . . e.K.K.K.h.1.2.#.5 1 2 1 q q q q ",
"m m m m : ; ; * j O.:.:.U.~.~.D.. . . . & X X X X X X X 3 1 2 3 3 1 1 1 X X X X X X X X . . . . ( H.P.P.t.<.2.#.6 1 3 1 q q q q ",
"m m m m : ; ; * h $.:.:.U.~.~.A.. . . . X X X X X X X X 1 1 1 1 1 2 1 3 X X X X X X X X . . . . T F.Y.K.g.1.t.#.5 1 1 1 q e q q ",
"m N m t : * : * h $.:.:.I.~.~.V.. . . . X X X X X X X X 1 3 3 1 3 1 1 1 X X X X X X X X . . . . ^ F.P.P.t.<.1.#.5 1 1 2 q q q q ",
"m m m t : ; ; * h O.*.*.S.K.K.c.X X X X X X X X H G H H a a a a a a a a H G H H X X X X X X X X ( N.P.K.i.<.2.#.5 1 3 2 q q q q ",
"m m m m : ; ; * h O.;.*.V.S.D.l.X X X X X X X X H G G H a a a a a a a a H G H G X X X X X X X X ( N.K.H.i.<.2.#.5 1 3 2 q q q q ",
"m m m m : = ; * h O.*.;.V.S.J.l.X X X X X X X X H H G H a a a a a a a a H H G H X X X X X X X X ( N.K.K.i.<.t.#.4 1 2 1 q q q e ",
"m m m m , : : ; h O.*.*.V.S.H.l.X X X X X X X X G H H H a a a a a a a a G H H H X X X X X X X X ( S.K.K.i.<.2.#.9 4 4 4 q e q q ",
"V V V V 5.9.9.9.x O.,.;.M.S.S.a.X X X X 1 2 1 2 W.W.W.W.Y Y Y Y O O O O W W W W 1 3 2 3 X X X X A b.S.S.i.:.r.} 6.9.9.9.M e r r ",
"C S V C s.f.f.s.c #.,.;.n.V.N.p.X X X X 3 1 3 1 W.W.W.W.Y Y Y Y O O O O W W W W 1 2 1 1 X X X X A b.S.S.r.:.:.O.q.d.f.d.M e r r ",
"C V V S 9.d.d.s.c O.,.;.n.V.A.g.X X X X 1 2 3 1 W.W.W.W.Y Y Y Y O O O O W W W W 1 3 2 1 X X X X A b.S.N.:.:.:.o.q.f.d.d.C e r r ",
"V V V V 9.s.s.q.x #.,.;.n.V.S.l.X X X X 3 1 1 1 W.W.W.W.Y Y Y Y O O O O W W W W 1 3 1 3 X X X X ^ b.S.N.i.:.r.o.0.s.s.q.M r r r ",
"m m m m r q q 0 j #.;.;.S.H.H.c., , 1 4 s s a a d.d.d.d.                @.@.@.@.a a a a 2 3 2 3 ^ n.S.S.z.p.z.-.s 6 0 7 q 0 0 0 ",
"m m m m 6 4 2 1 g O.*.*.S.H.L.v.1 1 1 1 a a a a d.d.d.d.                @.@.@.@.a a a a 1 1 1 1 ^ b.S.S.z.p.z.-.5 1 3 3 6 0 0 7 ",
"m m m m 8 6 6 2 j #.*.*.S.K.K.v.1 1 1 1 a a a a d.d.d.d.                @.@.@.@.a a a a 3 1 3 1 R n.S.S.z.p.a.-.7 1 2 2 6 6 6 0 ",
"m m m m 6 4 6 1 g #.*.*.n.K.K.z.1 1 1 1 a a a a d.d.d.d.                @.@.@.@.a a a a 1 2 1 1 R b.H.S.z.p.z.-.5 1 2 2 6 e 7 0 ",
"m m m m > : : = i o.$.$.b.S.A.g.2 3 2 3 a a a a @.@.@.@.                @.@.@.@.a a a a 1 1 1 1 T b.V.V.t.<.1.O.5 1 3 1 0 e q e ",
"m m m m : = = * i o.$.&.n.A.A.j.1 1 1 1 a a a a @.@.@.@.                @.@.@.@.a a a a 3 1 4 1 T v.V.N.2.,.1.o.5 1 3 3 e e q q ",
"m m m t : * = * i o.&.&.n.S.V.l.1 3 3 1 a a a a @.@.@.@.                @.@.@.@.a a a a 2 1 2 1 T z.V.N.2.,.<.O.5 1 1 1 q q e q ",
"m m m m 1 : > : i o.&.O.n.V.V.k.1 2 2 1 a a a a @.@.@.@.                @.@.@.@.a a a a 1 3 1 3 T b.S.N.t.,.2.O.s 3 4 6 q q e q ",
"V V V C 6.q.q.8.x o.$.$.n.H.H.j.X X X X 2 2 1 3 W W W W O O O O O O O O W W W W 1 1 1 1 X X X X ( M.J.J.j.t.h.-.6.q.q.9.N e r r ",
"V V C C q.f.f.d.x o.*.;.n.H.H.z.X X X X 2 2 2 1 W W W W O O O O O O O O W W W W 4 1 1 4 X X X X ( N.J.J.k.h.g.-.q.f.d.d.M r r r ",
"V C V C q.f.d.d.x o.*.$.n.H.H.l.X X X X 3 2 2 2 W W W W O O O O O O O O W W W W 3 1 1 1 X X X X ( M.J.J.j.g.h.=.q.f.d.d.C e r r ",
"V V V C 0.d.q.q.x o.*.;.n.F.H.z.X X X X 3 3 , 2 W W W W O O O O O O O O W W W W 1 1 3 1 X X X X ( N.K.J.j.g.h.-.0.d.s.s.B r r r ",
"N N N m r r r 0 h O.$.$.H.P.P.v.X X X X X X X X F G G H s 9 a a a a a a H H G H X X X X X X X X  .L.E.R.r.-.:.{ s 8 7 0 7 e 6 e ",
"t N m t 4 2 3 1 h o.*.*.H.Y.Y.b.X X X X X X X X H H H H a a a a a a a a G H H G X X X X X X X X ..L.E.R.r.&.:.] 5 1 1 1 6 0 6 6 ",
"N m m N 0 6 6 4 h o.&.*.H.P.Y.n.X X X X X X X X G H F F a a a a a a a a G H H H X X X X X X X X ..L.Q.R.1.&.;.] 5 1 1 3 6 6 0 7 ",
"t N m m 6 4 4 1 h o.*.*.H.Y.Y.b.X X X X X X X X H H H F a a a a a a a a H H G H X X X X X X X X ..H.Q.U.r.&.:.] 5 1 3 1 e 0 6 e ",
"m m m m : ; : = h O.:.:.U.~.~.C.. . . . X X X X X X X X 3 1 1 1 1 2 3 1 X X X X X X X X . . . . R M.H.H.t.:.r.O.5 1 3 2 e e e e ",
"N m m m : = = * h &.:.:.U.~.~.A.. . . . X X X X X X X X 2 3 2 3 3 1 2 1 X X X X X X X X . . . . R n.H.S.t.<.r.O.5 1 2 3 0 e 0 e ",
"m m m m : = ; = h &.:.:.U.~.~.A.. . . . X X X X X X X X 1 1 1 1 1 3 1 3 X X X X X X X X . . . . ( M.H.H.t.:.r.O.5 1 3 3 0 r r e ",
"m m m m : = ; * h &.:.:.I.~.~.A.. . . . X X X X X X X & 2 3 1 1 2 1 2 1 X X X X X X X X . . . . ( M.H.S.t.:.r.O.5 1 3 3 0 q q e ",
"N m m t : ; : * i O.&.$.V.K.K.M.4.A A A Z v b l C F F C m t m m 0 0 0 0 q q 0 8 p Z T T T T T R =.N.S.S.t.<.1.O.5 1 3 1 q q q q ",
"m m m m : = ; * u } $.$.V.H.H.A.L.G.D.D.M.M.M.u.L K K K N m m m r 0 0 0 0 0 0 8 R m.Z.F.Z.Z.Z.F.C.S.S.S.t.<.1.#.6 1 3 1 q q q q ",
"N m m m : ; ; = g o.&.&.A.J.H.H.Q.~.~.~.T.Y.R.B.L F G G V m N N 0 0 0 0 0 0 0 8  .L.!.!.!.!.!.!.K.S.D.S.i.1.2.#.5 1 1 1 q q q q ",
"m m m m : = ; = u ~ ] ] b.S.S.S.Q.Q.!.E.A.m.B.g.J F H H m n r r 0 0 8 8 0 0 q 8 R m.F.F.L.T.T.!.S.S.S.S.-.#.&.' 5 1 1 1 q q e q ",
"m m m m : = ; = 3 3 5 3 / 1.r.r.j.j.j.y.E H J J V m N m f A R ( j y g y 8 0 0 0 6 8 0 7 ` g.j.j.t.t.t.-.s 4 4 4 3 1 1 1 q q q q ",
"N m m m : = ; = 1 1 1 , k ;.1.:.t.g.g.=.K G G G N m m m ) C.D.G.>.#.%.' 0 0 0 0 2 1 1 1 c >.g.g.1.1.2.} 4 1 1 1 1 4 1 2 q q e q ",
"t m m t : * = = 1 3 3 1 k ;.2.1.g.g.h.-.D H H H N m V r X.U.^.^.h.2.g.#.w 0 0 q 2 1 1 1 z t.k.h.t.2.t.#.5 1 3 1 1 1 2 1 q e q q ",
"m m N t 1 ; : : 1 1 1 1 h } %.&.>.>.<.{ K P P H m n r r | C.J.J.,.%.%.' 0 6 8 8 4 4 2 1 l %.>.-.%.%.*.' 4 3 3 2 4 4 4 4 q q q e ",
"e e q r 3.q.9.9.q > 3 1 3 5 5 5 6 5 5 5 5.s.s.9.p % i i M C C C w 8 8 8 @ $ % # +.q.q.8.s 3 7 5 5 5 5 5 3 1 2 3 3.q.9.9.N 0 e q ",
"q q q r 9.f.d.d.d 1 3 1 4 1 1 1 1 2 1 1 9.f.d.s.x ' %._ M r M t 8 < 2 , i ~ [ ! q.f.f.d.0 1 1 1 1 1 1 1 1 1 2 3 9.f.d.d.M q e q ",
"q q e e 9.f.d.d.q 1 1 1 1 1 1 1 2 3 2 4 9.f.d.s.T $.i.#.M M N m 2 1 1 < j $.<.} q.f.d.s.s 1 1 1 1 1 3 1 3 2 2 2 8.f.d.s.M q q q ",
"q e e e 9.s.q.s.s 1 1 1 2 2 2 1 4 2 2 2 7.s.s.s.x [ -./ M t m m 8 1 2 1 g ' O.! 6.d.w.w.q 1 3 3 1 1 2 2 4 3 2 2 5.s.s.s.m q q e ",
"q q e q t n m n q q q q e q q q q q q q M N N m 0 w d a r q e r q q q q q d d q m m m M r r e r e q q q q q q q n n m m q q e q ",
"e q e q q q 0 q q q q e e e q q e q q q q r q e w q q q q q q q q q q q q q q q r r r r r r r r e e q q q q q q q q 0 q q q e q ",
"e w q w e q q q q e q q e q e q e q q q r r t r q r q w q q q e q q q q q q q q r t r r r r r r e q e q q e q q q q q e q e q q ",
"q q e q q q e e q q e q q q e q q q e q r r r r q q q e q r q q q e q q q q q q r r r r r r r r q q e q q q q q q q q e q q q e "
};
