/* XPM */
static char *ea77144564d541d7a37aad11e67f3379PYm6DwrthqWqCW6t[] = {
/* columns rows colors chars-per-pixel */
"64 64 256 2 ",
"   c black",
".  c #010101",
"X  c #020202",
"o  c gray1",
"O  c #040404",
"+  c gray2",
"@  c #060606",
"#  c #070707",
"$  c gray3",
"%  c #090909",
"&  c gray4",
"*  c #0B0B0B",
"=  c #0C0C0C",
"-  c gray5",
";  c #0E0E0E",
":  c gray6",
">  c #101010",
",  c #111111",
"<  c gray7",
"1  c #131313",
"2  c gray8",
"3  c #151515",
"4  c #161616",
"5  c gray9",
"6  c #181818",
"7  c #191919",
"8  c gray10",
"9  c #1B1B1B",
"0  c gray11",
"q  c #1D1D1D",
"w  c #1E1E1E",
"e  c gray12",
"r  c #202020",
"t  c gray13",
"y  c #222222",
"u  c #232323",
"i  c gray14",
"p  c #252525",
"a  c gray15",
"s  c #272727",
"d  c #282828",
"f  c gray16",
"g  c #2A2A2A",
"h  c gray17",
"j  c #2C2C2C",
"k  c #2D2D2D",
"l  c gray18",
"z  c #2F2F2F",
"x  c gray19",
"c  c #313131",
"v  c #323232",
"b  c gray20",
"n  c #343434",
"m  c #353535",
"M  c gray21",
"N  c #373737",
"B  c gray22",
"V  c #393939",
"C  c #3A3A3A",
"Z  c gray23",
"A  c #3C3C3C",
"S  c gray24",
"D  c #3E3E3E",
"F  c #3F3F3F",
"G  c gray25",
"H  c #414141",
"J  c gray26",
"K  c #434343",
"L  c #444444",
"P  c gray27",
"I  c #464646",
"U  c gray28",
"Y  c #484848",
"T  c #494949",
"R  c gray29",
"E  c #4B4B4B",
"W  c #4C4C4C",
"Q  c gray30",
"!  c #4E4E4E",
"~  c gray31",
"^  c #505050",
"/  c #515151",
"(  c gray32",
")  c #535353",
"_  c gray33",
"`  c #555555",
"'  c #565656",
"]  c gray34",
"[  c #585858",
"{  c gray35",
"}  c #5A5A5A",
"|  c #5B5B5B",
" . c gray36",
".. c #5D5D5D",
"X. c gray37",
"o. c #5F5F5F",
"O. c #606060",
"+. c gray38",
"@. c #626262",
"#. c gray39",
"$. c #646464",
"%. c #656565",
"&. c gray40",
"*. c #676767",
"=. c #686868",
"-. c DimGray",
";. c #6A6A6A",
":. c gray42",
">. c #6C6C6C",
",. c #6D6D6D",
"<. c gray43",
"1. c #6F6F6F",
"2. c gray44",
"3. c #717171",
"4. c #727272",
"5. c gray45",
"6. c #747474",
"7. c gray46",
"8. c #767676",
"9. c #777777",
"0. c gray47",
"q. c #797979",
"w. c gray48",
"e. c #7B7B7B",
"r. c #7C7C7C",
"t. c gray49",
"y. c #7E7E7E",
"u. c gray50",
"i. c #808080",
"p. c #818181",
"a. c gray51",
"s. c #838383",
"d. c #848484",
"f. c gray52",
"g. c #868686",
"h. c gray53",
"j. c #888888",
"k. c #898989",
"l. c gray54",
"z. c #8B8B8B",
"x. c gray55",
"c. c #8D8D8D",
"v. c #8E8E8E",
"b. c gray56",
"n. c #909090",
"m. c gray57",
"M. c #929292",
"N. c #939393",
"B. c gray58",
"V. c #959595",
"C. c gray59",
"Z. c #979797",
"A. c #989898",
"S. c gray60",
"D. c #9A9A9A",
"F. c #9B9B9B",
"G. c gray61",
"H. c #9D9D9D",
"J. c gray62",
"K. c #9F9F9F",
"L. c #A0A0A0",
"P. c gray63",
"I. c #A2A2A2",
"U. c gray64",
"Y. c #A4A4A4",
"T. c #A5A5A5",
"R. c gray65",
"E. c #A7A7A7",
"W. c gray66",
"Q. c #A9A9A9",
"!. c #AAAAAA",
"~. c gray67",
"^. c #ACACAC",
"/. c gray68",
"(. c #AEAEAE",
"). c #AFAFAF",
"_. c gray69",
"`. c #B1B1B1",
"'. c #B2B2B2",
"]. c gray70",
"[. c #B4B4B4",
"{. c gray71",
"}. c #B6B6B6",
"|. c #B7B7B7",
" X c gray72",
".X c #B9B9B9",
"XX c gray73",
"oX c #BBBBBB",
"OX c #BCBCBC",
"+X c gray74",
"@X c gray",
"#X c gray75",
"$X c #C0C0C0",
"%X c #C1C1C1",
"&X c gray76",
"*X c #C3C3C3",
"=X c gray77",
"-X c #C5C5C5",
";X c #C6C6C6",
":X c gray78",
">X c #C8C8C8",
",X c gray79",
"<X c #CACACA",
"1X c #CBCBCB",
"2X c gray80",
"3X c #CDCDCD",
"4X c #CECECE",
"5X c gray81",
"6X c #D0D0D0",
"7X c gray82",
"8X c #D2D2D2",
"9X c LightGray",
"0X c gray83",
"qX c #D5D5D5",
"wX c gray84",
"eX c #D7D7D7",
"rX c #D8D8D8",
"tX c gray85",
"yX c #DADADA",
"uX c gray86",
"iX c gainsboro",
"pX c #DDDDDD",
"aX c gray87",
"sX c #DFDFDF",
"dX c gray88",
"fX c #E1E1E1",
"gX c #E2E2E2",
"hX c gray89",
"jX c #E4E4E4",
"kX c gray90",
"lX c #E6E6E6",
"zX c #E7E7E7",
"xX c gray91",
"cX c #E9E9E9",
"vX c #EAEAEA",
"bX c gray92",
"nX c #ECECEC",
"mX c gray93",
"MX c #EEEEEE",
"NX c #EFEFEF",
"BX c gray94",
"VX c #F1F1F1",
"CX c gray95",
"ZX c #F3F3F3",
"AX c #F4F4F4",
"SX c gray96",
"DX c #F6F6F6",
"FX c gray97",
"GX c #F8F8F8",
"HX c #F9F9F9",
"JX c gray98",
"KX c #FBFBFB",
"LX c gray99",
"PX c #FDFDFD",
"IX c #FEFEFE",
"UX c white",
/* pixels */
"K.K.K.H.A.A.A.S.K.L.L.K.G.G.G.S.m.n.n.M.F.G.G.F.Z.Z.Z.C.B.B.B.B.B.B.B.B.B.B.B.B.B.B.B.V.S.D.D.A.b.c.c.c.b.b.b.b.v.v.v.k.*.O.O.O.",
"K.K.K.H.A.A.A.S.K.L.L.K.G.G.G.S.m.n.n.M.F.G.G.F.Z.Z.Z.C.B.B.B.B.B.B.B.B.B.B.B.B.B.B.B.V.S.D.D.A.b.c.c.c.b.b.b.b.v.v.v.k.*.O.O.O.",
"K.K.K.H.A.A.A.D.L.L.L.L.H.G.G.D.m.n.n.M.F.G.G.F.A.Z.Z.Z.B.B.B.B.B.V.B.B.B.B.B.B.B.B.B.V.D.F.F.S.b.c.c.v.b.b.b.b.v.v.b.l.*.O.O.O.",
"J.J.J.G.B.B.B.V.S.D.D.S.Z.Z.Z.B.z.l.l.x.C.Z.Z.C.B.N.N.N.m.m.m.n.x.x.x.x.v.b.b.b.b.b.b.b.m.M.M.m.l.k.k.l.z.z.z.z.k.k.k.f.&.O.O.O.",
"G.G.G.Z.k.j.k.k.k.k.k.k.k.k.k.f.w.w.w.r.h.k.k.k.k.j.k.j.j.j.k.g.9.6.6.8.u.i.i.i.i.i.i.u.e.w.w.e.u.i.u.u.i.i.i.u.r.r.r.q.%.+.+.+.",
"G.G.G.Z.k.j.j.j.j.j.j.j.j.j.j.f.w.q.q.e.g.j.j.j.j.j.j.j.j.j.j.f.7.5.5.7.y.u.u.u.u.u.u.y.w.q.q.w.y.u.u.u.u.u.u.u.r.e.e.0.%.+.+.+.",
"G.G.G.Z.k.j.j.j.j.j.j.j.j.j.j.f.q.q.q.e.h.j.j.j.j.j.j.j.j.j.j.g.7.5.5.7.y.u.u.u.u.u.u.y.w.q.q.w.y.u.u.u.u.u.u.u.r.e.e.q.%.+.+.+.",
"S.S.S.N.d.d.d.d.d.d.d.d.d.d.d.a.y.t.t.y.s.d.d.d.f.f.f.f.f.f.g.d.0.8.8.0.i.a.a.p.u.u.u.u.e.e.e.e.y.u.u.u.r.r.r.e.9.8.9.6.#.O.O.O.",
"n.n.m.l.w.q.q.q.q.q.q.q.q.q.q.t.h.j.j.g.e.q.q.w.u.u.u.u.u.u.u.u.u.u.u.i.h.j.j.g.i.u.u.u.u.u.u.u.u.u.u.t.6.5.5.5.,.:.:.;.o.......",
"n.n.n.l.w.q.q.q.q.q.q.q.q.q.q.r.h.j.j.g.w.q.q.w.u.u.u.u.u.u.u.u.u.u.u.i.h.j.j.h.i.u.u.u.u.u.u.u.u.u.u.t.6.5.5.4.>.:.:.;.o.......",
"n.n.n.l.w.q.q.q.q.q.q.q.q.q.q.r.h.j.j.g.w.q.q.w.u.u.u.u.u.u.u.u.u.u.u.i.h.j.j.h.i.u.u.u.u.u.u.u.u.u.u.t.6.5.5.4.>.:.:.;.o.......",
"m.m.M.z.q.0.0.0.w.w.w.e.r.r.r.y.g.g.g.f.e.w.w.e.y.y.y.y.y.y.y.y.y.y.y.u.d.f.f.d.y.y.y.y.u.u.u.u.u.u.u.y.0.9.9.8.<.:.>.;.o.......",
"Z.Z.Z.v.7.5.5.7.y.u.u.i.h.h.h.f.i.i.i.u.u.u.u.y.w.q.q.q.q.q.q.q.q.q.q.q.w.w.w.w.q.q.q.w.y.u.u.u.u.u.u.i.g.h.h.f.4.<.<.>.+.o.o.o.",
"Z.Z.A.v.6.5.5.7.y.u.u.p.h.j.j.g.u.u.u.u.u.u.u.y.q.q.q.q.q.q.q.q.q.q.q.q.q.q.q.q.q.q.q.w.y.u.u.u.u.u.u.i.h.j.j.g.4.<.<.,.+.o.o.o.",
"Z.Z.A.v.6.5.5.7.y.u.u.p.j.j.j.g.i.u.u.u.u.u.u.y.q.q.q.q.q.q.q.q.q.q.q.q.q.q.q.q.q.q.q.q.y.u.u.u.u.u.u.i.h.j.j.g.4.<.<.>.+.o.o.o.",
"C.C.Z.v.7.6.6.8.t.y.y.u.d.f.f.s.y.y.y.y.y.y.y.t.r.r.r.r.r.r.r.r.r.r.r.r.r.r.r.r.r.r.r.r.r.r.r.t.u.u.u.i.h.j.j.g.5.1.1.<.+.X.o.o.",
"B.B.V.c.w.q.q.q.q.q.q.q.w.w.w.w.q.q.q.q.q.q.q.r.g.h.h.h.h.h.h.h.h.h.h.h.h.h.h.h.h.h.h.f.8.5.5.7.y.u.u.i.h.j.j.g.9.6.6.3.O.......",
"B.B.B.c.w.q.q.q.q.q.q.q.q.q.q.q.q.q.q.q.q.q.q.r.h.j.j.j.j.j.j.j.j.j.j.j.j.j.j.j.j.j.j.g.8.5.5.6.y.u.u.i.h.j.j.g.9.6.6.4.O.......",
"B.B.B.c.w.q.q.q.q.q.q.q.q.q.q.q.q.q.q.q.q.q.q.r.h.j.j.j.j.j.j.j.j.j.j.j.j.j.j.j.j.j.j.g.8.5.5.6.y.u.u.i.h.j.j.h.0.6.6.4.O.......",
"B.B.B.c.w.q.q.q.q.q.q.q.q.q.q.q.w.e.e.w.0.9.9.w.f.g.g.g.g.g.g.g.d.d.d.d.d.d.d.d.s.s.s.p.0.8.8.9.t.y.t.y.d.d.d.s.7.3.4.2.+.X.X.X.",
"N.N.N.x.w.q.q.q.q.q.q.q.q.q.q.w.u.u.u.t.6.5.5.7.y.u.u.u.u.u.u.u.w.q.q.q.q.q.w.q.6.6.6.7.t.u.u.y.w.q.q.q.q.w.w.0.,.;.;.-.@.+.+.+.",
"N.N.N.x.w.q.q.q.q.q.q.q.q.q.q.w.u.u.u.t.6.5.5.7.y.u.u.u.u.u.u.y.w.q.q.q.q.q.q.0.5.5.5.6.t.u.u.y.w.q.q.q.q.q.q.0.>.;.;.-.@.+.+.+.",
"N.N.N.x.w.q.q.q.q.q.q.q.q.q.q.w.u.u.u.t.6.5.5.7.y.u.u.u.u.u.u.y.w.q.q.q.q.q.q.0.6.5.5.6.y.u.u.u.w.q.q.q.q.q.q.0.>.;.;.-.@.+.+.+.",
"M.M.M.z.q.0.0.0.q.q.q.q.0.0.0.q.r.r.r.e.5.4.4.6.e.r.r.r.r.r.r.r.q.0.0.0.0.0.0.9.5.4.4.5.q.e.e.w.9.9.9.9.0.0.0.9.,.:.:.;.@.+.+.+.",
"c.c.v.h.5.5.4.5.0.0.0.9.7.6.6.5.2.1.1.1.<.<.<.1.1.1.1.1.1.1.1.2.6.6.6.6.6.6.6.6.3.2.2.1.=.*.*.=.>.,.,.<.6.6.6.6.4.3.3.2.#.+.+.+.",
"c.c.c.g.5.4.4.5.0.0.0.9.6.6.6.5.<.<.<.<.<.<.<.<.<.<.<.<.<.<.<.1.5.6.6.6.6.6.6.5.2.2.2.1.&.%.%.&.:.>.>.,.5.6.6.6.4.4.4.2.#.+.+.+.",
"v.v.v.h.5.4.4.5.0.0.0.0.7.6.6.5.<.<.<.<.<.<.<.<.<.<.<.<.<.<.<.1.6.6.6.6.6.6.6.6.3.2.2.1.*.%.%.&.:.>.>.,.5.6.6.6.5.4.4.3.#.+.+.+.",
"d.d.d.y.1.<.<.1.4.5.5.4.2.2.2.<.:.:.:.:.:.:.:.:.:.:.:.:.:.:.:.:.1.1.1.1.1.2.2.1.,.,.,.>.&.$.$.%.-.;.;.:.1.2.2.2.1.<.<.,.@.O.O.O.",
"O.O.O.O.X.X.X.X.o.o.o.o.X.X.X.X.X.X.X.X.X.X.X.X.X.X.X.X.X.X.X.X.........X.X.X.o.@.@.@.@.@.@.@.@.+.+.+.+.+.+.+.+.O.O.O.O.X.......",
"................................................................| | | | ......X.+.+.+.+.@.@.@.@.O.O.O.O.O.O.O.O.o.o.o.o.........",
" . . . . . . . . . . . . . . . . . . . . . . . . . . . .........} } } }  . . ...O.O.O.O.+.+.+.+.o.o.o.o.o.o.o.o.X.X.X.X. . . . .",
"-.-.-.-.;.;.;.;.;.;.;.;.;.;.;.;.:.:.:.:.:.:.:.:.;.;.;.*.X.....o.;.:.:.:.:.:.:.>.<.<.<.<.>.>.>.>.>.>.>.,.,.,.,.,.;.;.;.;.:.:.:.:.",
"m.m.m.M.B.B.B.B.B.B.B.B.B.B.B.V.S.S.S.S.S.S.S.A.B.N.B.k.@.o.X.*.S.P.P.L.F.D.D.D.A.A.A.Z.c.z.z.x.B.V.V.C.S.S.S.A.n.v.v.b.Z.S.S.S.",
"B.B.B.V.Z.Z.Z.Z.Z.Z.Z.Z.Z.Z.Z.A.G.G.G.G.G.G.G.F.Z.C.Z.z.@.o.X.*.G.T.Y.U.J.H.H.H.F.F.F.D.b.c.c.v.Z.A.A.S.G.G.G.F.M.n.n.m.D.G.G.G.",
"B.B.B.V.Z.Z.Z.Z.Z.Z.Z.Z.Z.Z.Z.A.G.G.G.G.G.G.G.F.Z.C.Z.x.@.o.X.*.G.T.Y.U.J.H.H.H.F.F.F.D.b.c.c.v.Z.A.A.S.G.G.G.F.M.n.n.m.F.G.G.G.",
"n.n.n.m.N.N.N.N.B.B.B.N.M.M.M.N.A.A.A.A.A.A.A.Z.m.n.m.h.@.o.X.*.D.I.I.P.F.D.D.D.Z.Z.Z.C.c.z.z.x.N.B.B.B.Z.Z.Z.C.v.c.c.v.C.Z.Z.Z.",
"r.r.r.r.r.r.r.t.p.p.p.u.9.8.8.q.p.a.a.a.a.a.a.u.6.5.5.1.o.....$.b.C.C.B.z.l.l.k.a.a.a.a.p.i.i.i.t.r.r.r.r.r.r.r.e.e.e.e.r.r.r.r.",
"q.q.q.q.q.q.q.w.y.u.u.t.6.5.5.7.y.u.u.u.u.u.u.r.2.1.1.:.X.....$.c.B.B.M.k.j.j.g.i.u.u.u.u.u.u.y.w.q.q.q.q.q.q.q.q.q.q.q.q.q.q.q.",
"q.q.q.q.q.q.q.w.u.u.u.t.6.5.5.8.u.u.u.u.u.u.u.r.2.1.1.:.X.....$.c.B.B.M.k.j.j.h.i.u.u.u.u.u.u.y.w.q.q.q.q.q.q.q.q.q.q.q.q.q.q.q.",
"r.r.r.r.r.r.e.r.y.y.y.r.6.5.5.7.t.y.y.y.i.p.p.y.3.2.2.,.o.....$.v.V.V.N.j.g.h.f.i.u.u.u.u.u.u.y.e.w.w.w.e.r.r.e.q.q.q.q.q.q.q.q.",
"h.h.h.h.h.h.h.f.e.q.w.0.5.5.5.6.q.q.q.e.g.h.h.d.9.7.8.3.+.O.o.&.n.Z.Z.N.a.i.i.i.u.u.u.u.u.u.u.u.u.u.y.i.g.h.h.g.e.q.q.q.q.q.q.q.",
"j.j.j.j.j.j.j.g.w.q.q.0.5.5.5.6.q.q.q.e.h.j.j.f.9.8.8.4.+.O.O.*.n.Z.Z.B.p.u.u.u.u.u.u.u.u.u.u.u.u.u.u.i.h.j.j.h.r.q.q.q.q.q.q.q.",
"j.j.j.j.j.j.j.g.w.q.q.0.5.5.5.6.q.q.q.e.h.j.j.f.0.8.8.4.+.O.O.*.n.Z.Z.B.p.u.u.u.u.u.u.u.u.u.u.u.u.u.u.i.h.j.j.h.e.q.q.q.q.q.q.q.",
"g.g.g.g.g.g.g.d.e.w.w.w.9.9.9.0.r.r.r.t.f.g.g.s.8.6.7.2.+.O.o.*.m.A.A.V.s.p.p.i.t.t.t.t.t.t.t.t.u.u.u.i.g.g.g.f.r.w.w.w.q.q.q.q.",
"i.i.i.i.i.i.i.u.u.u.u.i.g.h.h.h.h.h.h.g.i.i.i.t.2.<.1.>.O.o.o.&.B.G.G.S.k.h.j.d.7.6.6.6.6.6.6.7.y.u.u.u.i.i.i.u.u.u.u.y.w.q.q.q.",
"u.u.u.u.u.u.u.u.u.u.u.p.j.j.j.j.j.j.j.h.i.u.u.r.1.<.<.:.O.o.o.&.V.G.G.S.l.j.j.f.7.5.5.5.5.5.5.6.y.u.u.u.u.u.u.u.u.u.u.y.w.q.q.q.",
"u.u.u.u.u.u.u.u.u.u.u.p.h.j.j.j.j.j.j.h.i.u.u.r.1.<.<.:.O.o.o.&.V.H.G.S.l.j.j.f.7.5.5.5.5.5.5.6.y.u.u.u.u.u.u.u.u.u.u.y.w.q.q.q.",
"y.y.y.y.y.y.y.y.y.y.y.i.h.j.j.j.j.j.j.h.u.y.y.e.1.,.<.:.O.o.X.&.B.G.F.A.j.g.g.s.8.6.6.6.6.6.6.8.t.y.y.y.y.y.y.y.y.y.y.y.w.q.q.q.",
"w.w.w.w.w.w.w.w.w.w.w.r.h.j.j.j.j.j.j.g.e.w.w.9.:.;.;.*.X.....$.v.V.V.m.t.e.e.e.t.y.y.y.y.y.y.t.w.w.w.w.w.w.w.w.w.w.w.w.q.q.q.q.",
"q.q.q.q.q.q.q.q.q.q.q.r.h.j.j.j.j.j.j.g.w.q.q.8.;.-.-.*.X.....$.c.B.B.n.r.q.q.w.u.u.u.u.u.u.u.y.w.q.q.q.q.q.q.q.q.q.q.q.q.q.q.q.",
"q.q.q.q.q.q.q.q.q.q.q.r.h.j.j.j.j.j.j.g.e.q.q.8.;.-.-.*.X.....$.c.B.B.n.r.q.q.w.y.u.u.u.u.u.u.y.w.q.q.q.q.q.q.q.q.q.q.q.q.q.q.q.",
"w.w.w.w.w.w.w.w.q.q.q.e.f.g.g.g.g.g.g.d.q.0.0.8.;.-.-.*.X.X...$.c.B.B.n.y.e.e.r.i.i.i.i.u.u.u.u.r.e.e.e.q.q.q.q.e.e.e.e.q.0.0.0.",
"y.y.y.y.y.y.y.y.q.q.q.q.w.w.w.w.w.w.e.q.6.6.6.4.;.-.-.*.+.+.O.*.c.N.N.m.j.g.h.h.h.h.h.g.i.u.u.i.g.h.h.f.w.q.q.w.d.h.h.f.8.5.6.6.",
"u.u.u.u.u.u.u.y.q.q.q.q.q.q.q.q.q.q.q.0.6.5.5.3.;.-.-.*.@.+.+.*.c.N.N.m.k.j.j.j.j.j.j.h.i.u.u.i.h.j.j.g.w.q.q.w.g.j.j.g.8.5.5.5.",
"u.u.u.u.u.u.u.y.w.q.q.q.q.q.q.q.q.q.q.0.6.5.5.3.;.-.-.*.+.+.+.*.c.N.N.M.k.j.j.j.j.j.j.h.i.u.u.i.h.j.j.g.e.q.q.w.g.j.j.g.8.5.5.5.",
"e.e.e.e.e.e.e.w.9.8.8.8.9.9.9.9.9.8.9.8.5.5.5.4.>.:.>.;.@.+.+.*.x.M.M.b.f.s.s.d.f.f.f.d.y.t.t.y.s.d.d.a.0.9.9.0.p.s.s.p.6.3.3.3.",
":.:.:.:.:.:.:.:.;.;.;.:.1.1.1.<.:.:.:.>.5.6.6.6.9.9.9.5.#.@.@.*.g.z.z.h.3.<.<.2.0.0.0.0.6.5.5.5.2.2.2.2.1.1.1.1.>.:.:.:.;.;.;.;.",
"-.-.-.-.-.-.-.-.-.-.-.;.<.<.<.,.;.;.;.:.5.6.6.7.0.0.0.6.#.@.@.*.f.l.l.g.1.>.>.<.8.9.9.8.5.4.4.3.<.<.<.<.<.<.<.<.;.-.-.-.-.-.-.-.",
"-.-.-.-.-.-.-.-.-.-.-.;.<.<.<.,.;.;.;.>.5.6.6.7.0.0.0.6.#.@.@.*.f.z.z.g.1.>.>.<.8.9.9.9.5.4.4.4.1.<.<.<.<.<.<.<.;.-.-.-.-.-.-.-.",
"=.=.=.=.=.=.=.=.=.=.=.-.>.,.,.>.-.-.-.;.3.4.4.5.7.7.8.3.#.+.+.&.p.g.g.a.,.;.:.>.6.7.7.6.3.2.2.2.,.>.,.>.>.>.>.>.-.=.=.=.=.=.=.=.",
"+.+.+.+.+.+.+.+.O.O.O.+.+.+.+.+.+.+.+.+.@.@.@.@.+.+.+.O.X.X.X.X.#.#.#.#.O.O.O.+.%.%.%.%.#.#.#.@.+.+.+.+.O.o.o.o.o.o.o.o.o.o.o.o.",
"O.O.O.O.O.O.O.O.o.o.o.o.o.o.o.o.o.o.o.o.o.o.o.X.........................X.X.X.o.+.@.@.@.O.O.O.O.o.o.o.o.........................",
"O.O.O.O.O.O.O.O.o.o.o.o.o.o.o.o.o.o.o.o.o.o.o.o.........................X.X.X.o.@.@.@.@.O.O.O.O.o.o.o.o.........................",
"O.O.O.O.O.O.O.O.o.o.o.o.o.o.o.o.o.o.o.o.o.o.o.o.........................X.X.X.o.@.@.@.@.O.O.O.O.o.o.o.o........................."
};
