/* XPM */
static char *result[] = {
/* columns rows colors chars-per-pixel */
"64 64 55 1 ",
"  c #606060",
". c gray38",
"X c #626262",
"o c gray39",
"O c #646464",
"+ c #656565",
"@ c gray40",
"# c #676767",
"$ c #686868",
"% c DimGray",
"& c #6A6A6A",
"* c gray42",
"= c #6C6C6C",
"- c #6D6D6D",
"; c gray43",
": c #6F6F6F",
"> c gray44",
", c #717171",
"< c #727272",
"1 c gray45",
"2 c #747474",
"3 c gray46",
"4 c #767676",
"5 c #777777",
"6 c gray47",
"7 c #797979",
"8 c gray48",
"9 c #7B7B7B",
"0 c #7C7C7C",
"q c gray49",
"w c #7E7E7E",
"e c gray50",
"r c #808080",
"t c #818181",
"y c gray51",
"u c #838383",
"i c #848484",
"p c gray52",
"a c #868686",
"s c gray53",
"d c #888888",
"f c #898989",
"g c gray54",
"h c #8B8B8B",
"j c gray55",
"k c #8D8D8D",
"l c #8E8E8E",
"z c gray56",
"x c #909090",
"c c gray57",
"v c #929292",
"b c #939393",
"n c gray58",
"m c #959595",
"M c gray59",
/* pixels */
"wrtq51132222222222360errxzzxcczl*@%=kxcj0ee04124<122223432259wwq",
"err04<<144444444<1250errkkjkllkh%+$=jzcjwrrq5113333221111<150err",
"err041<1,,,,,,,,>>,370wwcxxcvvcz%+$=jzckqww93<,<4322221<<<259err",
"ereq7545666666666679wtythgghjjhf=%=:kzcktyye07771,><46534456800q",
"eeewq00qhhhhhhhhgffgjkjh76668865<:<<llxjhjjhfdff-&&>6ww9q0086544",
"wweeerrrvvvvvvvvvcxxccxz1<<<22<,4143zlzjzzzxxxxx%@@;8yyerre952<<",
"ewwertrrkkkkkkkkxzlllzkj433455423143zkzkllkllllk*@+-9uyqrre051<1",
"rewwerewzzzzzzzzlkjklllk2112331<2<33zkxkxzllllkj-$@;8yr9qww95223",
"rtw5-$#%22222222&%*>376433333333kjzf8364rrrrrrrrrwqyhxzkwerewwer",
"0ee6-#%-22222222*$#=252>44333332llvh6,33eeeeeeeeeqqyhxxlrrtrewwe",
"qtt6&Xo$<<<<<<<<@oX%165<21<<121<kznh4;13rrrrrrrrtrrpjcvxrrreeeww",
"ere81;-:33333333&%&=,11<43247987hgld6154wwwwwwwweqqtsggfq00qweee",
"eqqtagfswwwwwwww8004-#$&eqqtsggfayii09w744444444432479875457qere",
"tq0uzMbltttttttteui9=O+*trrpjcvxy0wrwry02222222221<<121<1<140rre",
"ywqujcldwwwwwwww9rt7-@%:eqqyhxxlr9wrqeyq33333333443333321<<40rre",
"wqwijxzjeeeeeeeewrw5=@#&rwqyhxzke0ty90rw22222222333333333115qtrw",
"twwujccllzbh6,334322331<2222222232123444kkkkkkkklllllllllkhl&-*&",
"eqquhcczhjxg7156221222212222222255322221llllllllxxxxxxxxjkkj%%%&",
"terpkvbcxlcg6,2<2222222222222222<1222357cccccccckkkkkkkkbmbk-#@$",
"wqqtshhglhkd714155543222222222221343<<25kkkkkkkkxxxxxxxxghfu1;==",
"42247997teui00tw0qq8422222222222wre6;$%*yyyyyyyy11111111:::>6777",
"1<,<121<e9ry0wueetrq521322222222eyt7-+@&qqqqqqqq44444444@O+@erre",
"32223332uwtt00e8ertq5224222222227we6-#%:eeeeeeee11111111*&&@ueee",
"11122333r9wr0et0qer05124222222220ry7=O@=eeeeeeee33333333#%*Oy0qr",
"kkkkkkkkewwwerreqee04125llllllllrewwwwq0rrrrrrrrkkkkkkkkxdch*+:@",
"llllllllwwwertttetr05124kkkkkkkkewwwwewweeeeeeeezzzzzzzzjsvh*o;%",
"ccccccccwwwerrttrtr05223vvvvvvvvrrrtttttrrrrrrrrvvvvvvvvzkmh& $@",
"kkkkkkkkwwewq0qqqq074223jjjjjjjjqwwq9889wwwwwwwwhhhhhhhhljxs>$=&",
"yyyyyyyyweeq75556654222377777777233<:===4444444488888888yryt9808",
"qqqqqqqqere0511222211223<<<<<<<<,<<;%@+@22222222<<<<<<<<ewqwtutr",
"eeeeeeeewrr04<<23211222233333333133,*$$&3333333322222222tyeqtrqw",
"eeeeeeeeqerq51245422222111111111<23,=$%*22222222222222229rwqteqy",
"e09yjbvzlklu-+%&jkcg5>33qweeeert9e0egkhlzlkkkkjhkkkkkkkkjjjjjjjj",
"twqygzlhjlca;+*:ggzf6<45eerreeer9e0ehljzzlllzzllzzzzzzzzklllllzz",
"eqwikbbvcvmd-X#*vxbj8<31eeeeeeeewtwyzvxvvvvvvvvvvvvvvvvvlzxxzzzc",
"qqwydjkjjhku;@%&lhks6<2,000qweee807qhzjllllkjhhhhhhhhhhhzxczjghj",
"rew087549587,,3,6488<,425457qere-:*>eituyuurq88988888888lxxjsuup",
"eeq83<,,3:,2<46,1>24><4121150ere$%+&9rqqqew93<,1<<<<<<<<lzzguwqe",
"0ww063455<24<23:7256114,31140rew%%+*0ueewrrq511322222222kzxgy0qe",
"wrr04<<22,4613733>24147252250req$$O*0yweqerq523522222222kxxhuwwt",
"0ytwtw0ukgjs724134<7hcjjdfzf5,56=&&;2664kkkkkkkkhlzgyqwtwurwte0t",
"6wq9rewilkcg6,222318jbxxllvg6>22#+@&>331llllllllhkkfueetuirwyr0w",
"eurwye0rzzbh6>22<218jbcvvxvh6,1,$#$=<454cccccccccvxgyq99ewqwyiyt",
"0e98tr0ejgkd72541317flgjkhkd7252%$%*:<1<kkkkkkkkzzkfitewteyt00wq",
"$=&;0teystuu00q62414yptyutpi98w9jjjklxxzyyyyyyyyttypfjkkjgzd<&:-",
"+#+*9tetu90ewty82412we90w8et0wuekkkkkkkkqqqqqqqqqqwihxvczkmh*.&#",
"==$-0tqwt9qrwtuq1413er9we9etqeuexcccxxxceeeeeeeeyrrihzzklfbj*O;%",
"#$O&0ywetwtuqeye,314ryeyietywet0klzzllzxeeeeeeeerwwujvvzbgbj=+;+",
"70q84135222222222222222233234543xxccccxx34554345333444456436qre0",
"errq6334555555554444444411123444jjkkkkjj23321111333344444225qrrw",
"eew941<<<<<<<<<<,,,,,,,,11223344xxccccxx44443333,,<<<<11<,,38wwq",
"qq098765444444443333333345543334jjkkkkjj21123444111222235558wtyt",
"trryafdsffffffffffffffff0008422378899887*&&-,121000qqqqqsssdgjjj",
"yrrpkvbcvvvvvvvvccccccccerr05112,,<<<<,,$##*,332eeerrrrrzzzzzzzz",
"eq0yjvvzzzzzzzzzllllllllwrr0411212233221&$$-1553qqqwwwwwlzzzlkll",
"rq0thcxjzzzzzzzzllllllll0ee04<13<<1111<<%#@&>22<wwwweeeelzxxzlzx",
"ttttttttruur85688368568334433333eeeeeeeehgghjjgfwrrq51137548euyr",
"wwwwwwwwqwe93<<1<,35114322333334eeeeeeeehhjkllkjrttq51133215qtre",
"eeeeeeeewee041<22353,:>>,<1<,,<1eeeeeeeezxccvvvcrttq51121<<49wew",
"eeeeeeeewee064442422874557752113eeeeeeeeklllkhhh0qq8421243369www",
"5555555555543222&=$>akdgsffpe00qeeeeeeeeyuitw988555432230990weew",
"1111111111111222#%X=jMlxzcxhiewreeeeeeeewee04<,,11122333rrreeeee",
"3333333332223322$;O=kmgzkxxgyqqeeeeeeeeewrtq5<<111112332eerreeer",
"3333333331<<11<,O-+-lmjmkxxhuqwteeeeeeeeqerq51<2322233320qwwwwer"
};
