/* XPM */
static char *result[] = {
/* columns rows colors chars-per-pixel */
"64 64 35 1 ",
"  c #09250F",
". c #0A2610",
"X c #0C2812",
"o c #0D2913",
"O c #0E2A14",
"+ c #0F2B15",
"@ c #102C16",
"# c #112D17",
"$ c #122E18",
"% c #132F19",
"& c #14301A",
"* c #15311B",
"= c #1C3822",
"- c #1D3923",
"; c #203C26",
": c #213D27",
"> c #223E28",
", c #233F29",
"< c #24402A",
"1 c #25412B",
"2 c #26422C",
"3 c #2B4731",
"4 c #36523C",
"5 c #38543E",
"6 c #39553F",
"7 c #3A5640",
"8 c #3B5741",
"9 c #3C5842",
"0 c #3D5943",
"q c #3E5A44",
"w c #3F5B45",
"e c #405C46",
"r c #415D47",
"t c #425E48",
"y c #44604A",
/* pixels */
"oooo@@@@%%%%oooo####>>>>>>>>,,,,qqqq9999eeeeOOOO@@@@@@@@eeee9999",
"oooo@@@@%%%%oooo####>>>>>>>>,,,,qqqq9999eeeeOOOO@@@@@@@@eeee9999",
"oooo@@@@%%%%oooo####>>>>>>>>,,,,qqqq9999eeeeOOOO@@@@@@@@eeee9999",
"oooo@@@@%%%%oooo####>>>>>>>>,,,,qqqq9999eeeeOOOO@@@@@@@@eeee9999",
"@@@@++++@@@@OOOO@@@@,,,,>>>>::::qqqq99998888@@@@@@@@$$$$99990000",
"@@@@++++@@@@OOOO@@@@,,,,>>>>::::qqqq99998888@@@@@@@@$$$$99990000",
"@@@@++++@@@@OOOO@@@@,,,,>>>>::::qqqq99998888@@@@@@@@$$$$99990000",
"@@@@++++@@@@OOOO@@@@,,,,>>>>::::qqqq99998888@@@@@@@@$$$$99990000",
"$$$$++++00000000rrrrOOOO####$$$$@@@@@@@@####qqqq99997777>>>>::::",
"$$$$++++00000000rrrrOOOO####$$$$@@@@@@@@####qqqq99997777>>>>::::",
"$$$$++++00000000rrrrOOOO####$$$$@@@@@@@@####qqqq99997777>>>>::::",
"$$$$++++00000000rrrrOOOO####$$$$@@@@@@@@####qqqq99997777>>>>::::",
"OOOO@@@@888899999999@@@@####oooooooo########8888rrrrwwww2222::::",
"OOOO@@@@888899999999@@@@####oooooooo########8888rrrrwwww2222::::",
"OOOO@@@@888899999999@@@@####oooooooo########8888rrrrwwww2222::::",
"OOOO@@@@888899999999@@@@####oooooooo########8888rrrrwwww2222::::",
"$$$$$$$$99999999rrrr....$$$$####&&&&@@@@....777700008888;;;;,,,,",
"$$$$$$$$99999999rrrr....$$$$####&&&&@@@@....777700008888;;;;,,,,",
"$$$$$$$$99999999rrrr....$$$$####&&&&@@@@....777700008888;;;;,,,,",
"$$$$$$$$99999999rrrr....$$$$####&&&&@@@@....777700008888;;;;,,,,",
"88887777$$$$@@@@@@@@wwwwrrrr88886666wwwwyyyy++++****@@@@99998888",
"88887777$$$$@@@@@@@@wwwwrrrr88886666wwwwyyyy++++****@@@@99998888",
"88887777$$$$@@@@@@@@wwwwrrrr88886666wwwwyyyy++++****@@@@99998888",
"88887777$$$$@@@@@@@@wwwwrrrr88886666wwwwyyyy++++****@@@@99998888",
"rrrrwwwwOOOOOOOO++++888888889999000000000000OOOOOOOOOOOO0000eeee",
"rrrrwwwwOOOOOOOO++++888888889999000000000000OOOOOOOOOOOO0000eeee",
"rrrrwwwwOOOOOOOO++++888888889999000000000000OOOOOOOOOOOO0000eeee",
"rrrrwwwwOOOOOOOO++++888888889999000000000000OOOOOOOOOOOO0000eeee",
"7777wwwwoooo$$$$####wwww7777eeeeqqqq99990000$$$$@@@@$$$$00008888",
"7777wwwwoooo$$$$####wwww7777eeeeqqqq99990000$$$$@@@@$$$$00008888",
"7777wwwwoooo$$$$####wwww7777eeeeqqqq99990000$$$$@@@@$$$$00008888",
"7777wwwwoooo$$$$####wwww7777eeeeqqqq99990000$$$$@@@@$$$$00008888",
"++++++++0000wwwwwwww>>>>1111;;;;,,,,::::::::oooo&&&&****oooo@@@@",
"++++++++0000wwwwwwww>>>>1111;;;;,,,,::::::::oooo&&&&****oooo@@@@",
"++++++++0000wwwwwwww>>>>1111;;;;,,,,::::::::oooo&&&&****oooo@@@@",
"++++++++0000wwwwwwww>>>>1111;;;;,,,,::::::::oooo&&&&****oooo@@@@",
"$$$$$$$$666699998888----::::<<<<----,,,,1111$$$$OOOOXXXXOOOO&&&&",
"$$$$$$$$666699998888----::::<<<<----,,,,1111$$$$OOOOXXXXOOOO&&&&",
"$$$$$$$$666699998888----::::<<<<----,,,,1111$$$$OOOOXXXXOOOO&&&&",
"$$$$$$$$666699998888----::::<<<<----,,,,1111$$$$OOOOXXXXOOOO&&&&",
"    &&&&99997777eeee<<<<1111,,,,<<<<>>>>====####@@@@++++&&&&oooo",
"    &&&&99997777eeee<<<<1111,,,,<<<<>>>>====####@@@@++++&&&&oooo",
"    &&&&99997777eeee<<<<1111,,,,<<<<>>>>====####@@@@++++&&&&oooo",
"    &&&&99997777eeee<<<<1111,,,,<<<<>>>>====####@@@@++++&&&&oooo",
"rrrr9999@@@@$$$$oooowwww55559999++++$$$$&&&&oooo++++&&&&7777wwww",
"rrrr9999@@@@$$$$oooowwww55559999++++$$$$&&&&oooo++++&&&&7777wwww",
"rrrr9999@@@@$$$$oooowwww55559999++++$$$$&&&&oooo++++&&&&7777wwww",
"rrrr9999@@@@$$$$oooowwww55559999++++$$$$&&&&oooo++++&&&&7777wwww",
"8888qqqq****ooooOOOOeeeewwwwwwww####OOOO@@@@oooo$$$$%%%%88889999",
"8888qqqq****ooooOOOOeeeewwwwwwww####OOOO@@@@oooo$$$$%%%%88889999",
"8888qqqq****ooooOOOOeeeewwwwwwww####OOOO@@@@oooo$$$$%%%%88889999",
"8888qqqq****ooooOOOOeeeewwwwwwww####OOOO@@@@oooo$$$$%%%%88889999",
"qqqq9999oooo%%%%OOOO00006666qqqq####++++@@@@&&&&$$$$%%%%4444rrrr",
"qqqq9999oooo%%%%OOOO00006666qqqq####++++@@@@&&&&$$$$%%%%4444rrrr",
"qqqq9999oooo%%%%OOOO00006666qqqq####++++@@@@&&&&$$$$%%%%4444rrrr",
"qqqq9999oooo%%%%OOOO00006666qqqq####++++@@@@&&&&$$$$%%%%4444rrrr",
";;;;::::&&&&@@@@ooooOOOO$$$$$$$$++++++++####6666888877773333;;;;",
";;;;::::&&&&@@@@ooooOOOO$$$$$$$$++++++++####6666888877773333;;;;",
";;;;::::&&&&@@@@ooooOOOO$$$$$$$$++++++++####6666888877773333;;;;",
";;;;::::&&&&@@@@ooooOOOO$$$$$$$$++++++++####6666888877773333;;;;",
",,,,;;;;oooo$$$$OOOO$$$$####oooo@@@@$$$$++++tttt6666wwww>>>>;;;;",
",,,,;;;;oooo$$$$OOOO$$$$####oooo@@@@$$$$++++tttt6666wwww>>>>;;;;",
",,,,;;;;oooo$$$$OOOO$$$$####oooo@@@@$$$$++++tttt6666wwww>>>>;;;;",
",,,,;;;;oooo$$$$OOOO$$$$####oooo@@@@$$$$++++tttt6666wwww>>>>;;;;"
};
